<svg xmlns="http://www.w3.org/2000/svg" id="prefix__Google-Button" width="18" height="18" viewBox="0 0 18 18">
    <defs>
        <style>
            .prefix__cls-1{fill:#595ca9;fill-rule:evenodd}
        </style>
    </defs>
    <g id="prefix__btn_google_light_normal">
        <g id="prefix__logo_googleg_48dp">
            <path id="prefix__Shape" d="M17.64 9.2a10.347 10.347 0 0 0-.164-1.841H9v3.481h4.844a4.14 4.14 0 0 1-1.8 2.716v2.258h2.909A8.777 8.777 0 0 0 17.64 9.2z" class="prefix__cls-1"/>
            <path id="prefix__Shape-2" d="M9 18a8.592 8.592 0 0 0 5.956-2.181l-2.909-2.258a5.43 5.43 0 0 1-8.083-2.851H.957v2.332A9 9 0 0 0 9 18z" class="prefix__cls-1" data-name="Shape"/>
            <path id="prefix__Shape-3" d="M3.964 10.71a5.321 5.321 0 0 1 0-3.42V4.958H.957a9.011 9.011 0 0 0 0 8.084l3.007-2.332z" class="prefix__cls-1" data-name="Shape"/>
            <path id="prefix__Shape-4" d="M9 3.58a4.862 4.862 0 0 1 3.441 1.346l2.581-2.581A8.649 8.649 0 0 0 9 0 9 9 0 0 0 .957 4.958L3.964 7.29A5.364 5.364 0 0 1 9 3.58z" class="prefix__cls-1" data-name="Shape"/>
            <path id="prefix__Shape-5" d="M0 0h18v18H0z" data-name="Shape" style="fill:none;fill-rule:evenodd"/>
        </g>
    </g>
</svg>
