<?xml version="1.0" encoding="utf-8"?>
<!-- Generator: Adobe Illustrator 21.1.0, SVG Export Plug-In . SVG Version: 6.00 Build 0)  -->
<svg version="1.1" xmlns="http://www.w3.org/2000/svg" xmlns:xlink="http://www.w3.org/1999/xlink" x="0px" y="0px"
	 viewBox="0 0 50 50" style="enable-background:new 0 0 50 50;" xml:space="preserve">
<style type="text/css">
	.st0{display:none;}
	.st1{display:inline;}
	.st2{fill:none;stroke:#282827;stroke-miterlimit:10;}
	.st3{fill:#FFFFFF;}
	.st4{fill:#58595B;}
	.st5{fill:#231F20;}
	.st6{fill:url(#SVGID_1_);}
	.st7{fill:url(#SVGID_2_);}
	.st8{fill:#FFFFFF;stroke:#000000;stroke-width:0.5;stroke-miterlimit:10;}
	.st9{fill:#9597C7;}
	.st10{fill:#BBD538;}
	.st11{fill:url(#SVGID_3_);}
	.st12{fill:url(#SVGID_4_);}
	.st13{fill:url(#SVGID_5_);}
	.st14{display:inline;fill:#352E70;}
	.st15{display:inline;fill:#595CA8;}
	.st16{display:inline;fill:#A9AED3;}
	.st17{display:inline;fill:#CDDF77;}
	.st18{display:inline;fill:#BBD538;}
	.st19{fill:#595CA8;}
	.st20{fill:url(#SVGID_6_);}
	.st21{fill:url(#SVGID_7_);}
	.st22{fill:#515499;}
	.st23{fill:#494C8A;}
	.st24{fill:#41437B;}
	.st25{fill:#393B6B;}
	.st26{fill:#686AAF;}
	.st27{fill:#7779B7;}
	.st28{fill:#8688BF;}
	.st29{fill:none;stroke:#595CA8;stroke-width:9.4233;stroke-miterlimit:10;}
	.st30{fill:#BAD54D;}
	.st31{fill:none;stroke:#595CA8;stroke-width:7.2858;stroke-miterlimit:10;}
	.st32{fill:none;stroke:#BAD54D;stroke-width:6.2822;stroke-miterlimit:10;}
	.st33{fill:none;stroke:#595CA8;stroke-width:6.0983;stroke-miterlimit:10;}
	.st34{fill:none;stroke:#595CA8;stroke-width:4.715;stroke-miterlimit:10;}
	.st35{fill:url(#SVGID_8_);}
	.st36{fill:#AAC233;}
	.st37{fill:#9AAF2E;}
	.st38{fill:#899B29;}
	.st39{fill:#778824;}
	.st40{fill:#C1D84A;}
	.st41{fill:#C7DC5C;}
	.st42{fill:#CDE06E;}
	.st43{fill:#D3E480;}
	.st44{fill:url(#SVGID_9_);}
	.st45{fill:url(#SVGID_10_);}
	.st46{fill:#FFFFFF;stroke:#000000;stroke-width:0.4338;stroke-miterlimit:10;}
	.st47{fill:#FFD72E;}
	.st48{fill:#FFE02C;}
	.st49{fill:url(#SVGID_11_);}
	.st50{fill:url(#SVGID_12_);}
	.st51{fill:#E8C42A;}
	.st52{fill:#D1B026;}
	.st53{fill:#BA9D22;}
	.st54{fill:#A3891E;}
	.st55{fill:#FFDA41;}
	.st56{fill:#FFDE54;}
	.st57{fill:#FFE167;}
	.st58{fill:#FFE57A;}
</style>
<g id="B_x26_W" class="st0">
</g>
<g id="Monochrome" class="st0">
</g>
<g id="Green" class="st0">
</g>
<g id="Yellow" class="st0">
</g>
<g id="Final">
	<g>
		<path class="st19" d="M44.8,50H5.2C2.3,50,0,47.7,0,44.8V5.2C0,2.3,2.3,0,5.2,0h39.6C47.7,0,50,2.3,50,5.2v39.6
			C50,47.7,47.7,50,44.8,50z"/>
		<g>
			<path class="st10" d="M35.4,18.7c-0.3,0-0.6,0.1-0.7,0.4H24.2l-0.4,1.1l-2.1-9.7L19.4,21l-1.7-8.4l-2,6.5h-2.4v1.2h3.3l0.9-2.8
				l1.9,9.3l2.4-10.7l1.8,8.2l1.6-4.1h9.6c0.2,0.2,0.4,0.4,0.7,0.4c0.5,0,1-0.4,1-1S35.9,18.7,35.4,18.7z"/>
			<g>
				<g>
					<path class="st3" d="M29.4,8.8c0-1.8-1.5-3.3-3.3-3.3H25C24.7,5.2,24.3,5,23.9,5h-1.3c-0.8,0-1.5,0.7-1.5,1.5s0.7,1.5,1.5,1.5
						h1.3c0.5,0,0.9-0.2,1.2-0.6h1.2c0.8,0,1.4,0.6,1.4,1.4v9.4h1.8V8.8z"/>
					<circle class="st3" cx="20.4" cy="30.7" r="1.3"/>
					<path class="st3" d="M35.4,16.4c-1.3,0-2.4,0.7-2.9,1.8h1.8c0.3-0.3,0.7-0.4,1.1-0.4c1,0,1.8,0.8,1.8,1.8c0,1-0.8,1.8-1.8,1.8
						c-0.4,0-0.8-0.1-1.1-0.4h-1.8c0.4,0.8,1.1,1.4,2,1.7l0,15.1c0,0,0,2.1-1.5,3.6c-1.1,1.1-2.8,1.7-4.9,1.7
						c-2.8,0-4.7-0.8-5.8-2.5c-0.8-1.2-0.8-2.5-0.8-2.5v-3.6h4.8c1.8,0,3.3-1.5,3.3-3.3V21.1h-1.8v10.3c0,0.8-0.6,1.4-1.4,1.4H14.7
						c-0.8,0-1.4-0.6-1.4-1.4V8.8c0-0.8,0.6-1.4,1.4-1.4H16c0.3,0.3,0.7,0.6,1.2,0.6h1.3c0.8,0,1.5-0.7,1.5-1.5S19.3,5,18.5,5h-1.3
						c-0.5,0-0.9,0.2-1.2,0.6h-1.4c-1.8,0-3.3,1.5-3.3,3.3v22.6c0,1.8,1.5,3.3,3.3,3.3h4.8v3.6c0,0.1,0.1,6.8,8.5,6.8
						c2.7,0,4.8-0.8,6.3-2.2c2-2.1,2-4.8,2-4.9V22.7c1.3-0.4,2.3-1.6,2.3-3.1C38.6,17.9,37.1,16.4,35.4,16.4z"/>
				</g>
			</g>
		</g>
	</g>
</g>
</svg>
