<?xml version="1.0" encoding="utf-8"?>
<!-- Generator: Adobe Illustrator 21.1.0, SVG Export Plug-In . SVG Version: 6.00 Build 0)  -->
<svg version="1.1" xmlns="http://www.w3.org/2000/svg" xmlns:xlink="http://www.w3.org/1999/xlink" x="0px" y="0px"
	 viewBox="0 0 50 50" style="enable-background:new 0 0 50 50;" xml:space="preserve">
<style type="text/css">
	.st0{display:none;}
	.st1{display:inline;}
	.st2{fill:none;stroke:#282827;stroke-miterlimit:10;}
	.st3{fill:#FFFFFF;}
	.st4{fill:#58595B;}
	.st5{fill:#231F20;}
	.st6{fill:url(#SVGID_1_);}
	.st7{fill:url(#SVGID_2_);}
	.st8{fill:#FFFFFF;stroke:#000000;stroke-width:0.5;stroke-miterlimit:10;}
	.st9{fill:#9597C7;}
	.st10{fill:#BBD538;}
	.st11{fill:url(#SVGID_3_);}
	.st12{fill:url(#SVGID_4_);}
	.st13{fill:url(#SVGID_5_);}
	.st14{display:inline;fill:#352E70;}
	.st15{display:inline;fill:#595CA8;}
	.st16{display:inline;fill:#A9AED3;}
	.st17{display:inline;fill:#CDDF77;}
	.st18{display:inline;fill:#BBD538;}
	.st19{fill:#595CA8;}
	.st20{fill:url(#SVGID_6_);}
	.st21{fill:url(#SVGID_7_);}
	.st22{fill:#515499;}
	.st23{fill:#494C8A;}
	.st24{fill:#41437B;}
	.st25{fill:#393B6B;}
	.st26{fill:#686AAF;}
	.st27{fill:#7779B7;}
	.st28{fill:#8688BF;}
	.st29{fill:none;stroke:#595CA8;stroke-width:9.4233;stroke-miterlimit:10;}
	.st30{fill:#BAD54D;}
	.st31{fill:none;stroke:#595CA8;stroke-width:7.2858;stroke-miterlimit:10;}
	.st32{fill:none;stroke:#BAD54D;stroke-width:6.2822;stroke-miterlimit:10;}
	.st33{fill:none;stroke:#595CA8;stroke-width:6.0983;stroke-miterlimit:10;}
	.st34{fill:none;stroke:#595CA8;stroke-width:4.715;stroke-miterlimit:10;}
	.st35{fill:url(#SVGID_8_);}
	.st36{fill:#AAC233;}
	.st37{fill:#9AAF2E;}
	.st38{fill:#899B29;}
	.st39{fill:#778824;}
	.st40{fill:#C1D84A;}
	.st41{fill:#C7DC5C;}
	.st42{fill:#CDE06E;}
	.st43{fill:#D3E480;}
	.st44{fill:url(#SVGID_9_);}
	.st45{fill:url(#SVGID_10_);}
	.st46{fill:#FFFFFF;stroke:#000000;stroke-width:0.4338;stroke-miterlimit:10;}
	.st47{fill:#FFD72E;}
	.st48{fill:#FFE02C;}
	.st49{fill:url(#SVGID_11_);}
	.st50{fill:url(#SVGID_12_);}
	.st51{fill:#E8C42A;}
	.st52{fill:#D1B026;}
	.st53{fill:#BA9D22;}
	.st54{fill:#A3891E;}
	.st55{fill:#FFDA41;}
	.st56{fill:#FFDE54;}
	.st57{fill:#FFE167;}
	.st58{fill:#FFE57A;}
</style>
<g id="B_x26_W" class="st0">
</g>
<g id="Monochrome" class="st0">
</g>
<g id="Green" class="st0">
</g>
<g id="Yellow" class="st0">
</g>
<g id="Final">
	<g>
		<path class="st19" d="M44.8,50H5.2C2.3,50,0,47.7,0,44.8V5.2C0,2.3,2.3,0,5.2,0h39.6C47.7,0,50,2.3,50,5.2v39.6
			C50,47.7,47.7,50,44.8,50z"/>
		<g>
			<path class="st10" d="M11.6,9.2l0,2c0.5-0.7,1-1.3,1.7-1.7C14,9.1,14.8,9,15.6,9c2,0,3.2,0.8,3.7,2.4c0.4-0.8,1-1.4,1.8-1.8
				C21.8,9.2,22.7,9,23.6,9c2.7,0,4,1.4,4.1,4.3v8.3h-1.4v-8.1c0-1.1-0.2-1.9-0.7-2.5c-0.5-0.5-1.2-0.8-2.3-0.8c-1,0-1.8,0.3-2.5,1
				c-0.7,0.6-1.1,1.4-1.1,2.3v8.2h-1.4v-8.3c0-1.1-0.3-1.8-0.7-2.4c-0.5-0.5-1.2-0.8-2.3-0.8c-0.9,0-1.6,0.2-2.2,0.7
				c-0.6,0.5-1.1,1.2-1.4,2.2v8.5h-1.4V9.2H11.6z"/>
			<path class="st10" d="M35,19.6l3.6-10.4h1.5l-5.3,14.5l-0.3,0.6c-0.7,1.5-1.7,2.3-3.1,2.3c-0.3,0-0.7-0.1-1.1-0.2l0-1.1l0.7,0.1
				c0.7,0,1.2-0.2,1.6-0.5c0.4-0.3,0.8-0.9,1.1-1.7l0.6-1.7L29.7,9.2h1.5L35,19.6z"/>
			<path class="st3" d="M23.5,38.7c-0.6,0.7-1.5,1.3-2.6,1.7c-1.1,0.4-2.4,0.6-3.7,0.6c-1.4,0-2.7-0.3-3.8-0.9
				c-1.1-0.6-1.9-1.5-2.5-2.7c-0.6-1.2-0.9-2.6-0.9-4.2V32c0-1.7,0.3-3.1,0.8-4.3c0.6-1.2,1.4-2.1,2.4-2.8c1.1-0.6,2.3-1,3.7-1
				c2,0,3.5,0.5,4.6,1.4c1.1,0.9,1.8,2.3,2,4.1h-3.3c-0.2-1-0.5-1.6-1-2.1c-0.5-0.4-1.2-0.7-2.2-0.7c-1.2,0-2.1,0.4-2.7,1.3
				c-0.6,0.9-0.9,2.2-0.9,3.9V33c0,1.7,0.3,3.1,1,4c0.7,0.9,1.6,1.3,2.9,1.3c1.3,0,2.2-0.3,2.8-0.8v-2.9H17v-2.5h6.5V38.7z"/>
			<path class="st3" d="M40.1,35.3c-0.1,1.8-0.8,3.2-2,4.2c-1.2,1-2.8,1.5-4.7,1.5c-2.1,0-3.8-0.7-5-2.2c-1.2-1.4-1.8-3.4-1.8-5.9
				v-1c0-1.6,0.3-3,0.8-4.2c0.6-1.2,1.4-2.2,2.4-2.8c1-0.7,2.3-1,3.7-1c1.9,0,3.5,0.5,4.6,1.5c1.2,1,1.9,2.5,2,4.3h-3.4
				c-0.1-1.1-0.4-1.9-0.9-2.3c-0.5-0.5-1.3-0.7-2.3-0.7c-1.1,0-2,0.4-2.6,1.2c-0.6,0.8-0.9,2.1-0.9,3.8v1.3c0,1.8,0.3,3.1,0.8,3.9
				c0.5,0.8,1.4,1.2,2.6,1.2c1.1,0,1.8-0.2,2.4-0.7c0.5-0.5,0.8-1.2,0.9-2.2H40.1z"/>
		</g>
	</g>
</g>
</svg>
