<?xml version="1.0" encoding="utf-8"?>
<!-- Generator: Adobe Illustrator 21.1.0, SVG Export Plug-In . SVG Version: 6.00 Build 0)  -->
<svg version="1.1" xmlns="http://www.w3.org/2000/svg" xmlns:xlink="http://www.w3.org/1999/xlink" x="0px" y="0px"
	 viewBox="0 0 50 50" style="enable-background:new 0 0 50 50;" xml:space="preserve">
<style type="text/css">
	.st0{display:none;}
	.st1{display:inline;}
	.st2{fill:none;stroke:#282827;stroke-miterlimit:10;}
	.st3{fill:#FFFFFF;}
	.st4{fill:#58595B;}
	.st5{fill:#231F20;}
	.st6{fill:url(#SVGID_1_);}
	.st7{fill:url(#SVGID_2_);}
	.st8{fill:#FFFFFF;stroke:#000000;stroke-width:0.5;stroke-miterlimit:10;}
	.st9{fill:#9597C7;}
	.st10{fill:#BBD538;}
	.st11{fill:url(#SVGID_3_);}
	.st12{fill:url(#SVGID_4_);}
	.st13{fill:url(#SVGID_5_);}
	.st14{display:inline;fill:#352E70;}
	.st15{display:inline;fill:#595CA8;}
	.st16{display:inline;fill:#A9AED3;}
	.st17{display:inline;fill:#CDDF77;}
	.st18{display:inline;fill:#BBD538;}
	.st19{fill:#595CA8;}
	.st20{fill:url(#SVGID_6_);}
	.st21{fill:url(#SVGID_7_);}
	.st22{fill:#515499;}
	.st23{fill:#494C8A;}
	.st24{fill:#41437B;}
	.st25{fill:#393B6B;}
	.st26{fill:#686AAF;}
	.st27{fill:#7779B7;}
	.st28{fill:#8688BF;}
	.st29{fill:none;stroke:#595CA8;stroke-width:9.4233;stroke-miterlimit:10;}
	.st30{fill:#BAD54D;}
	.st31{fill:none;stroke:#595CA8;stroke-width:7.2858;stroke-miterlimit:10;}
	.st32{fill:none;stroke:#BAD54D;stroke-width:6.2822;stroke-miterlimit:10;}
	.st33{fill:none;stroke:#595CA8;stroke-width:6.0983;stroke-miterlimit:10;}
	.st34{fill:none;stroke:#595CA8;stroke-width:4.715;stroke-miterlimit:10;}
	.st35{fill:url(#SVGID_8_);}
	.st36{fill:#AAC233;}
	.st37{fill:#9AAF2E;}
	.st38{fill:#899B29;}
	.st39{fill:#778824;}
	.st40{fill:#C1D84A;}
	.st41{fill:#C7DC5C;}
	.st42{fill:#CDE06E;}
	.st43{fill:#D3E480;}
	.st44{fill:url(#SVGID_9_);}
	.st45{fill:url(#SVGID_10_);}
	.st46{fill:#FFFFFF;stroke:#000000;stroke-width:0.4338;stroke-miterlimit:10;}
	.st47{fill:#FFD72E;}
	.st48{fill:#FFE02C;}
	.st49{fill:url(#SVGID_11_);}
	.st50{fill:url(#SVGID_12_);}
	.st51{fill:#E8C42A;}
	.st52{fill:#D1B026;}
	.st53{fill:#BA9D22;}
	.st54{fill:#A3891E;}
	.st55{fill:#FFDA41;}
	.st56{fill:#FFDE54;}
	.st57{fill:#FFE167;}
	.st58{fill:#FFE57A;}
</style>
<g id="B_x26_W" class="st0">
</g>
<g id="Monochrome" class="st0">
</g>
<g id="Green" class="st0">
</g>
<g id="Yellow" class="st0">
</g>
<g id="Final">
	<g>
		<g>
			<path class="st37" d="M36.4,18c-0.3,0-0.6,0.2-0.8,0.4H24.1l-0.5,1.2L21.4,8.9l-2.6,11.7l-1.9-9.3l-2.2,7.2H12v1.3h3.6l0.9-3.1
				L18.7,27l2.6-11.8l1.9,9l1.8-4.5h10.6c0.2,0.2,0.5,0.4,0.8,0.4c0.6,0,1.1-0.5,1.1-1.1S37,18,36.4,18z"/>
			<g>
				<g>
					<path class="st19" d="M29.9,7.1c0-2-1.6-3.6-3.6-3.6H25c-0.3-0.4-0.8-0.6-1.3-0.6h-1.4c-0.9,0-1.6,0.7-1.6,1.6s0.7,1.6,1.6,1.6
						h1.4c0.5,0,1-0.2,1.3-0.6h1.3c0.9,0,1.6,0.7,1.6,1.6v10.4h2V7.1z"/>
					<circle class="st19" cx="19.9" cy="31.3" r="1.4"/>
					<path class="st19" d="M36.4,15.5c-1.4,0-2.6,0.8-3.2,2h2c0.3-0.3,0.8-0.4,1.3-0.4c1.1,0,2,0.9,2,2c0,1.1-0.9,2-2,2
						c-0.5,0-0.9-0.2-1.2-0.4h-2c0.4,0.9,1.2,1.5,2.2,1.8l0,16.7c0,0,0,2.3-1.7,4c-1.2,1.2-3.1,1.9-5.5,1.9c-3.1,0-5.2-0.9-6.4-2.7
						c-0.9-1.4-0.9-2.8-0.9-2.8v-3.9h5.3c2,0,3.6-1.6,3.6-3.6V20.7h-2V32c0,0.9-0.7,1.6-1.6,1.6H13.6c-0.9,0-1.6-0.7-1.6-1.6V7.1
						c0-0.9,0.7-1.6,1.6-1.6h1.5c0.3,0.4,0.8,0.6,1.3,0.6h1.4c0.9,0,1.6-0.7,1.6-1.6s-0.7-1.6-1.6-1.6h-1.4c-0.5,0-1,0.2-1.3,0.6
						h-1.5c-2,0-3.6,1.6-3.6,3.6V32c0,2,1.6,3.6,3.6,3.6h5.3v3.9c0,0.1,0.1,7.5,9.4,7.5c3,0,5.3-0.8,6.9-2.5
						c2.3-2.3,2.2-5.3,2.2-5.4V22.5c1.5-0.4,2.5-1.8,2.5-3.4C40,17.1,38.4,15.5,36.4,15.5z"/>
				</g>
			</g>
		</g>
	</g>
</g>
</svg>
