<svg width="150" height="40" viewBox="0 0 150 40" fill="none" xmlns="http://www.w3.org/2000/svg">
<path d="M33.8766 5.65315V24.5496C33.8766 25.8504 32.8174 26.9096 31.5166 26.9096H14.5025V34.6581H7.22876C5.92798 34.6581 4.86881 33.5989 4.86881 32.2981V8.0131C4.86881 6.71232 5.92798 5.65315 7.22876 5.65315H33.8766ZM38.7454 0.781533H7.22876C3.23651 0.781533 0 4.02085 0 8.0131V32.2981C0 36.2904 3.23651 39.5269 7.22876 39.5269H18.284C18.8852 39.5269 19.3713 39.0409 19.3713 38.4396V31.7784H31.5138C35.5061 31.7784 38.7426 28.5419 38.7426 24.5496V0.781533H38.7454ZM94.71 30.4888C95.0218 30.5956 95.3028 30.7473 95.5556 30.9468C95.8057 31.1463 96.022 31.3851 96.2046 31.6576C96.3872 31.9301 96.5305 32.242 96.6288 32.5903C96.7272 32.9387 96.7777 33.3039 96.7777 33.6944C96.7777 34.1861 96.6991 34.6412 96.5446 35.057C96.39 35.4728 96.1737 35.824 95.9012 36.1106C95.6287 36.3972 95.3 36.6219 94.9179 36.7792C94.5358 36.9394 94.1228 37.018 93.6789 37.018C92.867 37.018 92.232 36.7399 91.7713 36.1836H91.746V39.5269H90.0125V30.4383H91.746V31.1828H91.7713C92.2545 30.6125 92.9063 30.3287 93.7323 30.3287C94.0722 30.3287 94.3981 30.3821 94.7128 30.486M94.5583 34.9728C94.8673 34.644 95.0218 34.2198 95.0218 33.6973C95.0218 33.1747 94.8645 32.7168 94.5498 32.3852C94.2352 32.0537 93.8418 31.888 93.367 31.888C93.1198 31.888 92.8951 31.9357 92.6843 32.0284C92.4764 32.1211 92.2966 32.2476 92.1506 32.4077C91.9994 32.5757 91.8821 32.7713 91.805 32.9837C91.7207 33.2084 91.6786 33.4472 91.6786 33.7029C91.6786 34.0484 91.7516 34.3575 91.9005 34.6272C92.0494 34.8997 92.2517 35.1076 92.5073 35.2509C92.763 35.3942 93.0496 35.4672 93.3642 35.4672C93.8503 35.4672 94.2492 35.3043 94.5583 34.9756M104.535 30.4383V36.9085H102.886V36.1246H102.852C102.391 36.7202 101.745 37.018 100.919 37.018C100.475 37.018 100.062 36.9394 99.6799 36.7792C99.2978 36.6191 98.9691 36.3972 98.6966 36.1106C98.4241 35.824 98.2078 35.4728 98.0532 35.057C97.8987 34.6412 97.8201 34.1861 97.8201 33.6944C97.8201 33.2028 97.8987 32.7617 98.0532 32.3431C98.2078 31.9245 98.4213 31.5677 98.691 31.2755C98.9607 30.9833 99.2838 30.7501 99.6603 30.5844C100.037 30.4158 100.438 30.3315 100.866 30.3315C101.655 30.3315 102.29 30.6125 102.773 31.1715H102.798V30.4411H104.532L104.535 30.4383ZM102.399 34.9728C102.714 34.644 102.871 34.2198 102.871 33.6973C102.871 33.1747 102.717 32.7477 102.408 32.4049C102.099 32.0593 101.711 31.888 101.239 31.888C100.767 31.888 100.368 32.0537 100.054 32.3852C99.7361 32.7168 99.5788 33.155 99.5788 33.6973C99.5788 34.2395 99.7333 34.644 100.042 34.9728C100.351 35.3015 100.748 35.4644 101.236 35.4644C101.697 35.4644 102.085 35.3015 102.399 34.9728ZM112.275 30.4383L108.785 39.5269H107.015L108.165 36.5067L105.577 30.4383H107.389L108.974 34.4446H108.993L110.474 30.4383H112.275ZM122.94 31.0198C123.338 31.4806 123.538 32.1914 123.538 33.1494V36.9141H121.804V33.568C121.804 32.447 121.428 31.8851 120.672 31.8851C120.425 31.8851 120.203 31.9526 120.006 32.0846C119.807 32.2195 119.65 32.4218 119.532 32.6971C119.414 32.9696 119.355 33.2955 119.355 33.672V36.9141H117.621V33.568C117.621 32.447 117.239 31.8851 116.475 31.8851C116.211 31.8851 115.978 31.9526 115.775 32.0846C115.573 32.2195 115.41 32.4218 115.289 32.6971C115.169 32.9696 115.11 33.2955 115.11 33.672V36.9057H113.376V30.4355H115.11V31.2895H115.129C115.385 30.9805 115.68 30.7417 116.017 30.5759C116.354 30.4102 116.702 30.3259 117.065 30.3259C117.967 30.3259 118.607 30.6743 118.987 31.3682H119.006C119.27 31.0311 119.593 30.7754 119.981 30.5956C120.366 30.4158 120.793 30.3259 121.259 30.3259C121.984 30.3259 122.546 30.5563 122.945 31.017M131.185 34.2367H126.651C126.755 34.6216 126.951 34.9222 127.244 35.1413C127.536 35.3605 127.887 35.4728 128.3 35.4785C128.926 35.4813 129.441 35.2397 129.845 34.748L130.972 35.7959C130.68 36.1668 130.295 36.4646 129.82 36.6865C129.345 36.9085 128.797 37.0209 128.176 37.0209C127.555 37.0209 126.98 36.8832 126.474 36.6107C125.968 36.3382 125.572 35.9448 125.28 35.4307C124.988 34.9166 124.844 34.3322 124.844 33.672C124.844 33.1887 124.926 32.7392 125.092 32.3234C125.255 31.9076 125.479 31.5536 125.76 31.2614C126.041 30.9693 126.381 30.7417 126.78 30.5787C127.176 30.4158 127.6 30.3315 128.056 30.3315C128.682 30.3315 129.236 30.472 129.719 30.7557C130.195 31.032 130.583 31.4384 130.837 31.9273C131.101 32.4246 131.23 32.9893 131.23 33.6186C131.23 33.9248 131.216 34.1327 131.185 34.2395M127.19 32.1492C126.935 32.3431 126.755 32.624 126.656 32.9893H129.508C129.418 32.6353 129.252 32.3599 129.016 32.1577C128.78 31.9582 128.477 31.8571 128.112 31.8571C127.747 31.8571 127.446 31.9554 127.19 32.1492ZM137.4 30.4804C137.678 30.5816 137.922 30.7389 138.136 30.9496C138.349 31.1603 138.512 31.4469 138.625 31.8037C138.737 32.1605 138.793 32.5847 138.793 33.0707V36.9141H137.06V33.5062C137.06 32.9106 136.959 32.492 136.756 32.2504C136.554 32.0088 136.242 31.888 135.818 31.888C135.369 31.888 135.012 32.0425 134.748 32.3459C134.484 32.6521 134.349 33.0876 134.349 33.6523V36.9057H132.615V30.4355H134.349V31.2699H134.368C134.624 30.9692 134.944 30.7293 135.304 30.5675C135.664 30.4046 136.046 30.3259 136.445 30.3259C136.801 30.3259 137.122 30.3765 137.4 30.4776M141.114 36.4702C140.785 36.105 140.619 35.5712 140.619 34.8632V31.8739H139.855V30.4383H140.619V28.3227L142.353 28.1345V30.4383H144.112V31.8739H142.353V34.6244C142.353 34.9081 142.398 35.1188 142.485 35.2509C142.572 35.3857 142.718 35.4504 142.92 35.4504C143.17 35.4504 143.443 35.3745 143.735 35.2228L144.182 36.6079C143.935 36.7427 143.687 36.8439 143.437 36.9113C143.187 36.9815 142.864 37.0152 142.468 37.0152C141.895 37.0152 141.443 36.8326 141.114 36.4674M144.87 36.0684L145.71 34.8716C146.25 35.3773 146.848 35.6274 147.503 35.6274C147.747 35.6274 147.944 35.5768 148.084 35.4785C148.228 35.3801 148.298 35.2509 148.298 35.0908C148.298 34.9924 148.256 34.9053 148.169 34.8295C148.081 34.7536 147.963 34.6834 147.809 34.6188C147.654 34.5541 147.427 34.4727 147.121 34.3715C146.927 34.3069 146.753 34.2423 146.601 34.1777C146.446 34.1131 146.292 34.0372 146.132 33.9473C145.972 33.8602 145.834 33.7619 145.721 33.6523C145.606 33.5455 145.502 33.4247 145.41 33.2899C145.317 33.1578 145.247 33.0033 145.199 32.8319C145.151 32.6606 145.129 32.4723 145.129 32.27C145.129 31.8851 145.23 31.548 145.435 31.2502C145.64 30.9552 145.918 30.7276 146.269 30.5675C146.621 30.4074 147.017 30.3287 147.455 30.3287C147.893 30.3287 148.323 30.3933 148.702 30.5226C149.082 30.6518 149.455 30.8597 149.82 31.1434L148.98 32.4105C148.739 32.183 148.483 32.0116 148.213 31.8964C147.944 31.7812 147.685 31.725 147.435 31.725C147.272 31.725 147.126 31.7672 146.994 31.8514C146.865 31.9357 146.8 32.0565 146.8 32.211C146.8 32.3403 146.876 32.4555 147.031 32.5594C147.185 32.6634 147.43 32.7786 147.772 32.9078C148.489 33.1719 148.966 33.3798 149.208 33.5343C149.627 33.7928 149.877 34.1383 149.958 34.5682C149.983 34.6974 149.997 34.8407 149.997 35.0009C149.997 35.5993 149.784 36.0853 149.354 36.4562C148.924 36.827 148.303 37.0124 147.489 37.0124C146.463 37.0124 145.589 36.695 144.867 36.06M61.7043 8.14234C62.5722 8.43059 63.3818 8.87106 64.0952 9.44312C64.8088 10.0163 65.4297 10.6961 65.9382 11.4603C66.4748 12.2723 66.8794 13.1629 67.1379 14.0984C67.4216 15.1154 67.5621 16.1662 67.5537 17.2225C67.5677 18.5374 67.3458 19.8438 66.899 21.0827C66.5027 22.1928 65.882 23.2094 65.0757 24.0692C64.2891 24.8896 63.3395 25.5358 62.2887 25.9656C61.1758 26.4231 59.9829 26.6543 58.7797 26.6455C56.4844 26.6455 54.6807 25.8588 53.3687 24.2827H53.2956V29.3679C53.2956 30.6715 52.2392 31.7278 50.9357 31.7278H48.3762V8.00467H53.2956V10.1118H53.3687C54.7369 8.49914 56.5883 7.69282 58.923 7.69282C59.867 7.6872 60.8081 7.84172 61.7043 8.14234ZM61.2661 20.8524C62.1398 19.9224 62.5781 18.72 62.5781 17.245C62.5781 15.77 62.1314 14.4664 61.238 13.5253C60.8111 13.0651 60.2912 12.7009 59.7129 12.4567C59.1346 12.2126 58.511 12.0942 57.8835 12.1093C57.2176 12.1037 56.5602 12.2357 55.9506 12.5026C55.3774 12.7527 54.8633 13.1179 54.4391 13.5758C54.0066 14.0496 53.6724 14.6044 53.4557 15.2081C53.2141 15.8571 53.0933 16.5483 53.0989 17.2422C53.0821 18.1553 53.2984 19.0599 53.7311 19.8662C54.1244 20.6079 54.7228 21.2204 55.4533 21.6362C56.195 22.0492 57.035 22.2599 57.8835 22.2487C59.2657 22.2487 60.3923 21.7851 61.2661 20.8552V20.8524ZM87.7593 18.7621H74.9117C75.1589 19.7848 75.7517 20.6922 76.5889 21.33C77.4121 21.9537 78.4122 22.2712 79.5838 22.2824C80.7469 22.2908 81.7752 21.9958 82.6714 21.3974C83.5592 20.8046 84.7476 20.9423 85.5314 21.6671L87.1553 23.1786C86.2808 24.2629 85.1635 25.1262 83.8935 25.6987C82.5506 26.328 80.997 26.6427 79.2382 26.6427C77.5582 26.668 75.9006 26.2662 74.4172 25.4796C72.9943 24.71 71.8207 23.5501 71.0346 22.1363C70.2114 20.681 69.7984 19.0206 69.7956 17.1523C69.7844 15.8459 70.0204 14.5507 70.4924 13.3314C70.9166 12.2133 71.5628 11.1906 72.3887 10.3253C73.2063 9.48807 74.1896 8.83066 75.2769 8.39238C76.4203 7.9232 77.6481 7.6872 78.8842 7.69563C80.6542 7.69563 82.2247 8.09458 83.5929 8.89528C84.944 9.67741 86.0443 10.8283 86.7648 12.2133C87.5267 13.6944 87.9108 15.3408 87.883 17.0062C87.883 17.8743 87.8408 18.4615 87.7593 18.7649M76.44 12.8398C75.7123 13.3848 75.2095 14.1799 74.9285 15.2222H83.0114C82.7557 14.2192 82.2921 13.4354 81.6179 12.8679C80.9436 12.3004 80.0895 12.0166 79.0528 12.0194C78.1144 11.9941 77.1957 12.2835 76.44 12.8398ZM109.03 8.00467V26.3336H106.58C105.355 26.3336 104.36 25.3419 104.36 24.117H104.273C102.961 25.8055 101.135 26.6483 98.7921 26.6455C97.5897 26.6567 96.3957 26.4264 95.2831 25.9656C94.2317 25.5353 93.2823 24.8893 92.4961 24.0692C91.689 23.209 91.0666 22.1926 90.6672 21.0827C89.7878 18.595 89.7878 15.881 90.6672 13.3932C91.0661 12.2779 91.6786 11.2496 92.4708 10.3674C93.2406 9.52741 94.1762 8.85875 95.2185 8.40081C96.2945 7.9232 97.4604 7.67878 98.6376 7.6872C100.874 7.6872 102.675 8.48228 104.049 10.0696H104.122V8.00467H109.03ZM102.981 20.8524C103.872 19.9224 104.318 18.72 104.318 17.245C104.318 15.77 103.88 14.5479 103.006 13.5815C102.597 13.108 102.088 12.7309 101.516 12.4773C100.944 12.2238 100.322 12.1 99.6968 12.1149C98.4269 12.084 97.202 12.5982 96.3338 13.5253C95.4376 14.4664 94.9881 15.7054 94.9881 17.245C94.9881 18.7846 95.4264 19.9252 96.3001 20.8524C97.1739 21.7767 98.3005 22.2431 99.6827 22.2459C100.933 22.2712 102.133 21.7654 102.987 20.8524H102.981ZM116.68 25.4599C115.265 24.6853 114.099 23.525 113.317 22.1138C112.505 20.6726 112.098 19.029 112.098 17.1832C112.098 15.3374 112.508 13.6882 113.326 12.2329C114.123 10.8113 115.315 9.64821 116.753 8.87842C118.22 8.08615 119.888 7.6872 121.757 7.6872C123.251 7.6872 124.732 7.99344 126.1 8.59466C127.446 9.16603 128.629 10.0629 129.542 11.2047L126.224 14.0647C125.707 13.4353 125.054 12.9313 124.315 12.5907C123.575 12.25 122.768 12.0816 121.953 12.0981C121.271 12.0896 120.591 12.2189 119.956 12.4745C119.371 12.7077 118.843 13.0589 118.408 13.5112C117.972 13.9688 117.638 14.5124 117.425 15.107C117.189 15.7588 117.071 16.4471 117.076 17.1411C117.076 18.6441 117.531 19.8634 118.439 20.8074C119.349 21.7486 120.532 22.2206 121.987 22.2178C123.06 22.2346 124.105 21.9453 125.004 21.3974C125.861 20.8748 126.968 21.0181 127.721 21.6812L129.612 23.3472C128.769 24.3305 127.648 25.1256 126.249 25.7296C124.75 26.3589 123.138 26.6708 121.512 26.6455C119.827 26.6708 118.161 26.2606 116.677 25.4599M145.977 8.10582C147.688 8.66771 149.009 10.0415 149.506 11.7722C149.857 12.9212 150.023 14.1181 149.997 15.3205V26.3533H145.067V16.5623C145.067 14.9384 144.777 13.7894 144.196 13.1207C143.614 12.4493 142.715 12.1149 141.49 12.1093C140.145 12.1093 139.094 12.5279 138.338 13.3651C137.58 14.2024 137.203 15.4273 137.203 17.0399V26.3308H132.284V0.722534H134.843C136.147 0.722534 137.203 1.77889 137.203 3.08249V10.2213H137.276C138.007 9.40098 138.911 8.7548 139.923 8.33338C141.853 7.56631 143.988 7.48499 145.972 8.10301H145.977V8.10582Z" fill="#EC5228"/>
</svg>
