<svg xmlns="http://www.w3.org/2000/svg" width="360.304" height="239.005" viewBox="0 0 360.304 239.005">
    <defs>
        <style>
            .cls-1{fill:#263238}.cls-2{fill:#e0e0e0}.cls-4{fill:none;stroke:#e0e0e0;stroke-linecap:round;stroke-linejoin:round;stroke-width:3px}.cls-6{fill:#455a64}.cls-7{fill:#fafafa}.cls-8{fill:#d3e480}.cls-9{fill:#595ca9}.cls-10{fill:#b78876}.cls-11{fill:#aa6550}.cls-12{opacity:.3}
        </style>
    </defs>
    <g id="Calendar" transform="translate(3 8.243)">
        <g id="freepik--Floor--inject-61" transform="translate(-3 226.745)">
            <path id="Path_1701" d="M357.3 196.936c0 .118-80.684.236-180.152.236S-3 197.054-3 196.936s80.684-.236 180.152-.236 180.148.118 180.148.236z" class="cls-1" data-name="Path 1701" transform="translate(3 -196.7)"/>
        </g>
        <g id="freepik--Calendar--inject-65" transform="translate(19.855 31)">
            <path id="Path_1702" d="M19.009 61.79S7.9 182.166 31.058 220.8l206.614 2.481S203.413 118.966 206.367 58.6z" class="cls-2" data-name="Path 1702" transform="translate(-16.347 -25.995)"/>
            <path id="Path_1703" fill="#ebebeb" d="M18.907 61.3S5.795 185.457 46.669 211.919H245.84s-35.322-60.6-38.157-150.619z" data-name="Path 1703" transform="translate(-16.246 -25.506)"/>
            <path id="Rectangle_2138" d="M0 0H193.737V31.069H0z" class="cls-1" data-name="Rectangle 2138" transform="translate(1.717 6.734)"/>
            <path id="Path_1704" d="M32.4 37.97S34.408 31 41.5 31c6.025 0 9.1 4.843 9.1 9.332s-2.717 9.214-9.1 9.569" class="cls-4" data-name="Path 1704" transform="translate(-13.436 -31)"/>
            <path id="Rectangle_2139" d="M0 0H9.569V4.253H0z" class="cls-1" data-name="Rectangle 2139" transform="translate(16.129 6.615)"/>
            <path id="Path_1705" d="M63.6 37.97S65.608 31 72.7 31c6.025 0 9.1 4.843 9.1 9.332s-2.717 9.214-9.1 9.569" class="cls-4" data-name="Path 1705" transform="translate(-7.779 -31)"/>
            <path id="Rectangle_2140" d="M0 0H9.569V4.253H0z" class="cls-1" data-name="Rectangle 2140" transform="translate(52.868 6.615)"/>
            <path id="Path_1706" d="M94.7 37.97S96.708 31 103.8 31c6.025 0 9.1 4.843 9.1 9.332s-2.717 9.214-9.1 9.569" class="cls-4" data-name="Path 1706" transform="translate(-2.14 -31)"/>
            <path id="Rectangle_2141" d="M0 0H9.569V4.253H0z" class="cls-1" data-name="Rectangle 2141" transform="translate(89.725 6.615)"/>
            <path id="Path_1707" d="M125.9 37.97S127.908 31 135 31c6.025 0 9.1 4.843 9.1 9.332s-2.717 9.214-9.1 9.569" class="cls-4" data-name="Path 1707" transform="translate(3.518 -31)"/>
            <path id="Rectangle_2142" d="M0 0H9.569V4.253H0z" class="cls-1" data-name="Rectangle 2142" transform="translate(126.464 6.615)"/>
            <path id="Path_1708" d="M157 37.97s2.008-6.97 9.1-6.97c6.025 0 9.1 4.843 9.1 9.332s-2.717 9.214-9.1 9.569" class="cls-4" data-name="Path 1708" transform="translate(9.157 -31)"/>
            <path id="Rectangle_2143" d="M0 0H9.569V4.253H0z" class="cls-1" data-name="Rectangle 2143" transform="translate(163.322 6.615)"/>
            <path id="Path_1709" fill="#f5f5f5" d="M17.8 64s-2.124 138.333 42.648 138.333l184.168.118s-26.343-26.816-34.14-138.333z" data-name="Path 1709" transform="translate(-16.086 -25.016)"/>
            <path id="Path_1710" d="M215.76 183.155a16 16 0 0 0-.709-1.89c-.473-1.181-1.063-3.071-1.89-5.552-1.654-4.843-3.9-12.049-6.615-21.264a625 625 0 0 1-16.657-78.794l.118.118H32.3l.118-.236c2.835 19.964 5.67 39.574 10.4 57.767a199.826 199.826 0 0 0 8.506 26.225 144.13 144.13 0 0 0 11.7 23.39l-.124-.119 152.863.354-152.745.118H62.9v-.118a144.128 144.128 0 0 1-11.7-23.39 207.387 207.387 0 0 1-8.5-26.343c-4.725-18.311-7.56-37.8-10.4-57.885V75.3h157.943v.118a650.578 650.578 0 0 0 16.539 78.794c2.6 9.214 4.843 16.42 6.5 21.264s2.359 7.443 2.478 7.679z" class="cls-1" data-name="Path 1710" transform="translate(-13.454 -22.967)"/>
            <path id="Path_1711" d="M197.716 121.118c0 .118-35.2.118-78.558.118s-78.558-.118-78.558-.118c0-.118 35.2-.118 78.558-.118s78.558 0 78.558.118z" class="cls-1" data-name="Path 1711" transform="translate(-11.949 -14.681)"/>
            <path id="Path_1712" d="M204.816 145.418c0 .118-35.2.118-78.558.118s-78.558-.118-78.558-.118c0-.118 35.2-.118 78.558-.118s78.558 0 78.558.118z" class="cls-1" data-name="Path 1712" transform="translate(-10.662 -10.275)"/>
            <path id="Path_1713" d="M193.216 97.618c0 .118-35.2.118-78.558.118S36.1 97.618 36.1 97.618s35.2-.118 78.558-.118 78.558.118 78.558.118z" class="cls-1" data-name="Path 1713" transform="translate(-12.765 -18.942)"/>
            <path id="Path_1714" d="M83.835 183.1a.366.366 0 0 0-.118-.236 7.526 7.526 0 0 1-.236-.827c-.236-.709-.591-1.772-.945-3.071-.827-2.717-2.008-6.5-3.426-11.341-2.835-9.569-6.5-22.918-10.159-37.8-1.772-7.442-3.426-14.53-4.725-21.028-1.418-6.5-2.481-12.286-3.426-17.247-.473-2.481-.827-4.725-1.181-6.615-.354-2.008-.591-3.662-.827-5.08s-.354-2.481-.473-3.19c0-.354-.118-.591-.118-.827V75.6c0 .118 0 .236.118.236 0 .236.118.473.118.827l.591 3.19c.236 1.418.473 3.071.827 5.08s.709 4.135 1.181 6.615c.945 4.962 2.126 10.75 3.426 17.247s2.953 13.585 4.725 21.028c3.544 14.885 7.324 28.116 10.041 37.8 1.418 4.843 2.481 8.742 3.308 11.341.354 1.3.709 2.363.945 3.071l.236.827z" class="cls-1" data-name="Path 1714" transform="translate(-8.758 -22.913)"/>
            <path id="Path_1715" d="M109.635 183.1a.366.366 0 0 0-.118-.236l-.236-.827-.945-3.071c-.827-2.717-2.008-6.5-3.308-11.341-2.717-9.569-6.5-22.918-10.159-37.8s-6.5-28.352-8.269-38.275c-.473-2.481-.827-4.725-1.181-6.615-.354-2.008-.591-3.662-.827-5.08s-.354-2.481-.473-3.19c0-.354-.118-.591-.118-.827V75.6a.366.366 0 0 0 .118.236l.118.827c.118.709.354 1.772.473 3.19.236 1.418.473 3.071.827 5.08s.709 4.135 1.181 6.615c1.772 9.805 4.725 23.39 8.387 38.157 3.662 14.885 7.324 28.116 10.041 37.8l3.308 11.341c.354 1.3.709 2.363.827 3.071l.236.827a.914.914 0 0 1 .118.356z" class="cls-1" data-name="Path 1715" transform="translate(-4.08 -22.913)"/>
            <path id="Path_1716" d="M136.617 183.082c0-.118-.118-.118-.118-.236a7.525 7.525 0 0 1-.236-.827l-.945-3.071c-.827-2.717-2.008-6.5-3.426-11.341-2.835-9.569-6.734-22.918-10.4-37.684-3.662-14.885-6.5-28.352-8.151-38.275-.354-2.481-.827-4.725-1.063-6.615-.236-2.008-.591-3.662-.709-5.08s-.354-2.481-.354-3.19c0-.354-.118-.591-.118-.827l.118.827c.118.709.236 1.772.473 3.19s.473 3.071.709 5.08c.354 2.008.709 4.253 1.063 6.615 1.654 9.923 4.489 23.39 8.151 38.275 3.662 14.767 7.56 28.115 10.278 37.684 1.418 4.843 2.6 8.624 3.426 11.341.354 1.3.709 2.363.945 3.071a7.525 7.525 0 0 0 .236.827c.004.236.121.236.121.236z" class="cls-1" data-name="Path 1716" transform="translate(.834 -22.895)"/>
            <path id="Path_1717" d="M163.535 183.119c0-.118-.118-.118-.118-.236l-.236-.827c-.236-.709-.591-1.772-1.063-3.071-.827-2.717-2.126-6.5-3.544-11.341-2.953-9.569-6.97-22.8-10.75-37.684-1.89-7.442-3.544-14.53-4.843-21.028-.709-3.19-1.3-6.379-1.772-9.214l-.709-4.253c-.236-1.3-.473-2.6-.591-3.9C138.373 81.643 137.9 75.5 137.9 75.5v.236c0 .236.118.473.118.827q.177 1.063.354 3.19c.118 1.418.354 3.071.591 5.08s.591 4.253.945 6.734c.236 1.181.354 2.481.591 3.9q.354 1.949.709 4.253c.591 2.835 1.181 6.025 1.89 9.214 1.3 6.5 2.953 13.585 4.962 21.028 3.78 14.767 7.679 28.116 10.632 37.684l3.544 11.341c.354 1.3.709 2.363.945 3.071a3 3 0 0 1 .236.827c0 .234.118.234.118.234z" class="cls-1" data-name="Path 1717" transform="translate(5.694 -22.931)"/>
            <path id="Path_1718" d="M62.373 85.561s1.3 12.995 6.5 21.146h30.475s-7.442-13.231-8.387-22.327l-.591-5.08H61.9z" class="cls-6" data-name="Path 1718" transform="translate(-8.087 -22.242)"/>
            <path id="Path_1719" d="M86.674 86.618c0 .118-4.371.118-9.687.118s-9.687-.118-9.687-.118c0-.118 4.371-.118 9.687-.118s9.687 0 9.687.118z" class="cls-7" data-name="Path 1719" transform="translate(-7.108 -20.937)"/>
            <path id="Path_1720" d="M87.474 89.426c0 .118-4.371.118-9.687.118s-9.687-.118-9.687-.118 4.371-.118 9.687-.118a85.207 85.207 0 0 1 9.687.118z" class="cls-7" data-name="Path 1720" transform="translate(-6.963 -20.436)"/>
            <path id="Path_1721" d="M88.274 92.218c0 .118-4.371.118-9.687.118s-9.687-.118-9.687-.118 4.371-.118 9.687-.118 9.687 0 9.687.118z" class="cls-7" data-name="Path 1721" transform="translate(-6.818 -19.921)"/>
            <path id="Path_1722" d="M89.174 95.018c0 .118-4.371.118-9.687.118s-9.687-.118-9.687-.118c0-.118 4.371-.118 9.687-.118s9.687 0 9.687.118z" class="cls-7" data-name="Path 1722" transform="translate(-6.655 -19.413)"/>
            <path id="Path_1723" d="M150.991 112.879s1.3 12.995 6.5 21.146h30.478s-7.442-13.231-8.387-22.327l-.709-5.2H150.4z" class="cls-1" data-name="Path 1723" transform="translate(7.96 -17.31)"/>
            <path id="Path_1724" d="M175.274 113.218c0 .118-4.371.118-9.687.118s-9.687-.118-9.687-.118c0-.118 4.371-.118 9.687-.118s9.687.118 9.687.118z" class="cls-2" data-name="Path 1724" transform="translate(8.957 -16.113)"/>
            <path id="Path_1725" d="M176.074 116.018c0 .118-4.371.118-9.687.118s-9.687-.118-9.687-.118c0-.118 4.371-.118 9.687-.118s9.687 0 9.687.118z" class="cls-2" data-name="Path 1725" transform="translate(9.102 -15.606)"/>
            <path id="Path_1726" d="M176.874 118.818c0 .118-4.371.118-9.687.118s-9.687-.118-9.687-.118c0-.118 4.371-.118 9.687-.118s9.687.118 9.687.118z" class="cls-2" data-name="Path 1726" transform="translate(9.248 -15.098)"/>
            <path id="Path_1727" d="M177.674 121.618c0 .118-4.371.118-9.687.118s-9.687-.118-9.687-.118 4.371-.118 9.687-.118 9.687 0 9.687.118z" class="cls-2" data-name="Path 1727" transform="translate(9.393 -14.59)"/>
            <path id="Path_1728" d="M137.464 77.7c.354.236-3.662 5.552-9.569 10.986s-11.577 8.978-11.7 8.624 4.843-4.371 10.75-9.687c5.794-5.551 10.165-10.158 10.519-9.923z" class="cls-8" data-name="Path 1728" transform="translate(1.759 -22.534)"/>
            <path id="Path_1729" d="M143.67 97.7c-.236.354-6.852-4.017-15.121-9.332-8.149-5.321-14.884-9.692-14.649-10.168.236-.354 7.206 3.426 15.475 8.742 8.271 5.437 14.532 10.399 14.295 10.758z" class="cls-8" data-name="Path 1729" transform="translate(1.341 -22.445)"/>
            <path id="Path_1730" d="M90.4 95c-.236-.354 4.135-4.135 9.8-8.387s10.514-7.56 10.75-7.206-4.135 4.135-9.8 8.387S90.638 95.352 90.4 95z" class="cls-8" data-name="Path 1730" transform="translate(-2.921 -22.228)"/>
            <path id="Path_1731" d="M114.917 96.852c-.236.354-6.143-3.78-13.467-8.506-7.442-4.725-13.585-8.387-13.35-8.746s6.734 2.6 14.176 7.442c7.443 4.73 12.877 9.458 12.641 9.81z" class="cls-8" data-name="Path 1731" transform="translate(-3.337 -22.192)"/>
            <path id="Path_1732" d="M115.608 119.8a7.786 7.786 0 0 1 1.063-.236 13.619 13.619 0 0 1 3.071.354 15.1 15.1 0 0 1 4.489 1.89 13.221 13.221 0 0 1 4.489 4.725 15.843 15.843 0 0 1 2.008 7.679 14.673 14.673 0 0 1-.591 4.489 20.381 20.381 0 0 1-1.89 4.371 17.978 17.978 0 0 1-18.311 8.033 18.9 18.9 0 0 1-9.687-4.843 15.718 15.718 0 0 1-4.607-8.978 17.085 17.085 0 0 1 .827-9.1 14.844 14.844 0 0 1 4.725-6.379 16.088 16.088 0 0 1 5.907-2.835 11.382 11.382 0 0 1 4.843-.354 2.6 2.6 0 0 1 .945.118c.236 0 .591.118.827.118.473.118.945.236 1.3.354a2.586 2.586 0 0 1 .945.473c0 .118-1.418-.354-4.016-.473a15.594 15.594 0 0 0-4.607.709 14.43 14.43 0 0 0-5.316 2.835 13.133 13.133 0 0 0-4.135 5.907 15.773 15.773 0 0 0 3.662 16.3 17.1 17.1 0 0 0 8.742 4.371 16.078 16.078 0 0 0 9.687-1.181 16.888 16.888 0 0 0 6.97-5.907 11.676 11.676 0 0 0 1.772-3.9 15 15 0 0 0 .591-4.016 14.122 14.122 0 0 0-1.654-6.97 13.29 13.29 0 0 0-4.016-4.489 13.739 13.739 0 0 0-4.135-2.126 17.075 17.075 0 0 0-3.898-.939z" class="cls-9" data-name="Path 1732" transform="translate(-2.02 -15.134)"/>
            <path id="Path_1733" d="M40.5 121.294c-.354-.236 3.426-5.316 8.742-11.1 5.2-5.67 9.923-10.041 10.278-9.687s-3.9 4.962-9.214 10.75c-5.195 5.785-9.448 10.392-9.806 10.037z" class="cls-8" data-name="Path 1733" transform="translate(-11.971 -18.401)"/>
            <path id="Path_1734" d="M65.045 118.606c-.236.354-6.261-2.953-13.585-7.442s-12.995-8.506-12.76-8.864 6.261 2.953 13.585 7.442 12.996 8.51 12.76 8.864z" class="cls-8" data-name="Path 1734" transform="translate(-12.295 -18.076)"/>
            <path id="Path_1735" d="M111.4 124.436l2.717 3.9a1.074 1.074 0 0 0 .945.473h4.725a1.184 1.184 0 0 1 1.181 1.181 1.678 1.678 0 0 1-.236.709l-2.835 3.78a1.2 1.2 0 0 0-.236 1.063l1.536 4.489a1.229 1.229 0 0 1-.709 1.536 1 1 0 0 1-.827 0l-4.489-1.536a1.11 1.11 0 0 0-1.063.118l-3.9 2.835a1.25 1.25 0 0 1-1.654-.236 1.679 1.679 0 0 1-.236-.709l.118-4.725a1.759 1.759 0 0 0-.473-1.063l-3.9-2.835a1.27 1.27 0 0 1-.236-1.654 1.179 1.179 0 0 1 .591-.473l4.607-1.418a1.167 1.167 0 0 0 .827-.827l1.418-4.607a1.243 1.243 0 0 1 1.536-.827 8.057 8.057 0 0 0 .593.826z" class="cls-9" data-name="Path 1735" transform="translate(-.884 -14.219)"/>
            <path id="Path_1736" d="M167.318 77.8c.236.354-4.843 5.434-11.577 11.459s-12.285 10.517-12.641 10.28c-.236-.354 4.843-5.434 11.577-11.459s12.405-10.631 12.641-10.28z" class="cls-8" data-name="Path 1736" transform="translate(6.635 -22.517)"/>
            <path id="Path_1737" d="M171.76 95.852c-.236.354-7.442-2.835-16.184-7.324-8.742-4.371-15.712-8.269-15.475-8.624s7.442 2.835 16.184 7.324C165.027 91.6 172 95.5 171.76 95.852z" class="cls-8" data-name="Path 1737" transform="translate(6.092 -22.137)"/>
            <path id="Path_1738" d="M157.5 83.6h35.558l8.506 6.615L194 96.358h-34.019z" class="cls-6" data-name="Path 1738" transform="translate(9.248 -21.462)"/>
        </g>
        <g id="freepik--character-1--inject-102" transform="translate(234.789 -8.243)">
            <path id="Path_1739" d="M289.427 222.885l-.148-22.124S297 184.279 297 182.645c0-3.564-2.673-29.845-2.673-29.845l-51.227 4.306 1.485 65.927z" class="cls-1" data-name="Path 1739" transform="translate(-176.564 15.972)"/>
            <path id="Path_1740" d="M256.446 161.791a11.714 11.714 0 0 0 1.485 2.376 30.361 30.361 0 0 0 5.939 7.127 15.951 15.951 0 0 0 8.315 3.861 33.564 33.564 0 0 0 3.861.148h-.3c-.3 0-.445.149-.742.149a8.991 8.991 0 0 1-2.821 0 16.414 16.414 0 0 1-8.464-3.861 25.575 25.575 0 0 1-5.939-7.276c-.594-1.039-1.039-1.93-1.336-2.524L256 160.9c0 .3.3.594.446.891z" class="cls-6" data-name="Path 1740" transform="translate(-170.31 19.899)"/>
            <path id="Path_1741" d="M281.511 54.149l-1.485-1.039a33.7 33.7 0 0 0-34-2.821s-.742 22.273-.148 32.073S256.121 93.2 256.121 93.2l.742 20.194 23.015-6.088z" class="cls-10" data-name="Path 1741" transform="translate(-175.33 -35.347)"/>
            <path id="Path_1742" d="M252.7 81.882c9.652.445 12.473-6.682 12.473-6.682a23.62 23.62 0 0 1-12.473 4.158z" class="cls-11" data-name="Path 1742" transform="translate(-171.91 -21.653)"/>
            <path id="Path_1743" d="M269.349 68.268c0 .148 6.682 1.485 6.533-5.2s-6.533-4.455-6.682-4.455c0 .152.149 9.506.149 9.655z" class="cls-10" data-name="Path 1743" transform="translate(-163.91 -29.866)"/>
            <path id="Path_1744" d="M270.88 65.294a1.3 1.3 0 0 0 1.039.148 2.959 2.959 0 0 0 1.633-2.821 3.527 3.527 0 0 0-.445-1.782 1.438 1.438 0 0 0-1.187-1.039c-.3 0-.445 0-.594.148s-.148.3-.3.445c0 .3 0 .445.148.445s0-.148.148-.3a.542.542 0 0 1 .742-.3 1.339 1.339 0 0 1 .891.891 2.938 2.938 0 0 1 .3 1.633c0 1.188-.594 2.376-1.336 2.524a.947.947 0 0 1-.891 0 .46.46 0 0 0-.3-.148c-.145-.138-.145.007.152.156z" class="cls-11" data-name="Path 1744" transform="translate(-163.214 -29.119)"/>
            <path id="Path_1745" d="M247.7 59.636a1.336 1.336 0 0 1 2.673 0 1.331 1.331 0 0 1-1.336 1.336c-.742.148-1.336-.445-1.336-1.336z" class="cls-1" data-name="Path 1745" transform="translate(-174.334 -29.847)"/>
            <path id="Path_1746" d="M247.964 58.042a3.647 3.647 0 0 1 2.227-.742 3.867 3.867 0 0 1 2.227.594c.445.3.742.594.594.742s-1.336-.594-2.821-.445-2.524.891-2.673.742 0-.445.446-.891z" class="cls-1" data-name="Path 1746" transform="translate(-174.449 -30.331)"/>
            <path id="Path_1747" d="M257.5 59.636a1.336 1.336 0 1 1 2.673 0 1.331 1.331 0 0 1-1.336 1.336 1.567 1.567 0 0 1-1.336-1.336z" class="cls-1" data-name="Path 1747" transform="translate(-169.582 -29.847)"/>
            <path id="Path_1748" d="M257.894 57.842a3.548 3.548 0 0 1 2.079-.742 3.866 3.866 0 0 1 2.227.594c.445.3.743.594.594.742s-1.336-.594-2.821-.445c-1.485 0-2.524.891-2.673.742a1.3 1.3 0 0 1 .594-.891z" class="cls-1" data-name="Path 1748" transform="translate(-169.679 -30.428)"/>
            <path id="Path_1749" d="M252.72 69.874h-.594a.639.639 0 0 1-.594-.594 1.757 1.757 0 0 1 .148-1.485l.891-2.97c1.336-4.158 2.673-7.573 2.821-7.424a42.848 42.848 0 0 1-2.227 7.721c-.3 1.039-.742 2.079-1.039 2.97a1.577 1.577 0 0 0-.149 1.188c.149.3.445.3.891.3a11.54 11.54 0 0 1 2.376.3z" class="cls-1" data-name="Path 1749" transform="translate(-172.523 -30.284)"/>
            <path id="Path_1750" d="M257.791 53.845a8.409 8.409 0 0 1 2.673-.445 5.006 5.006 0 0 1 2.524.742c.594.3.891.742.742.891-.149.445-1.633 0-3.415-.148s-3.267.148-3.415-.3a1.16 1.16 0 0 1 .891-.74z" class="cls-1" data-name="Path 1750" transform="translate(-169.873 -32.222)"/>
            <path id="Path_1751" d="M248.164 55.142a3.127 3.127 0 0 1 1.93-.742 4.743 4.743 0 0 1 2.079.445c.445.3.594.594.594.742-.3.3-1.336.148-2.524.3-1.188 0-2.227.445-2.524.148q-.219-.447.445-.893z" class="cls-1" data-name="Path 1751" transform="translate(-174.352 -31.737)"/>
            <path id="Path_1752" d="M243.946 51.406a2.987 2.987 0 0 0-.446 3.118 4.635 4.635 0 0 0 2.227 2.227 19.832 19.832 0 0 0 2.673 1.039h.445a19.962 19.962 0 0 0 12.027-1.782c9.949-5.642 12.621-3.118 13.958-2.079s-.3 8.464 4.751 10.1c0 0-.594 7.573 3.267 7.276 2.227-.148 2.673-6.385 2.524-11.73v-.3a23.675 23.675 0 0 0 .891-4.455 8.5 8.5 0 0 0-1.633-6.236 5.436 5.436 0 0 0-5.939-1.93 12.331 12.331 0 0 0-16.185-6.533c-1.485.594-2.673 1.485-4.158 2.079a6.673 6.673 0 0 1-4.455.742c-1.485-.3-2.97-1.485-4.455-1.336h-.3a2.88 2.88 0 0 0-2.079 3.564 2.49 2.49 0 0 0-3.267-.148 3.778 3.778 0 0 0-1.188 3.267 4.948 4.948 0 0 0 1.342 3.117z" class="cls-1" data-name="Path 1752" transform="translate(-176.816 -39.137)"/>
            <path id="Path_1753" d="M253.3 69.233l3.118-1.485a1.113 1.113 0 0 1 .742-.148c.594 0 .891.742 1.039 1.336a2.252 2.252 0 0 1-.445 1.93 2.014 2.014 0 0 1-1.633 1.039 2.052 2.052 0 0 1-1.633-.891 3.539 3.539 0 0 1-.891-1.633" class="cls-11" data-name="Path 1753" transform="translate(-171.619 -25.337)"/>
            <path id="Path_1754" d="M255.524 72.3a2.1 2.1 0 0 0 1.336-.148 3.63 3.63 0 0 0 1.633-1.336 2.551 2.551 0 0 0 0-2.524c-.148-.148-.3-.445-.445-.594s-.3-.148-.3-.3h-.445c-.3.148-.446.148-.594.3l-.446.3-1.782.891a13.051 13.051 0 0 0-1.485.891 8.371 8.371 0 0 0 1.782-.594 15.457 15.457 0 0 0 1.782-.742l.445-.3c.148-.149.3-.149.445-.3.148 0 .148 0 .3.148s.3.3.3.445a2.537 2.537 0 0 1 0 2.079 2.3 2.3 0 0 1-1.188 1.188 7.662 7.662 0 0 1-1.633.3c-.15.148-.002.296.295.296z" class="cls-1" data-name="Path 1754" transform="translate(-171.764 -25.434)"/>
            <path id="Path_1755" d="M273.33 48.967a4.621 4.621 0 0 0-1.633-2.821 6.488 6.488 0 0 0-4.6-1.336 18.652 18.652 0 0 0-5.643 1.485c-1.039.3-1.93.742-2.821 1.039a16.324 16.324 0 0 1-7.573.148 25.585 25.585 0 0 1-3.118-1.039C247.2 46.145 246.9 46 246.9 46c.148 0 .148.148.3.148.3.148.445.3.742.445a24.754 24.754 0 0 0 2.97 1.188 16.312 16.312 0 0 0 7.573 0 15.832 15.832 0 0 0 2.821-1.039 18.651 18.651 0 0 1 5.642-1.485 6.757 6.757 0 0 1 4.455 1.188 4.072 4.072 0 0 1 1.93 2.524 3.27 3.27 0 0 0-.148 1.188 1.121 1.121 0 0 0 .145-1.19z" class="cls-6" data-name="Path 1755" transform="translate(-174.722 -36.401)"/>
            <path id="Path_1756" d="M271.988 64.569a14.579 14.579 0 0 1-.742-2.376 10.22 10.22 0 0 1-.3-3.712c.148-1.485.445-2.97.742-4.455a9.665 9.665 0 0 0-.148-4.6 11.077 11.077 0 0 0-1.039-1.782 3.081 3.081 0 0 0-1.485-.891 2.994 2.994 0 0 0-2.524.3c-.3.148-.445.445-.594.594a3.24 3.24 0 0 1 .742-.594 3.3 3.3 0 0 1 2.376-.148 3.081 3.081 0 0 1 1.485.891 6.132 6.132 0 0 1 1.039 1.633 9.061 9.061 0 0 1 .148 4.455 42.579 42.579 0 0 0-.742 4.6 15.859 15.859 0 0 0 .445 3.712 3.38 3.38 0 0 0 .594 2.376.771.771 0 0 0 .3.594l.149.148c-.149-.003-.298-.151-.446-.745z" class="cls-6" data-name="Path 1756" transform="translate(-165.51 -35.521)"/>
            <path id="Path_1757" d="M274.706 50.753v-1.187a11.928 11.928 0 0 0-.594-4.009 6.308 6.308 0 0 0-1.485-2.524 5.153 5.153 0 0 0-2.821-1.782 5.806 5.806 0 0 0-3.564.3 14.957 14.957 0 0 0-3.415 1.782 37.555 37.555 0 0 1-3.267 1.93 12.839 12.839 0 0 1-3.415.891 8.4 8.4 0 0 1-3.267-.3 9.438 9.438 0 0 1-2.673-.891 13.185 13.185 0 0 1-3.267-2.376c-.3-.3-.445-.594-.742-.891 0-.148-.148-.148-.3-.3a.518.518 0 0 0 .148.3 3.938 3.938 0 0 0 .742.891 9.208 9.208 0 0 0 3.267 2.524 19.833 19.833 0 0 0 2.673 1.039 12.181 12.181 0 0 0 3.267.3 15.66 15.66 0 0 0 3.564-.891c1.188-.594 2.227-1.188 3.415-1.93a14.959 14.959 0 0 1 3.415-1.782 6.73 6.73 0 0 1 3.415-.3 5.066 5.066 0 0 1 2.673 1.633 7.53 7.53 0 0 1 1.336 2.376 12.508 12.508 0 0 1 .594 4.009l.3 1.188a.545.545 0 0 0-.149.445.545.545 0 0 0 .15-.445z" class="cls-6" data-name="Path 1757" transform="translate(-175.207 -38.188)"/>
            <path id="Path_1758" d="M253.221 137.785c-4.752 3.415-9.8-.594-13.215-5.494l-25.837-32.221c-1.633-1.93-5.939-6.088-5.939-6.088l-1.782-1.93a.546.546 0 0 0-.148.445l-.446.891a1.355 1.355 0 0 1-1.782 0 2.913 2.913 0 0 1-1.336-1.336 3.827 3.827 0 0 1 1.188-5.2c.148-.3.3-.742.445-1.039 1.485-1.93 5.2-1.782 5.2-1.782l-.594-.742s-1.188-1.93-6.088 1.039a4.7 4.7 0 0 1-2.376.594 1.25 1.25 0 0 1-1.039-.594c-.594-1.039 0-1.633 2.524-3.415 2.524-1.633 5.494-2.524 7.424-1.782a12.846 12.846 0 0 1 2.524 1.039s-4.455-7.127-4.751-7.573c-.742-1.336-.891-2.821 0-3.415.594-.445 1.485-.445 2.376 1.039.742 1.336 10.988 13.809 10.988 13.809l4.158 5.791 29.252 32.815c4.005 4.903 4.599 11.288-.746 15.149z" class="cls-10" data-name="Path 1758" transform="translate(-197.821 -24.695)"/>
            <path id="Path_1759" d="M216.361 79.6l-9.058.445c-.3 0-.742 0-.891.445-.148.3.149.742.445.891 2.227 1.485 5.494.891 7.87 2.376a19.336 19.336 0 0 0 2.227 1.485 2.248 2.248 0 0 0 2.524-.148" class="cls-10" data-name="Path 1759" transform="translate(-194.371 -19.519)"/>
            <path id="Path_1760" d="M215.438 79.945c-.594 0-1.485.148-2.673.148l-4.009.3h-1.188c-.445 0-.742 0-.891.148s0 .445.3.594.742.445 1.039.594c1.485.594 3.267.594 4.752 1.039a11.639 11.639 0 0 1 2.079.742 10.4 10.4 0 0 1 1.485 1.188 2.739 2.739 0 0 0 2.376.742 2.111 2.111 0 0 0 .891-.3s-.148.445-.891.594a3.538 3.538 0 0 1-2.673-.742 12.846 12.846 0 0 0-1.485-1.039 7.458 7.458 0 0 0-1.93-.742 19.6 19.6 0 0 1-4.751-1.039 4.445 4.445 0 0 1-1.188-.594c-.148-.148-.445-.3-.445-.594a.7.7 0 0 1 .149-.891 2.073 2.073 0 0 1 1.336-.445h1.179l4.009-.148h3.712a1.975 1.975 0 0 1-1.183.445z" class="cls-11" data-name="Path 1760" transform="translate(-194.487 -19.568)"/>
            <path id="Path_1761" d="M209.394 79.371a6.461 6.461 0 0 0-1.039-.891 2.9 2.9 0 0 0-1.93-.148 7 7 0 0 0-2.227.891 9.069 9.069 0 0 1-2.079 1.039 3.767 3.767 0 0 1-1.782.3 1.5 1.5 0 0 1-1.039-.594 1.837 1.837 0 0 0-.3-.445.545.545 0 0 0 .149.445 1.117 1.117 0 0 0 1.039.742 4.275 4.275 0 0 0 1.93-.148 14.98 14.98 0 0 0 2.227-1.039 5.207 5.207 0 0 1 2.079-.891 2.483 2.483 0 0 1 1.782.148 4.623 4.623 0 0 1 1.336 1.039c.151-.299.002-.448-.146-.448z" class="cls-11" data-name="Path 1761" transform="translate(-197.946 -20.181)"/>
            <path id="Path_1762" d="M204.942 72.785a34.992 34.992 0 0 0 2.079 3.564c.891 1.336 1.633 2.524 2.227 3.415a8.156 8.156 0 0 0 1.039 1.336c-.3-.445-.594-1.039-.891-1.485-.594-1.039-1.336-2.079-2.227-3.415-.742-1.336-1.485-2.524-2.079-3.415-.3-.445-.594-1.039-.891-1.485a13.748 13.748 0 0 0 .743 1.485z" class="cls-11" data-name="Path 1762" transform="translate(-195.425 -23.544)"/>
            <path id="Path_1763" d="M206.925 81a2.211 2.211 0 0 0-1.336.594 1.268 1.268 0 0 0 0 1.039c.148.3.445.742.594 1.039a1.348 1.348 0 0 1 .445 1.039 1.5 1.5 0 0 1-.594 1.039 1.663 1.663 0 0 1-2.227-.445 4.342 4.342 0 0 1-1.039-1.782l-.445-1.336v-.445c0 .148-.148.3 0 .594a4.336 4.336 0 0 0 .3 1.336 7.019 7.019 0 0 0 1.039 1.782 3.233 3.233 0 0 0 1.188.742 2.567 2.567 0 0 0 1.485-.148 1.514 1.514 0 0 0 .742-1.188 1.686 1.686 0 0 0-.445-1.188 3.107 3.107 0 0 1-.594-.891.947.947 0 0 1 0-.891 1.339 1.339 0 0 1 .891-.891.717.717 0 0 0 .594 0z" class="cls-11" data-name="Path 1763" transform="translate(-196.368 -18.84)"/>
            <path id="Path_1764" d="M205.455 86.248a1.482 1.482 0 0 1-2.079 1.336 2.987 2.987 0 0 1-1.633-1.336 3.624 3.624 0 0 1 0-3.861 4.519 4.519 0 0 1 1.187-1.187c-.148 0-.3.148-.445.148l-.891.891a2.854 2.854 0 0 0-.594 1.782 3.867 3.867 0 0 0 .594 2.227 3.28 3.28 0 0 0 1.93 1.485 2.364 2.364 0 0 0 1.93-.445.862.862 0 0 0 0-1.039c.148-.3 0-.445 0-.445z" class="cls-11" data-name="Path 1764" transform="translate(-196.976 -18.744)"/>
            <path id="Path_1765" d="M210.091 86.9a2.9 2.9 0 0 1 1.93.148l.3.148-.148-.3a7.233 7.233 0 0 1-.445-1.039 29.638 29.638 0 0 1-.746-3.857 5.75 5.75 0 0 0 .445 3.861c.148.3.3.742.445 1.039l.148-.149a2.53 2.53 0 0 0-2.079 0 .817.817 0 0 0-.742.445 5.844 5.844 0 0 0 .892-.296z" class="cls-11" data-name="Path 1765" transform="translate(-193.001 -18.356)"/>
            <path id="Path_1766" d="M203.991 78.447c-.445.594-.891.891-.891 1.039s.742-.148 1.188-.742.445-1.336.3-1.336c-.003-.149-.152.445-.597 1.039z" class="cls-11" data-name="Path 1766" transform="translate(-195.958 -20.594)"/>
            <path id="Path_1767" d="M289.639 112.076l-20.788 20.491a23.394 23.394 0 0 1-21.53 5.939 22.919 22.919 0 0 1-12.621-8.315l-24.5-31.924L221.782 85.2l5.048 5.048 3.712 1.633 19.9 20.342L277.464 85.5" class="cls-9" data-name="Path 1767" transform="translate(-192.516 -16.804)"/>
            <path id="Path_1768" d="M235.449 118.345c0-.445-.149-1.039-.149-1.782a35.94 35.94 0 0 1 .3-5.642 23.116 23.116 0 0 1 1.485-5.494 8.646 8.646 0 0 1 .742-1.633 1.126 1.126 0 0 1 .3-.594l-.742 2.227a32.978 32.978 0 0 0-1.336 5.494 34.746 34.746 0 0 0-.445 5.642v2.376a.893.893 0 0 1-.155-.594z" class="cls-1" data-name="Path 1768" transform="translate(-180.346 -8.077)"/>
            <g id="Group_2283" class="cls-12" data-name="Group 2283" transform="translate(58.518 77.305)">
                <path id="Path_1769" d="M247.352 134.706l-4.306 1.188c-2.079-.148-4.158-2.524-4.9-4.455a10.62 10.62 0 0 1 0-6.088c1.93-6.682 6.979-12.918 9.8-19.3 2.376-5.345 3.415-10.691 7.721-14.849z" data-name="Path 1769" transform="translate(-237.7 -91.2)"/>
            </g>
            <path id="Path_1770" d="M219.145 96.13a77.243 77.243 0 0 1 5.642-6.83 63.149 63.149 0 0 1-5.345 6.979 77.242 77.242 0 0 1-5.642 6.83s2.376-3.118 5.345-6.979z" class="cls-1" data-name="Path 1770" transform="translate(-190.77 -14.816)"/>
            <path id="Path_1771" d="M282.191 75.9a11.516 11.516 0 0 1-7.127 6.533l-17.818 5.494v5.048l-2.673 4.009-8.315 20.491-4.158 74.837c0 1.188.742 5.642 1.93 5.494l51.376-2.376c1.485 0 1.93-5.048 1.188-6.533l-1.633-2.97 4.6-62.067s-1.188-20.194-5.939-26.43a87.249 87.249 0 0 1-8.315-14.255l-3.116-7.275z" class="cls-9" data-name="Path 1771" transform="translate(-177.049 -21.313)"/>
            <g id="Group_2284" class="cls-12" data-name="Group 2284" transform="translate(65.051 145.163)">
                <path id="Path_1772" d="M291.545 136.9L242.4 150.561l-.3 6.385c8.909 2.524 18.709 1.188 27.47-1.93 8.612-3.267 16.482-8.315 24.352-13.215z" data-name="Path 1772" transform="translate(-242.1 -136.9)"/>
            </g>
            <path id="Path_1773" d="M282.415 92.6c-11.73 4.158-9.948 26.43-9.8 31.627s.742 22.57.742 22.57-14.848 3.415-22.124 5.494c-5.048 1.485-5.642 4.752-5.642 4.752l-13.512-.742L230 173.818l18.412 3.415c26.133-2.524 51.376-13.215 51.376-13.215 1.336-.3 6.088-38.309 3.118-55.979-2.821-17.521-16.927-16.333-16.927-16.333" class="cls-9" data-name="Path 1773" transform="translate(-182.916 -13.658)"/>
            <path id="Path_1774" d="M253.645 90.694l-.594 1.485c-.594 1.336-1.336 3.267-2.227 5.642-1.039 2.376-2.079 5.2-3.415 8.464l-1.039 2.376c-.3.891-.594 1.633-.891 2.524a18.192 18.192 0 0 0-.3 2.821c0 .891-.148 1.93-.148 2.97-.445 7.87-.891 15-1.188 20.194-.148 2.524-.3 4.6-.3 6.088 0 .742-.149 1.188-.149 1.633v-1.633c0-1.485.149-3.564.149-6.088.148-5.2.594-12.324 1.039-20.194 0-1.039.148-1.93.148-2.97a18.2 18.2 0 0 1 .3-2.821 9.438 9.438 0 0 1 .891-2.673c.3-.891.742-1.633 1.039-2.376q2-4.677 3.564-8.464l2.376-5.642.742-1.336c0-.148.148-.445.148-.594.004.148-.145.3-.145.594z" class="cls-1" data-name="Path 1774" transform="translate(-176.419 -14.428)"/>
            <g id="Group_2285" data-name="Group 2285" transform="translate(20.479 131.353)">
                <path id="Path_1775" d="M213.232 128.348c-.594 0-.891.594-.594 1.336l8.167 21.382a2.077 2.077 0 0 0 1.633 1.336l7.424-.148c.594 0 .891-.594.594-1.336l-8.167-21.382a2.077 2.077 0 0 0-1.633-1.336h-1.782c-.149 0-.3.148-.149.445l.149.3c.148.3 0 .445-.149.445H215.9a.474.474 0 0 1-.445-.445l-.148-.3c-.148-.3-.3-.445-.594-.445l-1.485.148z" class="cls-7" data-name="Path 1775" transform="translate(-211.869 -127.309)"/>
                <path id="Path_1776" d="M230.521 153.436l-7.424.148a3.061 3.061 0 0 1-2.376-1.93l-8.464-21.976c-.445-1.039 0-1.93.891-1.93l7.424-.148a3.062 3.062 0 0 1 2.376 1.93l8.464 21.976c.445 1.04 0 1.93-.891 1.93z" class="cls-1" data-name="Path 1776" transform="translate(-212.082 -127.6)"/>
            </g>
            <path id="Path_1777" d="M252.548 86.294c.149.445.445 1.188.742 2.079a41.1 41.1 0 0 0 3.267 6.83h-.3a27.589 27.589 0 0 1 7.87-4.455c2.524-1.039 4.9-1.93 6.979-2.821a31.506 31.506 0 0 0 5.346-3.118 26.683 26.683 0 0 0 2.97-2.821c.594-.742.891-1.188.891-1.188a.518.518 0 0 1-.148.3c-.148.3-.445.594-.594.891a17.961 17.961 0 0 1-2.821 2.97 19.386 19.386 0 0 1-5.345 3.118 61.98 61.98 0 0 1-6.979 2.821 30.268 30.268 0 0 0-7.721 4.306l-.149.148-.148-.148a29.482 29.482 0 0 1-3.118-6.979 3.173 3.173 0 0 1-.742-1.93 1.339 1.339 0 0 1-.148-.742 1.615 1.615 0 0 0 .148.739z" class="cls-1" data-name="Path 1777" transform="translate(-172.055 -18.937)"/>
            <path id="Path_1778" d="M281.573 93.033a8.755 8.755 0 0 0-1.188.594c-.445.3-.891.742-1.336 1.039a12.775 12.775 0 0 0-2.97 3.861 24.1 24.1 0 0 0-2.227 6.236c-1.188 4.9-1.336 10.988-1.039 18.115s.594 15.145.891 23.906v.148h-.148c-4.454 1.039-9.206 2.227-14.106 3.415-2.524.594-5.049 1.188-7.573 1.93a8.751 8.751 0 0 0-5.939 4.752v.148h-.148l-13.512-.742.148-.149c-.742 5.494-1.485 11.433-2.227 17.373l-.149-.149 17.076 3.118 1.336.3c4.6-.445 9.355-1.188 13.809-2.079s8.909-1.93 13.215-3.118a201.642 201.642 0 0 0 24.2-8.167v-.148l.149-.3a.893.893 0 0 0 .148-.594c.148-.3.148-.742.3-1.039l.445-2.227a42.877 42.877 0 0 0 .594-4.306c.445-2.821.742-5.642 1.039-8.464.594-5.494.891-10.839 1.188-15.739s.3-9.652.149-13.958a53.1 53.1 0 0 0-1.485-11.879 20.236 20.236 0 0 0-4.455-8.464 16.186 16.186 0 0 0-5.939-4.009 14.067 14.067 0 0 0-4.306-1.039 23.675 23.675 0 0 1 4.455.891 16.188 16.188 0 0 1 5.939 4.009 18.7 18.7 0 0 1 4.6 8.612 63.4 63.4 0 0 1 1.485 11.879c.148 4.306.148 9.058 0 14.106s-.594 10.245-1.039 15.888c-.3 2.821-.594 5.642-1.039 8.464-.148 1.485-.445 2.821-.594 4.306l-.445 2.227a2.752 2.752 0 0 1-.3 1.039c0 .148-.148.445-.148.594s0 .148-.148.3a.145.145 0 0 1-.148.148v.148a.145.145 0 0 0-.149.148 201.608 201.608 0 0 1-24.2 8.167c-4.306 1.188-8.761 2.227-13.215 3.118s-9.206 1.485-13.809 2.079l-1.336-.3-17.373-3.267h-.149v-.149c.742-5.939 1.485-11.879 2.227-17.521v-.148h.148l13.512.742-.148.149a9.688 9.688 0 0 1 6.236-5.049c2.524-.742 5.048-1.336 7.573-1.93 4.9-1.188 9.651-2.376 14.106-3.415l-.148.149c-.3-8.761-.445-16.779-.742-23.906s0-13.215 1.188-18.115a22.292 22.292 0 0 1 2.227-6.236 12.774 12.774 0 0 1 2.97-3.861 5.333 5.333 0 0 1 1.485-1.039 3.723 3.723 0 0 1 1.039-.594l.891-.445z" class="cls-1" data-name="Path 1778" transform="translate(-182.964 -13.798)"/>
            <path id="Path_1779" d="M240.845 145.067c-.3-4.454-.445-8.167-.445-8.167a73.312 73.312 0 0 1 .742 8.167c.3 4.455.445 8.167.445 8.167a68.735 68.735 0 0 1-.742-8.167z" class="cls-1" data-name="Path 1779" transform="translate(-177.873 8.263)"/>
            <path id="Path_1780" d="M269.545 136.373a14.7 14.7 0 0 0-3.712-3.712 47.6 47.6 0 0 0-4.6-2.821c-.742-.3-1.336-.742-1.93-1.039a6.288 6.288 0 0 1 2.079.891 23.333 23.333 0 0 1 4.6 2.673 15.3 15.3 0 0 1 3.712 3.861 4.641 4.641 0 0 1 .742 1.485 1.479 1.479 0 0 1 .149.594 5.938 5.938 0 0 0-1.04-1.932z" class="cls-1" data-name="Path 1780" transform="translate(-168.71 4.335)"/>
            <path id="Path_1781" d="M253.4 153.261l1.039.148c.891.148 2.227.148 3.712.3 1.633.149 3.564.149 5.642.149a56.361 56.361 0 0 0 6.83-.445c2.376-.3 4.752-.594 6.682-1.039q3.118-.668 5.345-1.336c1.485-.445 2.821-.891 3.564-1.188l1.039-.3a.518.518 0 0 0 .3-.149c-.148 0-.148.149-.3.149l-.891.445q-1.336.445-3.564 1.336c-1.485.445-3.415 1.039-5.345 1.485a64.407 64.407 0 0 1-6.83 1.188 56.38 56.38 0 0 1-6.83.445c-2.079 0-4.009 0-5.642-.149s-2.821-.3-3.712-.445l-1.039-.594z" class="cls-1" data-name="Path 1781" transform="translate(-171.716 14.323)"/>
            <path id="Path_1782" d="M212.2 137.894c1.188.891 5.642 3.564 5.642 3.564a9.8 9.8 0 0 0-.148 2.079c0 .742 1.782 1.782 1.782 1.782a21.029 21.029 0 0 0 1.039 3.267 18.425 18.425 0 0 0 3.415 2.079 15.342 15.342 0 0 0 8.909 1.782l4.6-.445 2.524.594 1.485-13.364a52.009 52.009 0 0 1-6.236-4.009 17.369 17.369 0 0 0-8.018-3.267l-8.761-1.336a1.2 1.2 0 0 0-1.336.445 1.443 1.443 0 0 0 .148 2.079c1.039.891 8.018 2.524 8.018 2.524l-.445.3a8.837 8.837 0 0 1-6.088 1.336l-1.039-.149-2.227-.891-2.524-1.633c-.742-.594-1.633-.742-2.227.148-.595.294-.595 1.333 1.487 3.115z" class="cls-10" data-name="Path 1782" transform="translate(-192.433 5.19)"/>
            <path id="Path_1783" d="M217.873 139.143a18.246 18.246 0 0 0-2.673-1.336 13.613 13.613 0 0 0 5.345 2.673c.149-.15-1.187-.595-2.672-1.337z" class="cls-11" data-name="Path 1783" transform="translate(-190.091 8.693)"/>
            <path id="Path_1784" d="M217.785 141.042a13.793 13.793 0 0 0-1.485-.742 3.233 3.233 0 0 0 1.336 1.039 2.994 2.994 0 0 0 1.633.445 13.726 13.726 0 0 0-1.484-.742z" class="cls-11" data-name="Path 1784" transform="translate(-189.558 9.911)"/>
            <path id="Path_1785" d="M222.827 133.845c-.891.445-1.93.891-2.821 1.336a13.728 13.728 0 0 1-4.306.594 4.11 4.11 0 0 0 1.336.149 11.3 11.3 0 0 0 3.118-.445 9.848 9.848 0 0 0 2.821-1.336 2.664 2.664 0 0 0 1.039-.742c-.444.147-.741.299-1.187.444z" class="cls-11" data-name="Path 1785" transform="translate(-189.849 6.566)"/>
            <g id="Group_2286" class="cls-12" data-name="Group 2286" transform="translate(80.141 64.238)">
                <path id="Path_1786" d="M267.909 88.488c-8.612 3.415-11.433 5.939-11.433 5.939a37.2 37.2 0 0 1-4.158-9.652 59.19 59.19 0 0 0 .445 10.245 2.459 2.459 0 0 0 .742 1.782 2.4 2.4 0 0 0 1.336.445 10.277 10.277 0 0 0 5.049-1.336 82.7 82.7 0 0 0 10.1-5.494c3.118-2.227 6.236-4.752 8.167-8.018.143.001-1.487 2.674-10.248 6.089z" data-name="Path 1786" transform="translate(-252.262 -82.4)"/>
            </g>
            <path id="Path_1787" d="M262.6 181.03c0-6.385.3-11.73.3-11.73s.148 5.2 0 11.73-.149 11.73-.3 11.73z" class="cls-6" data-name="Path 1787" transform="translate(-167.11 23.972)"/>
            <g id="Group_2287" data-name="Group 2287" transform="translate(0 45.325)">
                <path id="Path_1788" d="M199.9 86.33l17.224-16.63 4.009 3.861-17.372 16.927z" class="cls-9" data-name="Path 1788" transform="translate(-197.51 -69.645)"/>
                <path id="Path_1789" d="M199.2 84s-1.039.891-.891 1.485c0 0 .742.3 1.633-.742z" class="cls-9" data-name="Path 1789" transform="translate(-198.29 -62.711)"/>
                <path id="Path_1790" d="M198.8 85.355l1.039 1.188 1.188-1.039a2.367 2.367 0 0 1 1.633-.445h1.633l-3.86-4.159v1.485a1.883 1.883 0 0 1-.148.891c-.149.3-.3.742-.445 1.039z" class="cls-1" data-name="Path 1790" transform="translate(-198.043 -64.214)"/>
                <path id="Path_1791" d="M211.5 69.718a2.988 2.988 0 0 1 2.97 1.188 3.9 3.9 0 0 1 1.039 2.673z" class="cls-1" data-name="Path 1791" transform="translate(-191.885 -69.663)"/>
                <path id="Path_1792" fill="#fff" d="M200.9 87.379L218.124 70.6l1.039 1.039-17.372 16.779z" data-name="Path 1792" opacity="0.4" transform="translate(-197.025 -69.208)"/>
            </g>
        </g>
    </g>
</svg>
