<svg xmlns="http://www.w3.org/2000/svg" width="305" height="190.138" viewBox="0 0 305 190.138">
    <defs>
        <style>
            .cls-1{fill:#e0e0e0}.cls-2{fill:#ebebeb}.cls-4{fill:#263238}.cls-5{fill:#ffbe9d}.cls-6{fill:#eb996e}.cls-7{fill:#455a64}.cls-8{fill:#595ca8}.cls-9{opacity:.3}.cls-10{fill:#fafafa}.cls-12{fill:#bbd538}
        </style>
    </defs>
    <g id="Photo" transform="translate(3.1 -6.962)">
        <g id="Group_1836" data-name="Group 1836">
            <g id="freepik--background-complete--inject-63">
                <path id="Path_1587" d="M128.6 119.2a.1.1 0 0 0-.1-.1c0-.1-.1-.2-.1-.4l-.2-.6c-.1-.3-.2-.5-.3-.8a18.466 18.466 0 0 0-2.7-4.7c-.4-.5-.7-.9-1.1-1.4a18.479 18.479 0 0 0-1.4-1.4 10.1 10.1 0 0 0-1.6-1.3l-.9-.6-1-.6a17.846 17.846 0 0 0-4.3-1.8 17.041 17.041 0 0 0-10 0 16.575 16.575 0 0 0-4.3 1.9l-.9.6-.9.6c-.6.4-1.1.9-1.6 1.3a9.266 9.266 0 0 0-1.4 1.4 13.443 13.443 0 0 0-1.1 1.4 16.612 16.612 0 0 0-2.6 4.7c-.1.3-.2.5-.3.8-.1.2-.1.4-.2.6a.756.756 0 0 0-.1.4l.1-.4a1.421 1.421 0 0 1 .2-.6c.1-.3.2-.5.3-.8a18.669 18.669 0 0 1 2.6-4.8 13.444 13.444 0 0 1 1.1-1.4 18.479 18.479 0 0 1 1.4-1.4 10.1 10.1 0 0 1 1.6-1.3l.9-.6 1-.6a21.65 21.65 0 0 1 4.4-1.9 17.377 17.377 0 0 1 10.1 0 18.893 18.893 0 0 1 4.4 1.9l1 .6.9.6c.6.4 1.1.9 1.6 1.3a9.266 9.266 0 0 1 1.4 1.4 19.2 19.2 0 0 1 3.7 6.1c.1.3.2.5.3.8.1.2.1.4.2.6a.756.756 0 0 1 .1.4c-.2 0-.2.1-.2.1z" class="cls-1" data-name="Path 1587"/>
                <path id="Path_1588" d="M134.6 197c-.2 0-3.7-28.6-7.9-64s-7.4-64-7.2-64.1c.2 0 3.7 28.6 7.9 64s7.4 64.1 7.2 64.1z" class="cls-1" data-name="Path 1588"/>
                <path id="Path_1589" d="M105.7 118.7c.1.2.3.4.4.6l1.3 1.5 1 1.1 1.1 1.4 1.2 1.6a20.28 20.28 0 0 0 1.3 1.8 81.763 81.763 0 0 1 5.8 9.4 113.282 113.282 0 0 1 5.6 12.3 172.484 172.484 0 0 1 7.2 23.5c.7 3.1 1.3 5.5 1.7 7.3.2.8.3 1.5.4 2a1.854 1.854 0 0 0 .2.7 1.7 1.7 0 0 0-.1-.7c-.1-.5-.2-1.2-.3-2-.3-1.7-.8-4.2-1.5-7.3a164.092 164.092 0 0 0-7.1-23.6q-2.55-6.3-5.7-12.3a82.49 82.49 0 0 0-5.9-9.4c-.5-.6-.9-1.3-1.3-1.8a10.019 10.019 0 0 0-1.3-1.5l-1.1-1.3a9.958 9.958 0 0 1-1-1.1l-1.4-1.4a1.009 1.009 0 0 0-.5-.8z" class="cls-1" data-name="Path 1589"/>
                <path id="Path_1590" d="M140.2 91.8a3.553 3.553 0 0 1-.2 1c-.2.7-.5 1.6-.8 2.7-.2.6-.4 1.2-.6 1.9s-.4 1.5-.6 2.4c-.5 1.7-1 3.6-1.5 5.8-.3 1.1-.5 2.2-.8 3.4-.2 1.2-.5 2.4-.7 3.7-.5 2.5-.9 5.3-1.4 8.1-.8 5.8-1.5 12.1-1.8 18.8-.4 6.7-.4 13.1-.3 18.9s.4 11.1.8 15.4c.1 2.2.3 4.2.5 5.9s.3 3.2.5 4.5.2 2.1.3 2.8c0 .3.1.6.1 1-.1-.3-.1-.6-.2-1-.1-.7-.2-1.6-.4-2.8s-.4-2.7-.6-4.5-.4-3.7-.6-5.9c-.4-4.4-.7-9.6-.9-15.5-.1-5.8-.1-12.2.3-19 .4-6.7 1.1-13.1 1.9-18.9.5-2.9.9-5.6 1.4-8.1l.7-3.7c.3-1.2.6-2.3.8-3.4.5-2.1 1.1-4.1 1.6-5.7.2-.8.5-1.6.7-2.3a19.684 19.684 0 0 1 .7-1.9q.6-1.65.9-2.7c-.1-.3.1-.6.2-.9z" class="cls-1" data-name="Path 1590"/>
                <path id="Path_1591" d="M120.8 82.8c-.8-4-5.3-6.6-9.4-6.2s-7.6 3.3-9.7 6.8-3 7.6-3.7 11.7c-1.6 9.9-2 20.1.3 29.9s7.4 19 15.3 25.2c1.3 1 2.9 1.9 4.5 1.5a6.524 6.524 0 0 0 2.1-1.6 66.555 66.555 0 0 0 15.7-52.7c-.5-3.7-1.5-7.6-3.9-10.5-2.6-3-7.9-5.8-11.2-4.1" class="cls-2" data-name="Path 1591"/>
                <path id="Path_1592" d="M86.6 53.7L82 64.8c-.1.3-.3.6-.5.6-.3.1-.6-.2-.8-.4L62.9 43.4l3.3-2.4z" class="cls-1" data-name="Path 1592"/>
                <path id="Path_1593" d="M119.5 69L64.2 44.3a2.272 2.272 0 0 1-1.4-1.1c-.3-.7.2-1.6.7-2.2a36.041 36.041 0 0 1 26.4-14.1 31.515 31.515 0 0 1 26.8 12.7c6 8.4 7.6 20.2 2.8 29.4" class="cls-2" data-name="Path 1593"/>
                <path id="Path_1594" d="M70.5 33.7c.2-.1.5-.1.7-.2.4-.1 1.1-.2 1.9-.3a44.14 44.14 0 0 1 7.3-.3 42.2 42.2 0 0 1 37 26.5 40.487 40.487 0 0 1 2.1 7l.3 1.5a2.663 2.663 0 0 1-.3 1.2 7.443 7.443 0 0 0-.2-2.6 41.874 41.874 0 0 0-2.3-6.8 42.745 42.745 0 0 0-36.6-26.3 34.664 34.664 0 0 0-7.2.1 25.676 25.676 0 0 1-2.7.2z" class="cls-1" data-name="Path 1594"/>
                <path id="Path_1595" d="M110.1 48.7a16.344 16.344 0 0 1-2.5 1.5c-1.6.8-3.8 1.9-6.3 3.1s-4.8 2-6.5 2.7a28.662 28.662 0 0 1-2.8.9 16.335 16.335 0 0 1 2.6-1.3l6.4-2.8 6.3-2.9c1.7-.9 2.7-1.3 2.8-1.2z" class="cls-1" data-name="Path 1595"/>
                <path id="Path_1596" d="M99.4 27.7c.2 0 .8 2.5 1.3 5.7.4 3.2.5 5.8.3 5.8s-.5-2.6-1-5.8c-.4-3.1-.8-5.7-.6-5.7z" class="cls-1" data-name="Path 1596"/>
                <path id="Path_1597" d="M63.7 43.8a19.141 19.141 0 0 1 3.6-1.8c2.3-1 5.4-2.3 9-3.6s6.8-2.4 9.2-3.1a23.591 23.591 0 0 1 3.9-1 24.929 24.929 0 0 1-3.8 1.4c-2.3.8-5.6 1.9-9.1 3.2s-6.7 2.5-9 3.4a30.051 30.051 0 0 1-3.8 1.5z" class="cls-1" data-name="Path 1597"/>
                <path id="Path_1598" d="M99 72.5c-4.5-3.4-9.2-4.1-14.8-3.9a46.606 46.606 0 0 0-16.3 4.1c-8.9 3.8-17.1 9.5-22.4 17.5s-7.2 18.7-3.3 27.4a3.959 3.959 0 0 0 1.8 2.2 4.164 4.164 0 0 0 2.9-.2c10-3.2 20.1-6.5 29.3-11.6s17.6-12.2 22.6-21.4a18.14 18.14 0 0 0 2.4-7.1 8.524 8.524 0 0 0-2.2-7" class="cls-2" data-name="Path 1598"/>
                <path id="Path_1599" d="M99.1 71.5c-.2.1-.5.2-.7.3l-2.1.7-1.5.5c-.6.2-1.1.4-1.8.7a44.871 44.871 0 0 0-4.3 1.8l-2.4 1.1c-.9.4-1.7.9-2.6 1.3-1.8.9-3.7 2-5.6 3.2a100.677 100.677 0 0 0-11.9 8.7 103.122 103.122 0 0 0-10.3 10.6c-1.4 1.8-2.8 3.5-3.9 5.1-.6.8-1.2 1.6-1.7 2.4s-1 1.6-1.4 2.3c-.9 1.4-1.6 2.8-2.3 4-.3.6-.6 1.2-.9 1.7l-.7 1.4-1 2a2.506 2.506 0 0 1-.4.7 4.875 4.875 0 0 1 .3-.7l.9-2c.2-.4.4-.9.7-1.5.2-.5.6-1.1.9-1.7a36.3 36.3 0 0 1 2.3-4.1c.4-.7.9-1.5 1.4-2.3s1.1-1.6 1.6-2.4c1.1-1.7 2.5-3.4 3.9-5.2a94.528 94.528 0 0 1 10.3-10.7 102.6 102.6 0 0 1 12-8.8c2-1.1 3.8-2.3 5.7-3.1.9-.4 1.8-.9 2.6-1.3l2.5-1.1c1.6-.7 3.1-1.2 4.3-1.7a12.665 12.665 0 0 1 1.8-.6l1.5-.4 2.1-.6c.2-.3.4-.3.7-.3z" class="cls-1" data-name="Path 1599"/>
                <path id="Path_1600" d="M64 90.3c0 .2-4.8 1.7-10.9 3.5S42 96.8 42 96.7s4.8-1.7 10.9-3.5c6-1.8 11-3.1 11.1-2.9z" class="cls-1" data-name="Path 1600"/>
                <path id="Path_1601" d="M63.4 114.4a13.72 13.72 0 0 1-.2-3.4v-8.2c.1-3.2.3-6.1.5-8.2s.4-3.4.4-3.4a15.19 15.19 0 0 1 0 3.4c-.1 2.3-.2 5.1-.3 8.2s-.2 5.9-.2 8.2a13.72 13.72 0 0 1-.2 3.4z" class="cls-1" data-name="Path 1601"/>
                <path id="Path_1602" d="M84.1 104c-.2 0-.7-5.9-1.2-13.2s-.7-13.2-.6-13.2c.2 0 .7 5.9 1.2 13.2.5 7.2.8 13.1.6 13.2z" class="cls-1" data-name="Path 1602"/>
                <path id="Path_1603" d="M58.5 76.9a19.6 19.6 0 0 1 3.5-.1c2.2 0 5.1.1 8.4.2s6.3.3 8.4.4c2.2.1 3.5.3 3.5.3s-1.3.1-3.5.1-5.1-.1-8.4-.2-6.3-.3-8.4-.4c-2.2-.1-3.5-.3-3.5-.3z" class="cls-1" data-name="Path 1603"/>
                <path id="Path_1604" d="M116 151.3a6.373 6.373 0 0 1-.2-.7c-.1-.5-.2-1.2-.3-2-.3-1.7-.6-4.2-.9-7.3s-.5-6.8-.6-10.9 0-8.7.3-13.4a127.405 127.405 0 0 1 1.5-13.4c.7-4.1 1.3-7.7 2-10.8.7-3 1.3-5.5 1.8-7.2l.6-1.9a6.373 6.373 0 0 0 .2-.7c0 .2-.1.5-.1.7-.1.5-.3 1.2-.5 1.9-.4 1.7-1 4.2-1.6 7.2-.7 3.1-1.3 6.7-1.9 10.8s-1.1 8.6-1.4 13.3-.4 9.3-.4 13.4.2 7.8.5 10.9.5 5.6.7 7.3l.2 2a2.2 2.2 0 0 1 .1.8z" class="cls-1" data-name="Path 1604"/>
                <path id="Path_1605" d="M114.8 117c.1.1-.6 1-1.8 2.5s-2.9 3.5-4.8 5.7-3.8 4-5.2 5.4a17.2 17.2 0 0 1-2.3 2c-.1-.1.7-.9 2-2.3l5-5.5 5-5.5a13.076 13.076 0 0 1 2.1-2.3z" class="cls-1" data-name="Path 1605"/>
                <path id="Path_1606" d="M132.7 128.3c-.1.1-1-1-2.6-2.8l-6-6.9-6.1-6.8c-1.6-1.7-2.5-2.8-2.4-2.9s1.1.9 2.8 2.6c1.6 1.7 3.9 4 6.2 6.7 2.4 2.7 4.4 5.2 5.8 7a29.86 29.86 0 0 1 2.3 3.1z" class="cls-1" data-name="Path 1606"/>
                <path id="Path_1607" d="M119.3 87.8c.1.1-4.9 4.4-11.2 9.6s-11.5 9.3-11.6 9.1 4.9-4.4 11.2-9.6 11.5-9.2 11.6-9.1z" class="cls-1" data-name="Path 1607"/>
                <path id="Path_1608" d="M136.6 102.6c-.1.1-4.2-2.9-9.1-6.7s-8.8-7-8.7-7.2a94.111 94.111 0 0 1 9.1 6.7c4.9 3.9 8.8 7.1 8.7 7.2z" class="cls-1" data-name="Path 1608"/>
                <path id="Path_1609" d="M139.1 95.6l4.6-.9a23.276 23.276 0 0 0 9.1-4 36.221 36.221 0 0 1 4.1-2.7c5.5-3 12-3.3 18.2-4.3a77.4 77.4 0 0 0 28.5-10.9 2.765 2.765 0 0 0 1.1-1.3c.8-1.9-1.2-3.2-2.9-4-8.4-3.9-17-7.9-26.2-9.3s-19.3.2-26.3 6.3c-8.1 7.2-9.9 20.2-10.2 31.1" class="cls-2" data-name="Path 1609"/>
                <path id="Path_1610" d="M204.9 70.9a6.888 6.888 0 0 1-.8-.3l-2.4-.9c-2-.8-5-1.9-8.7-3.2a75.262 75.262 0 0 0-13.2-3.4 42.245 42.245 0 0 0-16.6.6c-5.7 1.5-10.8 4.3-14.2 8.2a33.239 33.239 0 0 0-6.5 11.8 68.782 68.782 0 0 0-2.4 8.9 20.752 20.752 0 0 1-.6 2.4c-.1.3-.1.6-.2.8a2.768 2.768 0 0 1 .1-.9c.1-.6.3-1.5.4-2.5a90.851 90.851 0 0 1 2.2-9 32.769 32.769 0 0 1 6.5-12.1 29.554 29.554 0 0 1 14.5-8.4 41.337 41.337 0 0 1 16.8-.5 76.911 76.911 0 0 1 13.3 3.6c3.7 1.3 6.6 2.6 8.6 3.4l2.3 1a3.6 3.6 0 0 1 .9.5z" class="cls-1" data-name="Path 1610"/>
                <path id="Path_1611" d="M194.4 78.2c-.1.2-6.7-3.1-14.7-7.3s-14.5-7.7-14.4-7.8 6.7 3.1 14.7 7.3 14.5 7.7 14.4 7.8z" class="cls-1" data-name="Path 1611"/>
                <path id="Path_1612" d="M185.7 60.5a18.051 18.051 0 0 1-4.4 1.3 17.614 17.614 0 0 1-4.5.5 40.086 40.086 0 0 1 4.4-1c2.5-.5 4.5-1 4.5-.8z" class="cls-1" data-name="Path 1612"/>
                <path id="Path_1613" d="M158.5 60.1c.2.1-.6 1.6-1.6 3.4a21.71 21.71 0 0 1-2.2 3.2c-.2 0 .6-1.6 1.6-3.4a13.374 13.374 0 0 1 2.2-3.2z" class="cls-1" data-name="Path 1613"/>
                <path id="Path_1614" d="M167 85a15.577 15.577 0 0 1-3.1-1.3c-1.9-.9-4.5-2.2-7.2-3.7-2.8-1.6-5.2-3.1-7-4.2a16.578 16.578 0 0 1-2.8-1.9 16.385 16.385 0 0 1 3 1.5l7.1 4c2.8 1.6 5.3 2.9 7.1 3.9A22.529 22.529 0 0 1 167 85z" class="cls-1" data-name="Path 1614"/>
                <path id="Path_1615" d="M91.8 117.7c.1-3.6-4.1-6.8-7.7-6.8-3.6.1-6.8 2.2-9.6 4.4a53.834 53.834 0 0 0-15.1 18.1 34.914 34.914 0 0 0-3 23.1c6.3-2.9 13.6-2.7 20.2-5a26.954 26.954 0 0 0 17.8-28.6c-.2-2.2-.4-4.8-2.6-5.2" class="cls-2" data-name="Path 1615"/>
                <path id="Path_1616" d="M56.5 156.5a4.332 4.332 0 0 1 .1-.5 4.714 4.714 0 0 1 .6-1.5 13.462 13.462 0 0 1 3.7-4.3c.9-.8 1.9-1.6 3-2.5l3.6-2.7c1.3-1 2.6-2.1 3.8-3.2a33.419 33.419 0 0 0 3.5-4c2.2-2.9 4-5.9 5.7-8.6a47.361 47.361 0 0 1 5.1-6.7 24.812 24.812 0 0 1 4.3-3.7c.4-.3.9-.5 1.3-.8.2-.1.3-.2.5-.2 0 0-.6.4-1.7 1.2a30.048 30.048 0 0 0-4.2 3.8 53 53 0 0 0-5 6.7c-1.7 2.7-3.5 5.7-5.7 8.6a44.67 44.67 0 0 1-3.5 4.1 37.88 37.88 0 0 1-3.8 3.2l-3.6 2.7c-1.1.9-2.1 1.7-3.1 2.4a13.306 13.306 0 0 0-3.7 4.2c-.6 1.2-.9 1.9-.9 1.8z" class="cls-1" data-name="Path 1616"/>
                <path id="Path_1617" d="M58 137.9a9.345 9.345 0 0 1 2.3-.2 37.387 37.387 0 0 1 5.7.1c2.2.1 4.2.3 5.6.5a15.72 15.72 0 0 1 2.3.4 10.077 10.077 0 0 1-2.3-.1c-1.4-.1-3.4-.3-5.6-.4s-4.2-.2-5.6-.2-2.4-.1-2.4-.1z" class="cls-1" data-name="Path 1617"/>
                <path id="Path_1618" d="M78.1 150.9a16.643 16.643 0 0 1 0-2.5c0-1.5.1-3.7.1-6s-.1-4.5-.1-6a16.643 16.643 0 0 1 0-2.5 18.665 18.665 0 0 1 .4 2.5c.1 1.5.3 3.7.3 6 0 2.4-.1 4.5-.2 6-.2.9-.3 1.7-.5 2.5z" class="cls-1" data-name="Path 1618"/>
                <path id="Path_1619" d="M66.7 122.7a12.288 12.288 0 0 1 2.7-.2c1.7-.1 4-.1 6.6 0s4.9.3 6.5.4a8.652 8.652 0 0 1 2.7.4 13.824 13.824 0 0 1-2.7-.1c-1.7-.1-4-.2-6.5-.3-2.6-.1-4.9-.1-6.5-.1a12.305 12.305 0 0 1-2.8-.1z" class="cls-1" data-name="Path 1619"/>
                <path id="Path_1620" d="M90.5 140a96.617 96.617 0 0 1-1.4-9.6c-.6-5.3-1-9.6-.9-9.6a96.617 96.617 0 0 1 1.4 9.6c.6 5.2 1 9.6.9 9.6z" class="cls-1" data-name="Path 1620"/>
                <path id="Path_1621" d="M121.1 80.7a14.878 14.878 0 0 0-1.7-3.6 13.035 13.035 0 0 0-3.1-3.1 15.916 15.916 0 0 0-2.2-1.3 20.035 20.035 0 0 0-2.6-1 12.816 12.816 0 0 0-2.7-.5 23.484 23.484 0 0 0-2.6-.1c-1.7 0-3.1 0-4.4.1-1.2.1-2.3.2-2.9.3a2.485 2.485 0 0 1-.8.1.367.367 0 0 0-.3.1c.1 0 .2-.1.3-.1.3-.1.5-.1.8-.2a28.856 28.856 0 0 1 2.9-.4c1.2-.1 2.7-.2 4.4-.2a23.484 23.484 0 0 1 2.6.1 13.732 13.732 0 0 1 2.8.5 20.035 20.035 0 0 1 2.6 1 10.232 10.232 0 0 1 2.2 1.4 13.49 13.49 0 0 1 3.1 3.2 8.449 8.449 0 0 1 1.3 2.7 3.091 3.091 0 0 1 .2.8.31.31 0 0 1 .1.2z" class="cls-1" data-name="Path 1621"/>
                <path id="Path_1622" fill="#f5f5f5" d="M197.5 181.3c-20-9.3-28.1-31.7-31-52.6-.5-3.5-1.5-7.1-.4-10.4s4.6-6.1 8-5.2c2.8.8 4.4 3.6 6.3 5.8a19.7 19.7 0 0 0 9.5 6.3c2.4.8 5.3 1 7.2-.6 2.7-2.2 2.3-6.4 1.7-9.8l-3.5-19.2c-.6-3.4-1.3-7-.8-10.4.5-3.5 2.3-6.9 5.5-8.4 3.1-1.5 7.5-.3 8.8 2.9a32.467 32.467 0 0 1 .8 4.3c.4 1.4 1.3 2.9 2.7 3 1.4.2 2.7-1.1 3.5-2.2 2.9-4.1 4.6-9 6-13.9s2.9-9.8 5.4-14.2c2.6-4.4 6.5-8.1 11.4-9.3 4.9-1.1 10.7 1 12.8 5.6s.1 10.1-2.3 14.5a81.221 81.221 0 0 1-13.3 18.1 6.45 6.45 0 0 0-2.2 3.3c-.3 2.4 2.2 4.3 4.6 4.7 2.7.4 5.5-.4 8.2-.5s5.8.5 7.3 2.9c2 3.3-.3 7.5-2.7 10.4a68.479 68.479 0 0 1-17.5 14.7c-2.4 1.4-4.9 2.7-6.6 4.8s-2.4 5.4-.8 7.7c1.7 2.2 5 2.4 7.5 1.5s4.7-2.8 7.1-4.2c4.4-2.6 10.6-3.4 14.3.2 2.5 2.3 3.3 6.1 2.9 9.4-.4 3.4-2 6.5-3.7 9.5a68.075 68.075 0 0 1-24.8 24.9c-10.3 5.8-20.3 8.5-31.9 6.4" data-name="Path 1622"/>
                <path id="Path_1623" d="M199.9 196.8a152.127 152.127 0 0 1 .7-29.4A325.326 325.326 0 0 1 207 132l2.2-9.2c.7-3 1.4-6 2.3-8.9a159.2 159.2 0 0 1 6-16.3c2.2-5.1 4.4-9.8 6.5-14.3 2.1-4.4 4.2-8.5 6.2-12.1a113.893 113.893 0 0 1 10.9-16.4c1.4-1.8 2.6-3.2 3.4-4.1l.9-1.1.3-.3c-.1.1-.2.3-.3.4l-.9 1.1q-1.2 1.5-3.3 4.2a129.4 129.4 0 0 0-10.7 16.5c-2 3.6-4 7.7-6.1 12.2-2.1 4.4-4.3 9.2-6.4 14.3a156.841 156.841 0 0 0-5.9 16.2c-.9 2.9-1.6 5.8-2.3 8.9-.7 3-1.4 6.1-2.2 9.2a325.19 325.19 0 0 0-6.5 35.3 159.255 159.255 0 0 0-.8 29.3" class="cls-1" data-name="Path 1623"/>
                <path id="Path_1624" d="M211.6 113.9a3.506 3.506 0 0 1-.6-1.4c-.3-.9-.8-2.3-1.4-3.9-1.1-3.3-2.4-8-3.9-13.2-1.5-5.1-2.9-9.8-4-13.1-.6-1.7-1-3-1.4-3.9a8.8 8.8 0 0 1-.5-1.5 6.109 6.109 0 0 1 .7 1.4c.4.9.9 2.2 1.6 3.9 1.2 3.3 2.7 7.9 4.2 13.1s2.7 9.7 3.7 13.2l1.2 4a3.255 3.255 0 0 1 .4 1.4z" class="cls-1" data-name="Path 1624"/>
                <path id="Path_1625" d="M254.5 97.8a10.927 10.927 0 0 1-1.7.5c-1.1.3-2.7.7-4.7 1.3-4 1.2-9.4 2.9-15.3 5.2-5.9 2.2-11.2 4.5-15 6.2q-2.85 1.35-4.5 2.1a8.651 8.651 0 0 1-1.7.7 13.029 13.029 0 0 1 1.5-1c1-.6 2.5-1.4 4.4-2.3 3.7-1.8 9-4.2 14.9-6.4 5.1-1.9 10.2-3.6 15.5-5 2-.5 3.7-.9 4.8-1.1a11.02 11.02 0 0 1 1.8-.2z" class="cls-1" data-name="Path 1625"/>
                <path id="Path_1626" d="M200.9 166.5a3.609 3.609 0 0 1-.4-.5l-1-1.5c-.9-1.3-2.1-3.2-3.7-5.5-3-4.7-7-11.3-11.3-18.7s-8.2-14-11.1-18.8c-1.4-2.3-2.6-4.2-3.5-5.6l-.9-1.5-.3-.6a3.609 3.609 0 0 1 .4.5l1 1.5c.9 1.3 2.1 3.2 3.7 5.5 3 4.7 7 11.3 11.3 18.7s8.2 14 11.1 18.8l3.5 5.6.9 1.5a.864.864 0 0 1 .3.6z" class="cls-1" data-name="Path 1626"/>
                <path id="Path_1627" d="M256.5 137.2a2.186 2.186 0 0 0-.5.3l-1.6.9-5.9 3.1c-5 2.7-11.9 6.4-19.5 10.6s-14.5 7.9-19.6 10.4c-2.5 1.3-4.6 2.3-6 3l-1.7.8a1.421 1.421 0 0 1-.6.2c.2-.1.3-.3.5-.3l1.6-.9 5.9-3.1c5-2.7 11.9-6.4 19.5-10.6s14.5-7.9 19.6-10.4c2.5-1.3 4.6-2.3 6-3l1.7-.8a1.421 1.421 0 0 1 .6-.2z" class="cls-1" data-name="Path 1627"/>
            </g>
            <g id="freepik--Character--inject-63">
                <path id="Path_1628" d="M117.9 99.6c0-.1-.1-.1-.1-.2-.1-.1-.1-.3-.2-.6-.2-.5-.5-1.3-.8-2.2-.3-1-.7-2.2-1.1-3.6a27.806 27.806 0 0 1-.8-4.9 17.73 17.73 0 0 1 .8-6 14.02 14.02 0 0 1 1.5-3 15.459 15.459 0 0 1 2.4-2.7c.9-.8 1.9-1.6 2.8-2.5a22.58 22.58 0 0 0 2.5-2.9 20.4 20.4 0 0 0 3-7.5 44.835 44.835 0 0 0 1-8.1c.1-2.6.2-5.2.4-7.6a38.456 38.456 0 0 1 1-6.8c.3-1 .6-2 1-3a21.016 21.016 0 0 1 1.3-2.6 16.647 16.647 0 0 1 3.1-3.9 13.432 13.432 0 0 1 3.1-2.2 19.452 19.452 0 0 1 2.2-.8l.6-.1h.2c-.1 0-.1 0-.2.1l-.6.2a8.488 8.488 0 0 0-2.2.9 12.875 12.875 0 0 0-3 2.2 16.235 16.235 0 0 0-3 3.9 21.018 21.018 0 0 0-1.3 2.6c-.4 1-.7 2-1 3a38.456 38.456 0 0 0-1 6.8c-.2 2.4-.2 5-.4 7.6a45.922 45.922 0 0 1-1 8.2 20.586 20.586 0 0 1-3.1 7.5 18.1 18.1 0 0 1-2.5 3c-.9.9-1.9 1.7-2.8 2.5a19.467 19.467 0 0 0-2.4 2.6 14.02 14.02 0 0 0-1.5 3 16.844 16.844 0 0 0-.8 5.9 27.554 27.554 0 0 0 .7 4.9c.3 1.4.7 2.6 1 3.6s.6 1.7.7 2.3c.1.2.1.4.2.6z" class="cls-4" data-name="Path 1628"/>
                <path id="Path_1629" d="M174.3 24.8c4.6-.9 9 2.6 11 6.8s2.1 9 2.7 13.6c2.3 18 11.3 34.5 22.1 49.1 6 8.2 12.9 16.6 13.9 26.7a8.828 8.828 0 0 1-1.1 6c-1.2 1.7-3.9 2.4-5.4 1l-47.7-3z" class="cls-4" data-name="Path 1629"/>
                <path id="Path_1630" d="M164 23.4c-6.4-5.3-17.3-3.6-23.3 1.6-6 5.3-9 13.3-10 21.2-.8 6.3-.4 12.7-.8 19.1-.5 6.4-2 12.9-6 17.9-4.6 5.7-12.3 9.1-14.5 16.1-1.2 3.8-.5 8 .5 11.9.8 3.2 2 6.6 4.9 8.1 2.4 1.2 5.4.7 8.1.1 10.6-2.3 21.2-4.6 31.9-7 1.6-.4 3.4-.8 4.5-2 1.3-1.4 1.5-3.4 1.6-5.3 1.7-28 2.8-53.7 3.1-81.7" class="cls-4" data-name="Path 1630"/>
                <path id="Path_1631" d="M180.6 33.5V38l2 67.3c.1 7.8-5.3 14.4-13.7 14.5-8.5.1-15.5-6.3-15.8-14.2-.3-8.3-.7-17-.7-17s-10.7-1.5-13.3-15.4c-1.3-6.9-1.3-18.3-.9-27.6a14.731 14.731 0 0 1 15.2-14.2h.6z" class="cls-5" data-name="Path 1631"/>
                <path id="Path_1632" d="M140.9 54.2c.2.2 1.6-.8 3.5-.9 1.9 0 3.4.9 3.6.6.1-.1-.1-.5-.8-1a5.1 5.1 0 0 0-2.9-.8 4.779 4.779 0 0 0-2.8 1c-.5.5-.7 1-.6 1.1z" class="cls-4" data-name="Path 1632"/>
                <path id="Path_1633" d="M161.9 53.5a1.859 1.859 0 0 0 1.8 1.8 1.759 1.759 0 0 0 1.8-1.6 1.859 1.859 0 0 0-1.8-1.8 1.579 1.579 0 0 0-1.8 1.6z" class="cls-4" data-name="Path 1633"/>
                <path id="Path_1634" d="M159.9 51.2c.2.2 1.6-.8 3.5-.9 1.9 0 3.4.9 3.6.6.1-.1-.1-.5-.8-1a5.1 5.1 0 0 0-2.9-.8 4.779 4.779 0 0 0-2.8 1c-.6.6-.7 1-.6 1.1z" class="cls-4" data-name="Path 1634"/>
                <path id="Path_1635" d="M153.3 65.7a12.891 12.891 0 0 0-3.1-.5c-.5 0-1-.1-1.1-.5a3.262 3.262 0 0 1 .3-1.5c.4-1.2.9-2.4 1.4-3.8 1.9-5.4 3.2-9.8 3-9.9s-1.9 4.2-3.8 9.6c-.5 1.3-.9 2.6-1.3 3.8a2.491 2.491 0 0 0-.2 1.9 1.779 1.779 0 0 0 .8.7 2.485 2.485 0 0 0 .8.1 11.276 11.276 0 0 0 3.2.1z" class="cls-4" data-name="Path 1635"/>
                <path id="Path_1636" d="M152.6 88.5a35.426 35.426 0 0 0 18.5-5.5s-4.3 9.7-18.3 8.8z" class="cls-6" data-name="Path 1636"/>
                <path id="Path_1637" d="M154.2 70.3a3.418 3.418 0 0 1 3.1-1.4 3.333 3.333 0 0 1 2.2 1.1 2.132 2.132 0 0 1 .2 2.3 2.485 2.485 0 0 1-2.5.7 7.68 7.68 0 0 1-2.5-1.4 1.7 1.7 0 0 1-.6-.6c-.1-.1-.1-.4.1-.7" class="cls-6" data-name="Path 1637"/>
                <path id="Path_1638" d="M159 66.9c-.3 0-.3 2.1-2 3.6s-4 1.4-4 1.7c0 .1.5.4 1.5.4a5.069 5.069 0 0 0 3.3-1.3 5.219 5.219 0 0 0 1.6-3c0-.9-.3-1.4-.4-1.4z" class="cls-4" data-name="Path 1638"/>
                <path id="Path_1639" d="M160.5 44.4c.2.5 2.1.2 4.4.4s4.1.8 4.4.3c.1-.2-.2-.7-1-1.2a7.881 7.881 0 0 0-6.7-.6c-.7.4-1.2.8-1.1 1.1z" class="cls-4" data-name="Path 1639"/>
                <path id="Path_1640" d="M141.2 50.6c.4.4 1.7-.1 3.3-.1 1.6-.1 2.9.2 3.3-.3.1-.2-.1-.7-.7-1.1a4.17 4.17 0 0 0-2.7-.6 4.448 4.448 0 0 0-2.6 1c-.6.4-.7.9-.6 1.1z" class="cls-4" data-name="Path 1640"/>
                <path id="Path_1641" d="M151.2 46.5a4.822 4.822 0 0 1-1.3-3 6.773 6.773 0 0 0-1.4 4.1 53.474 53.474 0 0 0-14.4.4c-2.3-6.9.5-15 6.1-19.7a27.657 27.657 0 0 1 21.3-5.7c2.3.1 5.7 2.5 5.7 2.5a16.223 16.223 0 0 1 5.9-1.1 11.223 11.223 0 0 1 9.1 5.3 21.177 21.177 0 0 1 2.6 11.1 52.264 52.264 0 0 1-2.2 15.7c-5.6-1.3-8.7-4.4-11.5-9.5-1.8-3.3-3.4-9.4-4.4-12.8a11.237 11.237 0 0 0-4.6 3.8s-4.1 5-2.5 8.8z" class="cls-4" data-name="Path 1641"/>
                <path id="Path_1642" d="M180.3 55.2a4.8 4.8 0 0 1 4.2-.4 5.069 5.069 0 0 1 2 2.8 6.051 6.051 0 0 1-1 5.5 4.28 4.28 0 0 1-5.3.9" class="cls-5" data-name="Path 1642"/>
                <path id="Path_1643" d="M181.8 61.7a5.7 5.7 0 0 0 1.3-.1 2.1 2.1 0 0 0 1.1-.8 2.155 2.155 0 0 0 .4-1.6 2.127 2.127 0 0 0-.7-1.5 2.725 2.725 0 0 0-1.2-.6 2.879 2.879 0 0 0-1.3.1c.1-.1.2-.1.3-.2a3.083 3.083 0 0 1 1-.1 2.618 2.618 0 0 1 1.3.6 2.469 2.469 0 0 1 .3 3.3 2.326 2.326 0 0 1-1.2.8 3.083 3.083 0 0 1-1 .1.188.188 0 0 1-.3 0z" class="cls-6" data-name="Path 1643"/>
                <path id="Path_1644" d="M142.1 48v-.4c0-.3-.1-.7-.1-1.3a34.487 34.487 0 0 1-.1-4.8 28.3 28.3 0 0 1 1-7.1 18.533 18.533 0 0 1 4.1-7.7 16.382 16.382 0 0 1 3.5-2.9 11.228 11.228 0 0 1 4-1.4 15.5 15.5 0 0 1 7.1.5 22.017 22.017 0 0 1 4.5 1.7 6.658 6.658 0 0 1 1.2.6l.3.2a.1.1 0 0 1 .1.1h-.1l-.3-.1a6.575 6.575 0 0 1-1.2-.6 26.945 26.945 0 0 0-4.5-1.6 15.127 15.127 0 0 0-7-.4 10.736 10.736 0 0 0-3.9 1.4 13.493 13.493 0 0 0-3.5 2.8 20.073 20.073 0 0 0-4.1 7.6 33.763 33.763 0 0 0-1 7c-.1 2 0 3.7 0 4.8a4.512 4.512 0 0 0 .1 1.3v.3c0 .1-.1 0-.1 0z" class="cls-7" data-name="Path 1644"/>
                <path id="Path_1645" d="M153.4 46.6a.367.367 0 0 0-.1-.3c0-.2-.1-.5-.1-.9-.1-.8-.2-1.8-.3-3.2a25.671 25.671 0 0 1 .1-4.8 15.105 15.105 0 0 1 1.6-5.6 8.518 8.518 0 0 1 1.7-2.5 12.865 12.865 0 0 1 2.1-1.9 13.354 13.354 0 0 1 4.4-1.9 16.449 16.449 0 0 1 3.2-.5 2.22 2.22 0 0 0 .9-.1l-.9.1a28.373 28.373 0 0 0-3.1.6 13.789 13.789 0 0 0-4.3 1.9 10.937 10.937 0 0 0-3.7 4.3 17.424 17.424 0 0 0-1.6 5.5 24.786 24.786 0 0 0-.1 4.7c.1 1.4.2 2.4.2 3.2a2.483 2.483 0 0 0 .1.9c0 .3 0 .4-.1.5z" class="cls-7" data-name="Path 1645"/>
                <path id="Path_1646" d="M190.3 56.5a4.4 4.4 0 0 0-.2-1.6 6.472 6.472 0 0 0-2.9-3.2c-1.6-1-3.9-1.3-6.3-1.9a9.714 9.714 0 0 1-3.6-1.6 10.783 10.783 0 0 1-2.8-3.2 26.95 26.95 0 0 1-1.9-3.8 28.694 28.694 0 0 1-1.5-3.7 35.827 35.827 0 0 1-1.8-6.4 36.409 36.409 0 0 1-.7-4.4 5.739 5.739 0 0 1-.1-1.2v-.4c0 .1.1.3.1.4a7.386 7.386 0 0 0 .2 1.2 43 43 0 0 0 .8 4.4c.5 2.2 1.1 4.3 1.8 6.4a27.489 27.489 0 0 0 1.5 3.6c.6 1.3 1.2 2.5 1.9 3.7a10.4 10.4 0 0 0 2.8 3.1 12.252 12.252 0 0 0 3.5 1.6c1.2.3 2.4.5 3.5.8a10.208 10.208 0 0 1 2.9 1.1 6 6 0 0 1 2.9 3.4 1.7 1.7 0 0 1 .1.7v.5a.646.646 0 0 0-.2.5z" class="cls-7" data-name="Path 1646"/>
                <path id="Path_1647" d="M218.4 110.6a3.609 3.609 0 0 0 .4-.5 13.03 13.03 0 0 0 1-1.5 9.7 9.7 0 0 0 .7-6.5 24.192 24.192 0 0 0-4.4-8.8 63.523 63.523 0 0 0-8.1-9.1c-3.1-3-6.1-5.9-8.6-8.7a46.039 46.039 0 0 1-5.8-8.1 29.818 29.818 0 0 1-2.5-6.2 4.4 4.4 0 0 1-.2-1 2.485 2.485 0 0 1-.1-.8 4.331 4.331 0 0 0-.1-.5 4.331 4.331 0 0 1 .1.5 3.092 3.092 0 0 0 .2.8c.1.3.2.6.3 1a30.237 30.237 0 0 0 2.6 6.2 46.737 46.737 0 0 0 5.8 8c2.5 2.8 5.5 5.6 8.6 8.7a69.411 69.411 0 0 1 8.1 9.1 25.357 25.357 0 0 1 4.4 8.9 9.776 9.776 0 0 1 .1 3.8 7.085 7.085 0 0 1-.9 2.8 7.165 7.165 0 0 1-1.1 1.5 1 1 0 0 0-.5.4z" class="cls-4" data-name="Path 1647"/>
                <path id="Path_1648" d="M175 24.1a9.305 9.305 0 0 1-3.3-8.7 9.889 9.889 0 0 1 5.6-7.5 9.654 9.654 0 0 1 8.3 0 8.84 8.84 0 0 1 4.8 6.6 8.036 8.036 0 0 1-3.4 7.4 25.437 25.437 0 0 1-3.8 1.6 7.372 7.372 0 0 0-3.4 2.3 3.312 3.312 0 0 0-.2 3.9" class="cls-4" data-name="Path 1648"/>
                <path id="Path_1649" d="M176.2 10.1a.215.215 0 0 1 .2-.2c.1-.1.1-.2.2-.3l.3-.3a5.853 5.853 0 0 1 2.7-1.4 5.758 5.758 0 0 1 4.4.9 6.947 6.947 0 0 1 2.9 4.7 7.84 7.84 0 0 1-1.1 5.4 11.168 11.168 0 0 1-3.2 3.3 10.168 10.168 0 0 1-2.8 1.3 3.091 3.091 0 0 1-.8.2.367.367 0 0 0-.3.1c.1 0 .2-.1.3-.1.2-.1.4-.1.8-.3a11.482 11.482 0 0 0 2.7-1.4 9.491 9.491 0 0 0 3.1-3.2 8.8 8.8 0 0 0 1.1-5.3 7 7 0 0 0-2.8-4.5 4.306 4.306 0 0 0-2.2-.9 7.388 7.388 0 0 0-2.1 0 6.6 6.6 0 0 0-2.7 1.2 5.007 5.007 0 0 1-.7.8z" class="cls-7" data-name="Path 1649"/>
                <path id="Path_1650" d="M182.1 24.4a2.792 2.792 0 0 0-2.2-.9 19.67 19.67 0 0 0-2.4.3 6.491 6.491 0 0 1-3.8-.9.633.633 0 0 0-.9-.1l-.1.1a.913.913 0 0 0 .2 1.1 2.384 2.384 0 0 0 1.1.6c1.7.5 3.7.3 5.3 1.1.8.4 1.6 1 2.4.7.9-.2.9-1.3.4-2z" class="cls-8" data-name="Path 1650"/>
                <path id="Path_1651" d="M173.9 24.7a.778.778 0 0 1-.2-.8.864.864 0 0 1 .3-.6.367.367 0 0 1 .3-.1 6.89 6.89 0 0 0-.3.8 1.7 1.7 0 0 1-.1.7z" class="cls-4" data-name="Path 1651"/>
                <path id="Path_1652" d="M175.7 25s-.1 0-.2-.2a1.073 1.073 0 0 1 .1-1.1.31.31 0 0 1 .2-.1 1.383 1.383 0 0 0-.2.7c0 .4.2.7.1.7z" class="cls-4" data-name="Path 1652"/>
                <path id="Path_1653" d="M177.5 25.4c-.1 0 .1-.4.1-.9a5.527 5.527 0 0 0-.1-.9c0-.1.3.3.3.9.1.6-.2 1-.3.9z" class="cls-4" data-name="Path 1653"/>
                <path id="Path_1654" d="M179.6 26.2a3.079 3.079 0 0 0 .3-1.3 4.329 4.329 0 0 0-.5-1.2.619.619 0 0 1 .4.2 1.777 1.777 0 0 1 .4 1 2.959 2.959 0 0 1-.2 1 1.727 1.727 0 0 1-.4.3z" class="cls-4" data-name="Path 1654"/>
                <path id="Path_1655" d="M181 26.5a2.958 2.958 0 0 0 .3-.4 2.063 2.063 0 0 0 .2-2l-.2-.4a1.727 1.727 0 0 1 .4.3 2.133 2.133 0 0 1 .3 1.2 1.606 1.606 0 0 1-.5 1.1 4.2 4.2 0 0 0-.5.2z" class="cls-4" data-name="Path 1655"/>
                <path id="Path_1656" d="M181.9 27.8v.7a3.047 3.047 0 0 1-.8 1.6 2.589 2.589 0 0 1-1.1.7 4.013 4.013 0 0 1-1.5.3 9.191 9.191 0 0 1-3.3-.6 11.607 11.607 0 0 1-4.9-3.6 13.03 13.03 0 0 1-1-1.5l-.3-.6c.4.7.9 1.4 1.4 2.1a12.97 12.97 0 0 0 4.8 3.5 8.662 8.662 0 0 0 3.2.6 3.406 3.406 0 0 0 2.4-.9 2.9 2.9 0 0 0 .9-1.5c.2-.6.1-.8.2-.8z" class="cls-7" data-name="Path 1656"/>
                <path id="Path_1657" d="M230.5 148c-.6-5.6-3.8-10.7-7.3-15.1s-7.5-8.5-10.2-13.5c-1.8-3.3-3-7-4.6-10.4-1.6-3.5-3.7-6.8-6.8-8.9s-11.6-5.2-18.3-4l-.9 1.6c-9.9 3.6-20.6 4.1-29.4-.3-4.8 1.8-25.3 6.8-28.8 12.9-.9 1.5-.6 4.9.3 9.5l-16.2-9.6-14.4 37.2-.1.3a18.974 18.974 0 0 0 12.1 23.4 37.365 37.365 0 0 0 28.2-9.4l2.7-2.4c2.1 5.7 3.6 9.5 3.6 9.5l-9.3 28.1h71.5L192 167l3.4-8.8c.4.8.9 1.6 1.4 2.4 3.2 5.1 10.6 10.7 16.6 10.6 3.5 0 7.7-2.4 10.4-4.7 4.9-4.3 7.4-12.1 6.7-18.5z" class="cls-8" data-name="Path 1657"/>
                <path id="Path_1658" d="M108.3 110l.1.1.3.2 1.2.7 4.5 2.6 15.5 9.2.1.1v.1a44.071 44.071 0 0 0-3.2 11.5c-.8 5-1.2 9.9-2.2 14.2a29.767 29.767 0 0 1-1.8 6 27.832 27.832 0 0 1-2.4 4.9 19.9 19.9 0 0 1-5.4 5.8 17.4 17.4 0 0 1-1.8 1.1l-.5.2c-.1 0-.1.1-.2.1l.2-.1.5-.3a9.392 9.392 0 0 0 1.8-1.2 22.5 22.5 0 0 0 5.3-5.8 22.274 22.274 0 0 0 2.4-4.9 44.961 44.961 0 0 0 1.7-6c.9-4.3 1.4-9.2 2.2-14.2a49.18 49.18 0 0 1 3.2-11.6v.2l-15.4-9.3-4.4-2.7-1.2-.7-.5-.2z" class="cls-4" data-name="Path 1658"/>
                <path id="Path_1659" d="M195.4 158.2a.349.349 0 0 1-.1-.2l-.3-.7-1.1-2.5c-.9-2.1-2.2-5-3.6-8.3a26.429 26.429 0 0 1-1.4-4.8 8.109 8.109 0 0 1 .2-4.1 5.131 5.131 0 0 1 1.5-2.3l.5-.5.2-.2s-.2.3-.6.8a7.894 7.894 0 0 0-1.4 2.3 7.758 7.758 0 0 0-.1 4 28.986 28.986 0 0 0 1.4 4.8c1.3 3.3 2.6 6.2 3.5 8.4.4 1 .8 1.9 1 2.5a4.875 4.875 0 0 0 .3.7v.1z" class="cls-4" data-name="Path 1659"/>
                <path id="Path_1660" d="M224.6 148.6c-.1-.1-.1-.2-.2-.3-.1-.2-.2-.5-.4-.9l-1.4-3.3c-1.2-2.8-2.7-6.6-4.6-10.8-1.8-4.2-3.6-7.9-4.8-10.7a3.691 3.691 0 0 0-2.5-2.3h-1.1c.1 0 .1 0 .2-.1a1.7 1.7 0 0 1 1 0 4.02 4.02 0 0 1 2.6 2.3c1.3 2.7 3 6.5 4.9 10.6 1.8 4.2 3.4 8 4.5 10.8.6 1.4 1 2.5 1.3 3.3a4.649 4.649 0 0 0 .3.9c.1.3.2.4.2.5z" class="cls-4" data-name="Path 1660"/>
                <path id="Path_1661" d="M225.7 145.1s-.2-.6-.6-1.6a17.036 17.036 0 0 0-1.9-3.5 18.673 18.673 0 0 0-2.6-3c-.8-.7-1.3-1.1-1.2-1.1.1.1.3.1.4.2.3.2.7.5 1 .7a19.277 19.277 0 0 1 2.7 3 12.159 12.159 0 0 1 1.8 3.6 5.274 5.274 0 0 1 .3 1.2 1.087 1.087 0 0 1 .1.5z" class="cls-4" data-name="Path 1661"/>
                <path id="Path_1662" d="M182.4 162.3l-.3.3c-.2.2-.5.4-.9.8-.8.6-1.9 1.6-3.4 2.6a54.221 54.221 0 0 1-12.2 6.8 31.752 31.752 0 0 1-7.5 1.9 33.263 33.263 0 0 1-6.3.3 30.341 30.341 0 0 1-4.2-.6 5.307 5.307 0 0 1-1.1-.3c-.1 0-.3-.1-.4-.1a.6.6 0 0 1 .4.1c.3 0 .6.2 1.1.2a30.064 30.064 0 0 0 4.2.5 26.713 26.713 0 0 0 6.3-.4 47.268 47.268 0 0 0 7.4-1.9 53.441 53.441 0 0 0 12.2-6.7c1.5-1 2.6-1.9 3.4-2.5l.9-.7a1.381 1.381 0 0 0 .4-.3z" class="cls-4" data-name="Path 1662"/>
                <g id="Group_1830" class="cls-9" data-name="Group 1830">
                    <path id="Path_1663" d="M181.4 163.2c-6 3.1-12.2 6.1-19 6.9a45.2 45.2 0 0 0-5.3.6 8.06 8.06 0 0 0-4.6 2.5 1.4 1.4 0 0 0-.3 1.5 1.284 1.284 0 0 0 1 .4c5.2.6 10.4-.9 15.1-3.2a96.041 96.041 0 0 0 13.1-8.7" data-name="Path 1663"/>
                </g>
                <g id="Group_1831" class="cls-9" data-name="Group 1831">
                    <path id="Path_1664" d="M189.1 142.4c.5 4.2-.5 7.5-.6 11.7a23.1 23.1 0 0 0 3.5 12.8l3.4-8.8s-1.1-3-1.8-4.5a69.726 69.726 0 0 1-4.3-11" data-name="Path 1664"/>
                </g>
                <g id="Group_1832" class="cls-9" data-name="Group 1832">
                    <path id="Path_1665" d="M112.3 166.8a8.125 8.125 0 0 0 7.9-1.3c3.7-2.8 6-7.1 7.2-11.6s1.3-9.2 1.4-13.8a81.28 81.28 0 0 1 1-13.9c.1-.4.1-1-.4-1.1-.4-.1-.6.3-.8.6-1.7 4.5-2.6 12.1-3.2 17.5a40.3 40.3 0 0 1-3.3 12.5 19.367 19.367 0 0 1-9.8 11.1" data-name="Path 1665"/>
                </g>
                <path id="Path_1666" d="M210.4 122a.367.367 0 0 1 .1.3 2.92 2.92 0 0 1 .2.9 9.758 9.758 0 0 1-.2 3.4c-.1.7-.3 1.5-.5 2.3a25.824 25.824 0 0 1-.8 2.6 18.373 18.373 0 0 1-3.2 5.4 14.091 14.091 0 0 1-4.9 3.8 13.575 13.575 0 0 1-4.9 1.2 9.671 9.671 0 0 1-3.4-.5 3.552 3.552 0 0 1-.9-.4c-.1 0-.2-.1-.3-.2.1 0 .2.1.3.1l.9.3a9.628 9.628 0 0 0 3.4.4 13.058 13.058 0 0 0 4.8-1.2 14.7 14.7 0 0 0 4.8-3.8 20.245 20.245 0 0 0 3.2-5.3 19.751 19.751 0 0 0 .8-2.6c.2-.8.4-1.6.6-2.3a9.61 9.61 0 0 0 .3-3.4 6.212 6.212 0 0 1-.3-1z" class="cls-4" data-name="Path 1666"/>
                <path id="Path_1667" d="M204.1 101.9l-.2.1a1.854 1.854 0 0 0-.7.2 6.776 6.776 0 0 0-2.3 1.4 12.111 12.111 0 0 0-2.4 3.5 55.675 55.675 0 0 1-2.4 5.2 8.6 8.6 0 0 1-2 2.6 6.284 6.284 0 0 1-3.3 1.5 12.75 12.75 0 0 1-3.9 0c-1.3-.1-2.7-.4-4-.4a14.769 14.769 0 0 0-2.1.1 6.637 6.637 0 0 0-2 .6 10.178 10.178 0 0 0-3.3 2.9c-.9 1.2-1.8 2.5-2.8 3.7a13.651 13.651 0 0 1-1.7 1.7 8.578 8.578 0 0 1-2 1.3 9.638 9.638 0 0 1-4.7.9 11.466 11.466 0 0 1-4.5-1.1 9.735 9.735 0 0 1-3.5-2.9 19.754 19.754 0 0 1-2-3.8 23.7 23.7 0 0 0-1.9-3.5 4.357 4.357 0 0 0-1.4-1.3l-.4-.3-.4-.2a5.937 5.937 0 0 1-.8-.4 13.449 13.449 0 0 0-3.5-.5c-1.1 0-2.3 0-3.3-.1a9.474 9.474 0 0 1-2.9-.7 5.6 5.6 0 0 1-2.1-1.6 6.489 6.489 0 0 1-1.4-4 8.574 8.574 0 0 1 .5-2.7l.3-.6.1-.2a.31.31 0 0 1-.1.2l-.3.6a5.753 5.753 0 0 0-.5 2.6 6.972 6.972 0 0 0 1.5 3.9 6.524 6.524 0 0 0 2.1 1.6 9.474 9.474 0 0 0 2.9.7c1 .1 2.1.1 3.3.1a14.873 14.873 0 0 1 3.6.5 3.552 3.552 0 0 1 .9.4l.4.2.4.3a9.266 9.266 0 0 1 1.4 1.4 15.8 15.8 0 0 1 2 3.6 21.8 21.8 0 0 0 2 3.7 9.319 9.319 0 0 0 3.4 2.8 11.421 11.421 0 0 0 4.4 1.1 10.5 10.5 0 0 0 4.6-.9 8.578 8.578 0 0 0 2-1.3 12.878 12.878 0 0 0 1.6-1.7c1-1.2 1.8-2.5 2.8-3.7a10.521 10.521 0 0 1 3.4-2.9 8.3 8.3 0 0 1 2.1-.6 14.769 14.769 0 0 1 2.1-.1c1.4.1 2.7.3 4.1.4a12.109 12.109 0 0 0 3.8 0 6.334 6.334 0 0 0 3.2-1.5 8.6 8.6 0 0 0 2-2.6c1-1.8 1.6-3.6 2.4-5.1a10.718 10.718 0 0 1 2.5-3.5 5.935 5.935 0 0 1 2.3-1.4c.2-.1.5-.1.7-.2z" class="cls-10" data-name="Path 1667"/>
                <path id="Path_1668" d="M190 145.2l-.2.1c-.2.1-.3.2-.5.2a3.043 3.043 0 0 1-2.1-.1 26.062 26.062 0 0 1-2.8-1.7c-1.1-.7-2.2-1.7-3.5-2.5a9.432 9.432 0 0 0-2.3-1 12.413 12.413 0 0 0-2.7-.3 15.728 15.728 0 0 0-5.7 1.7 52.8 52.8 0 0 0-5.6 3.5 26.007 26.007 0 0 1-6.4 3.4 12.6 12.6 0 0 1-7.2 0 28.4 28.4 0 0 1-6.1-2.9c-1.8-1.1-3.5-2.3-5.1-3.2a20.571 20.571 0 0 0-4.8-2.1 12.386 12.386 0 0 0-4.3-.5 10.092 10.092 0 0 0-3.1.8 11.865 11.865 0 0 0-2.3 1.6l.1-.1.4-.4a6.57 6.57 0 0 1 1.7-1.2 9.014 9.014 0 0 1 3.2-.9 12.353 12.353 0 0 1 4.3.4 20.57 20.57 0 0 1 4.8 2.1c1.7.9 3.3 2.1 5.1 3.2a23.375 23.375 0 0 0 6 2.8 11.929 11.929 0 0 0 7 0 23.644 23.644 0 0 0 6.3-3.3 54.962 54.962 0 0 1 5.7-3.6 13.408 13.408 0 0 1 5.8-1.7 8.011 8.011 0 0 1 2.7.3 9.432 9.432 0 0 1 2.3 1c1.4.9 2.5 1.8 3.5 2.5a26.751 26.751 0 0 0 2.8 1.8 2.748 2.748 0 0 0 2 .2c.8.1 1-.1 1-.1z" class="cls-10" data-name="Path 1668"/>
                <path id="Path_1669" d="M162.2 173.1a.215.215 0 0 1-.2-.2l-.6-.5-2.2-1.9a40.288 40.288 0 0 0-7.9-5.6 18.482 18.482 0 0 0-5-1.7 15.6 15.6 0 0 0-4.3-.3 29.313 29.313 0 0 0-2.9.5c-.7.2-1 .4-1 .3a.349.349 0 0 0 .2-.1c.2-.1.5-.2.7-.3a13.565 13.565 0 0 1 2.9-.6 16.258 16.258 0 0 1 4.4.2 18.02 18.02 0 0 1 5.1 1.7 33.781 33.781 0 0 1 7.9 5.7c.9.8 1.6 1.5 2.1 2l.6.6z" class="cls-10" data-name="Path 1669"/>
                <path id="Path_1670" d="M196.4 178.9a14.633 14.633 0 0 0-.9-1.3 6.294 6.294 0 0 0-3.9-1.9 10.056 10.056 0 0 0-3 0 11.655 11.655 0 0 0-3.3 1.1c-1.1.5-2.3 1.1-3.5 1.7a22.96 22.96 0 0 1-3.9 1.7 15.986 15.986 0 0 1-2.1.5 14.918 14.918 0 0 1-2.1.2h-2c-.7-.1-1.3-.1-1.9-.2a18.228 18.228 0 0 1-6.3-2.2 15.421 15.421 0 0 1-3.6-2.7c-.4-.4-.6-.7-.8-.9l-.3-.3.3.3a8.176 8.176 0 0 1 .8.9 18.312 18.312 0 0 0 3.6 2.6 16.886 16.886 0 0 0 6.2 2.1c.6.1 1.2.1 1.9.2h2a12.311 12.311 0 0 0 2-.2 11.7 11.7 0 0 0 2-.5 18.415 18.415 0 0 0 3.8-1.7c1.2-.6 2.4-1.2 3.5-1.7a13.521 13.521 0 0 1 3.4-1.1 8.083 8.083 0 0 1 3.1 0 6.416 6.416 0 0 1 3.9 2l.2.3c.1.1.1.2.2.3s.2.3.3.4c.4.1.4.2.4.4z" class="cls-10" data-name="Path 1670"/>
                <path id="Path_1671" d="M199.6 187.1h-.2l-.5-.1a13.4 13.4 0 0 0-2-.1 17.5 17.5 0 0 0-3.2.4 26.709 26.709 0 0 0-4 1.3 39.469 39.469 0 0 0-4.6 2.3c-1.6.9-3.3 1.9-5.2 2.9a26.7 26.7 0 0 1-6.1 2.4 16.565 16.565 0 0 1-7 .3 26.106 26.106 0 0 1-6.7-2.1 62.683 62.683 0 0 1-5.8-2.9 45.979 45.979 0 0 0-10.2-4.2 30.341 30.341 0 0 0-4.2-.6 17.329 17.329 0 0 0-3.2.3c-.4.1-.8.2-1.1.3s-.5.2-.8.3l-.5.2-.2.1.2-.1.5-.2c.3-.1.5-.2.8-.3.4-.1.7-.2 1.1-.3a16.551 16.551 0 0 1 3.2-.3 20.073 20.073 0 0 1 4.2.5 43.465 43.465 0 0 1 10.2 4.1c1.9 1 3.8 1.9 5.8 2.9a26.669 26.669 0 0 0 6.6 2.1 16.1 16.1 0 0 0 6.9-.3 31.317 31.317 0 0 0 6-2.4c1.8-1 3.5-1.9 5.2-2.8 1.5-.8 3-1.6 4.6-2.3a27.96 27.96 0 0 1 4.1-1.3 31.062 31.062 0 0 1 3.2-.4 12.749 12.749 0 0 1 2 .1l.5.1z" class="cls-10" data-name="Path 1671"/>
                <path id="Path_1672" d="M220.3 137.6c-.1.1-.2.2-.2.3-.2.3-.5.6-.7.9a12.159 12.159 0 0 0-1.8 3.6c-.6 1.6-1.2 3.6-2.1 5.6a11.729 11.729 0 0 1-1.9 3 8.329 8.329 0 0 1-3 2.3 12.969 12.969 0 0 1-7.2 1.2 19.078 19.078 0 0 1-5.8-1.5 39.534 39.534 0 0 1-3.7-1.6l-1-.5c-.1 0-.2-.1-.3-.2.1 0 .2.1.4.1l1 .4c.9.4 2.1.9 3.7 1.5a23.386 23.386 0 0 0 5.8 1.4 13.388 13.388 0 0 0 7.1-1.2 8 8 0 0 0 2.9-2.3 11.4 11.4 0 0 0 1.8-3c.9-2.1 1.5-4 2.1-5.6a15.467 15.467 0 0 1 1.9-3.6 5.716 5.716 0 0 1 .7-.8c.1.2.2.1.3 0z" class="cls-10" data-name="Path 1672"/>
                <path id="Path_1673" d="M225.7 145.2l-.2-.4a2.078 2.078 0 0 0-1.9-.9 1.213 1.213 0 0 0-.5.1.693.693 0 0 1 .4-.3 1.879 1.879 0 0 1 2.1 1 1.75 1.75 0 0 1 .1.5z" class="cls-10" data-name="Path 1673"/>
                <path id="Path_1674" d="M224.7 142c.1 0 .2.1.4.1l.9.6a6.081 6.081 0 0 1 1.9 3.5 8.784 8.784 0 0 1 .1 2.8 15.469 15.469 0 0 1-.6 3.1c-.6 2.4-1.3 4.7-2.1 7a22.154 22.154 0 0 1-3.5 6.4 13.989 13.989 0 0 1-4.6 3.8 18.942 18.942 0 0 1-2.1.9 10.461 10.461 0 0 1-1.7.4l-.6.1.6-.1a10.462 10.462 0 0 0 1.7-.4 9.494 9.494 0 0 0 2.1-.9 16.542 16.542 0 0 0 4.5-3.8 22.155 22.155 0 0 0 3.5-6.4c.8-2.3 1.5-4.6 2.1-7a16.961 16.961 0 0 0 .6-3.1 12.187 12.187 0 0 0 0-2.7 6.241 6.241 0 0 0-1.8-3.5c-.6-.3-1-.6-1.4-.8z" class="cls-10" data-name="Path 1674"/>
                <path id="Path_1675" d="M221.8 131.5a8.1 8.1 0 0 0-2.2 0 9.036 9.036 0 0 0-2.1.8 4.053 4.053 0 0 1 4.3-.8z" class="cls-10" data-name="Path 1675"/>
                <path id="Path_1676" d="M119.8 159.2a2.663 2.663 0 0 1-1.2.3 6.356 6.356 0 0 1-3.3-.7 8.467 8.467 0 0 1-1.9-1.4 11.984 11.984 0 0 1-1.7-2.1c-1.1-1.6-1.9-3.5-3.2-5.3a15.972 15.972 0 0 0-4.4-4.2 15.122 15.122 0 0 0-4.5-2 12.573 12.573 0 0 0-3.3-.5c-.8 0-1.2 0-1.2-.1h1.2a13.318 13.318 0 0 1 3.4.5 15.681 15.681 0 0 1 4.6 2 15.052 15.052 0 0 1 4.5 4.2c1.3 1.8 2.1 3.7 3.2 5.3a15.665 15.665 0 0 0 1.7 2.1 12.377 12.377 0 0 0 1.8 1.4 4.424 4.424 0 0 0 4.3.5z" class="cls-10" data-name="Path 1676"/>
                <path id="Path_1677" d="M126.3 133.6h-.3l-.8-.1a7.385 7.385 0 0 1-1.2-.2c-.5-.1-1-.2-1.6-.3-.6-.2-1.2-.3-1.9-.5s-1.4-.5-2.1-.7a30.59 30.59 0 0 1-8.9-5.2c-.6-.5-1.2-1-1.7-1.5l-1.4-1.4c-.4-.4-.8-.9-1.1-1.2a8.745 8.745 0 0 1-.8-1l-.5-.6c-.1-.1-.1-.1-.1-.2l.2.2.5.6a6.469 6.469 0 0 0 .8.9 11.985 11.985 0 0 0 1.1 1.2l1.4 1.4c.5.5 1.1 1 1.7 1.5a34.6 34.6 0 0 0 8.9 5.2c.7.3 1.5.6 2.1.8a18.033 18.033 0 0 0 1.9.5c.6.1 1.1.3 1.6.4a7.386 7.386 0 0 0 1.2.2l.8.1c0-.2.1-.1.2-.1z" class="cls-10" data-name="Path 1677"/>
                <path id="Path_1678" d="M126.9 166.5s0-.7-.1-1.8c-.1-.6-.2-1.3-.3-1.9a9.749 9.749 0 0 0-.8-2.2 12.811 12.811 0 0 0-1.1-2l-1.2-1.5c-.8-.8-1.4-1.1-1.3-1.1.2.1.3.1.4.2.2.1.3.2.5.3a2.652 2.652 0 0 1 .6.5 6.39 6.39 0 0 1 1.3 1.5 10.5 10.5 0 0 1 1.2 2.1 19.452 19.452 0 0 1 .8 2.2c.1.6.2 1.3.3 1.9v1.3a.544.544 0 0 0-.3.5z" class="cls-10" data-name="Path 1678"/>
                <path id="Path_1679" d="M178.9 152.1h-1.4a1.268 1.268 0 0 1-.6-.1c-.5-.1-1-.1-1.5-.2l-.8-.2-.9-.3a14.578 14.578 0 0 1-1.9-.7 22.317 22.317 0 0 1-7.8-5.4 18.26 18.26 0 0 1-1.3-1.6c-.2-.3-.4-.5-.6-.8l-.5-.7c-.3-.5-.5-.9-.7-1.3l-.3-.6c-.1-.2-.1-.3-.2-.5l-.3-.7a.349.349 0 0 0-.1-.2c0 .1.1.1.1.2l.3.6.2.5c.1.2.2.3.3.5a6.551 6.551 0 0 0 .8 1.3l.5.7a5.548 5.548 0 0 1 .6.8c.4.5.8 1 1.3 1.6a33.77 33.77 0 0 0 3.5 3.1 23.777 23.777 0 0 0 4.1 2.3c.7.3 1.3.5 1.9.7l.9.3.8.2 1.5.3c.2 0 .4.1.6.1l.5.1.7.1c.2-.1.2-.1.3-.1z" class="cls-4" data-name="Path 1679"/>
                <path id="Path_1680" d="M134.7 117v.1l-.1.4c-.1.4-.2.8-.4 1.5-.1.3-.2.7-.3 1-.1.4-.2.8-.3 1.3s-.2.9-.3 1.5-.2 1.1-.3 1.6l-.3 1.8c-.1.6-.1 1.3-.2 2 0 .3-.1.7-.1 1v1.1a18.483 18.483 0 0 1-.1 2.3 82.578 82.578 0 0 0 .7 10c.5 3.3 1.2 6.6 2 9.9q.6 2.25 1.2 4.2c.2.7.4 1.3.6 1.9s.4 1.2.6 1.7c.4 1.1.7 2.1 1 3s.6 1.6.8 2.2.4 1.1.5 1.4l.1.4v.1a.1.1 0 0 0-.1-.1c0-.1-.1-.2-.2-.4a11.433 11.433 0 0 0-.6-1.4 17.122 17.122 0 0 0-.9-2.2c-.3-.9-.7-1.9-1.1-3l-.6-1.7c-.2-.6-.4-1.3-.6-1.9q-.6-1.95-1.2-4.2c-.8-3.3-1.5-6.6-2-9.9a67.654 67.654 0 0 1-.7-10.1c0-.8.1-1.5.1-2.3v-1.1c0-.4.1-.7.1-1 .1-.7.1-1.3.2-2l.3-1.8c.1-.6.2-1.1.3-1.6l.3-1.5c.1-.5.2-.9.3-1.3l.3-1c.2-.6.4-1.1.5-1.4l.1-.4c.4 0 .4 0 .4-.1z" class="cls-4" data-name="Path 1680"/>
                <path id="Path_1681" d="M159.6 105a8.262 8.262 0 0 1 1.8-5c.1 0-.6 1.1-1.1 2.4-.4 1.4-.6 2.6-.7 2.6z" class="cls-4" data-name="Path 1681"/>
                <path id="Path_1682" d="M152 102a7.03 7.03 0 0 1 3.3-3.7c0 .1-.9.7-1.8 1.7s-1.4 2-1.5 2z" class="cls-4" data-name="Path 1682"/>
                <path id="Path_1683" d="M168.5 105.7a21.051 21.051 0 0 1-.2-2.5 21.051 21.051 0 0 1-.2-2.5 7.267 7.267 0 0 1 .4 2.5 5.283 5.283 0 0 1 0 2.5z" class="cls-4" data-name="Path 1683"/>
                <path id="Path_1684" d="M178.8 104.6a7.453 7.453 0 0 0-1.8-5.3 2.764 2.764 0 0 1 .6.6 5.244 5.244 0 0 1 1 1.8 7.613 7.613 0 0 1 .3 2.1 2.486 2.486 0 0 1-.1.8z" class="cls-4" data-name="Path 1684"/>
                <g id="Group_1833" class="cls-9" data-name="Group 1833">
                    <path id="Path_1685" d="M182.4 97.5l-2.6.9c1.5 8.8 3.4 19.3 4.9 28.1a17.465 17.465 0 0 0 2.4 7.4c1.6 2.2 4.3 3.7 5.3 6.2-3.1-14-6.3-28.9-10-42.6z" data-name="Path 1685"/>
                </g>
                <path id="Path_1686" d="M135.3 69.8s.1-2.3 0-4.3a1.473 1.473 0 0 1 1.5-1.5h16.7l2.8-5.8a2.99 2.99 0 0 1 2.5-1.3h7.7a2.982 2.982 0 0 1 2.4 1.2l3 4.1 5.4.9a2.23 2.23 0 0 1 1.8 2l1 23.2h-44.7V69.8z" class="cls-8" data-name="Path 1686"/>
                <path id="Rectangle_2152" d="M0 0H6.1V2.9H0z" class="cls-1" data-name="Rectangle 2152" transform="translate(159.3 58)"/>
                <circle id="Ellipse_662" cx="9.8" cy="9.8" r="9.8" class="cls-8" data-name="Ellipse 662" transform="translate(151.8 64.6)"/>
                <circle id="Ellipse_663" cx="9.8" cy="9.8" r="9.8" data-name="Ellipse 663" opacity="0.6" transform="translate(151.8 64.6)"/>
                <circle id="Ellipse_664" cx="7.8" cy="7.8" r="7.8" class="cls-4" data-name="Ellipse 664" transform="translate(153.8 66.6)"/>
                <path id="Path_1687" d="M172.1 74.4v-1.1a.6.6 0 0 0-.1-.4c-.1-.4-.1-.7-.2-1.1a7.674 7.674 0 0 0-1.2-2.8 10.4 10.4 0 0 0-12.5-4.4c-.5.2-.9.4-1.4.6a9.13 9.13 0 0 0-1.3.8 8.627 8.627 0 0 0-2.2 2.2 13.229 13.229 0 0 0-1.5 2.9 10.322 10.322 0 0 0 0 6.5 8.927 8.927 0 0 0 1.5 2.9c.3.4.7.8 1 1.2a10.592 10.592 0 0 0 1.2 1 9.386 9.386 0 0 0 2.6 1.4 10.521 10.521 0 0 0 12.5-4.4 13.9 13.9 0 0 0 1.2-2.8 4.253 4.253 0 0 0 .2-1.1c0-.2.1-.3.1-.4v-.9c.1 0 .1 0 .1-.1v1.1a.6.6 0 0 1-.1.4 4.253 4.253 0 0 1-.2 1.1 9.612 9.612 0 0 1-1.1 2.8 10.527 10.527 0 0 1-7.1 5 10.647 10.647 0 0 1-5.6-.4c-.5-.2-.9-.4-1.4-.6a5.67 5.67 0 0 1-1.3-.8c-.4-.3-.8-.7-1.2-1a10.593 10.593 0 0 1-1-1.2 8.927 8.927 0 0 1-1.5-2.9 10.951 10.951 0 0 1 0-6.7 10.621 10.621 0 0 1 3.8-5.2 8.67 8.67 0 0 1 2.7-1.4 10.647 10.647 0 0 1 5.6-.4 10.754 10.754 0 0 1 7.1 5 9.612 9.612 0 0 1 1.1 2.8 4.253 4.253 0 0 1 .2 1.1c0 .2 0 .3.1.4v.9c-.1-.1-.1-.1-.1 0z" class="cls-4" data-name="Path 1687"/>
                <path id="Path_1688" d="M158.8 79.8c-.1.1-1-.1-2.1-1.2a6.355 6.355 0 0 1-1.4-2.2 6.1 6.1 0 0 1 1.1-6.2 6.524 6.524 0 0 1 2.1-1.6c1.4-.7 2.3-.5 2.3-.4s-.8.4-1.9 1.2a6.087 6.087 0 0 0-1.6 1.6 5.853 5.853 0 0 0-.9 5.1 5.381 5.381 0 0 0 1 2c.8 1.1 1.5 1.5 1.4 1.7z" class="cls-1" data-name="Path 1688"/>
                <path id="Path_1689" d="M153.2 65.2l-.6.3c-.2.1-.5.2-.7.3-.3.1-.6.2-1 .3a13.1 13.1 0 0 1-2.7.6 18.413 18.413 0 0 1-3.3.3c-1.1 0-2.2-.1-3.3-.2a13.1 13.1 0 0 1-2.7-.6c-.3-.1-.7-.2-1-.3a4.874 4.874 0 0 1-.7-.3l-.6-.3a1.421 1.421 0 0 1 .6.2 1.884 1.884 0 0 0 .8.2c.3.1.6.2 1 .3a25.579 25.579 0 0 0 2.7.5 20.881 20.881 0 0 0 6.6-.1 13.1 13.1 0 0 0 2.7-.6c.4-.1.7-.2 1-.3a4.875 4.875 0 0 0 .7-.3c.1.2.3.1.5 0z" class="cls-4" data-name="Path 1689"/>
                <path id="Path_1690" d="M153.1 83.3c0 .1.1.3.1.4a4.033 4.033 0 0 1 0 1.1 3.155 3.155 0 0 1-3 2.6c-.9.1-1.9 0-2.9.1-1.1.1-2.1.2-3.3.2a15.334 15.334 0 0 1-3.7-.2 6.1 6.1 0 0 1-3.3-2.1 4.383 4.383 0 0 1-.7-1.9 12.252 12.252 0 0 1-.2-1.9c0-1.3 0-2.5-.1-3.7 0-2.3-.1-4.4-.1-6.2s0-3.2-.1-4.2c0 1 .1 2.4.1 4.2.1 1.8.1 3.9.2 6.2 0 1.2.1 2.4.1 3.7a6.016 6.016 0 0 0 .9 3.7 5.208 5.208 0 0 0 3.2 2 8.773 8.773 0 0 0 3.6.2c1.2-.1 2.3-.2 3.3-.2a28.034 28.034 0 0 0 2.9 0 3.456 3.456 0 0 0 2.1-1 4.617 4.617 0 0 0 .9-1.5 4.1 4.1 0 0 0 .1-1.1.756.756 0 0 1-.1-.4z" class="cls-4" data-name="Path 1690"/>
                <path id="Path_1691" d="M144.5 84.3c-.1 0-.1-3.3-.1-7.4s.1-7.4.1-7.4c.1 0 .1 3.3.1 7.4s-.1 7.4-.1 7.4z" class="cls-4" data-name="Path 1691"/>
                <path id="Path_1692" d="M141.2 84.3c-.1 0-.1-3.3-.1-7.4s.1-7.4.1-7.4c.1 0 .1 3.3.1 7.4s-.1 7.4-.1 7.4z" class="cls-4" data-name="Path 1692"/>
                <path id="Path_1693" d="M147.1 84c-.1 0-.1-3.3-.1-7.3 0-4.1.1-7.3.1-7.3.1 0 .1 3.3.1 7.3a58.05 58.05 0 0 1-.1 7.3z" class="cls-4" data-name="Path 1693"/>
                <path id="Path_1694" d="M178.9 66.7a1 1 0 0 0-.1-.4 1.779 1.779 0 0 0-.8-.7 4.671 4.671 0 0 0-1.7-.3l-2.1-.1c-1.5 0-2.9-.1-3.9-.2a8.6 8.6 0 0 1-1.6-.1 4.3 4.3 0 0 1 1.6 0c1 0 2.4 0 3.9.1l2.1.1a4.671 4.671 0 0 1 1.7.3 1.419 1.419 0 0 1 .8.9 1 1 0 0 1 .1.4z" class="cls-4" data-name="Path 1694"/>
                <path id="Path_1695" d="M122.9 84.7L111 111.9l16.8 9.9 5-30.4z" class="cls-5" data-name="Path 1695"/>
                <path id="Path_1696" d="M122.8 72.3l8.4-12.6a3.8 3.8 0 0 1 4.4-1.4l8.9 3.6s-.1 2.8-2.5 2.4-7.4-1.3-7.4-1.3l-2.2 2.7z" class="cls-5" data-name="Path 1696"/>
                <path id="Path_1697" d="M144.6 76.4l-3.7-9.5a2.576 2.576 0 0 0-2.9-1.7l-11.3 1.2-4 6a2.3 2.3 0 0 0-.4 1.4l.7 16.1 6.8 8.5 3-6.8a4.607 4.607 0 0 0 2.5-5.4l-.9-3.5 3.5-1.2s-.3 3.8 1.4 3.8 2.6-6.7 2.6-6.7 3.3-.8 2.7-2.2z" class="cls-5" data-name="Path 1697"/>
                <path id="Path_1698" d="M134.5 82.5l-.3-.3a1.8 1.8 0 0 1-.4-.9 1.7 1.7 0 0 1 .1-.7 1.024 1.024 0 0 1 .5-.6 5.306 5.306 0 0 1 1.7-.8v.2a32.179 32.179 0 0 1-3.3-.1 6.6 6.6 0 0 1-1.4-.1 6.6 6.6 0 0 1 1.4-.1h4.1l-.7.2a4.812 4.812 0 0 0-1.6.8 1.309 1.309 0 0 0-.6 1.2 1.8 1.8 0 0 0 .4.9c.1.2.2.3.1.3z" class="cls-6" data-name="Path 1698"/>
                <path id="Path_1699" d="M138 81.4a2.22 2.22 0 0 0 .5-.4 2.092 2.092 0 0 0 .4-.6 2.92 2.92 0 0 0 .2-.9 10.478 10.478 0 0 0-.1-2.5l-.3-1.5a2.223 2.223 0 0 0-.8-1.3 4.013 4.013 0 0 0-1.5-.3l-1.5-.1-2.6-.1-1.7-.1a1.268 1.268 0 0 1-.6-.1h2.3l2.6.1 1.5.1h.8a1.135 1.135 0 0 1 .8.3 2.429 2.429 0 0 1 .9 1.4l.3 1.5a11.329 11.329 0 0 1 .1 2.6 1.929 1.929 0 0 1-.3 1 2.652 2.652 0 0 1-.5.6c-.1.1-.3.2-.4.3z" class="cls-6" data-name="Path 1699"/>
                <path id="Path_1700" d="M130 70.2h2.7l3 .1 1.8.1h.9a1.929 1.929 0 0 1 1 .3 2.336 2.336 0 0 1 .7.7 5.9 5.9 0 0 1 .4.8 11.11 11.11 0 0 1 .7 1.6 9.474 9.474 0 0 1 .7 2.9 6.694 6.694 0 0 1 0 2 .749.749 0 0 1-.1.5c0 .1 0 .2-.1.2a12.187 12.187 0 0 0 0-2.7 15.294 15.294 0 0 0-.7-2.9 11.11 11.11 0 0 0-.7-1.6 3.269 3.269 0 0 0-1.1-1.5 5.663 5.663 0 0 0-1.8-.3l-1.8-.1-3-.1-2-.1c-.1.2-.3.2-.6.1z" class="cls-6" data-name="Path 1700"/>
                <path id="Path_1701" d="M137.1 70.5a7.267 7.267 0 0 1 .4-2.5 2.879 2.879 0 0 1-.1 1.3 2.663 2.663 0 0 1-.3 1.2z" class="cls-6" data-name="Path 1701"/>
                <path id="Path_1702" d="M138.7 65.1a.749.749 0 0 1-.5.1c-.3.1-.7.1-1.2.2-1.1.1-2.5.3-4.1.5-.4.1-.8.1-1.2.2a4.508 4.508 0 0 0-1.1.3 8.651 8.651 0 0 0-1.7.7 3.447 3.447 0 0 0-1.2 1.2.52.52 0 0 1 .2-.4 1.962 1.962 0 0 1 .9-.9 8.865 8.865 0 0 1 1.7-.8c.4-.1.7-.2 1.1-.3s.8-.1 1.2-.2c1.6-.2 3.1-.3 4.1-.4a5.538 5.538 0 0 1 1.8-.2z" class="cls-6" data-name="Path 1702"/>
                <path id="Path_1703" d="M134.1 61.2c.1 0 .2.4.3.9s.2.9.1.9-.3-.3-.4-.8a2.89 2.89 0 0 1 0-1z" class="cls-6" data-name="Path 1703"/>
                <path id="Path_1704" d="M137.6 59.2a.764.764 0 0 1 .5.2c.3.1.8.3 1.5.5 1.2.5 3 1.2 5 2.1h.1v.1a2.41 2.41 0 0 1-.7 1.8 2.64 2.64 0 0 1-1.9.7 11.759 11.759 0 0 1-2.1-.3c-.6-.1-1.4-.2-2-.3a11.627 11.627 0 0 1-1.8-.4l-1.6-.4h.1l-1.8 2.1a2.652 2.652 0 0 0-.5.6l-.2.2a.31.31 0 0 1 .1-.2l.5-.6 1.7-2.2h.1l1.6.3a11.627 11.627 0 0 1 1.8.4l2 .3a15.17 15.17 0 0 0 2.1.3 1.832 1.832 0 0 0 1.7-.6 2.271 2.271 0 0 0 .6-1.6l.1.1c-2-.9-3.8-1.6-5-2.2l-1.5-.6c0-.2-.2-.2-.4-.3z" class="cls-6" data-name="Path 1704"/>
                <path id="Path_1705" d="M210.6 123l-15.1-31.1-15.8-24.7a9.239 9.239 0 0 0-6.3-4.2c-3.9-.7-9.5-1.4-11.6-.8-2.3.7-.6 2.3-.6 2.3s2.5.5 5.8 1.1a5.147 5.147 0 0 1 3.5 2.4l.8 1.2c1.8 2.9 2 5 2.4 9.5v2.4c-.4 2.2-4 3.6-7.3 3.7a36.757 36.757 0 0 0-5.7.6h.8a9.1 9.1 0 0 0-6.4 2.2A4.863 4.863 0 0 0 154 89a1.721 1.721 0 0 0 .2 1.7 2.207 2.207 0 0 0 2.1.5 9.494 9.494 0 0 0 2.1-.9c2.5-1.1 5.4-.4 8.1.5s5.3 1.9 8 1.6c1.7-.2 3.5-.9 4.9.2l1.6 1.5a10.774 10.774 0 0 1 1.6 4.2l10.3 43.2a14.028 14.028 0 0 0 11.8-3.2c3.8-4.4 6.2-10.1 5.9-15.3z" class="cls-5" data-name="Path 1705"/>
                <path id="Path_1706" d="M176.3 72.2s-.6-6.5-1-7-7.3-3.5-6.7-4.5c.6-.9 2.4-.2 3.8.5 1.4.6 5 2.3 5.9 3.2.9 1 2.3 6.8 2.3 6.8z" class="cls-5" data-name="Path 1706"/>
                <path id="Path_1707" d="M168.6 60.7a.1.1 0 0 1 .1.1l.4.3 1.5 1.3c.9.5 2 1.1 3.4 1.8l1 .6c.1.1.2.1.3.2s.2.2.2.3a1.421 1.421 0 0 1 .2.6 12.413 12.413 0 0 1 .3 2.7c.5 1.6.9 3.3 1.3 5.1a54.785 54.785 0 0 1 1.9 11.8 8.525 8.525 0 0 0 .8 3.5 7.632 7.632 0 0 0 .8 1.1h-.1l-.2-.2a5.548 5.548 0 0 1-.6-.8 7.3 7.3 0 0 1-.9-3.5 64.387 64.387 0 0 0-2-11.8c-.4-1.8-.9-3.5-1.3-5.1a24.521 24.521 0 0 0-.2-2.7 1.421 1.421 0 0 0-.2-.6c-.1-.1-.3-.2-.4-.3l-1-.6-3.3-1.9-1.4-1.4-.4-.4c-.1 0-.1-.1-.2-.1z" class="cls-6" data-name="Path 1707"/>
                <path id="Path_1708" d="M173.2 71.4v2.2a19.421 19.421 0 0 0 .2 2.4 8.083 8.083 0 0 0 1.1 2.7 13.362 13.362 0 0 0 2 2.1c.6.6 1.3 1.2 1.7 1.7a2.177 2.177 0 0 1 .5.8c0 .2.1.5.1.7v.6c0-.2-.1-.4-.1-.6a1.7 1.7 0 0 0-.1-.7 3.509 3.509 0 0 0-.5-.8c-.5-.5-1.1-1-1.7-1.7a20.887 20.887 0 0 1-2-2.2 5.7 5.7 0 0 1-1.1-2.8 19.418 19.418 0 0 1-.2-2.4 7.115 7.115 0 0 1 .1-1.6z" class="cls-6" data-name="Path 1708"/>
                <path id="Path_1709" d="M162.2 87.9c0-.4-.1-.7-.1-1.1-.2-.6-.6-.8-.6-.9s.1 0 .3.1a1.5 1.5 0 0 1 .6 1.5c-.1.3-.2.5-.2.4z" class="cls-6" data-name="Path 1709"/>
                <path id="Path_1710" d="M173.6 82.1a1.237 1.237 0 0 0-.2.3 4.62 4.62 0 0 1-.7.7 9.187 9.187 0 0 1-2.7 1.6 10.588 10.588 0 0 1-3.1.5 2.769 2.769 0 0 1-.9-.1.367.367 0 0 1-.3-.1h1.3a8.929 8.929 0 0 0 5.6-2 10.521 10.521 0 0 1 1-.9z" class="cls-6" data-name="Path 1710"/>
                <path id="Path_1711" d="M175.3 73.3c-.2-.2-.3-.4-.5-.6l-1.2-1.7-1.7-2.6-1-1.5a4.428 4.428 0 0 0-1.2-1.5 2.827 2.827 0 0 0-1.8-.4h-1.8c-1-.1-2.1-.2-3.1-.4-.7-.2-1.4-.4-2-.6a1.689 1.689 0 0 0-.5-.2.31.31 0 0 0-.2-.1c.2.1.5.1.7.2a19.266 19.266 0 0 0 2 .5 29.093 29.093 0 0 0 3.1.4h1.8a2.506 2.506 0 0 1 1.9.5 6.1 6.1 0 0 1 1.2 1.6c.3.5.7 1.1 1 1.6.6 1 1.2 1.9 1.7 2.6l1.1 1.8c.3-.1.4.2.5.4z" class="cls-6" data-name="Path 1711"/>
                <path id="Path_1712" d="M186.1 113a.774.774 0 0 0-.1-.3 6.372 6.372 0 0 1-.2-.9c-.2-.8-.5-1.9-.8-3.3-.7-2.9-1.8-7.1-3.1-12.4a6.916 6.916 0 0 0-1-1.9 4.978 4.978 0 0 0-1.7-1.5 2.01 2.01 0 0 0-.8-.4 2.769 2.769 0 0 0-.9-.1 12.252 12.252 0 0 0-1.9.2c-.7.1-1.3.2-2 .3a14.769 14.769 0 0 1-2.1-.1 27.458 27.458 0 0 1-4.1-1.1 30.3 30.3 0 0 0-4.3-1.2 9.022 9.022 0 0 0-4.6.3c-.7.3-1.4.7-2.2 1a2.854 2.854 0 0 1-1.3 0 2.589 2.589 0 0 1-1.1-.7 2 2 0 0 1-.2-1.3 3.379 3.379 0 0 1 .6-1.2 8.2 8.2 0 0 1 2-1.7 8.975 8.975 0 0 1 5.1-1.2v.2h-.8v-.2a16.6 16.6 0 0 1 2.2-.3 16.413 16.413 0 0 1 2.3-.2 17.7 17.7 0 0 0 2.3-.1 9.484 9.484 0 0 0 2.3-.5 7.837 7.837 0 0 0 2.1-.9 4.1 4.1 0 0 0 1.6-1.6c.1-.2.1-.3.2-.5V79l-.1-.6-.1-1.2a20.99 20.99 0 0 0-.9-5 21.054 21.054 0 0 0-2.4-4.4 7.006 7.006 0 0 0-1.9-1.5 9.765 9.765 0 0 0-2.3-.6l-4.7-.9a1.794 1.794 0 0 1-.5-.7 1.185 1.185 0 0 1-.1-.8 1.794 1.794 0 0 1 .5-.7c.1-.1.2-.1.4-.2l.4-.1a10.572 10.572 0 0 1 3.1-.2 54.2 54.2 0 0 1 5.8.6l-.1.2a10.15 10.15 0 0 1-1.8-1.3.55.55 0 0 1-.3-.5c0-.1 0-.1.1-.2l.1-.1.2-.2a1.376 1.376 0 0 1 1.1-.1 6.789 6.789 0 0 1 2 .7l1.8.9a23.135 23.135 0 0 1 3.5 1.8c.3.2.5.4.8.6a1.381 1.381 0 0 0 .4.3c.1.1.2.3.3.4a12.2 12.2 0 0 1 .7 1.7 12.134 12.134 0 0 0 1 1.4l.9 1.4 1.7 2.7 3.2 5 5.1 8 3.2 5.1.8 1.3a5.2 5.2 0 0 1 .3.5 2.958 2.958 0 0 1-.3-.4c-.2-.3-.5-.7-.9-1.3l-3.3-5.1-5.1-8-3.2-5-1.7-2.7-.9-1.4c-.3-.5-.6-1-.9-1.4a8.651 8.651 0 0 0-.7-1.7c-.1-.1-.1-.3-.2-.4l-.3-.3a2.177 2.177 0 0 0-.8-.5 23.135 23.135 0 0 0-3.5-1.8l-1.8-.8a6.971 6.971 0 0 0-1.9-.6 1.337 1.337 0 0 0-.9.1l-.2.2-.1.1v.1a.758.758 0 0 0 .2.4A6.57 6.57 0 0 0 171 63l.5.3-.6-.1a57.005 57.005 0 0 0-5.8-.6 10.123 10.123 0 0 0-3 .2 1.548 1.548 0 0 0-1.1.8 1.379 1.379 0 0 0 .5 1.3h-.1l4.7.9 1.2.2a5.637 5.637 0 0 1 1.2.4 5.038 5.038 0 0 1 2 1.5 4.129 4.129 0 0 1 .7 1.1 6.726 6.726 0 0 0 .7 1.1 16.27 16.27 0 0 1 1.1 2.3 20.989 20.989 0 0 1 .9 5l.1 1.2.1.6v2.4a1.421 1.421 0 0 1-.2.6 4.621 4.621 0 0 1-1.7 1.7 14.722 14.722 0 0 1-2.2 1 15.537 15.537 0 0 1-2.3.5 17.7 17.7 0 0 1-2.3.1 14.979 14.979 0 0 0-2.2.2c-.7.1-1.5.2-2.2.3v-.2h.8v.2a8.839 8.839 0 0 0-5 1.2 7.351 7.351 0 0 0-1.9 1.6 2.22 2.22 0 0 0-.5 1.1 1.389 1.389 0 0 0 .2 1.1 1.149 1.149 0 0 0 .9.6 2.438 2.438 0 0 0 1.2 0 14.721 14.721 0 0 0 2.2-1 9.338 9.338 0 0 1 4.7-.3 30.3 30.3 0 0 1 4.3 1.2 19.087 19.087 0 0 0 4.1 1.1 6.729 6.729 0 0 0 2 .1 11.076 11.076 0 0 0 1.9-.2 12.253 12.253 0 0 1 1.9-.2c.3 0 .6.1.9.1a2.01 2.01 0 0 1 .8.4 4.363 4.363 0 0 1 1.7 1.6 17.379 17.379 0 0 1 1 1.9l3.1 12.4.8 3.3a5.072 5.072 0 0 1 .2.9c-.3 0-.2.1-.2.1z" class="cls-6" data-name="Path 1712"/>
            </g>
            <g id="freepik--Plants--inject-63">
                <path id="Path_1713" d="M240.5 169.5c-1.3 1.8-3.7 1.1-4.9 0a8.9 8.9 0 0 1-1.9-4.3c-.9-3.5-1.8-7.2-1-10.7a6.06 6.06 0 0 1 1.4-2.9 3.328 3.328 0 0 1 3-.9 4.968 4.968 0 0 1 2.5 2.8 25.771 25.771 0 0 1 2.2 11 9.829 9.829 0 0 1-1.3 5" class="cls-12" data-name="Path 1713"/>
                <g id="Group_1834" data-name="Group 1834" opacity="0.2">
                    <path id="Path_1714" d="M240.5 169.5c-1.3 1.8-3.7 1.1-4.9 0a8.9 8.9 0 0 1-1.9-4.3c-.9-3.5-1.8-7.2-1-10.7a6.06 6.06 0 0 1 1.4-2.9 3.328 3.328 0 0 1 3-.9 4.968 4.968 0 0 1 2.5 2.8 25.771 25.771 0 0 1 2.2 11 9.829 9.829 0 0 1-1.3 5" data-name="Path 1714"/>
                </g>
                <path id="Path_1715" d="M235.5 178.5a11.288 11.288 0 0 0-6.8-1 6.061 6.061 0 0 0-3.4 1.4 2.27 2.27 0 0 0-.1 3.3 3.936 3.936 0 0 0 2.1.6c1.8 0 3.8-.2 5.2.9.8.6 1.3 1.7 2.3 2a2.342 2.342 0 0 0 2.6-1.1 4.172 4.172 0 0 0 .4-2.9 4.545 4.545 0 0 0-2.3-3.2z" class="cls-12" data-name="Path 1715"/>
                <path id="Path_1716" d="M243.9 172.1a6.9 6.9 0 0 1-.9-6.1 11.072 11.072 0 0 1 3.7-5.1 19.711 19.711 0 0 1 6.5-3.6 7.045 7.045 0 0 1 2.9-.4 3.27 3.27 0 0 1 2.4 1.5c.6 1.3 0 2.8-.8 4.1a54.672 54.672 0 0 1-4.4 6.3c-1.3 1.6-2.8 3.2-4.7 3.8-1.9.7-3.9.5-4.9-.8" class="cls-12" data-name="Path 1716"/>
                <path id="Path_1717" d="M239.8 196.6a2.2 2.2 0 0 1-.1-.8c0-.6-.1-1.3-.2-2.2s-.2-2.1-.4-3.3a28.467 28.467 0 0 0-1.1-3.9 15.467 15.467 0 0 0-1.9-3.6 6.892 6.892 0 0 0-2.4-2.1 8.639 8.639 0 0 0-2.1-.7c-.3 0-.5-.1-.8-.1h.8a7.945 7.945 0 0 1 2.2.6 7.84 7.84 0 0 1 2.6 2.2 12.437 12.437 0 0 1 1.9 3.6 26.192 26.192 0 0 1 1.1 4c.2 1.1.3 2.2.4 3.3v2.3a.854.854 0 0 1 0 .7z" class="cls-4" data-name="Path 1717"/>
                <path id="Path_1718" d="M239.7 194.9v-1.5c0-.9.1-2.3.1-4 0-3.4-.2-8-.6-13.2-.4-5.1-1.1-9.7-1.7-13.1-.1-.8-.3-1.6-.4-2.2-.1-.7-.2-1.2-.3-1.7a6.529 6.529 0 0 1-.2-1.1c0-.1-.1-.2-.1-.4.1.1.1.2.1.4.1.3.2.6.3 1a14.574 14.574 0 0 1 .4 1.7 22.494 22.494 0 0 0 .5 2.2c.8 4.3 1.4 8.7 1.8 13.1.4 5.1.6 9.8.5 13.2a37.423 37.423 0 0 1-.2 4c0 .4-.1.8-.1 1.1s0 .4-.1.5z" class="cls-4" data-name="Path 1718"/>
                <path id="Path_1719" d="M239.9 185.9v-1.1c.1-1 .2-2.1.4-3.1a40.666 40.666 0 0 1 3.1-9.7 28.372 28.372 0 0 1 5.7-8.4c.4-.4.9-.8 1.3-1.2.2-.2.4-.3.6-.5l.5-.3a8.8 8.8 0 0 1 1-.6 26.923 26.923 0 0 0-3.2 2.7 31.611 31.611 0 0 0-5.6 8.4 32.811 32.811 0 0 0-2 5.2 31.66 31.66 0 0 0-1.2 4.4c-.3 1.3-.4 2.3-.5 3a2.251 2.251 0 0 1-.1 1.2z" class="cls-4" data-name="Path 1719"/>
                <path id="Path_1720" d="M80 181.1c.6-2.2-.9-4.4-2.5-6s-3.6-3-4.4-5.1c-1.4-3.4.4-7.9-1.9-10.7-1.4-1.7-3.8-2.2-5.1-4a8.691 8.691 0 0 1-1.1-3.2 32.444 32.444 0 0 0-8.2-15.1 28.489 28.489 0 0 0 3.3 14.6c1 1.8 2.1 3.5 2.4 5.5.5 3.3-1.3 6.6-.5 9.8.9 3.7 5.1 6.1 5.3 9.8.2 3.2-2.6 6-2.3 9.2a8.927 8.927 0 0 0 1.5 3.8c2.5 4.1 6.1 6.9 11.6 6.7l6.7.2z" class="cls-12" data-name="Path 1720"/>
                <g id="Group_1835" class="cls-9" data-name="Group 1835">
                    <path id="Path_1721" d="M80 181.1c.6-2.2-.9-4.4-2.5-6s-3.6-3-4.4-5.1c-1.4-3.4.4-7.9-1.9-10.7-1.4-1.7-3.8-2.2-5.1-4a8.691 8.691 0 0 1-1.1-3.2 32.444 32.444 0 0 0-8.2-15.1 28.489 28.489 0 0 0 3.3 14.6c1 1.8 2.1 3.5 2.4 5.5.5 3.3-1.3 6.6-.5 9.8.9 3.7 5.1 6.1 5.3 9.8.2 3.2-2.6 6-2.3 9.2a8.927 8.927 0 0 0 1.5 3.8c2.5 4.1 6.1 6.9 11.6 6.7l6.7.2z" data-name="Path 1721"/>
                </g>
                <path id="Path_1722" d="M87.2 196.7c4.4-2.6 5.6-10.5 3.7-15.3-1.9-4.7-5.1-9.1-5.6-14.1-.4-3.9.9-7.9-.1-11.7-1.3-5.1-6.3-9.1-6.3-14.4 0-3 1.7-5.8 1.5-8.7-.2-3.6-3-6.5-4.7-9.7-2.7-4.9-2.9-10.7-3.8-16.2s-3.1-11.4-8-14.1c-.7 4.7-1.9 7.9-1.5 14.2.2 2.3 2.8 6.6 3.2 11.6.2 3 .4 6 .6 8.9a27.134 27.134 0 0 0 1.5 8.5c.8 2.1 2.1 4 2.7 6.1 1.1 4-.3 8.4.6 12.5.8 3.5 3.2 6.4 3.7 9.9.7 4.9-2.4 10.1-.8 14.8.8 2.3 2.8 4.2 3.3 6.6.4 1.9 0 3.9.4 5.7.7 3.1 6.5 5.6 9.6 5.4" class="cls-12" data-name="Path 1722"/>
                <path id="Path_1723" d="M65.2 97.2c0 .1.1.2.1.3 0 .2.1.4.1.8.1.7.3 1.7.5 2.9.3 1.3 1 2.7 1.5 4.4a49.733 49.733 0 0 1 1.7 6c.5 2.3 1 4.7 1.5 7.4a33.339 33.339 0 0 0 2.3 8.3c.6 1.4 1.3 2.8 1.9 4.3a20.534 20.534 0 0 1 1 4.8c.3 3.4.7 6.8 1.3 10.2 1.4 6.9 2.7 13.5 3.9 19.5s2.3 11.4 3.3 15.9c.9 4.5 1.6 8.2 2.2 10.7a28.433 28.433 0 0 0 .6 2.9 2.485 2.485 0 0 1 .1.8v.3c0-.1-.1-.2-.1-.3l-.2-.8a28.433 28.433 0 0 1-.6-2.9c-.5-2.5-1.3-6.2-2.3-10.7s-2.1-9.9-3.3-15.9c-1.3-6-2.5-12.6-3.9-19.5a88.9 88.9 0 0 1-1.3-10.2 18.756 18.756 0 0 0-1-4.7c-.5-1.5-1.2-2.9-1.8-4.3a34.045 34.045 0 0 1-2.3-8.4c-.5-2.7-.9-5.2-1.4-7.4s-1.1-4.3-1.6-6a47.2 47.2 0 0 1-1.5-4.5c-.3-1.3-.4-2.3-.5-2.9 0-.3-.1-.6-.1-.8-.1 0-.1-.1-.1-.2z" class="cls-4" data-name="Path 1723"/>
            </g>
        </g>
        <g id="freepik--Floor--inject-61_3_">
            <path id="Path_1724" d="M301.9 196.9c0 .1-68.3.2-152.5.2s-152.5-.1-152.5-.2 68.3-.2 152.5-.2 152.5.1 152.5.2z" class="cls-4" data-name="Path 1724"/>
        </g>
    </g>
</svg>
