<svg xmlns="http://www.w3.org/2000/svg" width="305" height="182.899" viewBox="0 0 305 182.899">
    <defs>
        <style>
            .cls-1{fill:#263238}.cls-2{fill:#595ca8}.cls-3{opacity:.3}.cls-4{fill:#455a64}.cls-6{fill:#efefef}.cls-7{fill:#e0e0e0}.cls-8{fill:#b78876}.cls-9{fill:#fafafa}.cls-10{fill:#a36957}.cls-11{opacity:.2}
        </style>
    </defs>
    <g id="Done_kiosk" transform="translate(3.1 -16.297)">
        <g id="freepik--Floor--inject-61_5_">
            <path id="Path_1876" d="M301.9 196.9c0 .1-68.3.2-152.5.2s-152.5-.1-152.5-.2 68.3-.2 152.5-.2 152.5.1 152.5.2z" class="cls-1" data-name="Path 1876"/>
        </g>
        <g id="Group_1848" data-name="Group 1848">
            <g id="freepik--Character--inject-122">
                <path id="Path_1877" d="M21.6 48.2h66.9l28.4 82.3H37.8z" class="cls-2" data-name="Path 1877"/>
                <path id="Path_1878" d="M21.6 48.2h66.9l28.4 82.3H37.8z" class="cls-3" data-name="Path 1878"/>
                <path id="Path_1879" d="M101.9 168.7l3.4 30.1h5.7l-1.7-30.1z" class="cls-2" data-name="Path 1879"/>
                <path id="Path_1880" d="M102 169l7.5.2.2 4.7-7.3-1.2z" class="cls-3" data-name="Path 1880"/>
                <path id="Path_1881" d="M121.7 168.7l3.4 30.3h5.7l-1.7-30.3z" class="cls-2" data-name="Path 1881"/>
                <path id="Path_1882" d="M121.8 169l7.4.2.3 4.7-7.3-1.2z" class="cls-3" data-name="Path 1882"/>
                <path id="Path_1883" d="M66.7 168.7l3.4 30.1h5.7l-1.7-30.1z" class="cls-2" data-name="Path 1883"/>
                <path id="Path_1884" d="M66.7 169l7.5.2.3 4.7-7.3-1.2z" class="cls-3" data-name="Path 1884"/>
                <path id="Path_1885" d="M114.9 170.1h8.2c6.4 0 11.5-3.9 11.5-8.7v-25.7h-20.1z" class="cls-2" data-name="Path 1885"/>
                <path id="Path_1886" d="M114.9 170.1h8.2c6.4 0 11.5-3.9 11.5-8.7v-25.7h-20.1z" class="cls-3" data-name="Path 1886"/>
                <path id="Path_1887" d="M43.8 168.7l3.4 30.3H54l-1.6-30z" class="cls-2" data-name="Path 1887"/>
                <path id="Path_1888" d="M170.2 195.8l-.1-6.5-12.2.1v9.5h.8c3.4.2 17.1.6 19.4-.1 2.5-.8-7.9-3-7.9-3z" class="cls-4" data-name="Path 1888"/>
                <path id="Path_1889" d="M157.8 198.6h.8l2.2.1c1.9.1 4.5.1 7.3.1 2.9 0 5.4-.1 7.3-.2l2.2-.1-2.2.1c-1.9.1-4.5.1-7.3.1H158c-.1-.1-.1-.1-.2-.1z" class="cls-1" data-name="Path 1889"/>
                <path id="Path_1890" d="M174.2 198.8a4.875 4.875 0 0 1 .4-1.1 5.5 5.5 0 0 1 .7-.9 1.419 1.419 0 0 0-.9.8 1.721 1.721 0 0 0-.2 1.2z" class="cls-1" data-name="Path 1890"/>
                <path id="Path_1891" d="M170.6 197a3.609 3.609 0 0 0 .4-.5c.1-.2.2-.3.3-.5a3.609 3.609 0 0 0-.4.5 5.2 5.2 0 0 0-.3.5z" class="cls-1" data-name="Path 1891"/>
                <path id="Path_1892" d="M169.6 196.5a1.727 1.727 0 0 0 .4-.3c.2-.2.4-.4.3-.4a1.768 1.768 0 0 0-.7.7z" class="cls-1" data-name="Path 1892"/>
                <path id="Path_1893" d="M169 195.4a1.85 1.85 0 0 0 1.2 0 1.85 1.85 0 0 0-1.2 0z" class="cls-1" data-name="Path 1893"/>
                <path id="Path_1894" d="M168.8 194.5a1.854 1.854 0 0 0 .7.2 1.7 1.7 0 0 0 .7-.1c-.2 0-.5-.1-.7 0-.3 0-.5-.1-.7-.1z" class="cls-1" data-name="Path 1894"/>
                <path id="Path_1895" d="M171 196h.8a1.884 1.884 0 0 0 .8-.2c.2-.1.3-.1.5-.2.1-.1.2-.1.2-.2a.367.367 0 0 0-.1-.3 1.529 1.529 0 0 0-1.8.4c-.1.2-.2.3-.3.5v.2a2.507 2.507 0 0 1 .4-.7 1.012 1.012 0 0 1 .7-.4.972.972 0 0 1 .9.1c.1.1.1.2-.1.3-.1.1-.3.1-.4.2a2.353 2.353 0 0 1-.8.2c-.5 0-.8 0-.8.1z" class="cls-1" data-name="Path 1895"/>
                <path id="Path_1896" d="M171.2 196a1.087 1.087 0 0 0 .1-.5 1.422 1.422 0 0 0-.2-.6.842.842 0 0 0-.7-.4c-.2 0-.3.2-.2.4 0 .1.1.2.1.3a1.756 1.756 0 0 0 .4.5 2.186 2.186 0 0 0 .5.3c-.1 0-.2-.2-.4-.4a2.186 2.186 0 0 1-.3-.5c-.1-.2-.2-.5 0-.5a.85.85 0 0 1 .5.3c.1.2.2.3.2.5z" class="cls-1" data-name="Path 1896"/>
                <path id="Path_1897" d="M158 195.3h.9a3.813 3.813 0 0 1 3.2 2.5 2.679 2.679 0 0 1 .2.9v-.2c0-.2-.1-.4-.1-.7a4.394 4.394 0 0 0-1.2-1.8 3.861 3.861 0 0 0-2-.8h-.7a.367.367 0 0 0-.3.1z" class="cls-1" data-name="Path 1897"/>
                <path id="Path_1898" d="M159.3 190.2a31.3 31.3 0 0 0 0 5 20.9 20.9 0 0 0 .1-2.5 21.749 21.749 0 0 1-.1-2.5z" class="cls-1" data-name="Path 1898"/>
                <path id="Path_1899" d="M163.9 197.5a10.875 10.875 0 0 0 3.6 0h-3.6z" class="cls-1" data-name="Path 1899"/>
                <path id="Path_1900" d="M161.5 197.6a1.034 1.034 0 0 1 .1.4c.1.2.1.3.2.3s.1-.2 0-.4q-.15-.45-.3-.3z" class="cls-1" data-name="Path 1900"/>
                <path id="Path_1901" d="M160.7 196.4a.919.919 0 0 0 .5.5 1.439 1.439 0 0 0-.2-.3 1.237 1.237 0 0 1-.3-.2z" class="cls-1" data-name="Path 1901"/>
                <path id="Path_1902" d="M159.3 195.9a1 1 0 0 1 .4.1c.2.1.3.2.3.1a.747.747 0 0 0-.3-.3 1.034 1.034 0 0 0-.4.1z" class="cls-1" data-name="Path 1902"/>
                <path id="Path_1903" d="M158.4 195.7a.349.349 0 0 0 .2.1h.2a.349.349 0 0 0-.2-.1z" class="cls-1" data-name="Path 1903"/>
                <path id="Path_1904" d="M83.9 113.5l59.5 2.2a19.726 19.726 0 0 1 17.7 12.3c.1.3.3.7.4 1 3.8 10.9 11.2 65.1 11.2 65.1l-18-.4-11.5-57.6-46-.7z" class="cls-1" data-name="Path 1904"/>
                <path id="Path_1905" d="M150.9 168.3l-.1-6.5-12.2.1v9.5h.8c3.4.2 17.1.6 19.4-.1 2.5-.8-7.9-3-7.9-3z" class="cls-4" data-name="Path 1905"/>
                <path id="Path_1906" d="M138.5 171.1h.8l2.2.1c1.9.1 4.5.1 7.3.1 2.9 0 5.4-.1 7.3-.2l2.2-.1-2.2.1c-1.9 0-4.5.1-7.3.1h-10.3z" class="cls-1" data-name="Path 1906"/>
                <path id="Path_1907" d="M154.9 171.3a4.875 4.875 0 0 1 .4-1.1 5.5 5.5 0 0 1 .7-.9 1.419 1.419 0 0 0-.9.8 2.537 2.537 0 0 0-.2 1.2z" class="cls-1" data-name="Path 1907"/>
                <path id="Path_1908" d="M151.3 169.5a3.609 3.609 0 0 0 .4-.5c.1-.2.2-.3.3-.5a3.609 3.609 0 0 0-.4.5 5.193 5.193 0 0 0-.3.5z" class="cls-1" data-name="Path 1908"/>
                <path id="Path_1909" d="M150.3 169a1.727 1.727 0 0 0 .4-.3c.2-.2.4-.4.3-.4a1.768 1.768 0 0 0-.7.7z" class="cls-1" data-name="Path 1909"/>
                <path id="Path_1910" d="M149.7 167.9a1.85 1.85 0 0 0 1.2 0 1.85 1.85 0 0 0-1.2 0z" class="cls-1" data-name="Path 1910"/>
                <path id="Path_1911" d="M149.5 167.1a1.72 1.72 0 0 0 1.4.1c-.2 0-.5-.1-.7 0a1.952 1.952 0 0 0-.7-.1z" class="cls-1" data-name="Path 1911"/>
                <path id="Path_1912" d="M151.7 168.5h.8a1.884 1.884 0 0 0 .8-.2c.2 0 .3-.1.5-.2.1-.1.2-.1.2-.2a.367.367 0 0 0-.1-.3 1.529 1.529 0 0 0-1.8.4c-.1.2-.2.3-.3.5v.2a2.507 2.507 0 0 1 .4-.7 1.012 1.012 0 0 1 .7-.4.972.972 0 0 1 .9.1c.1.1.1.2-.1.3-.1.1-.3.1-.4.2a2.353 2.353 0 0 1-.8.2c-.5 0-.8 0-.8.1z" class="cls-1" data-name="Path 1912"/>
                <path id="Path_1913" d="M151.9 168.5a1.087 1.087 0 0 0 .1-.5 1.422 1.422 0 0 0-.2-.6.842.842 0 0 0-.7-.4c-.2 0-.3.2-.2.4 0 .1.1.2.1.3a1.756 1.756 0 0 0 .4.5 2.186 2.186 0 0 0 .5.3c-.1 0-.2-.2-.4-.4a2.186 2.186 0 0 1-.3-.5c-.1-.2-.2-.5 0-.5a.85.85 0 0 1 .5.3c.1.2.2.3.2.5z" class="cls-1" data-name="Path 1913"/>
                <path id="Path_1914" d="M138.7 167.8h.9a3.813 3.813 0 0 1 3.2 2.5 2.679 2.679 0 0 1 .2.9v-.2c0-.2-.1-.4-.1-.7a3.745 3.745 0 0 0-3.3-2.6h-.7a.31.31 0 0 0-.2.1z" class="cls-1" data-name="Path 1914"/>
                <path id="Path_1915" d="M140 162.7a31.3 31.3 0 0 0 0 5 20.9 20.9 0 0 0 .1-2.5 20.9 20.9 0 0 1-.1-2.5z" class="cls-1" data-name="Path 1915"/>
                <path id="Path_1916" d="M144.6 170.1a11.018 11.018 0 0 0 1.8.2 5.537 5.537 0 0 0 1.8-.2h-1.8a8.951 8.951 0 0 0-1.8 0z" class="cls-1" data-name="Path 1916"/>
                <path id="Path_1917" d="M142.2 170.1a1.034 1.034 0 0 1 .1.4c.1.2.1.3.2.3a.483.483 0 0 0 0-.4c-.1-.3-.3-.4-.3-.3z" class="cls-1" data-name="Path 1917"/>
                <path id="Path_1918" d="M141.3 169a.919.919 0 0 0 .5.5 1.439 1.439 0 0 0-.2-.3.355.355 0 0 0-.3-.2z" class="cls-1" data-name="Path 1918"/>
                <path id="Path_1919" d="M140 168.4a1 1 0 0 1 .4.1c.2.1.3.2.3.1a.747.747 0 0 0-.3-.3 1.034 1.034 0 0 0-.4.1z" class="cls-1" data-name="Path 1919"/>
                <path id="Path_1920" d="M139.1 168.2a.349.349 0 0 0 .2.1h.2a.349.349 0 0 0-.2-.1z" class="cls-1" data-name="Path 1920"/>
                <path id="Path_1921" d="M91.5 113.8l44.8-22.9a13.468 13.468 0 0 1 5.9-1.4 13.017 13.017 0 0 1 13 12.9l.8 63.6h-21.4l-1.3-50.5z" class="cls-1" data-name="Path 1921"/>
                <path id="Path_1922" d="M133.1 115.4c0 .1-11-.2-24.6-.7s-24.6-1-24.6-1.1 11 .2 24.6.7 24.6 1 24.6 1.1z" class="cls-4" data-name="Path 1922"/>
                <path id="Path_1923" d="M155.5 119.7v.9c0 .6 0 1.5.1 2.6 0 2.3.1 5.5.2 9.6.1 8.2.3 19.8.5 33.1v.2h-21.7v-.2c0-15.9-.5-30.1-.6-40.3-.1-5.1-.1-9.2-.1-12.1v-3.3c0 .8 0 1.9.1 3.3.1 2.9.1 7 .2 12 .2 10.2.7 24.4.7 40.3l-.2-.2H156l-.2.2c-.2-13.3-.3-24.8-.4-33.1 0-4.1-.1-7.4-.1-9.6v-3.3c0-.1.2-.1.2-.1z" class="cls-4" data-name="Path 1923"/>
                <path id="Path_1924" d="M132.1 109.6v.9a8.329 8.329 0 0 0 .3 2.2 7.218 7.218 0 0 0 .9 2c.3.5.6.7.5.7s-.4-.1-.8-.6a5.119 5.119 0 0 1-1-2.1 5.831 5.831 0 0 1-.2-2.3 2.413 2.413 0 0 1 .3-.8z" class="cls-4" data-name="Path 1924"/>
                <path id="Path_1925" d="M43.9 169l8.5.1.3 4.7-8.4-1.1z" class="cls-3" data-name="Path 1925"/>
                <path id="Path_1926" d="M94 51.6c8 2.2 8.3 5.8 12.3 12.2l6.3 11.5L99.9 88v.9l-.6 12.7 7.9 8.9-41.9 6.6-.6-24-3-19.7c-.3-3.1-1.2-8.9-.2-11.9 3-9.4 14.2-10.4 21.1-11.8a7.421 7.421 0 0 1 3.9.5" class="cls-4" data-name="Path 1926"/>
                <path id="Path_1927" d="M60.9 64l-3.2 31.6c-1.4 8.4 3.3 16 10.7 16.4a13.157 13.157 0 0 0 6.5-1.4l25-10.4-4.6-10.7-22.2 4.7 3.6-26.3z" class="cls-4" data-name="Path 1927"/>
                <path id="Path_1928" d="M61.6 110.7a10.208 10.208 0 0 0 2.9 1.1 14.473 14.473 0 0 0 3.6.1c1.4-.1 3-.5 4.8-.8a53.137 53.137 0 0 0 5.6-2c2-.8 4.1-1.7 6.5-2.6 4.5-1.9 9.6-4 15-6.4l-.1.2c-1.5-3.4-3-7-4.6-10.7l.2.1-3.4.7-18.8 4-.3.1.1-.3a262 262 0 0 0 4.6-26.1 15.484 15.484 0 0 0 0-4.3 9.643 9.643 0 0 0-1-3 6.969 6.969 0 0 0-1.8-2 2.092 2.092 0 0 1 .6.4 6.1 6.1 0 0 1 1.3 1.5 8.208 8.208 0 0 1 1.1 3.1 21.418 21.418 0 0 1 .1 4.4 253.8 253.8 0 0 1-4.4 26.1l-.5-.3 18.7-4 3.4-.7h.2l.1.1 4.6 10.7.1.2-.2.1c-5.4 2.3-10.5 4.5-15 6.3-2.3.9-4.4 1.8-6.5 2.6a47.747 47.747 0 0 1-5.7 2c-1.8.3-3.4.6-4.8.7a14.473 14.473 0 0 1-3.6-.1 9.749 9.749 0 0 1-2.2-.8l-.5-.3z" class="cls-1" data-name="Path 1928"/>
                <path id="Path_1929" d="M100.2 87v-3.5c.1-2.2.1-5.2.1-8.5V63a2.769 2.769 0 0 1 .1.9c0 .6.1 1.5.1 2.6.1 2.2.1 5.2.1 8.5s-.1 6.3-.2 8.5c-.1 1.1-.1 2-.2 2.6a1.352 1.352 0 0 1 0 .9z" class="cls-1" data-name="Path 1929"/>
                <path id="Path_1930" fill="#f5f5f5" d="M108.6 67l.3-1.8 16 4.3 2.1-.2 11.7-4.7 1.3 1.6-13 6.6h-6.2l-12.2-5.5" data-name="Path 1930"/>
                <path id="Path_1931" d="M107.6 66.8L100.5 95l16.6 2.1 15-5.2 9.1-26.4-14.2 5h-2.1z" class="cls-6" data-name="Path 1931"/>
                <path id="Path_1932" d="M124.9 70.5l-7.8 26.6 2.1-.7 7.8-25.9z" class="cls-3" data-name="Path 1932"/>
                <path id="Path_1933" d="M125.8 69.4l10.9-6.5-.3 2.6-9.4 3.8z" class="cls-7" data-name="Path 1933"/>
                <path id="Path_1934" d="M127 78.5l-1.4 3.9 9.2-2.9 1.9-3.9z" class="cls-3" data-name="Path 1934"/>
                <path id="Path_1935" d="M100.7 98c11.3-.6 10.8-4.4 10.8-4.4l-3.9-1a12.188 12.188 0 0 0 2.7 0 3.738 3.738 0 0 0 2-1.2L100.9 90s.7-1.1 1.8-3.1.6-2.5.6-2.5l-6.3 5-1.4.8 3.4 8.2z" class="cls-8" data-name="Path 1935"/>
                <path id="Path_1936" d="M66.4 74.5a35.2 35.2 0 0 1-4.5 3 6.845 6.845 0 0 1 2.1-1.7 9.206 9.206 0 0 1 2.4-1.3z" class="cls-9" data-name="Path 1936"/>
                <path id="Path_1937" d="M67.8 67.9c-1.1-1-2.2-2-3.2-3a7.168 7.168 0 0 1 3.2 3z" class="cls-9" data-name="Path 1937"/>
                <path id="Path_1938" d="M73.8 65.1a20.538 20.538 0 0 1-1 5.4 12.412 12.412 0 0 1 .3-2.7 7.67 7.67 0 0 1 .7-2.7z" class="cls-9" data-name="Path 1938"/>
                <path id="Path_1939" d="M70.7 83.5a4.282 4.282 0 0 1-.6-2.2 4.479 4.479 0 0 1 0-2.3 16.958 16.958 0 0 1 .4 2.2 17.853 17.853 0 0 1 .2 2.3z" class="cls-9" data-name="Path 1939"/>
                <path id="Path_1940" d="M66.1 88.5a8.622 8.622 0 0 1-1.8-1.4 6.122 6.122 0 0 1-1.5-1.7 8.622 8.622 0 0 1 1.8 1.4 6.122 6.122 0 0 1 1.5 1.7z" class="cls-9" data-name="Path 1940"/>
                <path id="Path_1941" d="M64.9 96.9a5.838 5.838 0 0 1-2.2.8 6.2 6.2 0 0 1-2.3.4 5.838 5.838 0 0 1 2.2-.8 18.456 18.456 0 0 1 2.3-.4z" class="cls-9" data-name="Path 1941"/>
                <path id="Path_1942" d="M69.1 97.4a11.329 11.329 0 0 1 .1-2.6 7.985 7.985 0 0 1 .5-2.6 11.329 11.329 0 0 1-.1 2.6 7.512 7.512 0 0 1-.5 2.6z" class="cls-9" data-name="Path 1942"/>
                <path id="Path_1943" d="M69.5 105.7a6.154 6.154 0 0 1-2.3-.7 8.753 8.753 0 0 1-2.2-1 6.154 6.154 0 0 1 2.3.7 6.248 6.248 0 0 1 2.2 1z" class="cls-9" data-name="Path 1943"/>
                <path id="Path_1944" d="M79.1 99.1a13.442 13.442 0 0 1-1.2 2.4c-.4.8-.8 1.6-1.3 2.4a11.422 11.422 0 0 1 .9-2.6 8.88 8.88 0 0 1 1.6-2.2z" class="cls-9" data-name="Path 1944"/>
                <path id="Path_1945" d="M87.5 100.1a12.387 12.387 0 0 1-2.2-1.8 9.516 9.516 0 0 1-1.9-2.1 12.387 12.387 0 0 1 2.2 1.8 12.865 12.865 0 0 1 1.9 2.1z" class="cls-9" data-name="Path 1945"/>
                <path id="Path_1946" d="M93 94.9c.1 0-.3 1.1-.4 2.4s.1 2.4-.1 2.5a5.664 5.664 0 0 1 .5-4.9z" class="cls-9" data-name="Path 1946"/>
                <path id="Path_1947" d="M80.7 87.4a4.851 4.851 0 0 1-2.5-3.1c.4.5.8 1.1 1.2 1.6s.9 1 1.3 1.5z" class="cls-9" data-name="Path 1947"/>
                <path id="Path_1948" d="M90 81.7a12.332 12.332 0 0 1-2.9 3.5 8.016 8.016 0 0 1 1.3-1.9 6.087 6.087 0 0 1 1.6-1.6z" class="cls-9" data-name="Path 1948"/>
                <path id="Path_1949" d="M83.8 79.2a.31.31 0 0 1-.1.2l-.1.1v-.1a10.679 10.679 0 0 1-.3-2.5 8.223 8.223 0 0 1 .2-2.7 24.519 24.519 0 0 1 .2 2.7c0 1.2.1 2.2.1 2.5h-.1c0-.2.1-.2.1-.2z" class="cls-9" data-name="Path 1949"/>
                <path id="Path_1950" d="M91.4 71.1a6.913 6.913 0 0 1-4.2-2.2c1.4.7 2.8 1.5 4.2 2.2z" class="cls-9" data-name="Path 1950"/>
                <path id="Path_1951" d="M95.3 79.8a11.3 11.3 0 0 1 0-2.6 10.871 10.871 0 0 1 .4-2.6 11.3 11.3 0 0 1 0 2.6 12.659 12.659 0 0 1-.4 2.6z" class="cls-9" data-name="Path 1951"/>
                <path id="Path_1952" d="M96.3 63.4a5.906 5.906 0 0 1-3.9.6 6.448 6.448 0 0 1 2-.3 6.279 6.279 0 0 1 1.9-.3z" class="cls-9" data-name="Path 1952"/>
                <path id="Path_1953" d="M80.6 64.8a10.279 10.279 0 0 1 0-3.5 6.915 6.915 0 0 1 0 3.5z" class="cls-9" data-name="Path 1953"/>
                <path id="Path_1954" d="M72.1 56.2a17.1 17.1 0 0 1-2.3 1.3 17.1 17.1 0 0 1-2.3 1.3 11.7 11.7 0 0 1 4.6-2.6z" class="cls-9" data-name="Path 1954"/>
                <path id="Path_1955" d="M100.1 59.1a5.088 5.088 0 0 1-1.6-1.3c-.8-.8-1.4-1.5-1.4-1.5a11.493 11.493 0 0 1 3 2.8z" class="cls-9" data-name="Path 1955"/>
                <path id="Path_1956" d="M103.6 70.4a6.637 6.637 0 0 1 .6-2 6.632 6.632 0 0 1 .9-1.9 6.637 6.637 0 0 1-.6 2 5.575 5.575 0 0 1-.9 1.9z" class="cls-9" data-name="Path 1956"/>
                <path id="Path_1957" d="M103 78.9c-.1 0-.2-.6-.1-1.3 0-.7.1-1.2.2-1.2s.2.6.1 1.3c0 .7-.1 1.2-.2 1.2z" class="cls-9" data-name="Path 1957"/>
                <path id="Path_1958" d="M95.4 107.7a4.707 4.707 0 0 1-.4-1.6 4.854 4.854 0 0 1 0-1.7 4.707 4.707 0 0 1 .4 1.6 4.854 4.854 0 0 1 0 1.7z" class="cls-9" data-name="Path 1958"/>
                <path id="Path_1959" d="M100.6 107.9c-.1.1-.5-.4-.8-1.1-.4-.7-.6-1.2-.5-1.3s.5.4.8 1.1c.4.7.6 1.3.5 1.3z" class="cls-9" data-name="Path 1959"/>
                <path id="Path_1960" d="M93.1 47.9a4.632 4.632 0 0 0 1.9 3 3.387 3.387 0 0 0 3.5.2 2.554 2.554 0 0 0 1.1-3.2 3.553 3.553 0 1 0 5.5-4.5 2.7 2.7 0 0 0-.8-.7c.9 1.2 2.9.7 3.7-.5a4.223 4.223 0 0 0-.2-4.2c-.8-1.2-1.7-2.4-2.6-3.5-1.6-2.2-1.7-5.6-1.8-9.1 0-1.2-1-.9-1.4-2.1a3.256 3.256 0 0 0-2.4-2.4" class="cls-2" data-name="Path 1960"/>
                <path id="Path_1961" d="M87.2 17.6a7.676 7.676 0 0 0-6.3 2.7 34.128 34.128 0 0 0-3.6 5.7c-1.2 2-2.6 3.9-4.8 4.8-1.1.5-2.4.7-3.3 1.5a2.838 2.838 0 0 0-.9 2.6 3.1 3.1 0 0 0 1.8 2.2 6.8 6.8 0 0 0-1.1 3.1 3.418 3.418 0 0 0 1.4 2.9 2.859 2.859 0 0 0 3.3-.1c.7 2 1.7 4.2 3.8 5a5.868 5.868 0 0 0 6.1-1.7 13.266 13.266 0 0 0 2.8-5.7" class="cls-2" data-name="Path 1961"/>
                <path id="Path_1962" d="M103.4 25s1.2-8.5-10.4-8.7c-13.1-.2-15.4 11-13.2 16.9l6.5-6.5z" class="cls-2" data-name="Path 1962"/>
                <path id="Path_1963" d="M93.1 52.8c.1-2.3.2-4.1.2-4.1s6.7.2 7.7-5.7 2.1-19.4 2.1-19.4a17.693 17.693 0 0 0-19.6.3l-.5.5-4.2 26.8a7.142 7.142 0 0 0 5.9 8.2 7.22 7.22 0 0 0 8.3-5.9 1.7 1.7 0 0 0 .1-.7z" class="cls-8" data-name="Path 1963"/>
                <path id="Path_1964" d="M100.8 34c-.1.4-.4.7-.8.6s-.7-.4-.6-.8a.76.76 0 0 1 .8-.6c.3 0 .6.3.6.8z" class="cls-1" data-name="Path 1964"/>
                <path id="Path_1965" d="M101.3 33.3c-.1.1-.6-.4-1.4-.6-.8-.1-1.4.2-1.5.1s.1-.2.4-.4a1.973 1.973 0 0 1 2.3.4 1.01 1.01 0 0 1 .2.5z" class="cls-1" data-name="Path 1965"/>
                <path id="Path_1966" d="M92.9 33.2c-.1.4-.4.7-.8.6s-.7-.4-.6-.8a.76.76 0 0 1 .8-.6c.3 0 .6.4.6.8z" class="cls-1" data-name="Path 1966"/>
                <path id="Path_1967" d="M93.3 32.6c-.1.1-.6-.4-1.4-.6-.8-.1-1.4.2-1.5.1 0-.1.1-.2.4-.4a1.721 1.721 0 0 1 1.2-.2 2.384 2.384 0 0 1 1.1.6.646.646 0 0 1 .2.5z" class="cls-1" data-name="Path 1967"/>
                <path id="Path_1968" d="M94.3 38.6a5.7 5.7 0 0 1 1.3.1.749.749 0 0 0 .5-.1.846.846 0 0 0 0-.7c-.1-.6-.1-1.1-.2-1.7a34.013 34.013 0 0 1-.3-4.5 34.69 34.69 0 0 1 .6 4.5c.1.6.1 1.2.2 1.8a1.412 1.412 0 0 1-.1.9c-.1 0-.3.1-.4.1h-.3a4.951 4.951 0 0 1-1.3-.4z" class="cls-1" data-name="Path 1968"/>
                <path id="Path_1969" d="M93.4 48.7a14.484 14.484 0 0 1-7.3-3.4 7.814 7.814 0 0 0 7.2 5z" class="cls-10" data-name="Path 1969"/>
                <path id="Path_1970" d="M93.5 40.9a1.3 1.3 0 0 0-.8-1.2 1.183 1.183 0 0 0-1-.1.871.871 0 0 0-.6.8 1.068 1.068 0 0 0 .7.9 4.869 4.869 0 0 0 1.2.1.367.367 0 0 0 .3-.1c.2-.1.2-.2.2-.4" class="cls-10" data-name="Path 1970"/>
                <path id="Path_1971" d="M91.8 38.8c-.1 0-.2.2-.2.6a1.872 1.872 0 0 0 .5 1.4 2.091 2.091 0 0 0 1.3.7c.4.1.6 0 .6-.1s-.9-.2-1.5-.9a3.864 3.864 0 0 1-.7-1.7z" class="cls-1" data-name="Path 1971"/>
                <path id="Path_1972" d="M82.2 32c-.1-.1-3.3-1.4-4.3 2.4-.9 3.8 3.5 3.4 3.5 3.3.1-.2.8-5.7.8-5.7z" class="cls-8" data-name="Path 1972"/>
                <path id="Path_1973" d="M80.6 36a.31.31 0 0 0-.2.1.749.749 0 0 1-.5-.1 1.666 1.666 0 0 1-.5-1.6 3.552 3.552 0 0 1 .4-.9.842.842 0 0 1 .7-.4c.2 0 .3.1.4.3v.2s.1 0 .1-.2a.367.367 0 0 0-.1-.3.52.52 0 0 0-.4-.2 1.268 1.268 0 0 0-.9.4 1.905 1.905 0 0 0-.5 1 1.762 1.762 0 0 0 .6 1.9.854.854 0 0 0 .7 0z" class="cls-10" data-name="Path 1973"/>
                <path id="Path_1974" d="M101.8 21a3.99 3.99 0 0 1 1.5 4.4c-.6 1.8-2.3 3.8-7 3.7l1.1-1.2a8.027 8.027 0 0 1-7.6 1.3l1.3-2.6s-6 6.4-9.4 6.6l.4-6.8c.8-6.4 3.5-8.3 7.7-8.6a23.584 23.584 0 0 1 4.6.1 16.931 16.931 0 0 1 7.4 3.1z" class="cls-2" data-name="Path 1974"/>
                <path id="Path_1975" d="M78.2 36.7a1.794 1.794 0 0 0-.5.7.972.972 0 0 0 .1.9 1.456 1.456 0 0 0 .9.6 1.113 1.113 0 0 0 1-.3 1.217 1.217 0 0 0 0-1.6s.1 0 .2.2a1.445 1.445 0 0 1 .2.7 1.284 1.284 0 0 1-.4 1 1.374 1.374 0 0 1-1.2.4 1.23 1.23 0 0 1-1.1-.7 1.079 1.079 0 0 1 0-1.1 2.092 2.092 0 0 1 .4-.6c.2-.2.3-.2.4-.2z" class="cls-4" data-name="Path 1975"/>
                <path id="Path_1976" d="M93.7 31.1a5.2 5.2 0 0 1-.5-.3 2.843 2.843 0 0 0-1.2-.4 2.953 2.953 0 0 0-1.3.2 4.2 4.2 0 0 0-.5.2 1.106 1.106 0 0 1 .5-.4 3.194 3.194 0 0 1 1.4-.3 2.106 2.106 0 0 1 1.3.5 5.2 5.2 0 0 1 .3.5z" class="cls-2" data-name="Path 1976"/>
                <path id="Path_1977" d="M101.1 31.8a3.787 3.787 0 0 1-1.5 0 7.719 7.719 0 0 1-1.5-.2 3.787 3.787 0 0 1 1.5 0 7.719 7.719 0 0 1 1.5.2z" class="cls-2" data-name="Path 1977"/>
                <path id="Path_1978" d="M72.4 43.7c-.1-.1-.1-.2-.2-.3a.758.758 0 0 1-.2-.4 1.421 1.421 0 0 1-.2-.6 8.538 8.538 0 0 1-.1-4.2 13.315 13.315 0 0 1 1-2.8 13.5 13.5 0 0 1 2-2.7 24.664 24.664 0 0 1 6.3-4.4c2.4-1.2 4.8-2.2 6.9-3.3a19.229 19.229 0 0 0 5-3.6 11.645 11.645 0 0 0 2.4-3.4c.4-.9.6-1.4.6-1.4a.6.6 0 0 1-.1.4 4.874 4.874 0 0 1-.4 1.1 12.111 12.111 0 0 1-2.4 3.5 19.638 19.638 0 0 1-5 3.7c-2.1 1.1-4.5 2.2-6.9 3.4a22.223 22.223 0 0 0-6.2 4.3 10.823 10.823 0 0 0-3 5.3 9.448 9.448 0 0 0 0 4.1c.3.8.6 1.3.5 1.3z" class="cls-9" data-name="Path 1978"/>
                <path id="Path_1979" d="M81.7 32.9v-.2a2.544 2.544 0 0 1 .2-.7 5.957 5.957 0 0 1 1.4-2.1 10.623 10.623 0 0 1 3.1-2.1c1.2-.6 2.7-1.2 4-2a15.609 15.609 0 0 0 5.5-5.9c.5-1 .9-2.1 1.3-3.1a2.92 2.92 0 0 1-.2.9 9.172 9.172 0 0 1-.9 2.3 15.4 15.4 0 0 1-5.5 6.1c-1.3.7-2.7 1.4-4.1 2a14.865 14.865 0 0 0-3.1 2 10 10 0 0 0-1.7 2.8z" class="cls-9" data-name="Path 1979"/>
                <path id="Path_1980" d="M41.7 70.6l8.9 38.4h34c16.7 0 30.5 17.2 30.2 30.2V170l-72.9-1L20.6 48.2c13.5 0 18 9.3 21.1 22.4z" class="cls-2" data-name="Path 1980"/>
                <path id="Path_1981" d="M59.7 134.5c.2-.1.4 0 .6 0a2.208 2.208 0 0 1 1.4 1.1 2.843 2.843 0 0 1 .4 1.2 2.3 2.3 0 0 1-.4 1.4 2.769 2.769 0 0 1-2.9 1.2 2.672 2.672 0 0 1-1.9-2.5 3.194 3.194 0 0 1 .3-1.4 2.361 2.361 0 0 1 .8-.9 2.618 2.618 0 0 1 1.7-.5 1.268 1.268 0 0 1 .6.1h-.6a2.035 2.035 0 0 0-1.5.6 2.512 2.512 0 0 0-1 2.1 2.764 2.764 0 0 0 1.7 2.2 2.229 2.229 0 0 0 2.5-3.3 2.545 2.545 0 0 0-1.2-1.1c-.3-.1-.5-.1-.5-.2z" class="cls-1" data-name="Path 1981"/>
                <path id="Path_1982" d="M57.4 135.6a5.066 5.066 0 0 1-1.3.2 6.781 6.781 0 0 1-5.2-2.9 2.2 2.2 0 0 1-.5-1.2 6.071 6.071 0 0 1 .7 1 7.091 7.091 0 0 0 5 2.8c.5 0 .9.1 1.3.1z" class="cls-1" data-name="Path 1982"/>
                <path id="Path_1983" d="M62.5 128.6c0 .1-.3.3-.6.8a3.981 3.981 0 0 0-.9 2.1 5.863 5.863 0 0 0 .1 2.3l.3.9a2.443 2.443 0 0 1-.5-.9 3.973 3.973 0 0 1-.2-2.4 3.858 3.858 0 0 1 1.1-2.2 1.49 1.49 0 0 1 .7-.6z" class="cls-1" data-name="Path 1983"/>
                <path id="Path_1984" d="M58.5 149.4a1.2 1.2 0 0 1-.4-.4 8.342 8.342 0 0 1-.8-1.2 6.6 6.6 0 0 1 2.2-8.4 5.387 5.387 0 0 1 1.3-.7.9.9 0 0 1 .5-.1c0 .1-.7.3-1.6 1a6.846 6.846 0 0 0-2.2 8.1 8.13 8.13 0 0 0 1 1.7z" class="cls-1" data-name="Path 1984"/>
                <path id="Path_1985" d="M84.8 136h.6a2.208 2.208 0 0 1 1.4 1.1 2.843 2.843 0 0 1 .4 1.2 2.3 2.3 0 0 1-.4 1.4 2.769 2.769 0 0 1-2.9 1.2 2.672 2.672 0 0 1-1.9-2.5 3.194 3.194 0 0 1 .3-1.4 2.361 2.361 0 0 1 .8-.9 2.618 2.618 0 0 1 1.7-.5 1.268 1.268 0 0 1 .6.1h-.6a2.035 2.035 0 0 0-1.5.6 2.512 2.512 0 0 0-1 2.1 2.764 2.764 0 0 0 1.7 2.2 2.229 2.229 0 0 0 2.5-3.3 2.545 2.545 0 0 0-1.2-1.1c-.3-.1-.5-.1-.5-.2z" class="cls-1" data-name="Path 1985"/>
                <path id="Path_1986" d="M82.5 137.1a2.745 2.745 0 0 1-1.3.2 6.781 6.781 0 0 1-5.2-2.9 2.195 2.195 0 0 1-.5-1.2 6.07 6.07 0 0 1 .7 1 7.091 7.091 0 0 0 5 2.8c.5 0 .9.1 1.3.1z" class="cls-1" data-name="Path 1986"/>
                <path id="Path_1987" d="M87.5 130.1c0 .1-.3.3-.6.8a3.981 3.981 0 0 0-.9 2.1 5.951 5.951 0 0 0 .1 2.3l.3.9a2.443 2.443 0 0 1-.5-.9 3.973 3.973 0 0 1-.2-2.4 3.858 3.858 0 0 1 1.1-2.2 1.791 1.791 0 0 1 .7-.6z" class="cls-1" data-name="Path 1987"/>
                <path id="Path_1988" d="M83.6 150.9a1.2 1.2 0 0 1-.4-.4 8.342 8.342 0 0 1-.8-1.2 6.6 6.6 0 0 1 2.2-8.4 7.458 7.458 0 0 1 1.2-.7.9.9 0 0 1 .5-.1c0 .1-.7.3-1.6 1a6.846 6.846 0 0 0-2.2 8.1c.4.6.7 1.2 1.1 1.7z" class="cls-1" data-name="Path 1988"/>
                <g id="Group_1846" class="cls-11" data-name="Group 1846">
                    <path id="Path_1989" d="M86.2 136.4c.1-1.5.2-3.3-1-4.3s-2.7-.7-4.1-.3a7.94 7.94 0 0 0-4 2.2c-1.6 1.8-1.7 4.5-1.4 6.8a9.709 9.709 0 0 0 1.5 4.8 2.985 2.985 0 0 0 3 1.3c1.2-.3 1.9-1.5 2.4-2.7a5.19 5.19 0 0 1 2.2-3 3.321 3.321 0 0 1-2.6-2.1 2.521 2.521 0 0 1 1-3 2.15 2.15 0 0 1 2.8.9c0 .1.1.1.1.2" data-name="Path 1989"/>
                </g>
                <g id="Group_1847" class="cls-11" data-name="Group 1847">
                    <path id="Path_1990" d="M61 134.7c.1-1.5.2-3.3-1-4.3s-2.7-.7-4.1-.3a7.94 7.94 0 0 0-4 2.2c-1.6 1.8-1.7 4.4-1.4 6.8a9.71 9.71 0 0 0 1.5 4.8 2.985 2.985 0 0 0 3 1.3c1.2-.3 1.9-1.6 2.4-2.7.5-1.2 1-2.5 2.2-3a3.068 3.068 0 0 1-2.4-2 2.429 2.429 0 0 1 1.2-2.8c1-.6 2.5-.6 2.9.5" data-name="Path 1990"/>
                </g>
            </g>
            <g id="freepik--Plant--inject-122">
                <path id="Path_1991" d="M250.5 125.5a20.838 20.838 0 0 1 12.8-1.6c2.3.4 4.8 1.1 6.3 2.9 1.6 1.8 1.9 4.8.1 6.3a6.167 6.167 0 0 1-4 1c-3.4 0-7.2-.6-9.8 1.4-1.5 1.2-2.6 3.1-4.4 3.7a4.285 4.285 0 0 1-4.8-2.2 7.046 7.046 0 0 1-.5-5.5 8.139 8.139 0 0 1 4.3-6z" class="cls-6" data-name="Path 1991"/>
                <path id="Path_1992" d="M241.6 108.2c2.4 3.4 7 2.3 9.2.2 2.1-2.1 3.1-5.1 3.9-8 1.9-6.6 3.8-13.4 2.4-20.1a10.8 10.8 0 0 0-2.6-5.5A5.524 5.524 0 0 0 249 73c-2.3.6-3.8 2.9-4.8 5.1a48.988 48.988 0 0 0-4.8 20.6c0 3.3.3 6.8 2.2 9.5" class="cls-6" data-name="Path 1992"/>
                <path id="Path_1993" d="M235.1 113.1a12.249 12.249 0 0 0 1.9-11.4 22.914 22.914 0 0 0-6.8-9.8 35.386 35.386 0 0 0-12.1-7.2 12.552 12.552 0 0 0-5.4-.9 5.854 5.854 0 0 0-4.6 2.8c-1.3 2.4-.1 5.4 1.3 7.8a96.668 96.668 0 0 0 7.9 12.1c2.4 3.1 5.1 6.1 8.7 7.5s7.4 1.2 9.3-1.3" class="cls-6" data-name="Path 1993"/>
                <path id="Path_1994" d="M241.5 159.6a7.719 7.719 0 0 0 .2-1.5c.1-1.1.3-2.5.4-4.2a44.442 44.442 0 0 1 1-6.2 47.523 47.523 0 0 1 2.3-7.3 26.677 26.677 0 0 1 3.7-6.6 14.651 14.651 0 0 1 4.7-3.9 14.191 14.191 0 0 1 4-1.2 7.72 7.72 0 0 0 1.5-.2 4.3 4.3 0 0 0-1.6 0 11.9 11.9 0 0 0-4.1 1.1 13.068 13.068 0 0 0-5 4 26.768 26.768 0 0 0-3.9 6.8 39.22 39.22 0 0 0-2.2 7.4 45.228 45.228 0 0 0-.8 6.3c-.1 1.8-.2 3.2-.2 4.3a2.356 2.356 0 0 0 0 1.2z" class="cls-1" data-name="Path 1994"/>
                <path id="Path_1995" d="M241.7 156.3c0-.2.1-.5 0-.7v-2c0-1.8 0-4.4.1-7.5.2-6.4.7-13.2 1.8-22.9 1-9.1 2.3-19.7 3.8-26.5q.45-2.4.9-4.2c.3-1.2.5-2.3.7-3.2s.4-1.5.5-2a1.7 1.7 0 0 0 .1-.7 1.445 1.445 0 0 0-.2.7l-.6 2c-.3.9-.5 1.9-.8 3.1s-.7 2.6-1 4.2a225.122 225.122 0 0 0-4 24.6c-1.1 9.7-1.5 18.5-1.6 24.9 0 3.2 0 5.8.1 7.6a15.556 15.556 0 0 1 .1 2c0 .2.1.4.1.6z" class="cls-1" data-name="Path 1995"/>
                <path id="Path_1996" d="M241.8 139.3a8.094 8.094 0 0 0 0-2.2c-.1-1.4-.3-3.4-.7-5.8a80.442 80.442 0 0 0-1.9-8.5 69.648 69.648 0 0 0-3.5-10 54.114 54.114 0 0 0-10.4-16.2c-.8-.8-1.6-1.6-2.4-2.3a9.017 9.017 0 0 1-1-.9l-.9-.7-1.8-1.2a49.921 49.921 0 0 1 5.9 5.3 55.289 55.289 0 0 1 10.1 16.1 83.344 83.344 0 0 1 3.6 9.9 85.211 85.211 0 0 1 2 8.4c.4 2.4.7 4.4.9 5.7a9.023 9.023 0 0 0 .1 2.4z" class="cls-1" data-name="Path 1996"/>
                <path id="Path_1997" d="M225.4 169.3l1.7 23.4H257l1.7-23.4z" class="cls-1" data-name="Path 1997"/>
                <path id="Rectangle_2163" d="M0 0H39.9V9.2H0z" class="cls-1" data-name="Rectangle 2163" transform="translate(222.5 160.1)"/>
                <path id="Path_1998" d="M222.5 191.8v2.5h39.2v-2.5z" class="cls-4" data-name="Path 1998"/>
                <path id="Path_1999" d="M226.2 198.8l-1.9-4.5h35.9l-2.1 4.5z" class="cls-4" data-name="Path 1999"/>
                <path id="Path_2000" d="M258.2 176.9a.349.349 0 0 1-.1.2l-.4.6-1.7 2.2-.1.1-.1-.1-4.3-5.9h.3l-4.2 6-.1.2-.2-.2c-1.6-1.8-3.3-3.9-5-6h.3l-.3.3-4.5 5.6-.2.2-.1-.2q-2.25-3.3-4.2-6h.2l-5.2 5.9-.1.1-.2.1-1.6-2.7-.4-.7a.774.774 0 0 1-.1-.3l.2.2.5.7c.4.7 1 1.6 1.7 2.7h-.2l5.1-6 .1-.2.1.2 4.3 6h-.3l4.5-5.6.3-.3.1-.2.2.2c1.7 2.1 3.4 4.1 5 6h-.3l4.3-5.9.1-.2.1.2 4.2 6h-.2l1.8-2.2a2.651 2.651 0 0 0 .5-.6.619.619 0 0 0 .2-.4z" class="cls-7" data-name="Path 2000"/>
                <path id="Path_2001" d="M259.2 169.2c0 .1-7.5.2-16.8.2s-16.8-.1-16.8-.2 7.5-.2 16.8-.2c9.2 0 16.8.1 16.8.2z" class="cls-4" data-name="Path 2001"/>
                <path id="Path_2002" d="M260.7 194.6c0 .1-8.2.2-18.2.2-10.1 0-18.2-.1-18.2-.2s8.2-.2 18.2-.2 18.2.1 18.2.2z" class="cls-1" data-name="Path 2002"/>
            </g>
        </g>
    </g>
</svg>
