<?xml version="1.0" encoding="utf-8"?>
<!-- Generator: Adobe Illustrator 21.1.0, SVG Export Plug-In . SVG Version: 6.00 Build 0)  -->
<svg version="1.1" xmlns="http://www.w3.org/2000/svg" xmlns:xlink="http://www.w3.org/1999/xlink" x="0px" y="0px"
	 viewBox="0 0 100 59.3" style="enable-background:new 0 0 100 59.3;" xml:space="preserve">
<style type="text/css">
	.st0{display:none;}
	.st1{display:inline;}
	.st2{fill:none;stroke:#282827;stroke-miterlimit:10;}
	.st3{fill:#FFFFFF;}
	.st4{fill:#58595B;}
	.st5{fill:#231F20;}
	.st6{fill:url(#SVGID_1_);}
	.st7{fill:url(#SVGID_2_);}
	.st8{fill:#FFFFFF;stroke:#000000;stroke-width:0.5;stroke-miterlimit:10;}
	.st9{fill:#9597C7;}
	.st10{fill:#BBD538;}
	.st11{fill:url(#SVGID_3_);}
	.st12{fill:url(#SVGID_4_);}
	.st13{fill:url(#SVGID_5_);}
	.st14{display:inline;fill:#352E70;}
	.st15{display:inline;fill:#595CA8;}
	.st16{display:inline;fill:#A9AED3;}
	.st17{display:inline;fill:#CDDF77;}
	.st18{display:inline;fill:#BBD538;}
	.st19{fill:#595CA8;}
	.st20{fill:url(#SVGID_6_);}
	.st21{fill:url(#SVGID_7_);}
	.st22{fill:#515499;}
	.st23{fill:#494C8A;}
	.st24{fill:#41437B;}
	.st25{fill:#393B6B;}
	.st26{fill:#686AAF;}
	.st27{fill:#7779B7;}
	.st28{fill:#8688BF;}
	.st29{fill:none;stroke:#595CA8;stroke-width:9.4233;stroke-miterlimit:10;}
	.st30{fill:#BAD54D;}
	.st31{fill:none;stroke:#595CA8;stroke-width:7.2858;stroke-miterlimit:10;}
	.st32{fill:none;stroke:#BAD54D;stroke-width:6.2822;stroke-miterlimit:10;}
	.st33{fill:none;stroke:#595CA8;stroke-width:6.0983;stroke-miterlimit:10;}
	.st34{fill:none;stroke:#595CA8;stroke-width:4.715;stroke-miterlimit:10;}
	.st35{fill:url(#SVGID_8_);}
	.st36{fill:#AAC233;}
	.st37{fill:#9AAF2E;}
	.st38{fill:#899B29;}
	.st39{fill:#778824;}
	.st40{fill:#C1D84A;}
	.st41{fill:#C7DC5C;}
	.st42{fill:#CDE06E;}
	.st43{fill:#D3E480;}
	.st44{fill:url(#SVGID_9_);}
	.st45{fill:url(#SVGID_10_);}
	.st46{fill:#FFFFFF;stroke:#000000;stroke-width:0.4338;stroke-miterlimit:10;}
	.st47{fill:#FFD72E;}
	.st48{fill:#FFE02C;}
	.st49{fill:url(#SVGID_11_);}
	.st50{fill:url(#SVGID_12_);}
	.st51{fill:#E8C42A;}
	.st52{fill:#D1B026;}
	.st53{fill:#BA9D22;}
	.st54{fill:#A3891E;}
	.st55{fill:#FFDA41;}
	.st56{fill:#FFDE54;}
	.st57{fill:#FFE167;}
	.st58{fill:#FFE57A;}
</style>
<g id="B_x26_W" class="st0">
</g>
<g id="Monochrome" class="st0">
</g>
<g id="Green" class="st0">
</g>
<g id="Yellow" class="st0">
</g>
<g id="Final">
	<g>
		<g>
			<path class="st10" d="M35.5,20.3c-0.4,0-0.8,0.2-1.1,0.5H19l-0.6,1.6L15.3,8.1l-3.5,15.7L9.2,11.3l-2.9,9.7H2.7v1.8h4.9l1.3-4.2
				l2.9,13.8l3.5-15.8l2.6,12.1l2.4-6h14.2c0.3,0.3,0.7,0.5,1.1,0.5c0.8,0,1.4-0.6,1.4-1.4C36.9,20.9,36.3,20.3,35.5,20.3z"/>
			<g>
				<path class="st26" d="M26.7,5.6c0-2.7-2.2-4.8-4.8-4.8h-1.7c-0.4-0.5-1-0.8-1.7-0.8h-1.9c-1.2,0-2.2,1-2.2,2.2s1,2.2,2.2,2.2
					h1.9c0.7,0,1.3-0.3,1.7-0.8h1.7c1.2,0,2.1,0.9,2.1,2.1v14h2.7V5.6z"/>
				<circle class="st26" cx="13.3" cy="38.1" r="1.9"/>
				<path class="st26" d="M35.5,16.9c-1.9,0-3.5,1.1-4.3,2.7h2.6c0.5-0.4,1-0.6,1.7-0.6c1.5,0,2.7,1.2,2.7,2.7
					c0,1.5-1.2,2.7-2.7,2.7c-0.6,0-1.2-0.2-1.6-0.6h-2.6c0.6,1.2,1.6,2.1,2.9,2.5l0,22.4c0,0,0,3.1-2.2,5.4
					c-1.6,1.7-4.1,2.5-7.3,2.5c-4.1,0-7-1.2-8.6-3.6c-1.2-1.8-1.3-3.7-1.3-3.7v-5.3h7.2c2.7,0,4.8-2.2,4.8-4.8V23.8h-2.7v15.3
					c0,1.2-0.9,2.1-2.1,2.1h-17c-1.2,0-2.1-0.9-2.1-2.1V5.6c0-1.2,0.9-2.1,2.1-2.1h2c0.4,0.5,1,0.8,1.7,0.8h1.9c1.2,0,2.2-1,2.2-2.2
					S11.6,0,10.4,0H8.6C7.9,0,7.3,0.3,6.9,0.8h-2C2.2,0.8,0,3,0,5.6v33.4c0,2.7,2.2,4.8,4.8,4.8H12v5.3c0,0.1,0.1,10.1,12.6,10.1
					c4,0,7.1-1.1,9.3-3.3c3-3.1,3-7.1,3-7.3V26.3c2-0.6,3.4-2.4,3.4-4.6C40.2,19.1,38.1,16.9,35.5,16.9z"/>
			</g>
		</g>
		<g>
			<path class="st10" d="M47.3,0.4l0.1,3.7c0.8-1.4,1.9-2.4,3.2-3.1c1.3-0.7,2.7-1,4.2-1c3.6,0,5.9,1.5,6.9,4.4
				C62.5,3,63.6,1.9,65,1.2C66.3,0.4,67.8,0,69.5,0c4.9,0,7.4,2.7,7.5,8v15.2h-2.5V8.2c0-2-0.5-3.6-1.3-4.5s-2.3-1.5-4.2-1.5
				c-1.8,0-3.3,0.6-4.6,1.8c-1.3,1.1-1.9,2.5-2.1,4.2v15.1h-2.5V8c0-2-0.5-3.4-1.4-4.4c-0.9-1-2.3-1.4-4.2-1.4c-1.6,0-3,0.5-4.1,1.4
				c-1.1,0.9-2,2.3-2.5,4v15.7h-2.5V0.4H47.3z"/>
			<path class="st10" d="M90.6,19.6l6.7-19.2h2.7l-9.8,26.7l-0.5,1.2c-1.3,2.8-3.2,4.2-5.8,4.2c-0.6,0-1.3-0.1-1.9-0.3l0-2.1
				l1.3,0.1c1.2,0,2.2-0.3,3-0.9c0.8-0.6,1.4-1.7,2-3.2l1.1-3.1L80.7,0.4h2.8L90.6,19.6z"/>
			<path class="st26" d="M69.4,55c-1.1,1.4-2.8,2.4-4.8,3.2c-2.1,0.8-4.4,1.1-6.9,1.1c-2.7,0-5-0.6-7-1.7c-2-1.2-3.6-2.8-4.6-5.1
				c-1.1-2.2-1.7-4.8-1.7-7.8v-2.1c0-3.1,0.5-5.7,1.6-8c1-2.2,2.5-4,4.5-5.2c1.9-1.2,4.2-1.8,6.8-1.8c3.6,0,6.5,0.9,8.5,2.6
				c2.1,1.7,3.3,4.3,3.7,7.6h-6.2c-0.3-1.8-0.9-3-1.9-3.9c-1-0.8-2.3-1.2-4-1.2c-2.2,0-3.8,0.8-4.9,2.4c-1.1,1.6-1.7,4-1.7,7.2v2
				c0,3.2,0.6,5.7,1.8,7.3c1.2,1.6,3,2.5,5.4,2.5c2.4,0,4.1-0.5,5.1-1.5v-5.3h-5.8v-4.7h12.1V55z"/>
			<path class="st26" d="M100,48.6c-0.2,3.3-1.5,5.9-3.7,7.8c-2.2,1.9-5.1,2.9-8.7,2.9c-3.9,0-7-1.3-9.3-4
				c-2.3-2.7-3.4-6.3-3.4-10.9v-1.9c0-3,0.5-5.6,1.6-7.8c1-2.3,2.5-4,4.5-5.2c1.9-1.2,4.2-1.8,6.7-1.8c3.5,0,6.4,0.9,8.6,2.8
				c2.2,1.9,3.4,4.6,3.8,8h-6.3c-0.2-2-0.7-3.4-1.7-4.3c-0.9-0.9-2.4-1.3-4.3-1.3c-2.1,0-3.7,0.8-4.7,2.3c-1,1.5-1.6,3.9-1.6,7v2.3
				c0,3.3,0.5,5.7,1.5,7.3c1,1.5,2.6,2.3,4.8,2.3c2,0,3.4-0.4,4.4-1.3c1-0.9,1.5-2.3,1.7-4.1H100z"/>
		</g>
	</g>
</g>
</svg>
