<?xml version="1.0" encoding="utf-8"?>
<!-- Generator: Adobe Illustrator 21.1.0, SVG Export Plug-In . SVG Version: 6.00 Build 0)  -->
<svg version="1.1" id="Layer_1" xmlns="http://www.w3.org/2000/svg" xmlns:xlink="http://www.w3.org/1999/xlink" x="0px" y="0px"
	 viewBox="0 0 298.5 102" style="enable-background:new 0 0 298.5 102;" xml:space="preserve">
<style type="text/css">
	.st0{display:none;}
	.st1{fill:#BBD538;}
	.st2{fill:#FFFFFF;}
</style>
<g id="B_x26_W" class="st0">
</g>
<g id="Green" class="st0">
</g>
<g id="Yellow" class="st0">
</g>
<g id="Final">
	<g>
		<g>
			<path class="st1" d="M60.8,35c-0.8,0-1.4,0.4-1.9,0.9H33l-1.1,2.7l-5.2-24.2l-5.9,26.4l-4.4-21l-5,16.3h-6v3h8.2l2.1-7l4.8,23.2
				l5.9-26.6L31,49.1L35,39h24c0.4,0.5,1.1,0.9,1.9,0.9c1.3,0,2.4-1.1,2.4-2.4C63.2,36,62.2,35,60.8,35z"/>
			<g>
				<path class="st2" d="M45.9,10.3c0-4.5-3.6-8.1-8.1-8.1h-2.9c-0.7-0.8-1.7-1.4-2.9-1.4h-3.2c-2,0-3.7,1.7-3.7,3.7
					s1.7,3.7,3.7,3.7H32c1.2,0,2.2-0.5,2.9-1.4h2.9c2,0,3.6,1.6,3.6,3.6V34H46L45.9,10.3L45.9,10.3z"/>
				<circle class="st2" cx="23.5" cy="65" r="3.2"/>
				<path class="st2" d="M60.8,29.3c-3.2,0-5.9,1.9-7.2,4.5H58c0.8-0.6,1.8-1,2.8-1c2.5,0,4.5,2,4.5,4.5s-2,4.5-4.5,4.5
					c-1,0-2-0.4-2.7-0.9h-4.5c1,2,2.8,3.5,4.9,4.1v37.8c0,0.1,0,5.2-3.8,9c-2.8,2.8-6.9,4.2-12.4,4.2c-6.9,0-11.8-2.1-14.5-6.2
					c-2.1-3.1-2.1-6.3-2.1-6.3v-8.9h12.1c4.5,0,8.1-3.6,8.1-8.1V41h-4.6v25.8c0,2-1.6,3.6-3.6,3.6H9.1c-2,0-3.6-1.6-3.6-3.6V10.3
					c0-2,1.6-3.6,3.6-3.6h3.4c0.7,0.8,1.7,1.4,2.9,1.4h3.2c2,0,3.7-1.7,3.7-3.7s-1.7-3.7-3.7-3.7h-3.2c-1.2,0-2.2,0.5-2.9,1.4H9.1
					C4.6,2.2,1,5.8,1,10.3v56.4c0,4.5,3.6,8.1,8.1,8.1h12.1v8.9c0,0.2,0.2,17,21.2,17c6.7,0,12-1.9,15.6-5.6
					c5.1-5.2,5.1-12,5.1-12.3V45.1c3.3-1,5.8-4.1,5.8-7.7C68.9,32.9,65.3,29.3,60.8,29.3z"/>
			</g>
		</g>
		<g>
			<path class="st1" d="M81.7,27.7l0.2,7.2c1.6-2.7,3.7-4.7,6.2-6s5.2-2,8.2-2c7,0,11.5,2.9,13.3,8.6c1.6-2.8,3.7-4.9,6.4-6.4
				c2.7-1.5,5.6-2.2,8.8-2.2c9.5,0,14.4,5.2,14.6,15.6v29.6h-4.9V42.8c0-4-0.9-6.9-2.6-8.8c-1.7-1.9-4.4-2.9-8.2-2.9
				c-3.5,0.1-6.5,1.2-8.9,3.4s-3.8,4.9-4.1,8.1V72h-4.9V42.5c0-3.8-0.9-6.6-2.7-8.5c-1.8-1.9-4.5-2.8-8.1-2.8c-3.1,0-5.7,0.9-8,2.6
				c-2.2,1.8-3.9,4.4-4.9,7.9v30.5h-4.9V27.7H81.7z"/>
			<path class="st1" d="M165.8,65l13-37.4h5.3l-19,52l-1,2.3c-2.4,5.4-6.2,8.1-11.3,8.1c-1.2,0-2.4-0.2-3.8-0.6v-4.1l2.5,0.2
				c2.4,0,4.4-0.6,5.9-1.8c1.5-1.2,2.8-3.2,3.8-6.1l2.2-6l-16.7-44h5.4L165.8,65z"/>
			<path class="st2" d="M237.9,64.5c-2.2,2.7-5.4,4.7-9.4,6.2s-8.5,2.2-13.5,2.2c-5.2,0-9.7-1.1-13.6-3.4c-3.9-2.3-6.9-5.5-9-9.8
				s-3.2-9.3-3.3-15.1v-4.1c0-6,1-11.1,3-15.5s4.9-7.7,8.7-10s8.2-3.5,13.3-3.5c7.1,0,12.6,1.7,16.6,5.1s6.4,8.3,7.1,14.8h-12
				c-0.5-3.4-1.8-5.9-3.6-7.5c-1.9-1.6-4.5-2.4-7.7-2.4c-4.2,0-7.4,1.6-9.6,4.7c-2.2,3.1-3.3,7.8-3.3,14V44c0,6.3,1.2,11,3.6,14.2
				c2.4,3.2,5.9,4.8,10.5,4.8s7.9-1,9.9-3V49.8h-11.2v-9.1h23.5V64.5z"/>
			<path class="st2" d="M294.8,52.2c-0.5,6.4-2.8,11.5-7.1,15.2c-4.3,3.7-9.9,5.5-16.9,5.5c-7.7,0-13.7-2.6-18.1-7.7
				c-4.4-5.2-6.6-12.2-6.6-21.2v-3.7c0-5.7,1-10.8,3-15.2s4.9-7.7,8.7-10.1s8.1-3.5,13.1-3.5c6.9,0,12.5,1.8,16.7,5.5
				s6.7,8.9,7.3,15.6h-12.3c-0.3-3.9-1.4-6.7-3.2-8.4c-1.8-1.7-4.7-2.6-8.4-2.6c-4.1,0-7.2,1.5-9.2,4.4s-3.1,7.5-3.1,13.7v4.5
				c0,6.5,1,11.2,2.9,14.2c2,3,5,4.5,9.3,4.5c3.8,0,6.6-0.9,8.5-2.6c1.9-1.7,2.9-4.4,3.2-8.1C282.6,52.2,294.8,52.2,294.8,52.2z"/>
		</g>
	</g>
</g>
</svg>
