<svg xmlns="http://www.w3.org/2000/svg" width="104.539" height="35.57" viewBox="0 0 104.539 35.57">
  <defs>
    <style>
      .cls-1 {
        fill: #bbd538;
      }

      .cls-2 {
        fill: #595ca8;
      }
    </style>
  </defs>
  <g id="Final" transform="translate(-1 -0.699)">
    <g id="Group_461" data-name="Group 461" transform="translate(1 0.7)">
      <g id="Group_459" data-name="Group 459" transform="translate(0)">
        <path id="Path_1244" data-name="Path 1244" class="cls-1" d="M25.106,21.727a.941.941,0,0,0-.676.32H15.217l-.391.96L12.976,14.4l-2.1,9.39-1.565-7.47-1.778,5.8H5.4v1.067H8.317l.747-2.49,1.707,8.252,2.1-9.462,1.636,7.256,1.423-3.593h8.537a.88.88,0,0,0,.676.32.866.866,0,0,0,.854-.854A.88.88,0,0,0,25.106,21.727Z" transform="translate(-3.835 -9.527)"/>
        <g id="Group_458" data-name="Group 458">
          <path id="Path_1245" data-name="Path 1245" class="cls-2" d="M32.5,4.179A2.869,2.869,0,0,0,29.617,1.3H28.586A1.373,1.373,0,0,0,27.554.8H26.416A1.336,1.336,0,0,0,25.1,2.116a1.336,1.336,0,0,0,1.316,1.316h1.138a1.265,1.265,0,0,0,1.032-.5h1.032A1.275,1.275,0,0,1,30.9,4.215v8.394h1.636V4.179Z" transform="translate(-16.528 -0.764)"/>
          <circle id="Ellipse_65" data-name="Ellipse 65" class="cls-2" cx="1.138" cy="1.138" r="1.138" transform="translate(6.865 21.733)"/>
          <path id="Path_1246" data-name="Path 1246" class="cls-2" d="M22.271,10.873a2.875,2.875,0,0,0-2.561,1.6h1.565a1.7,1.7,0,0,1,1-.356,1.6,1.6,0,1,1,0,3.2,1.723,1.723,0,0,1-.96-.32h-1.6a2.838,2.838,0,0,0,1.743,1.458V29.9A4.9,4.9,0,0,1,20.1,33.1,5.963,5.963,0,0,1,15.69,34.6c-2.454,0-4.2-.747-5.158-2.205a4.4,4.4,0,0,1-.747-2.241V26.986h4.3A2.869,2.869,0,0,0,16.971,24.1v-9.07H15.335v9.177a1.275,1.275,0,0,1-1.281,1.281H3.881A1.275,1.275,0,0,1,2.6,24.212V4.115A1.275,1.275,0,0,1,3.881,2.834H5.091a1.373,1.373,0,0,0,1.032.5H7.26A1.336,1.336,0,0,0,8.576,2.016,1.336,1.336,0,0,0,7.26.7H6.122a1.265,1.265,0,0,0-1.032.5H3.881A2.923,2.923,0,0,0,1,4.115V24.176a2.869,2.869,0,0,0,2.881,2.881h4.3v3.166c0,.071.071,6.047,7.541,6.047a7.455,7.455,0,0,0,5.549-1.992A6.674,6.674,0,0,0,23.089,29.9V16.493a2.9,2.9,0,0,0,2.063-2.739A2.869,2.869,0,0,0,22.271,10.873Z" transform="translate(-1 -0.7)"/>
        </g>
      </g>
      <g id="Group_460" data-name="Group 460" transform="translate(27.104 3.842)">
        <path id="Path_1247" data-name="Path 1247" class="cls-1" d="M78.8,27.185l.071,2.561a5.513,5.513,0,0,1,2.205-2.134,6.2,6.2,0,0,1,2.917-.711c2.49,0,4.091,1.032,4.731,3.059A5.836,5.836,0,0,1,91,27.683a6.293,6.293,0,0,1,3.13-.783c3.379,0,5.122,1.85,5.193,5.549V42.978H97.582V32.556a4.569,4.569,0,0,0-.925-3.13,3.722,3.722,0,0,0-2.917-1.032A4.726,4.726,0,0,0,90.574,29.6a4.358,4.358,0,0,0-1.458,2.881V42.942H87.373V32.449a4.226,4.226,0,0,0-.96-3.023,3.782,3.782,0,0,0-2.881-1,4.623,4.623,0,0,0-2.846.925,5.454,5.454,0,0,0-1.743,2.81V43.013H77.2V27.185Z" transform="translate(-77.2 -21.422)"/>
        <path id="Path_1248" data-name="Path 1248" class="cls-1" d="M153.494,40.9l4.624-13.3H160l-6.758,18.5-.356.818A4.234,4.234,0,0,1,148.87,49.8a4.834,4.834,0,0,1-1.352-.213V48.124l.889.071a3.281,3.281,0,0,0,2.1-.64,4.649,4.649,0,0,0,1.352-2.17l.783-2.134L146.7,27.6h1.921Z" transform="translate(-121.979 -21.873)"/>
        <path id="Path_1249" data-name="Path 1249" class="cls-2" d="M206.458,30.352a7.654,7.654,0,0,1-3.344,2.205,13.6,13.6,0,0,1-4.8.783,9.307,9.307,0,0,1-4.837-1.209,8.014,8.014,0,0,1-3.2-3.486,12.576,12.576,0,0,1-1.174-5.371V21.815a13.143,13.143,0,0,1,1.067-5.513,7.791,7.791,0,0,1,3.095-3.557,8.936,8.936,0,0,1,4.731-1.245,8.814,8.814,0,0,1,5.9,1.814,7.663,7.663,0,0,1,2.525,5.264h-4.268a4.3,4.3,0,0,0-1.281-2.668,4.137,4.137,0,0,0-2.739-.854,3.939,3.939,0,0,0-3.415,1.672,8.649,8.649,0,0,0-1.174,4.98V23.06a8.325,8.325,0,0,0,1.281,5.051,4.38,4.38,0,0,0,3.735,1.707,4.849,4.849,0,0,0,3.521-1.067V25.123H198.1V21.886h8.359Z" transform="translate(-149.297 -11.5)"/>
        <path id="Path_1250" data-name="Path 1250" class="cls-2" d="M263.422,25.977a7.574,7.574,0,0,1-2.525,5.407,8.863,8.863,0,0,1-6.011,1.956,8.053,8.053,0,0,1-6.438-2.739A11.258,11.258,0,0,1,246.1,23.06V21.744a12.98,12.98,0,0,1,1.067-5.407,8.069,8.069,0,0,1,3.095-3.593,8.462,8.462,0,0,1,4.66-1.245,8.671,8.671,0,0,1,5.94,1.956,8.044,8.044,0,0,1,2.6,5.549h-4.375a4.464,4.464,0,0,0-1.138-2.988,4.291,4.291,0,0,0-2.988-.925,3.729,3.729,0,0,0-3.272,1.565,8.727,8.727,0,0,0-1.1,4.873v1.6a9.659,9.659,0,0,0,1.032,5.051,3.656,3.656,0,0,0,3.308,1.6,4.39,4.39,0,0,0,3.023-.925,4.149,4.149,0,0,0,1.138-2.881h4.34Z" transform="translate(-186.023 -11.5)"/>
      </g>
    </g>
  </g>
</svg>
