<?xml version="1.0" encoding="utf-8"?>
<!-- Generator: Adobe Illustrator 21.1.0, SVG Export Plug-In . SVG Version: 6.00 Build 0)  -->
<svg version="1.1" xmlns="http://www.w3.org/2000/svg" xmlns:xlink="http://www.w3.org/1999/xlink" x="0px" y="0px"
	 viewBox="0 0 298.5 102" style="enable-background:new 0 0 298.5 102;" xml:space="preserve">
<style type="text/css">
	.st0{display:none;}
	.st1{display:inline;}
	.st2{fill:none;stroke:#282827;stroke-miterlimit:10;}
	.st3{fill:#FFFFFF;}
	.st4{fill:#58595B;}
	.st5{fill:#231F20;}
	.st6{fill:url(#SVGID_1_);}
	.st7{fill:url(#SVGID_2_);}
	.st8{fill:#FFFFFF;stroke:#000000;stroke-width:0.5;stroke-miterlimit:10;}
	.st9{fill:#9597C7;}
	.st10{fill:#BBD538;}
	.st11{fill:url(#SVGID_3_);}
	.st12{fill:url(#SVGID_4_);}
	.st13{fill:url(#SVGID_5_);}
	.st14{display:inline;fill:#352E70;}
	.st15{display:inline;fill:#595CA8;}
	.st16{display:inline;fill:#A9AED3;}
	.st17{display:inline;fill:#CDDF77;}
	.st18{display:inline;fill:#BBD538;}
	.st19{fill:#595CA8;}
	.st20{fill:url(#SVGID_6_);}
	.st21{fill:url(#SVGID_7_);}
	.st22{fill:#515499;}
	.st23{fill:#494C8A;}
	.st24{fill:#41437B;}
	.st25{fill:#393B6B;}
	.st26{fill:#686AAF;}
	.st27{fill:#7779B7;}
	.st28{fill:#8688BF;}
	.st29{fill:none;stroke:#595CA8;stroke-width:9.4233;stroke-miterlimit:10;}
	.st30{fill:#BAD54D;}
	.st31{fill:none;stroke:#595CA8;stroke-width:7.2858;stroke-miterlimit:10;}
	.st32{fill:none;stroke:#BAD54D;stroke-width:6.2822;stroke-miterlimit:10;}
	.st33{fill:none;stroke:#595CA8;stroke-width:6.0983;stroke-miterlimit:10;}
	.st34{fill:none;stroke:#595CA8;stroke-width:4.715;stroke-miterlimit:10;}
	.st35{fill:url(#SVGID_8_);}
	.st36{font-family:'Roboto-Light';}
	.st37{font-size:24.2502px;}
	.st38{font-family:'Roboto-Bold';}
	.st39{fill:#AAC233;}
	.st40{fill:#9AAF2E;}
	.st41{fill:#899B29;}
	.st42{fill:#778824;}
	.st43{fill:#C1D84A;}
	.st44{fill:#C7DC5C;}
	.st45{fill:#CDE06E;}
	.st46{fill:#D3E480;}
	.st47{fill:url(#SVGID_9_);}
	.st48{fill:url(#SVGID_10_);}
	.st49{fill:#FFFFFF;stroke:#000000;stroke-width:0.4338;stroke-miterlimit:10;}
	.st50{fill:#FFD72E;}
	.st51{fill:#FFE02C;}
	.st52{fill:url(#SVGID_11_);}
	.st53{fill:url(#SVGID_12_);}
	.st54{fill:#E8C42A;}
	.st55{fill:#D1B026;}
	.st56{fill:#BA9D22;}
	.st57{fill:#A3891E;}
	.st58{fill:#FFDA41;}
	.st59{fill:#FFDE54;}
	.st60{fill:#FFE167;}
	.st61{fill:#FFE57A;}
	.st62{fill:#FFA726;}
	.st63{fill:url(#SVGID_13_);}
	.st64{fill:url(#SVGID_14_);}
	.st65{fill:#E89823;}
	.st66{fill:#D18920;}
	.st67{fill:#BA7A1C;}
	.st68{fill:#A36B19;}
	.st69{fill:#FFAF39;}
	.st70{fill:#FFB74D;}
	.st71{fill:#FFBF61;}
	.st72{fill:#FFC774;}
	.st73{display:inline;fill:#FFFFFF;stroke:#231F20;stroke-miterlimit:10;}
	.st74{fill:none;stroke:#231F20;stroke-miterlimit:10;}
</style>
<g id="B_x26_W" class="st0">
</g>
<g id="Monochrome" class="st0">
	<g class="st1">
		<text transform="matrix(1 0 0 1 -38.7273 24.2114)"><tspan x="0" y="0" class="st9 st36 st37">my</tspan><tspan x="0" y="20.1" class="st19 st38 st37">Grand</tspan><tspan x="0" y="40.3" class="st19 st38 st37">Central</tspan></text>
	</g>
</g>
<g id="Green" class="st0">
</g>
<g id="Yellow" class="st0">
</g>
<g id="Orange" class="st0">
</g>
<g id="Final">
	<g>
		<g>
			<path class="st10" d="M60.8,35c-0.8,0-1.4,0.4-1.9,0.9H33l-1.1,2.7l-5.2-24.2l-5.9,26.4l-4.4-21l-5,16.3h-6v3h8.2l2.1-7l4.8,23.2
				l5.9-26.6L31,49.1l4-10.1H59c0.4,0.5,1.1,0.9,1.9,0.9c1.3,0,2.4-1.1,2.4-2.4C63.2,36,62.2,35,60.8,35z"/>
			<g>
				<path class="st3" d="M45.9,10.3c0-4.5-3.6-8.1-8.1-8.1h-2.9c-0.7-0.8-1.7-1.4-2.9-1.4h-3.2c-2,0-3.7,1.7-3.7,3.7
					s1.7,3.7,3.7,3.7h3.2c1.2,0,2.2-0.5,2.9-1.4h2.9c2,0,3.6,1.6,3.6,3.6v23.6h4.6V10.3z"/>
				<circle class="st3" cx="23.5" cy="65" r="3.2"/>
				<path class="st3" d="M60.8,29.3c-3.2,0-5.9,1.9-7.2,4.5H58c0.8-0.6,1.8-1,2.8-1c2.5,0,4.5,2,4.5,4.5c0,2.5-2,4.5-4.5,4.5
					c-1,0-2-0.4-2.7-0.9h-4.5c1,2,2.8,3.5,4.9,4.1l0,37.8c0,0.1,0,5.2-3.8,9c-2.8,2.8-6.9,4.2-12.4,4.2c-6.9,0-11.8-2.1-14.5-6.2
					c-2.1-3.1-2.1-6.3-2.1-6.3v-8.9h12.1c4.5,0,8.1-3.6,8.1-8.1V41h-4.6v25.8c0,2-1.6,3.6-3.6,3.6H9.1c-2,0-3.6-1.6-3.6-3.6V10.3
					c0-2,1.6-3.6,3.6-3.6h3.4c0.7,0.8,1.7,1.4,2.9,1.4h3.2c2,0,3.7-1.7,3.7-3.7s-1.7-3.7-3.7-3.7h-3.2c-1.2,0-2.2,0.5-2.9,1.4H9.1
					C4.6,2.2,1,5.8,1,10.3v56.4c0,4.5,3.6,8.1,8.1,8.1h12.1v8.9c0,0.2,0.2,17,21.2,17c6.7,0,12-1.9,15.6-5.6
					c5.1-5.2,5.1-12,5.1-12.3V45.1c3.3-1,5.8-4.1,5.8-7.7C68.9,32.9,65.3,29.3,60.8,29.3z"/>
			</g>
		</g>
		<g>
			<path class="st10" d="M81.7,27.7l0.2,7.2c1.6-2.7,3.7-4.7,6.2-6c2.5-1.3,5.2-2,8.2-2c7,0,11.5,2.9,13.3,8.6
				c1.6-2.8,3.7-4.9,6.4-6.4c2.7-1.5,5.6-2.2,8.8-2.2c9.5,0,14.4,5.2,14.6,15.6v29.6h-4.9V42.8c0-4-0.9-6.9-2.6-8.8
				c-1.7-1.9-4.4-2.9-8.2-2.9c-3.5,0.1-6.5,1.2-8.9,3.4c-2.4,2.2-3.8,4.9-4.1,8.1v29.4h-4.9V42.5c0-3.8-0.9-6.6-2.7-8.5
				c-1.8-1.9-4.5-2.8-8.1-2.8c-3.1,0-5.7,0.9-8,2.6c-2.2,1.8-3.9,4.4-4.9,7.9v30.5h-4.9V27.7H81.7z"/>
			<path class="st10" d="M165.8,65l13-37.4h5.3l-19,52l-1,2.3c-2.4,5.4-6.2,8.1-11.3,8.1c-1.2,0-2.4-0.2-3.8-0.6l0-4.1l2.5,0.2
				c2.4,0,4.4-0.6,5.9-1.8c1.5-1.2,2.8-3.2,3.8-6.1l2.2-6l-16.7-44h5.4L165.8,65z"/>
			<path class="st3" d="M237.9,64.5c-2.2,2.7-5.4,4.7-9.4,6.2c-4,1.5-8.5,2.2-13.5,2.2c-5.2,0-9.7-1.1-13.6-3.4
				c-3.9-2.3-6.9-5.5-9-9.8c-2.1-4.3-3.2-9.3-3.3-15.1v-4.1c0-6,1-11.1,3-15.5c2-4.4,4.9-7.7,8.7-10c3.8-2.3,8.2-3.5,13.3-3.5
				c7.1,0,12.6,1.7,16.6,5.1c4,3.4,6.4,8.3,7.1,14.8h-12c-0.5-3.4-1.8-5.9-3.6-7.5c-1.9-1.6-4.5-2.4-7.7-2.4c-4.2,0-7.4,1.6-9.6,4.7
				c-2.2,3.1-3.3,7.8-3.3,14V44c0,6.3,1.2,11,3.6,14.2c2.4,3.2,5.9,4.8,10.5,4.8c4.6,0,7.9-1,9.9-3V49.8h-11.2v-9.1h23.5V64.5z"/>
			<path class="st3" d="M294.8,52.2c-0.5,6.4-2.8,11.5-7.1,15.2c-4.3,3.7-9.9,5.5-16.9,5.5c-7.7,0-13.7-2.6-18.1-7.7
				c-4.4-5.2-6.6-12.2-6.6-21.2v-3.7c0-5.7,1-10.8,3-15.2c2-4.4,4.9-7.7,8.7-10.1s8.1-3.5,13.1-3.5c6.9,0,12.5,1.8,16.7,5.5
				c4.2,3.7,6.7,8.9,7.3,15.6h-12.3c-0.3-3.9-1.4-6.7-3.2-8.4c-1.8-1.7-4.7-2.6-8.4-2.6c-4.1,0-7.2,1.5-9.2,4.4
				c-2,2.9-3.1,7.5-3.1,13.7v4.5c0,6.5,1,11.2,2.9,14.2c2,3,5,4.5,9.3,4.5c3.8,0,6.6-0.9,8.5-2.6c1.9-1.7,2.9-4.4,3.2-8.1H294.8z"/>
		</g>
	</g>
</g>
</svg>
