<?xml version="1.0" encoding="utf-8"?>
<!-- Generator: Adobe Illustrator 21.1.0, SVG Export Plug-In . SVG Version: 6.00 Build 0)  -->
<svg version="1.1" id="Layer_1" xmlns="http://www.w3.org/2000/svg" xmlns:xlink="http://www.w3.org/1999/xlink" x="0px" y="0px"
	 viewBox="0 0 408 195.8" style="enable-background:new 0 0 408 195.8;" xml:space="preserve">
<style type="text/css">
	.st0{clip-path:url(#SVGID_2_);}
	.st1{fill:#F9F9F9;}
	.st2{fill:url(#Card-2_1_);}
	.st3{fill:none;}
	.st4{fill:#A9AED4;}
	.st5{fill:#BBD538;}
	.st6{fill:#FFFFFF;}
	.st7{fill:#262626;}
	.st8{fill:#686868;}
	.st9{opacity:0.5;fill:url(#Apps_1_);enable-background:new    ;}
	.st10{fill:#E1E1E1;}
	.st11{fill:#EFEEEE;}
	.st12{opacity:0.4;fill:#E1E1E1;enable-background:new    ;}
	.st13{fill:#B93526;}
	.st14{fill:#D24030;}
	.st15{fill:url(#path-11_1_);}
	.st16{fill:#DC4537;}
	.st17{opacity:0.24;fill:#3F2723;enable-background:new    ;}
	.st18{opacity:4.900000e-02;fill:url(#path-16_1_);enable-background:new    ;}
	.st19{fill:#D50000;}
	.st20{fill:url(#path-17_1_);}
	.st21{fill:#EEEEEE;}
	.st22{fill:#547DBE;}
	.st23{fill:#0A9C58;}
	.st24{fill:#FFCD40;}
	.st25{fill:url(#path-22_1_);}
	.st26{fill:url(#path-23_1_);}
	.st27{opacity:4.000000e-02;enable-background:new    ;}
	.st28{fill:#4C73B7;}
	.st29{fill:url(#path-25_1_);}
	.st30{opacity:0.24;fill:#FFFFFF;enable-background:new    ;}
	.st31{opacity:0.16;fill:#263238;enable-background:new    ;}
	.st32{opacity:0.24;fill:#263238;enable-background:new    ;}
	.st33{fill:#F1F1F1;}
	.st34{opacity:0.64;fill:#FFFFFF;enable-background:new    ;}
	.st35{opacity:8.000000e-02;fill:url(#ellipse-2_1_);enable-background:new    ;}
	.st36{fill:#DA4536;}
	.st37{fill:url(#path-31_1_);}
	.st38{fill:url(#path-32_1_);}
	.st39{fill:url(#path-33_1_);}
	.st40{fill:none;stroke:#595CA9;stroke-width:2;}
	.st41{fill:#595CA9;}
	.st42{fill:#BCE132;}
	.st43{fill:#595CA8;}
	.st44{fill:#7779B7;}
	.st45{fill:#EF766C;}
	.st46{fill:#EB5447;}
	.st47{fill:#272727;}
	.st48{fill:#4D9DE0;}
	.st49{fill:#3973A3;}
	.st50{fill:#AAC233;}
	.st51{fill:#393B6B;}
	.st52{fill:#494C8A;}
	.st53{fill:#4081B8;}
	.st54{fill:#32648F;}
	.st55{fill:#CD3179;}
	.st56{fill:#9597C7;}
	.st57{fill:#515499;}
	.st58{fill:#C7DC5C;}
	.st59{fill:#41437B;}
	.st60{fill:#C5761C;}
	.st61{fill:#F09021;}
	.st62{fill:#995C15;}
	.st63{fill:#952B22;}
	.st64{fill:#C0372C;}
	.st65{fill:#F1877E;}
	.st66{fill:#9AAF2E;}
</style>
<g id="Group_466" transform="translate(0 2)">
	<g id="Group_433" transform="translate(648 269.752)">
		<g id="Group_413" transform="translate(105.839)">
			<path id="Path_1005" class="st43" d="M-570.7-228.4l0.9,0.9l-7.4,10.6h-0.4L-570.7-228.4z"/>
			<path id="Path_1006" class="st44" d="M-573.7-218.7c0-0.2,0.1-0.3,0.2-0.4c0.3-0.4,0.6-0.7,0.9-1.1v0c-1,1.3-1,1.5-1,1.5
				C-573.6-218.6-573.6-218.6-573.7-218.7C-573.7-218.6-573.7-218.6-573.7-218.7L-573.7-218.7z"/>
			<g id="Group_412">
				<path id="Path_1007" class="st44" d="M-552.9-80.4c0,0.9-20.8,1.5-46.4,1.5s-46.4-0.7-46.4-1.5s20.8-1.5,46.4-1.5
					C-573.6-81.9-552.9-81.3-552.9-80.4z"/>
				<path id="Path_1008" class="st45" d="M-612.5-249.1c0,0-4.3,2.8-7,9.8c-2.7,6.9-2.5,7.9-2.5,7.9l11.2,2.5c0,0-0.4-9.4,2.5-12.3
					L-612.5-249.1z"/>
				<path id="Path_1009" class="st46" d="M-612.5-249.1c-1.5,1.1-2.8,2.4-3.9,4c1.4,4,4,6.5,6.3,7.3c0.3-1.2,0.8-2.4,1.7-3.3
					L-612.5-249.1z"/>
				<path id="Path_1010" class="st45" d="M-581.3-216.1c0,0,0.7-2.5,2-2.8c1-0.2,2.1-0.3,3.1-0.2c0,0,2.7-4,3.9-3.7
					c1.2,0.3-0.3,2.7-0.3,2.7c0.5,0.1,0.8,0.5,0.8,1c0,0.6-0.2,1.1-0.5,1.6c0,0,0.7,0.3,0.5,1.6s-3.6,3.5-6.9,3.1
					c-1.5,0-2.6-1.1-2.7-2.6C-581.4-215.7-581.4-215.9-581.3-216.1z"/>
				
					<rect id="Rectangle_658" x="-629.7" y="-186.2" transform="matrix(0.3856 -0.9227 0.9227 0.3856 -216.5402 -693.8503)" class="st47" width="1" height="3.8"/>
				<path id="Path_1011" class="st47" d="M-623.9-221.3c0,0.7-6.7,35.4-8.7,37.5l1.3,0.5c0,0,7.2-23.9,7.9-27.1
					S-623.9-221.3-623.9-221.3z"/>
				<path id="Path_1012" class="st48" d="M-628.6-188l-7.9,28.3l28.4,4.7l4.8-27.5L-628.6-188z"/>
				<path id="Path_1013" class="st49" d="M-638.3-161.5l1.8,1.8l7.9-28.3l-1.3,0.8L-638.3-161.5z"/>
				<path id="Path_1014" class="st6" d="M-583.5-216l2-1.5l2.7,4.7l-3.5,3.8L-583.5-216z"/>
				<path id="Path_1015" class="st50" d="M-606.8-229.8c-0.3-0.5,8,22.4,10,30c2.1,7.6,3.8,18.6,3.8,18.6l0.2-1.7
					c0.7-4.8,0.3-9.7-1.3-14.3C-597.4-207.3-603.5-225.1-606.8-229.8z"/>
				<path id="Path_1016" class="st51" d="M-612.9-171.6l-9.2,46c0,0-15,28.7-16.5,33.5l-3.5,4.9c1.5,0.9,2.8,2.1,3.8,3.7
					c0.7,1.2,1.1,2.5,1.3,3.8h5.8l-3.4-2.5c0,0-1.3-6.1-0.9-8.4c0.5-2.3,21.9-32.4,21.9-32.4l13.8-28.5
					C-599.9-151.5-608.8-172.6-612.9-171.6z"/>
				<path id="Path_1017" class="st51" d="M-622.2-181.8c0,1.2,2.9,16.5,8.8,20.8l6,4.2l13.7,41.2l14.2,36.5c2.8-0.6,5.6-0.9,8.5-1
					c2.4,0.1,4.8-1,6.1-3.1c0,0-8.9-0.3-10.2-1.5c-1-1.2-1.9-2.6-2.6-4l-18.4-91L-622.2-181.8z"/>
				<path id="Path_1018" class="st52" d="M-575.1-84.6c-1.3-1.3-21-95-21-95l-26.2-2.1c0,1.2,2.9,16.5,8.8,20.8l6,4.2l13.7,41.2
					l13.4,34.4C-578.5-82.3-576.8-83.4-575.1-84.6L-575.1-84.6z"/>
				<path id="Path_1019" class="st45" d="M-606.6-263.4c3.3,1.2,5.6,4.4,5.6,8v9.2l-2.1-1.1c0,0-0.8,6.4-3.5,7.8
					c-2.7,1.3-7.9-2.4-8.8-9.7C-616.4-256.6-612-265.6-606.6-263.4z"/>
				<path id="Path_1020" class="st51" d="M-620.3-241.6c0,0-0.7,5.5-2.7,7.5c-2,2-4.8,14.4-2.5,24.8s1,35,1,35l3.5,1.9
					c0,0,2.5,4.4,10.6,4.4c8.1,0,17.5-5.2,17.5-5.2s-8.1-36-8.1-40.2s-7.3-19.8-7.3-19.8L-620.3-241.6z"/>
				<path id="Path_1021" class="st52" d="M-619.9-229.6c0,0-4.8,5-3.3,13.8c1.4,8.8,10,21.8,14.9,23.4s17.5-4.8,22-9.2l6.8-6.8
					l-4-9.1c0,0-13.3,16.1-19.3,12.8s-4.9-18.3-6.4-21.6C-610.8-229.6-614.7-233-619.9-229.6z"/>
				<path id="Path_1022" class="st53" d="M-610-253c0.1-0.7,0.5-1.4,1.1-2c0.9-0.9,1.3-4.7,2.6-4.7s4.1,2.4,7.4,0s3.5-4.2,1.6-5.4
					s-3.3-0.8-4.4-1.4c-1.1-0.6-0.8-1.8-2.8-2c-2-0.2-3.5-0.8-5.4-0.8c-1.9,0-2.7,2.5-2.7,2.5c-1.3,0.2-2.6,0.7-3.6,1.6
					c-1.5,1.5-0.7,3.2-1.5,4.5c-0.8,1.3-2.6,3.2-2.2,6.9s1.5,8.5,3.3,8.5S-610.7-250.4-610-253z"/>
				<path id="Path_1023" class="st54" d="M-610.2-271.2v-0.5c-1.1,0.2-2,0.9-2.6,1.8c-0.5,1-0.5,2.2,0,3.2l0.1-0.1
					c-0.2-0.5-0.2-1-0.2-1.5c0-1,0.6-1.9,1.5-2.4C-611.1-271-610.7-271.1-610.2-271.2C-610.2-271.2-610.1-271.2-610.2-271.2z"/>
				<g id="Group_411" transform="translate(1.598 91.724)">
					<path id="Path_1024" class="st51" d="M-636.1-242.6c-6.7-1.2-15.5-12.2-3.9-29.1c0,0,0.1-0.1,0.1,0c0,0,0.1,0.1,0,0.1l0,0
						c-2.8,4-6,10.1-5.6,16.5c0.3,5.1,4,11.3,9.4,12.2c0.1,0,0.1,0.1,0.1,0.1C-636-242.7-636-242.6-636.1-242.6L-636.1-242.6z"/>
				</g>
			</g>
		</g>
		<g id="Group_419" transform="translate(206.524 28.003)">
			<path id="Path_1025" class="st44" d="M-552.9-108.4c0,0.9-20.8,1.5-46.4,1.5s-46.4-0.7-46.4-1.5s20.8-1.5,46.4-1.5
				C-573.6-110-552.9-109.3-552.9-108.4z"/>
			<path id="Path_1026" class="st47" d="M-620.9-187.3l-1.8-0.9l6.4-5.8L-620.9-187.3z"/>
			<path id="Path_1027" class="st44" d="M-632.2-205.8c-0.9,0.5-10.9,10.1-10.9,10.1s12.5,10,17.6,11.9l9.2-10.1L-632.2-205.8z"/>
			<path id="Path_1028" class="st6" d="M-639.9-196.4c0,0,6-6.4,7.7-6.9l8.3,5.6l-8.3-5.1C-632.2-202.8-634.5-201.8-639.9-196.4z"/>
			<path id="Path_1029" class="st46" d="M-594-243.4c0,0,3.3-0.4,4.7,1c1.4,1.4,3.4,24,8.8,25.2c0,0,6.4-1.8,9.3-3.9
				c3.2-2.4,4.1-4.5,4.1-5.6s1.3-2.9,1.7-2.9c0.4,0,0.4,0.8,0.4,0.8s3.5-4.1,4.1-3.5s-2,3.2-2,3.2s2.7-3.2,3.3-3.2s-0.2,1.5-1,2.3
				c0,0,1.3-0.8,1.7,0c0.4,0.8-2.9,4.1-3.8,6.1c-0.9,2-2.2,1.2-2.6,1.9c-6.3,10.2-17.6,13.4-20.4,9.3S-598.4-242.3-594-243.4z"/>
			<path id="Path_1030" class="st51" d="M-589.3-242.5c-1.4-1.4-4.7-1-4.7-1c-2,0.5-1.1,5.6,0.7,11.6c2-0.9,3.9-2.1,5.9-3
				C-588.2-238.8-588.8-242-589.3-242.5z"/>
			<path id="Path_1031" class="st55" d="M-561.9-230.3c-0.5,0.6-0.9,1.1-0.9,1.1S-562.4-229.7-561.9-230.3z"/>
			<path id="Path_1032" class="st56" d="M-562.3-234.2l-4.1,8.8l3.1,1.6l6.1-8.5L-562.3-234.2z"/>
			<path id="Path_1033" class="st43" d="M-556.4-232.6l-5.1-1.9l-0.9,0.3l5,1.8l-6.1,8.5l0.7-0.2L-556.4-232.6z"/>
			<path id="Path_1034" class="st46" d="M-565.3-229.8c0.5,0,1,0.4,1.1,0.9c0.2,0.8,0,1.1-0.4,1.1c-0.4,0-0.6-0.8-0.9-0.8
				c-0.4,0.1-0.9,0.3-1.2,0.6C-566.7-228-566-229.5-565.3-229.8z"/>
			<path id="Path_1035" class="st45" d="M-594.5-254.7c0,0-1.9,7.5-6,10s0,15.7,0,15.7s3.1,15.7,2.1,16.7s-18.9,24.5-18.9,47.4
				c0,0-0.6-0.6-3.3,4.5s-17.2,37.9-17.2,37.9l-2.4,0.7c0,0-0.7,0.6,0.6,2.2c1,1.4,1.6,3,1.7,4.8c0,1,2.3,1.8,2.3,1.8
				s-1.5-6.7-0.9-8.6c0.6-2,26.7-36.3,29.3-40.2s16.1-40.9,18.9-47.7c0,0,2.7-11.2,4.1-14.7c1.4-3.6,2.5-7.1,0.6-9
				s-9.3-7.7-9.8-12.1c0,0,2.1-4.8,2.9-7.3C-589.5-255.2-594.5-254.7-594.5-254.7z"/>
			<path id="Path_1036" class="st46" d="M-591.6-249.4c0.5-1.2,0.9-2.4,1.3-3.3c0.8-2.5-4.2-1.9-4.2-1.9s-0.2,0.9-0.7,2.2
				C-594.8-252-593.1-250.5-591.6-249.4z"/>
			<path id="Path_1037" class="st57" d="M-583.5-233.3c-1.6-1.6-6.7-5.6-8.9-9.5c-2.2-1-4.3-2.1-6.3-3.5c-0.5,0.6-1.1,1.1-1.8,1.6
				c-4,2.4,0,15.7,0,15.7s3.1,15.7,2.1,16.7c-0.1,0.1-0.5,0.5-1,1.2c3.7,0.7,7.6,0.4,11.4,0.5c0.7-2.8,2.7-10.8,3.9-13.7
				C-582.6-227.8-581.6-231.4-583.5-233.3z"/>
			<path id="Path_1038" class="st46" d="M-617.3-164.8c0,0-0.6-0.6-3.3,4.5s-17.2,37.9-17.2,37.9l-2.4,0.7c0,0-0.7,0.6,0.6,2.2
				s1.2,4.1,1.2,5s2.8,1.5,2.8,1.5s-1.5-6.7-0.9-8.6c0.6-2,26.7-36.3,29.3-40.2c1.4-2.2,6.3-14.7,10.8-26.6
				c-4.7-1.6-9.6-2.6-14.5-3.1C-614.3-183.5-617.3-174.1-617.3-164.8z"/>
			<path id="Path_1039" class="st45" d="M-601.9-195.6c0,0,8.1,29.8,9,32.5s-1,3.3,1.2,9.8s18.3,36.3,18.3,36.3s-0.7,1.8-0.3,2.2
				c0.4,0.4,1.6,0.8,2.2,1.9s1.7,2.7,2.4,2.7s3.7,0.6,3.7,0.6c-1.2-1.1-2.3-2.2-3.3-3.4c-0.7-1.4-1.6-2.8-2.5-4.1
				c-1-1.3-11-42.3-12-46.3s-7.3-44.9-7.3-44.9S-603.1-204.7-601.9-195.6z"/>
			<path id="Path_1040" class="st46" d="M-632.4-192.5c0.2,1.2,0.2,2.5,0,3.7c-0.4,1.4-0.8,1.3-1.2,1.3c-0.4,0-0.9-2.5-0.9-2.5
				L-632.4-192.5z"/>
			<path id="Path_1041" class="st56" d="M-638.8-122.1c-0.8-0.3-1.6-0.1-2.3,0.4c-0.9,0.9-2.6,6.3-2.6,6.3l0.4,0.3
				c0,0,2-3.4,2.8-3.4s1.2,1,1.1,2s-0.2,3.6-0.2,3.6s2.3,2.7,3.8,3.4s0.3-3.6,0.3-3.6s-2.6-1.5-2.5-3.1
				C-637.9-117.8-639.9-121.5-638.8-122.1z"/>
			<path id="Path_1042" class="st56" d="M-573.6-116.2c0,0-1.5,0.3-1.7,1.5c-0.3,1.2,1.2,6.7,1.2,6.7l0.4,0c0,0-0.1-4,0.5-4.4
				c0.7-0.4,1.6,0.2,2,1.1s1.7,3.1,1.7,3.1s3.4,1.1,5,0.9c1.6-0.2-1.6-3.2-1.6-3.2s-3,0.1-3.7-1.3S-574.3-115.1-573.6-116.2z"/>
			<g id="Group_414" transform="translate(2.046 153.011)">
				<path id="Path_1043" class="st43" d="M-641.4-266.1c0.2-3.9,0.5-4.5-0.2-5.3c-0.2-0.3-0.5-0.4-0.9-0.4c-0.9,0-2.4,2.8-2.8,3.6
					l-0.3-0.2l0.4,0.3c0,0,2.1-3.3,2.8-3.3c0.2,0,0.4,0.1,0.6,0.3c0.6,0.8,0.2,1.4,0.1,5.2c1.1,1.3,2.3,2.4,3.7,3.3
					c0.2,0.1,0.4,0.2,0.7,0.1C-638.2-262.3-640.9-265.5-641.4-266.1z"/>
				<path id="Path_1044" class="st43" d="M-571.4-261.2c-1.8-3.4-2-4.1-3-4.4c-0.3-0.1-0.7-0.1-0.9,0.1c-0.7,0.5-0.5,3.7-0.5,4.5
					c0-0.8,0.1-3.6,0.6-4.2c0.2-0.3,1-0.3,1.6,0.6c0.3,0.4,0.4,0.9,1.9,3.5l0,0.1c1,0.3,3.7,1,5.1,0.8
					C-568.2-260.3-569.8-260.7-571.4-261.2z"/>
			</g>
			<path id="Path_1045" class="st47" d="M-615.8-194.7c-0.3,0-0.6,0.3-0.6,0.6s0.3,0.6,0.6,0.6c0.3,0,0.6-0.3,0.6-0.6
				C-615.3-194.5-615.5-194.7-615.8-194.7z M-615.8-193.7c-0.3,0-0.5-0.2-0.5-0.5s0.2-0.5,0.5-0.5c0.3,0,0.5,0.2,0.5,0.5
				c0,0,0,0,0,0C-615.4-193.9-615.6-193.7-615.8-193.7C-615.8-193.7-615.8-193.7-615.8-193.7L-615.8-193.7z"/>
			<path id="Path_1046" class="st5" d="M-598.4-212.3c0,0-21.7,22.6-28.4,33.2c-6.8,10.6-13.5,10.8-13.5,10.8s15.4,1.9,17.6,4.9
				c2.2,3,4,9.3,9,10.6c5.1,1.3,30.2,3.3,36.8-3.3s10.2,0.3,10.2,0.3s-17.5-52.1-21-55.6L-598.4-212.3z"/>
			<g id="Group_415" transform="translate(9.194 59.555)">
				<path id="Path_1047" class="st6" d="M-606.1-271.2c0.4,0.1,0.9,0,1.2-0.4l-0.4,0c-0.3,0.3-0.8,0.2-1.1-0.1c0,0,0,0,0,0l-0.4,0
					C-606.6-271.5-606.4-271.3-606.1-271.2z"/>
				<path id="Path_1048" class="st6" d="M-600.4-270.4c-0.1,0.4-0.6,0.6-1,0.5c-0.4-0.1-0.6-0.6-0.5-1c0.1-0.2,0.2-0.3,0.4-0.4
					l-0.4,0c-0.4,0.4-0.3,1.1,0.1,1.5c0.4,0.4,1.1,0.3,1.5-0.1c0.3-0.4,0.4-0.9,0.1-1.3l-0.4,0
					C-600.4-271.1-600.3-270.7-600.4-270.4z"/>
				<path id="Path_1049" class="st6" d="M-597.4-269.4c-0.2,0.6,0.1,1.2,0.7,1.3c0.5,0.2,1,0,1.2-0.4c-0.1-0.1-0.1-0.2-0.2-0.3v0
					c-0.1,0.4-0.6,0.6-1,0.5c-0.4-0.1-0.6-0.6-0.5-1c0.1-0.4,0.6-0.6,0.9-0.5c-0.1-0.1-0.1-0.2-0.2-0.3
					C-596.8-270.2-597.2-269.9-597.4-269.4z"/>
				<path id="Path_1050" class="st6" d="M-607.8-266.2c0.6,0.2,1.2-0.1,1.3-0.7c0.2-0.6-0.1-1.2-0.7-1.3c-0.6-0.2-1.2,0.1-1.3,0.7
					C-608.6-267-608.3-266.4-607.8-266.2C-607.8-266.2-607.8-266.2-607.8-266.2z M-608.2-267.5c0.1-0.4,0.6-0.6,1-0.5
					c0.4,0.1,0.6,0.6,0.5,1c-0.1,0.4-0.6,0.6-1,0.5C-608.1-266.6-608.3-267.1-608.2-267.5z"/>
				<path id="Path_1051" class="st6" d="M-603.1-264.6c0.6,0.2,1.2-0.1,1.3-0.7c0.2-0.6-0.1-1.2-0.7-1.3c-0.6-0.2-1.2,0.1-1.3,0.7
					C-603.9-265.4-603.6-264.8-603.1-264.6C-603.1-264.7-603.1-264.7-603.1-264.6z M-603.5-265.9c0.1-0.4,0.6-0.6,1-0.5
					c0.4,0.1,0.6,0.6,0.5,1c-0.1,0.4-0.6,0.6-1,0.5C-603.4-265.1-603.6-265.5-603.5-265.9L-603.5-265.9z"/>
				<path id="Path_1052" class="st6" d="M-598.4-263.1c0.6,0.2,1.2-0.1,1.3-0.7s-0.1-1.2-0.7-1.3c-0.6-0.2-1.2,0.1-1.3,0.7
					C-599.2-263.9-598.9-263.3-598.4-263.1C-598.4-263.1-598.4-263.1-598.4-263.1z M-598.8-264.3c0.1-0.4,0.6-0.6,1-0.5
					c0.4,0.1,0.6,0.6,0.5,1c-0.1,0.4-0.6,0.6-1,0.5c0,0,0,0,0,0C-598.7-263.5-598.9-263.9-598.8-264.3z"/>
				<path id="Path_1053" class="st6" d="M-594.3-262.9c-0.2,0.6,0.1,1.2,0.7,1.3c0.4,0.1,0.8,0,1.1-0.3l-0.1-0.3
					c-0.2,0.3-0.7,0.4-1.1,0.2c-0.3-0.2-0.4-0.7-0.2-1.1c0.2-0.3,0.5-0.4,0.8-0.3c0-0.1-0.1-0.2-0.1-0.3
					C-593.8-263.6-594.2-263.3-594.3-262.9z"/>
				<path id="Path_1054" class="st6" d="M-614.1-262.8c0.6,0.2,1.2-0.1,1.3-0.7c0.2-0.6-0.1-1.2-0.7-1.3c-0.2-0.1-0.5-0.1-0.7,0
					c-0.2,0.2-0.4,0.5-0.6,0.7C-615-263.5-614.7-263-614.1-262.8z M-613.6-264.5c0.4,0.1,0.6,0.6,0.5,1c-0.1,0.4-0.6,0.6-1,0.5
					c-0.4-0.1-0.6-0.6-0.5-1C-614.4-264.4-614-264.6-613.6-264.5z"/>
				<path id="Path_1055" class="st6" d="M-609.4-261.2c0.6,0.2,1.2-0.1,1.3-0.7s-0.1-1.2-0.7-1.3c-0.6-0.2-1.2,0.1-1.3,0.7
					C-610.3-262-610-261.4-609.4-261.2C-609.4-261.2-609.4-261.2-609.4-261.2z M-609.8-262.5c0.1-0.4,0.6-0.6,1-0.5s0.6,0.6,0.5,1
					c-0.1,0.4-0.6,0.6-1,0.5c0,0,0,0,0,0C-609.8-261.6-610-262.1-609.8-262.5z"/>
				<path id="Path_1056" class="st6" d="M-604.7-259.7c0.6,0.2,1.2-0.1,1.3-0.7c0.2-0.6-0.1-1.2-0.7-1.3c-0.6-0.2-1.2,0.1-1.3,0.7
					C-605.6-260.4-605.3-259.8-604.7-259.7z M-605.1-260.9c0.1-0.4,0.6-0.6,1-0.5c0.4,0.1,0.6,0.6,0.5,1c-0.1,0.4-0.6,0.6-1,0.5
					C-605-260.1-605.3-260.5-605.1-260.9z"/>
				<path id="Path_1057" class="st6" d="M-600.7-259.4c-0.2,0.6,0.1,1.2,0.7,1.3c0.6,0.2,1.2-0.1,1.3-0.7c0.2-0.6-0.1-1.2-0.7-1.3
					C-599.9-260.3-600.5-260-600.7-259.4z M-599.5-259.8c0.4,0.1,0.6,0.6,0.5,1c-0.1,0.4-0.6,0.6-1,0.5c-0.4-0.1-0.6-0.6-0.5-1
					C-600.3-259.7-599.9-260-599.5-259.8z"/>
				<path id="Path_1058" class="st6" d="M-595.3-256.5c0.6,0.2,1.2-0.1,1.3-0.7c0.2-0.6-0.1-1.2-0.7-1.3c-0.6-0.2-1.2,0.1-1.3,0.7
					C-596.2-257.3-595.9-256.7-595.3-256.5z M-595.7-257.8c0.1-0.4,0.6-0.6,1-0.5s0.6,0.6,0.5,1c-0.1,0.4-0.6,0.6-1,0.5c0,0,0,0,0,0
					C-595.6-257-595.8-257.4-595.7-257.8L-595.7-257.8z"/>
				<path id="Path_1059" class="st6" d="M-591.3-256.3c-0.2,0.6,0.1,1.2,0.7,1.3c0.2,0.1,0.5,0.1,0.7,0l-0.1-0.3
					c-0.4,0.1-0.8-0.1-1-0.5c-0.1-0.4,0.1-0.8,0.4-0.9l-0.1-0.3C-591-256.9-591.2-256.6-591.3-256.3z"/>
				<path id="Path_1060" class="st6" d="M-615.8-257.8c0.6,0.2,1.2-0.1,1.3-0.7c0.2-0.6-0.1-1.2-0.7-1.3c-0.6-0.2-1.2,0.1-1.3,0.7
					C-616.7-258.6-616.4-258-615.8-257.8z M-616.2-259c0.1-0.4,0.6-0.6,1-0.5c0.4,0.1,0.6,0.6,0.5,1c-0.1,0.4-0.6,0.6-1,0.5
					C-616.1-258.2-616.3-258.6-616.2-259z"/>
				<path id="Path_1061" class="st6" d="M-611.1-256.2c0.6,0.2,1.2-0.1,1.3-0.7c0.2-0.6-0.1-1.2-0.7-1.3c-0.6-0.2-1.2,0.1-1.3,0.7
					c0,0,0,0,0,0C-612-257-611.7-256.4-611.1-256.2z M-611.5-257.5c0.1-0.4,0.6-0.6,1-0.5c0.4,0.1,0.6,0.6,0.5,1
					c-0.1,0.4-0.6,0.6-1,0.5C-611.4-256.6-611.6-257.1-611.5-257.5z"/>
				<path id="Path_1062" class="st6" d="M-607.1-256c-0.2,0.6,0.1,1.2,0.7,1.3c0.6,0.2,1.2-0.1,1.3-0.7c0.2-0.6-0.1-1.2-0.7-1.3
					C-606.3-256.9-606.9-256.6-607.1-256C-607.1-256-607.1-256-607.1-256z M-605.8-256.4c0.4,0.1,0.6,0.6,0.5,1
					c-0.1,0.4-0.6,0.6-1,0.5c-0.4-0.1-0.6-0.6-0.5-1C-606.6-256.3-606.2-256.5-605.8-256.4L-605.8-256.4z"/>
				<path id="Path_1063" class="st6" d="M-602.4-254.5c-0.2,0.6,0.1,1.2,0.7,1.3c0.6,0.2,1.2-0.1,1.3-0.7c0.2-0.6-0.1-1.2-0.7-1.3
					c0,0,0,0,0,0C-601.6-255.3-602.2-255-602.4-254.5C-602.4-254.5-602.4-254.5-602.4-254.5z M-601.1-254.8c0.4,0.1,0.6,0.6,0.5,1
					c-0.1,0.4-0.6,0.6-1,0.5s-0.6-0.6-0.5-1c0,0,0,0,0,0C-601.9-254.8-601.5-255-601.1-254.8L-601.1-254.8z"/>
				<path id="Path_1064" class="st6" d="M-597.7-252.9c-0.2,0.6,0.1,1.2,0.7,1.3c0.6,0.2,1.2-0.1,1.3-0.7c0.2-0.6-0.1-1.2-0.7-1.3
					C-596.9-253.7-597.5-253.4-597.7-252.9C-597.7-252.9-597.7-252.9-597.7-252.9z M-596.4-253.3c0.4,0.1,0.6,0.6,0.5,1
					c-0.1,0.4-0.6,0.6-1,0.5c-0.4-0.1-0.6-0.6-0.5-1c0,0,0,0,0,0C-597.2-253.2-596.8-253.4-596.4-253.3L-596.4-253.3z"/>
				<path id="Path_1065" class="st6" d="M-592.3-250c0.6,0.2,1.2-0.1,1.3-0.7c0.2-0.6-0.1-1.2-0.7-1.3c-0.6-0.2-1.2,0.1-1.3,0.7
					C-593.1-250.8-592.8-250.2-592.3-250C-592.3-250-592.3-250-592.3-250z M-592.7-251.2c0.1-0.4,0.6-0.6,1-0.5
					c0.4,0.1,0.6,0.6,0.5,1c-0.1,0.4-0.6,0.6-1,0.5C-592.6-250.4-592.8-250.8-592.7-251.2z"/>
				<path id="Path_1066" class="st6" d="M-587.6-248.4C-587.5-248.4-587.5-248.4-587.6-248.4c0-0.1,0-0.2-0.1-0.4
					c-0.3-0.2-0.4-0.6-0.3-0.9l-0.1-0.4c-0.1,0.1-0.1,0.2-0.1,0.3C-588.4-249.2-588.1-248.6-587.6-248.4z"/>
				<path id="Path_1067" class="st6" d="M-622.2-254.4c0.6,0.2,1.2-0.1,1.3-0.7c0.2-0.6-0.1-1.2-0.7-1.3c-0.1,0-0.2,0-0.2,0
					l-0.3,0.3c0.1,0,0.3,0,0.4,0c0.4,0.1,0.6,0.6,0.5,1s-0.6,0.6-1,0.5c-0.3-0.1-0.6-0.5-0.5-0.8c-0.1,0.1-0.2,0.2-0.3,0.3
					C-622.8-254.8-622.5-254.5-622.2-254.4z"/>
				<path id="Path_1068" class="st6" d="M-617.5-252.8c0.6,0.2,1.2-0.1,1.3-0.7c0.2-0.6-0.1-1.2-0.7-1.3c-0.6-0.2-1.2,0.1-1.3,0.7
					C-618.3-253.6-618-253-617.5-252.8C-617.5-252.8-617.5-252.8-617.5-252.8z M-617.9-254c0.1-0.4,0.6-0.6,1-0.5s0.6,0.6,0.5,1
					c-0.1,0.4-0.6,0.6-1,0.5C-617.8-253.2-618-253.6-617.9-254C-617.9-254-617.9-254-617.9-254z"/>
				<path id="Path_1069" class="st6" d="M-612.8-251.2c0.6,0.2,1.2-0.1,1.3-0.7c0.2-0.6-0.1-1.2-0.7-1.3c-0.6-0.2-1.2,0.1-1.3,0.7
					C-613.6-252-613.3-251.4-612.8-251.2z M-613.1-252.5c0.1-0.4,0.6-0.6,1-0.5s0.6,0.6,0.5,1c-0.1,0.4-0.6,0.6-1,0.5
					C-613.1-251.6-613.3-252.1-613.1-252.5L-613.1-252.5z"/>
				<path id="Path_1070" class="st6" d="M-608-249.7c0.6,0.2,1.2-0.1,1.3-0.7c0.2-0.6-0.1-1.2-0.7-1.3c-0.6-0.2-1.2,0.1-1.3,0.7
					C-608.9-250.5-608.6-249.9-608-249.7C-608-249.7-608-249.7-608-249.7z M-608.4-250.9c0.1-0.4,0.6-0.6,1-0.5
					c0.4,0.1,0.6,0.6,0.5,1c-0.1,0.4-0.6,0.6-1,0.5c0,0,0,0,0,0C-608.4-250.1-608.6-250.5-608.4-250.9L-608.4-250.9z"/>
				<path id="Path_1071" class="st6" d="M-603.3-248.1c0.6,0.2,1.2-0.1,1.3-0.7c0.2-0.6-0.1-1.2-0.7-1.3c-0.6-0.2-1.2,0.1-1.3,0.7
					C-604.2-248.9-603.9-248.3-603.3-248.1C-603.3-248.1-603.3-248.1-603.3-248.1z M-603.7-249.4c0.1-0.4,0.6-0.6,1-0.5
					c0.4,0.1,0.6,0.6,0.5,1c-0.1,0.4-0.6,0.6-1,0.5c0,0,0,0,0,0C-603.6-248.5-603.9-249-603.7-249.4L-603.7-249.4z"/>
				<path id="Path_1072" class="st6" d="M-598-248.6c-0.6-0.2-1.2,0.1-1.3,0.7c-0.2,0.6,0.1,1.2,0.7,1.3c0.6,0.2,1.2-0.1,1.3-0.7
					C-597.1-247.8-597.4-248.4-598-248.6C-598-248.6-598-248.6-598-248.6z M-597.6-247.3c-0.1,0.4-0.6,0.6-1,0.5
					c-0.4-0.1-0.6-0.6-0.5-1c0.1-0.4,0.6-0.6,1-0.5c0,0,0,0,0,0C-597.7-248.2-597.4-247.7-597.6-247.3z"/>
				<path id="Path_1073" class="st6" d="M-594.6-246.3c-0.2,0.6,0.1,1.2,0.7,1.3c0.6,0.2,1.2-0.1,1.3-0.7c0.2-0.6-0.1-1.2-0.7-1.3
					C-593.8-247.2-594.4-246.9-594.6-246.3C-594.6-246.3-594.6-246.3-594.6-246.3z M-593.3-246.7c0.4,0.1,0.6,0.6,0.5,1
					c-0.1,0.4-0.6,0.6-1,0.5c-0.4-0.1-0.6-0.6-0.5-1C-594.2-246.6-593.8-246.9-593.3-246.7C-593.3-246.7-593.3-246.7-593.3-246.7z"
					/>
				<path id="Path_1074" class="st6" d="M-589.2-243.4c0.6,0.2,1.2-0.1,1.3-0.7c0.2-0.6-0.1-1.2-0.7-1.3c-0.6-0.2-1.2,0.1-1.3,0.7
					C-590.1-244.2-589.8-243.6-589.2-243.4C-589.2-243.4-589.2-243.4-589.2-243.4z M-589.6-244.7c0.1-0.4,0.6-0.6,1-0.5
					s0.6,0.6,0.5,1c-0.1,0.4-0.6,0.6-1,0.5C-589.5-243.9-589.7-244.3-589.6-244.7z"/>
				<path id="Path_1075" class="st6" d="M-623.8-249.4c0.6,0.2,1.2-0.1,1.3-0.7c0.2-0.6-0.1-1.2-0.7-1.3c-0.6-0.2-1.2,0.1-1.3,0.7
					C-624.7-250.1-624.4-249.5-623.8-249.4C-623.8-249.4-623.8-249.4-623.8-249.4z M-624.2-250.6c0.1-0.4,0.6-0.6,1-0.5
					c0.4,0.1,0.6,0.6,0.5,1c-0.1,0.4-0.6,0.6-1,0.5C-624.1-249.8-624.3-250.2-624.2-250.6L-624.2-250.6z"/>
				<path id="Path_1076" class="st6" d="M-619.1-247.8c0.6,0.2,1.2-0.1,1.3-0.7c0.2-0.6-0.1-1.2-0.7-1.3c-0.6-0.2-1.2,0.1-1.3,0.7
					C-620-248.6-619.7-248-619.1-247.8C-619.1-247.8-619.1-247.8-619.1-247.8z M-619.5-249.1c0.1-0.4,0.6-0.6,1-0.5
					c0.4,0.1,0.6,0.6,0.5,1c-0.1,0.4-0.6,0.6-1,0.5C-619.4-248.2-619.6-248.6-619.5-249.1z"/>
				<path id="Path_1077" class="st6" d="M-615.1-247.6c-0.2,0.6,0.1,1.2,0.7,1.3c0.6,0.2,1.2-0.1,1.3-0.7c0.2-0.6-0.1-1.2-0.7-1.3
					c0,0,0,0,0,0C-614.3-248.4-614.9-248.1-615.1-247.6z M-613.8-248c0.4,0.1,0.6,0.6,0.5,1s-0.6,0.6-1,0.5c-0.4-0.1-0.6-0.6-0.5-1
					C-614.7-247.9-614.2-248.1-613.8-248L-613.8-248z"/>
				<path id="Path_1078" class="st6" d="M-610.4-246c-0.2,0.6,0.1,1.2,0.7,1.3c0.6,0.2,1.2-0.1,1.3-0.7c0.2-0.6-0.1-1.2-0.7-1.3
					C-609.6-246.9-610.2-246.6-610.4-246C-610.4-246-610.4-246-610.4-246z M-608.6-245.4c-0.1,0.4-0.6,0.6-1,0.5
					c-0.4-0.1-0.6-0.6-0.5-1c0.1-0.4,0.6-0.6,1-0.5C-608.7-246.3-608.5-245.8-608.6-245.4z"/>
				<path id="Path_1079" class="st6" d="M-603.6-243.8c0.2-0.6-0.1-1.2-0.7-1.3c-0.6-0.2-1.2,0.1-1.3,0.7c-0.2,0.6,0.1,1.2,0.7,1.3
					C-604.4-242.9-603.8-243.2-603.6-243.8z M-605.4-244.4c0.1-0.4,0.6-0.6,1-0.5s0.6,0.6,0.5,1s-0.6,0.6-1,0.5c0,0,0,0,0,0
					C-605.3-243.5-605.5-244-605.4-244.4L-605.4-244.4z"/>
				<path id="Path_1080" class="st6" d="M-601-242.9c-0.2,0.6,0.1,1.2,0.7,1.3c0.6,0.2,1.2-0.1,1.3-0.7c0.2-0.6-0.1-1.2-0.7-1.3
					C-600.2-243.8-600.8-243.5-601-242.9z M-599.2-242.3c-0.1,0.4-0.6,0.6-1,0.5s-0.6-0.6-0.5-1c0.1-0.4,0.6-0.6,1-0.5
					C-599.3-243.2-599.1-242.7-599.2-242.3z"/>
				<path id="Path_1081" class="st6" d="M-595.6-240c0.6,0.2,1.2-0.1,1.3-0.7c0.2-0.6-0.1-1.2-0.7-1.3c-0.6-0.2-1.2,0.1-1.3,0.7
					C-596.4-240.8-596.1-240.2-595.6-240C-595.6-240-595.6-240-595.6-240z M-596-241.3c0.1-0.4,0.6-0.6,1-0.5s0.6,0.6,0.5,1
					s-0.6,0.6-1,0.5c0,0,0,0,0,0C-595.9-240.4-596.1-240.9-596-241.3L-596-241.3z"/>
				<path id="Path_1082" class="st6" d="M-591.5-239.8c-0.2,0.6,0.1,1.2,0.7,1.3c0.6,0.2,1.2-0.1,1.3-0.7c0.2-0.6-0.1-1.2-0.7-1.3
					C-590.8-240.6-591.4-240.3-591.5-239.8C-591.5-239.8-591.5-239.8-591.5-239.8z M-590.3-240.2c0.4,0.1,0.6,0.6,0.5,1
					c-0.1,0.4-0.6,0.6-1,0.5s-0.6-0.6-0.5-1c0,0,0,0,0,0C-591.1-240.1-590.7-240.3-590.3-240.2z"/>
				<path id="Path_1083" class="st6" d="M-586.2-236.9c0.6,0.2,1.2-0.1,1.3-0.7c0.2-0.6-0.1-1.2-0.7-1.3c-0.6-0.2-1.2,0.1-1.3,0.7
					c0,0,0,0,0,0C-587-237.7-586.7-237.1-586.2-236.9z M-586.6-238.1c0.1-0.4,0.6-0.6,1-0.5c0.4,0.1,0.6,0.6,0.5,1
					c-0.1,0.4-0.6,0.6-1,0.5C-586.5-237.3-586.7-237.7-586.6-238.1L-586.6-238.1z"/>
				<path id="Path_1084" class="st6" d="M-628.8-246.6c0.1-0.4,0-0.9-0.3-1.1c-0.1,0.1-0.1,0.2-0.2,0.2c0.3,0.3,0.4,0.8,0.1,1.1
					c-0.3,0.3-0.7,0.4-1,0.1c-0.1,0.1-0.1,0.2-0.2,0.2c0.1,0.1,0.2,0.1,0.3,0.2C-629.6-245.7-629-246-628.8-246.6
					C-628.8-246.6-628.8-246.6-628.8-246.6z"/>
				<path id="Path_1085" class="st6" d="M-625.5-244.4c0.6,0.2,1.2-0.1,1.3-0.7c0.2-0.6-0.1-1.2-0.7-1.3c-0.6-0.2-1.2,0.1-1.3,0.7
					c0,0,0,0,0,0C-626.3-245.2-626-244.6-625.5-244.4z M-625.9-245.6c0.1-0.4,0.6-0.6,1-0.5c0.4,0.1,0.6,0.6,0.5,1
					c-0.1,0.4-0.6,0.6-1,0.5C-625.8-244.8-626-245.2-625.9-245.6C-625.9-245.6-625.9-245.6-625.9-245.6L-625.9-245.6z"/>
				<path id="Path_1086" class="st6" d="M-620.8-242.8c0.6,0.2,1.2-0.1,1.3-0.7c0.2-0.6-0.1-1.2-0.7-1.3c-0.6-0.2-1.2,0.1-1.3,0.7
					c0,0,0,0,0,0C-621.6-243.6-621.3-243-620.8-242.8z M-621.2-244.1c0.1-0.4,0.6-0.6,1-0.5s0.6,0.6,0.5,1c-0.1,0.4-0.6,0.6-1,0.5
					C-621.1-243.2-621.3-243.7-621.2-244.1L-621.2-244.1z"/>
				<path id="Path_1087" class="st6" d="M-614.7-241.9c0.2-0.6-0.1-1.2-0.7-1.3c-0.6-0.2-1.2,0.1-1.3,0.7c-0.2,0.6,0.1,1.2,0.7,1.3
					c0,0,0,0,0,0C-615.5-241.1-614.9-241.4-614.7-241.9z M-616.5-242.5c0.1-0.4,0.6-0.6,1-0.5c0.4,0.1,0.6,0.6,0.5,1
					c-0.1,0.4-0.6,0.6-1,0.5C-616.4-241.7-616.6-242.1-616.5-242.5L-616.5-242.5z"/>
				<path id="Path_1088" class="st6" d="M-610-240.4c0.2-0.6-0.1-1.2-0.7-1.3c-0.6-0.2-1.2,0.1-1.3,0.7c-0.2,0.6,0.1,1.2,0.7,1.3
					c0,0,0,0,0,0C-610.8-239.5-610.2-239.8-610-240.4z M-611.7-240.9c0.1-0.4,0.6-0.6,1-0.5c0.4,0.1,0.6,0.6,0.5,1
					c-0.1,0.4-0.6,0.6-1,0.5c0,0,0,0,0,0C-611.7-240.1-611.9-240.5-611.7-240.9z"/>
				<path id="Path_1089" class="st6" d="M-605.3-238.8c0.2-0.6-0.1-1.2-0.7-1.3c-0.6-0.2-1.2,0.1-1.3,0.7c-0.2,0.6,0.1,1.2,0.7,1.3
					c0,0,0,0,0,0C-606.1-237.9-605.5-238.2-605.3-238.8z M-607-239.4c0.1-0.4,0.6-0.6,1-0.5c0.4,0.1,0.6,0.6,0.5,1s-0.6,0.6-1,0.5
					c0,0,0,0,0,0C-607-238.5-607.2-239-607-239.4z"/>
				<path id="Path_1090" class="st6" d="M-600.6-237.2c0.2-0.6-0.1-1.2-0.7-1.3c-0.6-0.2-1.2,0.1-1.3,0.7c-0.2,0.6,0.1,1.2,0.7,1.3
					c0,0,0,0,0,0C-601.4-236.4-600.8-236.7-600.6-237.2z M-602.3-237.8c0.1-0.4,0.6-0.6,1-0.5s0.6,0.6,0.5,1s-0.6,0.6-1,0.5
					c0,0,0,0,0,0C-602.2-237-602.5-237.4-602.3-237.8C-602.3-237.8-602.3-237.8-602.3-237.8L-602.3-237.8z"/>
				<path id="Path_1091" class="st6" d="M-597.9-236.4c-0.2,0.6,0.1,1.2,0.7,1.3c0.6,0.2,1.2-0.1,1.3-0.7c0.2-0.6-0.1-1.2-0.7-1.3
					C-597.1-237.2-597.7-236.9-597.9-236.4C-597.9-236.4-597.9-236.4-597.9-236.4z M-596.2-235.8c-0.1,0.4-0.6,0.6-1,0.5
					c-0.4-0.1-0.6-0.6-0.5-1c0.1-0.4,0.6-0.6,1-0.5C-596.3-236.6-596-236.2-596.2-235.8L-596.2-235.8z"/>
				<path id="Path_1092" class="st6" d="M-592.5-233.5c0.6,0.2,1.2-0.1,1.3-0.7c0.2-0.6-0.1-1.2-0.7-1.3c-0.6-0.2-1.2,0.1-1.3,0.7
					c0,0,0,0,0,0C-593.4-234.2-593.1-233.6-592.5-233.5C-592.5-233.5-592.5-233.5-592.5-233.5z M-592.9-234.7c0.1-0.4,0.6-0.6,1-0.5
					s0.6,0.6,0.5,1s-0.6,0.6-1,0.5c0,0,0,0,0,0C-592.8-233.9-593-234.3-592.9-234.7L-592.9-234.7z"/>
				<path id="Path_1093" class="st6" d="M-588.5-233.2c-0.2,0.6,0.1,1.2,0.7,1.3s1.2-0.1,1.3-0.7c0.2-0.6-0.1-1.2-0.7-1.3
					C-587.7-234.1-588.3-233.8-588.5-233.2C-588.5-233.2-588.5-233.2-588.5-233.2z M-587.2-233.6c0.4,0.1,0.6,0.6,0.5,1
					c-0.1,0.4-0.6,0.6-1,0.5s-0.6-0.6-0.5-1c0,0,0,0,0,0C-588.1-233.5-587.6-233.8-587.2-233.6L-587.2-233.6z"/>
				<path id="Path_1094" class="st6" d="M-583.1-230.3c0.6,0.2,1.2-0.1,1.3-0.7c0.2-0.6-0.1-1.2-0.7-1.3c-0.6-0.2-1.2,0.1-1.3,0.7
					C-584-231.1-583.7-230.5-583.1-230.3C-583.1-230.3-583.1-230.3-583.1-230.3z M-583.5-231.6c0.1-0.4,0.6-0.6,1-0.5s0.6,0.6,0.5,1
					c-0.1,0.4-0.6,0.6-1,0.5C-583.4-230.7-583.6-231.2-583.5-231.6C-583.5-231.6-583.5-231.6-583.5-231.6L-583.5-231.6z"/>
				<path id="Path_1095" class="st6" d="M-631.8-240.9c0.6,0.2,1.2-0.1,1.3-0.7c0.2-0.6-0.1-1.2-0.7-1.3c-0.6-0.2-1.2,0.1-1.3,0.7
					C-632.7-241.7-632.4-241.1-631.8-240.9C-631.8-240.9-631.8-240.9-631.8-240.9z M-632.2-242.2c0.1-0.4,0.6-0.6,1-0.5
					c0.4,0.1,0.6,0.6,0.5,1c-0.1,0.4-0.6,0.6-1,0.5c0,0,0,0,0,0C-632.1-241.4-632.4-241.8-632.2-242.2z"/>
				<path id="Path_1096" class="st6" d="M-627.1-239.4c0.6,0.2,1.2-0.1,1.3-0.7c0.2-0.6-0.1-1.2-0.7-1.3c-0.6-0.2-1.2,0.1-1.3,0.7
					C-628-240.2-627.7-239.6-627.1-239.4C-627.1-239.4-627.1-239.4-627.1-239.4z M-627.5-240.6c0.1-0.4,0.6-0.6,1-0.5
					c0.4,0.1,0.6,0.6,0.5,1c-0.1,0.4-0.6,0.6-1,0.5c0,0,0,0,0,0C-627.4-239.8-627.7-240.2-627.5-240.6z"/>
				<path id="Path_1097" class="st6" d="M-623.1-239.2c-0.2,0.6,0.1,1.2,0.7,1.3c0.6,0.2,1.2-0.1,1.3-0.7c0.2-0.6-0.1-1.2-0.7-1.3
					C-622.3-240-622.9-239.7-623.1-239.2z M-621.8-239.6c0.4,0.1,0.6,0.6,0.5,1s-0.6,0.6-1,0.5c-0.4-0.1-0.6-0.6-0.5-1
					C-622.7-239.5-622.2-239.7-621.8-239.6L-621.8-239.6z"/>
				<path id="Path_1098" class="st6" d="M-616.4-236.9c0.2-0.6-0.1-1.2-0.7-1.3c-0.6-0.2-1.2,0.1-1.3,0.7c-0.2,0.6,0.1,1.2,0.7,1.3
					C-617.2-236.1-616.6-236.4-616.4-236.9C-616.4-236.9-616.4-236.9-616.4-236.9z M-618.1-237.5c0.1-0.4,0.6-0.6,1-0.5
					s0.6,0.6,0.5,1c-0.1,0.4-0.6,0.6-1,0.5C-618-236.7-618.2-237.1-618.1-237.5C-618.1-237.5-618.1-237.5-618.1-237.5L-618.1-237.5z
					"/>
				<path id="Path_1099" class="st6" d="M-611.7-235.4c0.2-0.6-0.1-1.2-0.7-1.3c-0.6-0.2-1.2,0.1-1.3,0.7c-0.2,0.6,0.1,1.2,0.7,1.3
					C-612.5-234.5-611.8-234.8-611.7-235.4C-611.7-235.4-611.7-235.4-611.7-235.4z M-613.4-235.9c0.1-0.4,0.6-0.6,1-0.5
					c0.4,0.1,0.6,0.6,0.5,1c-0.1,0.4-0.6,0.6-1,0.5C-613.3-235.1-613.5-235.5-613.4-235.9C-613.4-235.9-613.4-235.9-613.4-235.9z"/>
				<path id="Path_1100" class="st6" d="M-607-233.8c0.2-0.6-0.1-1.2-0.7-1.3s-1.2,0.1-1.3,0.7c-0.2,0.6,0.1,1.2,0.7,1.3
					C-607.7-233-607.1-233.3-607-233.8C-607-233.8-607-233.8-607-233.8z M-608.7-234.4c0.1-0.4,0.6-0.6,1-0.5c0.4,0.1,0.6,0.6,0.5,1
					c-0.1,0.4-0.6,0.6-1,0.5C-608.6-233.6-608.8-234-608.7-234.4C-608.7-234.4-608.7-234.4-608.7-234.4L-608.7-234.4z"/>
				<path id="Path_1101" class="st6" d="M-603.6-231.6c0.6,0.2,1.2-0.1,1.3-0.7c0.2-0.6-0.1-1.2-0.7-1.3c-0.6-0.2-1.2,0.1-1.3,0.7
					C-604.5-232.4-604.2-231.8-603.6-231.6C-603.6-231.6-603.6-231.6-603.6-231.6z M-604-232.8c0.1-0.4,0.6-0.6,1-0.5
					c0.4,0.1,0.6,0.6,0.5,1c-0.1,0.4-0.6,0.6-1,0.5c0,0,0,0,0,0C-603.9-232-604.1-232.4-604-232.8z"/>
				<path id="Path_1102" class="st6" d="M-598.2-232c-0.6-0.2-1.2,0.1-1.3,0.7c-0.2,0.6,0.1,1.2,0.7,1.3c0.6,0.2,1.2-0.1,1.3-0.7
					C-597.4-231.2-597.7-231.9-598.2-232C-598.2-232-598.2-232-598.2-232z M-597.8-230.8c-0.1,0.4-0.6,0.6-1,0.5s-0.6-0.6-0.5-1
					c0.1-0.4,0.6-0.6,1-0.5C-597.9-231.6-597.7-231.2-597.8-230.8z"/>
				<path id="Path_1103" class="st6" d="M-592.8-229.1c0.2-0.6-0.1-1.2-0.7-1.3c-0.6-0.2-1.2,0.1-1.3,0.7c-0.2,0.6,0.1,1.2,0.7,1.3
					C-593.6-228.3-593-228.6-592.8-229.1C-592.8-229.1-592.8-229.1-592.8-229.1z M-594.1-228.7c-0.4-0.1-0.6-0.6-0.5-1
					s0.6-0.6,1-0.5s0.6,0.6,0.5,1c0,0,0,0,0,0C-593.3-228.8-593.7-228.6-594.1-228.7z"/>
				<path id="Path_1104" class="st6" d="M-588.1-227.6c0.2-0.6-0.1-1.2-0.7-1.3c-0.6-0.2-1.2,0.1-1.3,0.7c-0.2,0.6,0.1,1.2,0.7,1.3
					C-588.9-226.7-588.3-227-588.1-227.6C-588.1-227.6-588.1-227.6-588.1-227.6z M-589.4-227.2c-0.4-0.1-0.6-0.6-0.5-1
					s0.6-0.6,1-0.5s0.6,0.6,0.5,1c0,0,0,0,0,0C-588.5-227.3-589-227-589.4-227.2C-589.4-227.2-589.4-227.2-589.4-227.2L-589.4-227.2
					z"/>
				<path id="Path_1105" class="st6" d="M-585.4-226.7c-0.2,0.6,0.1,1.2,0.7,1.3c0.6,0.2,1.2-0.1,1.3-0.7c0.2-0.6-0.1-1.2-0.7-1.3
					C-584.7-227.5-585.3-227.2-585.4-226.7C-585.4-226.7-585.4-226.7-585.4-226.7z M-584.2-227.1c0.4,0.1,0.6,0.6,0.5,1
					c-0.1,0.4-0.6,0.6-1,0.5c-0.4-0.1-0.6-0.6-0.5-1C-585-227-584.6-227.2-584.2-227.1z"/>
				<path id="Path_1106" class="st6" d="M-580.7-225.1c-0.2,0.6,0.1,1.2,0.7,1.3c0.4,0.1,0.9,0,1.2-0.3l-0.1-0.4
					c-0.2,0.4-0.6,0.6-1,0.4s-0.6-0.6-0.4-1c0.2-0.4,0.6-0.5,0.9-0.4c0,0,0.1,0,0.1,0c0-0.1-0.1-0.2-0.1-0.4
					C-580-225.9-580.6-225.6-580.7-225.1z"/>
				<path id="Path_1107" class="st6" d="M-632.1-236.6c0.2-0.6-0.1-1.2-0.7-1.3c-0.6-0.2-1.2,0.1-1.3,0.7c-0.2,0.6,0.1,1.2,0.7,1.3
					C-632.9-235.8-632.3-236.1-632.1-236.6z M-633.4-236.2c-0.4-0.1-0.6-0.6-0.5-1c0.1-0.4,0.6-0.6,1-0.5s0.6,0.6,0.5,1c0,0,0,0,0,0
					C-632.6-236.3-633-236.1-633.4-236.2z"/>
				<path id="Path_1108" class="st6" d="M-627.4-235.1c0.2-0.6-0.1-1.2-0.7-1.3c-0.6-0.2-1.2,0.1-1.3,0.7c-0.2,0.6,0.1,1.2,0.7,1.3
					C-628.2-234.2-627.6-234.5-627.4-235.1z M-628.7-234.7c-0.4-0.1-0.6-0.6-0.5-1s0.6-0.6,1-0.5c0.4,0.1,0.6,0.6,0.5,1
					C-627.9-234.7-628.3-234.5-628.7-234.7C-628.7-234.7-628.7-234.7-628.7-234.7z"/>
				<path id="Path_1109" class="st6" d="M-623.4-234.8c-0.6-0.2-1.2,0.1-1.3,0.7c-0.2,0.6,0.1,1.2,0.7,1.3c0.6,0.2,1.2-0.1,1.3-0.7
					C-622.5-234.1-622.8-234.7-623.4-234.8z M-623-233.6c-0.1,0.4-0.6,0.6-1,0.5c-0.4-0.1-0.6-0.6-0.5-1c0.1-0.4,0.6-0.6,1-0.5
					C-623.1-234.4-622.9-234-623-233.6z"/>
				<path id="Path_1110" class="st6" d="M-618.7-233.3c-0.6-0.2-1.2,0.1-1.3,0.7s0.1,1.2,0.7,1.3c0.6,0.2,1.2-0.1,1.3-0.7
					C-617.8-232.5-618.1-233.1-618.7-233.3z M-618.3-232c-0.1,0.4-0.6,0.6-1,0.5s-0.6-0.6-0.5-1s0.6-0.6,1-0.5c0,0,0,0,0,0
					C-618.4-232.9-618.2-232.4-618.3-232L-618.3-232z"/>
				<path id="Path_1111" class="st6" d="M-614.7-229.7c0.6,0.2,1.2-0.1,1.3-0.7c0.2-0.6-0.1-1.2-0.7-1.3c-0.6-0.2-1.2,0.1-1.3,0.7
					C-615.5-230.5-615.2-229.9-614.7-229.7z M-615.1-231c0.1-0.4,0.6-0.6,1-0.5s0.6,0.6,0.5,1c-0.1,0.4-0.6,0.6-1,0.5
					C-615-230.1-615.2-230.6-615.1-231C-615.1-231-615.1-231-615.1-231L-615.1-231z"/>
				<path id="Path_1112" class="st6" d="M-610-228.1c0.6,0.2,1.2-0.1,1.3-0.7c0.2-0.6-0.1-1.2-0.7-1.3c-0.6-0.2-1.2,0.1-1.3,0.7
					C-610.8-228.9-610.5-228.3-610-228.1C-610-228.1-610-228.1-610-228.1z M-610.3-229.4c0.1-0.4,0.6-0.6,1-0.5
					c0.4,0.1,0.6,0.6,0.5,1c-0.1,0.4-0.6,0.6-1,0.5C-610.3-228.6-610.5-229-610.3-229.4z"/>
				<path id="Path_1113" class="st6" d="M-603.9-227.3c0.2-0.6-0.1-1.2-0.7-1.3c-0.6-0.2-1.2,0.1-1.3,0.7c-0.2,0.6,0.1,1.2,0.7,1.3
					C-604.7-226.4-604.1-226.7-603.9-227.3C-603.9-227.3-603.9-227.3-603.9-227.3z M-605.2-226.9c-0.4-0.1-0.6-0.6-0.5-1
					c0.1-0.4,0.6-0.6,1-0.5s0.6,0.6,0.5,1c0,0,0,0,0,0C-604.3-227-604.8-226.7-605.2-226.9z"/>
				<path id="Path_1114" class="st6" d="M-599.2-225.7c0.2-0.6-0.1-1.2-0.7-1.3c-0.6-0.2-1.2,0.1-1.3,0.7c-0.2,0.6,0.1,1.2,0.7,1.3
					C-600-224.8-599.4-225.1-599.2-225.7C-599.2-225.7-599.2-225.7-599.2-225.7z M-600.4-225.3c-0.4-0.1-0.6-0.6-0.5-1
					s0.6-0.6,1-0.5c0.4,0.1,0.6,0.6,0.5,1C-599.6-225.4-600-225.2-600.4-225.3C-600.4-225.3-600.4-225.3-600.4-225.3z"/>
				<path id="Path_1115" class="st6" d="M-595.2-225.5c-0.6-0.2-1.2,0.1-1.3,0.7c-0.2,0.6,0.1,1.2,0.7,1.3c0.6,0.2,1.2-0.1,1.3-0.7
					C-594.3-224.7-594.6-225.3-595.2-225.5C-595.2-225.5-595.2-225.5-595.2-225.5z M-594.8-224.2c-0.1,0.4-0.6,0.6-1,0.5
					c-0.4-0.1-0.6-0.6-0.5-1c0.1-0.4,0.6-0.6,1-0.5C-594.9-225.1-594.6-224.6-594.8-224.2L-594.8-224.2z"/>
				<path id="Path_1116" class="st6" d="M-590.5-223.9c-0.6-0.2-1.2,0.1-1.3,0.7c-0.2,0.6,0.1,1.2,0.7,1.3c0.6,0.2,1.2-0.1,1.3-0.7
					C-589.6-223.1-589.9-223.7-590.5-223.9z M-590.1-222.7c-0.1,0.4-0.6,0.6-1,0.5s-0.6-0.6-0.5-1c0.1-0.4,0.6-0.6,1-0.5
					C-590.1-223.5-589.9-223.1-590.1-222.7C-590.1-222.7-590.1-222.7-590.1-222.7L-590.1-222.7z"/>
				<path id="Path_1117" class="st6" d="M-585.7-222.4c-0.6-0.2-1.2,0.1-1.3,0.7c-0.2,0.6,0.1,1.2,0.7,1.3c0.6,0.2,1.2-0.1,1.3-0.7
					c0,0,0,0,0,0C-584.9-221.6-585.2-222.2-585.7-222.4z M-585.4-221.1c-0.1,0.4-0.6,0.6-1,0.5c-0.4-0.1-0.6-0.6-0.5-1
					c0.1-0.4,0.6-0.6,1-0.5C-585.4-221.9-585.2-221.5-585.4-221.1z"/>
				<path id="Path_1118" class="st6" d="M-582.4-220.1c-0.2,0.6,0.1,1.2,0.7,1.3c0.6,0.2,1.2-0.1,1.3-0.7c0.2-0.6-0.1-1.2-0.7-1.3
					C-581.6-221-582.2-220.7-582.4-220.1C-582.4-220.1-582.4-220.1-582.4-220.1z M-581.1-220.5c0.4,0.1,0.6,0.6,0.5,1
					c-0.1,0.4-0.6,0.6-1,0.5c-0.4-0.1-0.6-0.6-0.5-1c0,0,0,0,0,0C-582-220.4-581.5-220.7-581.1-220.5z"/>
				<path id="Path_1119" class="st6" d="M-577.7-218.6c-0.2,0.6,0.1,1.2,0.7,1.3c0.1,0,0.3,0.1,0.5,0c0-0.1-0.1-0.2-0.1-0.3
					c-0.1,0-0.2,0-0.3,0c-0.4-0.1-0.6-0.6-0.5-1c0.1-0.2,0.2-0.3,0.3-0.4l-0.1-0.3C-577.4-219-577.6-218.8-577.7-218.6z"/>
				<path id="Path_1120" class="st6" d="M-639.8-232.5c0.6,0.2,1.2-0.1,1.3-0.7c0.2-0.5-0.1-1.1-0.6-1.3l-0.2,0.2h0
					c0.4,0.1,0.6,0.6,0.5,1s-0.6,0.6-1,0.5c-0.2-0.1-0.4-0.2-0.5-0.4l-0.2,0.2C-640.3-232.8-640.1-232.6-639.8-232.5z"/>
				<path id="Path_1121" class="st6" d="M-634.5-233c-0.6-0.2-1.2,0.1-1.3,0.7c-0.2,0.6,0.1,1.2,0.7,1.3c0.6,0.2,1.2-0.1,1.3-0.7
					c0,0,0,0,0,0C-633.6-232.2-633.9-232.8-634.5-233z M-634.1-231.7c-0.1,0.4-0.6,0.6-1,0.5c-0.4-0.1-0.6-0.6-0.5-1
					c0.1-0.4,0.6-0.6,1-0.5C-634.2-232.6-634-232.1-634.1-231.7L-634.1-231.7z"/>
				<path id="Path_1122" class="st6" d="M-629.8-231.4c-0.6-0.2-1.2,0.1-1.3,0.7c-0.2,0.6,0.1,1.2,0.7,1.3c0.6,0.2,1.2-0.1,1.3-0.7
					C-628.9-230.6-629.2-231.2-629.8-231.4z M-629.4-230.2c-0.1,0.4-0.6,0.6-1,0.5s-0.6-0.6-0.5-1s0.6-0.6,1-0.5c0,0,0,0,0,0
					C-629.5-231-629.2-230.6-629.4-230.2z"/>
				<path id="Path_1123" class="st6" d="M-624.4-228.5c0.2-0.6-0.1-1.2-0.7-1.3s-1.2,0.1-1.3,0.7c-0.2,0.6,0.1,1.2,0.7,1.3
					C-625.2-227.6-624.6-227.9-624.4-228.5z M-625.6-228.1c-0.4-0.1-0.6-0.6-0.5-1c0.1-0.4,0.6-0.6,1-0.5c0.4,0.1,0.6,0.6,0.5,1
					C-624.8-228.2-625.2-228-625.6-228.1C-625.6-228.1-625.6-228.1-625.6-228.1z"/>
				<path id="Path_1124" class="st6" d="M-619.7-226.9c0.2-0.6-0.1-1.2-0.7-1.3c-0.6-0.2-1.2,0.1-1.3,0.7c-0.2,0.6,0.1,1.2,0.7,1.3
					C-620.5-226.1-619.9-226.4-619.7-226.9C-619.7-226.9-619.7-226.9-619.7-226.9z M-620.9-226.6c-0.4-0.1-0.6-0.6-0.5-1
					s0.6-0.6,1-0.5c0.4,0.1,0.6,0.6,0.5,1C-620.1-226.6-620.5-226.4-620.9-226.6z"/>
				<path id="Path_1125" class="st6" d="M-615-225.4c0.2-0.6-0.1-1.2-0.7-1.3s-1.2,0.1-1.3,0.7c-0.2,0.6,0.1,1.2,0.7,1.3
					C-615.8-224.5-615.2-224.8-615-225.4z M-616.2-225c-0.4-0.1-0.6-0.6-0.5-1s0.6-0.6,1-0.5c0.4,0.1,0.6,0.6,0.5,1
					C-615.4-225.1-615.8-224.9-616.2-225L-616.2-225z"/>
				<path id="Path_1126" class="st6" d="M-610.3-223.8c0.2-0.6-0.1-1.2-0.7-1.3c-0.6-0.2-1.2,0.1-1.3,0.7c-0.2,0.6,0.1,1.2,0.7,1.3
					C-611.1-223-610.5-223.3-610.3-223.8z M-611.5-223.4c-0.4-0.1-0.6-0.6-0.5-1c0.1-0.4,0.6-0.6,1-0.5c0.4,0.1,0.6,0.6,0.5,1
					c0,0,0,0,0,0C-610.7-223.5-611.1-223.3-611.5-223.4C-611.5-223.4-611.5-223.4-611.5-223.4L-611.5-223.4z"/>
				<path id="Path_1127" class="st6" d="M-606.2-223.6c-0.6-0.2-1.2,0.1-1.3,0.7c-0.2,0.6,0.1,1.2,0.7,1.3c0.6,0.2,1.2-0.1,1.3-0.7
					C-605.4-222.8-605.7-223.4-606.2-223.6C-606.2-223.6-606.2-223.6-606.2-223.6z M-605.8-222.4c-0.1,0.4-0.6,0.6-1,0.5
					c-0.4-0.1-0.6-0.6-0.5-1c0.1-0.4,0.6-0.6,1-0.5C-605.9-223.2-605.7-222.8-605.8-222.4C-605.8-222.4-605.8-222.4-605.8-222.4
					L-605.8-222.4z"/>
				<path id="Path_1128" class="st6" d="M-601.5-222.1c-0.6-0.2-1.2,0.1-1.3,0.7c-0.2,0.6,0.1,1.2,0.7,1.3c0.6,0.2,1.2-0.1,1.3-0.7
					c0,0,0,0,0,0C-600.7-221.3-601-221.9-601.5-222.1z M-601.1-220.8c-0.1,0.4-0.6,0.6-1,0.5c-0.4-0.1-0.6-0.6-0.5-1s0.6-0.6,1-0.5
					c0,0,0,0,0,0C-601.2-221.6-601-221.2-601.1-220.8C-601.1-220.8-601.1-220.8-601.1-220.8L-601.1-220.8z"/>
				<path id="Path_1129" class="st6" d="M-596.8-220.5c-0.6-0.2-1.2,0.1-1.3,0.7c-0.2,0.6,0.1,1.2,0.7,1.3c0.6,0.2,1.2-0.1,1.3-0.7
					C-596-219.7-596.3-220.3-596.8-220.5C-596.8-220.5-596.8-220.5-596.8-220.5z M-596.4-219.2c-0.1,0.4-0.6,0.6-1,0.5
					c-0.4-0.1-0.6-0.6-0.5-1c0.1-0.4,0.6-0.6,1-0.5C-596.5-220.1-596.3-219.6-596.4-219.2C-596.4-219.2-596.4-219.2-596.4-219.2
					L-596.4-219.2z"/>
				<path id="Path_1130" class="st6" d="M-592.1-218.9c-0.6-0.2-1.2,0.1-1.3,0.7s0.1,1.2,0.7,1.3c0.6,0.2,1.2-0.1,1.3-0.7
					C-591.3-218.1-591.6-218.7-592.1-218.9z M-591.7-217.7c-0.1,0.4-0.6,0.6-1,0.5s-0.6-0.6-0.5-1s0.6-0.6,1-0.5c0,0,0,0,0,0
					C-591.8-218.5-591.6-218.1-591.7-217.7z"/>
				<path id="Path_1131" class="st6" d="M-587.4-217.4c-0.6-0.2-1.2,0.1-1.3,0.7c-0.2,0.6,0.1,1.2,0.7,1.3c0.6,0.2,1.2-0.1,1.3-0.7
					C-586.5-216.6-586.8-217.2-587.4-217.4z M-587-216.1c-0.1,0.4-0.6,0.6-1,0.5c-0.4-0.1-0.6-0.6-0.5-1c0.1-0.4,0.6-0.6,1-0.5
					C-587.1-217-586.9-216.5-587-216.1L-587-216.1z"/>
				<path id="Path_1132" class="st6" d="M-645.7-229c0.2,0,0.4-0.1,0.6-0.3C-645.3-229.2-645.5-229.1-645.7-229z"/>
				<path id="Path_1133" class="st6" d="M-640.8-229.5c-0.6-0.2-1.2,0.1-1.3,0.7c-0.2,0.6,0.1,1.2,0.7,1.3c0.6,0.2,1.2-0.1,1.3-0.7
					C-640-228.7-640.3-229.4-640.8-229.5z M-640.4-228.3c-0.1,0.4-0.6,0.6-1,0.5c-0.4-0.1-0.6-0.6-0.5-1c0.1-0.4,0.6-0.6,1-0.5
					C-640.5-229.1-640.3-228.7-640.4-228.3z"/>
				<path id="Path_1134" class="st6" d="M-636.1-228c-0.6-0.2-1.2,0.1-1.3,0.7c-0.2,0.6,0.1,1.2,0.7,1.3c0.6,0.2,1.2-0.1,1.3-0.7
					C-635.3-227.2-635.6-227.8-636.1-228C-636.1-228-636.1-228-636.1-228z M-635.7-226.7c-0.1,0.4-0.6,0.6-1,0.5
					c-0.4-0.1-0.6-0.6-0.5-1c0.1-0.4,0.6-0.6,1-0.5C-635.8-227.6-635.6-227.1-635.7-226.7L-635.7-226.7z"/>
				<path id="Path_1135" class="st6" d="M-631.4-226.4c-0.6-0.2-1.2,0.1-1.3,0.7c-0.2,0.6,0.1,1.2,0.7,1.3c0.6,0.2,1.2-0.1,1.3-0.7
					C-630.6-225.6-630.9-226.2-631.4-226.4z M-631-225.2c-0.1,0.4-0.6,0.6-1,0.5c-0.4-0.1-0.6-0.6-0.5-1c0.1-0.4,0.6-0.6,1-0.5
					C-631.1-226-630.9-225.6-631-225.2L-631-225.2z"/>
				<path id="Path_1136" class="st6" d="M-626.7-224.9c-0.6-0.2-1.2,0.1-1.3,0.7s0.1,1.2,0.7,1.3c0.6,0.2,1.2-0.1,1.3-0.7
					C-625.9-224.1-626.2-224.7-626.7-224.9z M-626.3-223.6c-0.1,0.4-0.6,0.6-1,0.5c-0.4-0.1-0.6-0.6-0.5-1c0.1-0.4,0.6-0.6,1-0.5
					C-626.4-224.4-626.2-224-626.3-223.6L-626.3-223.6z"/>
				<path id="Path_1137" class="st6" d="M-622-223.3c-0.6-0.2-1.2,0.1-1.3,0.7s0.1,1.2,0.7,1.3c0.6,0.2,1.2-0.1,1.3-0.7
					C-621.1-222.5-621.5-223.1-622-223.3z M-621.6-222c-0.1,0.4-0.6,0.6-1,0.5s-0.6-0.6-0.5-1c0.1-0.4,0.6-0.6,1-0.5
					C-621.7-222.9-621.5-222.4-621.6-222L-621.6-222z"/>
				<path id="Path_1138" class="st6" d="M-617.3-221.7c-0.6-0.2-1.2,0.1-1.3,0.7c-0.2,0.6,0.1,1.2,0.7,1.3c0.6,0.2,1.2-0.1,1.3-0.7
					c0,0,0,0,0,0C-616.4-221-616.7-221.6-617.3-221.7z M-616.9-220.5c-0.1,0.4-0.6,0.6-1,0.5s-0.6-0.6-0.5-1s0.6-0.6,1-0.5
					c0,0,0,0,0,0C-617-221.3-616.8-220.9-616.9-220.5z"/>
				<path id="Path_1139" class="st6" d="M-612.6-220.2c-0.6-0.2-1.2,0.1-1.3,0.7c-0.2,0.6,0.1,1.2,0.7,1.3c0.6,0.2,1.2-0.1,1.3-0.7
					C-611.7-219.4-612-220-612.6-220.2C-612.6-220.2-612.6-220.2-612.6-220.2z M-612.2-218.9c-0.1,0.4-0.6,0.6-1,0.5s-0.6-0.6-0.5-1
					c0.1-0.4,0.6-0.6,1-0.5C-612.3-219.8-612.1-219.3-612.2-218.9L-612.2-218.9z"/>
				<path id="Path_1140" class="st6" d="M-607.9-218.6c-0.6-0.2-1.2,0.1-1.3,0.7c-0.2,0.6,0.1,1.2,0.7,1.3c0.6,0.2,1.2-0.1,1.3-0.7
					C-607-217.8-607.3-218.4-607.9-218.6C-607.9-218.6-607.9-218.6-607.9-218.6z M-607.5-217.4c-0.1,0.4-0.6,0.6-1,0.5
					s-0.6-0.6-0.5-1c0.1-0.4,0.6-0.6,1-0.5C-607.6-218.2-607.4-217.8-607.5-217.4L-607.5-217.4z"/>
				<path id="Path_1141" class="st6" d="M-603.2-217.1c-0.6-0.2-1.2,0.1-1.3,0.7c-0.2,0.6,0.1,1.2,0.7,1.3c0.6,0.2,1.2-0.1,1.3-0.7
					C-602.3-216.3-602.6-216.9-603.2-217.1C-603.2-217.1-603.2-217.1-603.2-217.1z M-602.8-215.8c-0.1,0.4-0.6,0.6-1,0.5
					c-0.4-0.1-0.6-0.6-0.5-1c0.1-0.4,0.6-0.6,1-0.5C-602.9-216.6-602.7-216.2-602.8-215.8z"/>
				<path id="Path_1142" class="st6" d="M-598.5-215.5c-0.6-0.2-1.2,0.1-1.3,0.7c-0.2,0.6,0.1,1.2,0.7,1.3c0.6,0.2,1.2-0.1,1.3-0.7
					C-597.6-214.7-597.9-215.3-598.5-215.5C-598.5-215.5-598.5-215.5-598.5-215.5z M-598.1-214.2c-0.1,0.4-0.6,0.6-1,0.5
					s-0.6-0.6-0.5-1c0.1-0.4,0.6-0.6,1-0.5C-598.2-215.1-597.9-214.7-598.1-214.2C-598.1-214.3-598.1-214.3-598.1-214.2
					L-598.1-214.2z"/>
				<path id="Path_1143" class="st6" d="M-593.8-213.9c-0.6-0.2-1.2,0.1-1.3,0.7c-0.2,0.5,0.1,1.1,0.5,1.3c0.4-0.1,0.9-0.2,1.3-0.3
					c0.1-0.1,0.1-0.2,0.2-0.3C-592.9-213.2-593.2-213.8-593.8-213.9C-593.8-213.9-593.8-213.9-593.8-213.9z M-593.4-212.7
					c-0.1,0.4-0.6,0.6-1,0.5c-0.4-0.1-0.6-0.6-0.5-1c0.1-0.4,0.6-0.6,1-0.5C-593.5-213.5-593.2-213.1-593.4-212.7L-593.4-212.7z"/>
				<path id="Path_1144" class="st6" d="M-627.7-218.5c0.2-0.6-0.1-1.2-0.7-1.3c-0.6-0.2-1.2,0.1-1.3,0.7c0,0,0,0.1,0,0.1
					c0.2,0.4,0.4,0.8,0.7,1.2l0.1,0C-628.5-217.7-627.9-218-627.7-218.5z M-629.4-219.1c0.1-0.4,0.6-0.6,1-0.5
					c0.4,0.1,0.6,0.6,0.5,1c-0.1,0.4-0.6,0.6-1,0.5c0,0,0,0,0,0C-629.3-218.3-629.6-218.7-629.4-219.1
					C-629.4-219.1-629.4-219.1-629.4-219.1L-629.4-219.1z"/>
				<path id="Path_1145" class="st6" d="M-623.7-218.3c-0.6-0.2-1.2,0.1-1.3,0.7c-0.2,0.6,0.1,1.2,0.7,1.3c0.6,0.2,1.2-0.1,1.3-0.7
					C-622.8-217.5-623.1-218.1-623.7-218.3z M-623.3-217.1c-0.1,0.4-0.6,0.6-1,0.5c-0.4-0.1-0.6-0.6-0.5-1c0.1-0.4,0.6-0.6,1-0.5
					c0,0,0,0,0,0C-623.4-217.9-623.1-217.5-623.3-217.1z"/>
				<path id="Path_1146" class="st6" d="M-619-216.7c-0.6-0.2-1.2,0.1-1.3,0.7c-0.2,0.6,0.1,1.2,0.7,1.3c0.6,0.2,1.2-0.1,1.3-0.7
					C-618.1-216-618.4-216.6-619-216.7C-619-216.7-619-216.7-619-216.7z M-618.6-215.5c-0.1,0.4-0.6,0.6-1,0.5
					c-0.4-0.1-0.6-0.6-0.5-1c0.1-0.4,0.6-0.6,1-0.5c0,0,0,0,0,0C-618.6-216.3-618.4-215.9-618.6-215.5z"/>
				<path id="Path_1147" class="st6" d="M-614.2-215.2c-0.6-0.2-1.2,0.1-1.3,0.7c-0.2,0.6,0.1,1.2,0.7,1.3c0.6,0.2,1.2-0.1,1.3-0.7
					C-613.4-214.4-613.7-215-614.2-215.2C-614.2-215.2-614.2-215.2-614.2-215.2z M-613.9-213.9c-0.1,0.4-0.6,0.6-1,0.5
					s-0.6-0.6-0.5-1c0.1-0.4,0.6-0.6,1-0.5C-613.9-214.8-613.7-214.3-613.9-213.9L-613.9-213.9z"/>
				<path id="Path_1148" class="st6" d="M-609.5-213.6c-0.6-0.2-1.2,0.1-1.3,0.7s0.1,1.2,0.7,1.3c0.6,0.2,1.2-0.1,1.3-0.7
					C-608.7-212.8-609-213.4-609.5-213.6z M-609.1-212.4c-0.1,0.4-0.6,0.6-1,0.5s-0.6-0.6-0.5-1c0.1-0.4,0.6-0.6,1-0.5
					C-609.2-213.2-609-212.8-609.1-212.4z"/>
				<path id="Path_1149" class="st6" d="M-604.8-212.1c-0.6-0.2-1.2,0.1-1.3,0.7c0,0.1-0.1,0.3-0.1,0.4h0.3c0-0.1,0-0.2,0-0.3
					c0.1-0.4,0.6-0.6,1-0.5c0.3,0.1,0.6,0.4,0.5,0.8l0.3,0C-604.1-211.5-604.4-211.9-604.8-212.1z"/>
			</g>
			<g id="Group_416" transform="translate(22.546 72.503)">
				<path id="Path_1150" class="st51" d="M-633.9-224.8c-7.5-11.3-0.5-34.5,4.5-47C-635-259.4-641.9-235.7-633.9-224.8z"/>
				<path id="Path_1151" class="st51" d="M-645.3-235.9c0-0.7-0.1-0.9-0.1-1.6c0,0,0-1.8,0-1.6l0.1-1.1c0.5-6.3,2.4-9.5,3.3-12.7
					C-642.7-250.9-646.9-244.6-645.3-235.9z"/>
			</g>
			<path id="Path_1152" class="st6" d="M-621-186.6l0.1-0.6c0,0,4.6-7.1,4.6-6.7S-621-186.6-621-186.6z"/>
			<path id="Path_1153" class="st51" d="M-635.7-191.7c-5.1,9.7,1.2,19.5,7.3,16.3c4.9-2.4,8.6-8,10.9-13c0.7-1.5,1.7-3.6,1.4-5.3
				l0.5-0.3c0.3,1.8-0.8,4.3-1.4,5.8c-2.3,5.2-6,10.9-11.1,13.4c-6.8,3.6-13.8-6.9-8.4-17.3L-635.7-191.7z"/>
			<path id="Path_1154" class="st45" d="M-598.1-242.7c0,0,4.1,6.6,1.3,8.1c-4.6,2.6-20.8,15.4-33.1,37.7c-0.2,0.4-3.9,8.4-4.2,8.8
				c-0.7,0.3-1.5,0.3-2.2,0c-0.1-0.1-0.2-0.3-0.4-0.4c-0.3,0.2-0.6,0.2-0.9,0.2c-0.4-0.1-1.4-1.8-1.4-1.8l0.1-0.3c0,0-0.7,0-0.9-0.2
				c-0.3-0.8-0.4-1.6-0.5-2.4c0,0,6.8-3.8,8.1-5.9s11-18.5,14.1-23.8c3.1-5.3,15.1-21.2,16.9-21.2
				C-600.1-243.9-599-243.5-598.1-242.7z"/>
			<path id="Path_1155" class="st57" d="M-597.5-244c-0.6-0.9-1.7-1.8-4.1-0.6c-1.2,0.6-7.8,9.1-12.6,15.7c1.7,1.5,3.1,3.2,4.4,5
				c5.9-5.9,10.8-9.6,13-10.8C-594-236.1-596.2-242-597.5-244z"/>
			<path id="Path_1156" class="st6" d="M-601.1-231.6c1-0.9,2-1.7,3.1-2.4c0.3-0.2,0.5-0.4,0.8-0.5c0.1-0.1,0.3-0.2,0.4-0.3l0.2-0.1
				c0.1,0,0.1-0.1,0.2-0.1c0.4-0.4,0.7-1,0.8-1.6c0.1-0.3,0.1-0.6,0.1-0.9c0-0.3,0-0.6-0.1-0.9c-0.1-0.6-0.2-1.3-0.4-1.9
				c-0.2-0.6-0.4-1.2-0.6-1.8c-0.2-0.6-0.5-1.2-0.8-1.8c0.4,0.5,0.7,1.1,1,1.7c0.3,0.6,0.5,1.2,0.7,1.8c0.2,0.6,0.4,1.3,0.5,1.9
				c0,0.3,0.1,0.7,0.1,1c0,0.3,0,0.7-0.1,1c-0.1,0.3-0.2,0.7-0.3,1c-0.1,0.3-0.4,0.6-0.6,0.8c-0.1,0.1-0.1,0.1-0.2,0.2l-0.2,0.1
				c-0.1,0.1-0.3,0.2-0.4,0.2c-0.3,0.2-0.6,0.3-0.8,0.5C-599-233-600-232.3-601.1-231.6z"/>
			<path id="Path_1157" class="st6" d="M-561.9-233.4l3.6,1.3l-4.8,7.2l-2.4-1.3l2.3,1.1l4.7-7L-561.9-233.4z"/>
			<path id="Path_1158" class="st46" d="M-562.9-223.6c0.5-0.6,1.1-1.1,1.8-1.5c0.9-0.6,2.1-2.2,1.7-2.6s-3.6-0.3-4,0.4
				c-0.4,0.7,1.9,0.4,2,0.5S-562.9-223.6-562.9-223.6z"/>
			<g id="Group_417" transform="translate(16.922)">
				<path id="Path_1159" class="st51" d="M-615.3-271.7c-0.2,0-3.9,0.8-4,3.5c-0.8,0.1-4.6,0.9-6.3,3.5c-0.9,1.4-1.1,3.2-0.5,4.8
					c-1.9,0.3-3.5,1.3-4.6,2.8c0,0.1,0,0.2,0,0.2c0.1,0,0.2,0,0.2,0l0,0c1.1-1.6,2.8-2.6,4.7-2.7c-0.6-1.6-0.5-3.4,0.4-4.9
					c1.3-2,4.1-3.1,6.4-3.4v-0.1c0-2.5,3.7-3.3,3.8-3.3c0.1,0,0.1-0.1,0.1-0.2C-615.2-271.7-615.3-271.8-615.3-271.7z"/>
				<path id="Path_1160" class="st51" d="M-632.9-234c-0.1,0.1-10.7,8.7-12.8,20.6c0,0.1,0,0.2,0.1,0.2c0,0,0,0,0,0h0
					c0.1,0,0.1-0.1,0.1-0.1c2-11.7,12.6-20.3,12.7-20.4c0.1-0.1,0.1-0.1,0-0.2C-632.7-234.1-632.8-234.1-632.9-234L-632.9-234z"/>
			</g>
			<g id="Group_418" transform="translate(31.918 0.547)">
				<path id="Path_1161" class="st45" d="M-620.7-266c0,0,3.2-0.3,3.8,2.2s-1.4,4.8-0.9,5.8c0.4,0.7,1.1,1.3,1.8,1.6
					c0.3,0.1-0.3,1-0.7,1.1c0,0-0.2,0.5-0.1,0.6c0.1,0.1,0.5,0.4,0.4,0.7c-0.1,0.3-0.7,0.5-0.7,0.5s0.5,0.6,0.3,0.8
					c-0.3,0.2-0.6,0.4-0.9,0.4c0,0,0.1,1.3-0.5,1.7s-2.5-0.1-4.1-0.8s-5.7-2.3-5.7-2.3S-631.8-268.6-620.7-266z"/>
				<path id="Path_1162" class="st58" d="M-622.3-265.1c0.7,0.6,1,1.5,1,2.4c0,1.5-0.2,1.7-0.2,1.7h1.9c0.2-0.8,0.3-1.7,0.2-2.5
					c0.1,0.8,0.2,1.7,0.3,2.5h4.7c0,0,1-5.9-3.6-9.2c-4.6-3.3-9.9-0.4-9.9-0.4s-3.6-0.4-5,2.4c-0.7,1.9-2.3,3.4-4.2,4.1
					c-2,1-2.8,5.5-2.6,5.7c0.2,0.2-4.5,1-5.7,5.3l-0.3,2.7c0,0,6.1,0,8,0.9c1,0.5,2.2,0.6,3.3,0.4c0,0,0.8-3,1.9-4.1
					c0.6-0.6,1.4-1.1,2.2-1.4c0,0-2.5,3.9-2.5,5.6l4.6,0.1c0,0,4.1-2.4,4.5-5.6c0.3-2.2,0.3-4.3,0-6.5c0.6,0.7,0.9,1.6,0.9,2.4
					c0.2-1.4,0.2-2.8,0-4.1C-622.9-264.7-622.3-265.1-622.3-265.1z"/>
			</g>
		</g>
		<g id="Group_424" transform="translate(307.209 8.099)">
			<path id="Path_1163" class="st44" d="M-552.9-88.5c0,0.9-20.8,1.5-46.4,1.5c-25.6,0-46.4-0.7-46.4-1.5s20.8-1.5,46.4-1.5
				C-573.6-90-552.9-89.4-552.9-88.5z"/>
			<path id="Path_1164" class="st59" d="M-617.5-189.9c0,0-5,8.4-9.2,8.4l1.6,2.7c0,0,6.8-7,7.9-10.2L-617.5-189.9z"/>
			<path id="Path_1165" class="st51" d="M-616.6-209.1c-1.1-0.4-2.3-0.7-3.5-0.9c-1.2,0-5,6-5,6l4.3,2.7L-616.6-209.1z"/>
			<path id="Path_1166" class="st59" d="M-623.8-204c0,0-2.7,2.5-2.7,5.2s-1.4,3.2-0.4,4.2s3.8,0.4,3.8,0.4l3-8.5L-623.8-204z"/>
			<path id="Path_1167" class="st50" d="M-606.8-224c0,0-4.6-1.8-6.2-1.8s-7.9,10.7-7.9,10.7l2.5,1.4c0,0,1.3,3.7-2.9,8.6
				c-4.1,4.9-6.6,12.5-1.7,14.6c4.9,2.1,7.6,2.6,9,1.2S-606.8-224-606.8-224z"/>
			<path id="Path_1168" class="st60" d="M-586.9-235.5c0,0,2.7,1.5,2.7,6.3c0,5-1.1,18.5,0.8,18.9c1.9,0.4,15.3-2.5,17.9-4.5
				l1.4,2.6c0,0-13.8,12.4-21.9,10.8c-8.1-1.6-10.3-16.3-9.6-22.7S-587.9-236.5-586.9-235.5z"/>
			<path id="Path_1169" class="st44" d="M-561.3-217.1l7.1-9.8l-2.2-1.6l-5.5,9.4L-561.3-217.1z"/>
			<path id="Path_1170" class="st59" d="M-553.5-224.9l-0.6-2l-7.1,9.8l0.8,0.8L-553.5-224.9z"/>
			<path id="Path_1171" class="st59" d="M-590-237.4c-2.2-1.8-5.2-2.4-8-1.5c-4.5,1.5-12.4,25.5-14.5,36.8
				c-0.3,1.8-3.5,15.7-2.5,19.3c5.4,19.8,26.3,49.9,26.3,49.9l14.2,39.6c0,0-1.2,4.2-0.8,5.3c0.4,1.1,2.7,0,4.5,0c1.9,0,6.7,0,7.1,0
				s3.9-0.1,3.9-0.1s-7.6-1.2-10.2-5.9c-2.6-4.8-8.1-44.1-8.1-44.1s-10.2-54.2-10.6-59.6c-0.3-5.4,4-34.5,2.2-37.1
				C-588.2-237.4-590-237.4-590-237.4z"/>
			<path id="Path_1172" class="st43" d="M-614.9-182.8l0.3,40.1c0,0-14,39.5-16,41.5c-2,2-3.2,3.5-3.2,3.5c1.5,0.9,2.8,2.2,3.6,3.7
				c1.2,2.3,2.5,5.3,8.5,5.3s-2.5-1.1-3.2-3c-0.7-1.9-1.2-8.4-1.2-8.4l22.4-37.1c0,0,10.6-32.2,15-33.4l1.1-16.4L-614.9-182.8z"/>
			<path id="Path_1173" class="st56" d="M-588.8-170.7c-4.4,1.7-13.7,29-15.2,33.4c-0.9,1.5-14.2,23.6-22,37.2
				c6.9-10.9,17.5-28.4,22.7-36.9l0,0c12.1-35.7,14.6-33.1,14.8-33.4c0,0,0.4-8.6,0.6-11.4C-588.2-178.1-588.5-174.4-588.8-170.7z"
				/>
			<path id="Path_1174" class="st61" d="M-588.6-197.8c-0.3-5.4,4-34.5,2.2-37.1c-1.8-2.6-3.5-2.6-3.5-2.6c-1.9-2.6-5.4-3.6-8.4-2.5
				c-4.4,1.6-14.3,25.8-16.4,37.2c-0.3,1.8-1,16.3,0,19.9l0,0.1l28.1-3.2C-587.8-191.9-588.5-196.4-588.6-197.8z"/>
			<path id="Path_1175" class="st45" d="M-598.2-237.2c0,0,8.3-0.7,8.3,5.9s-1.4,23.7,3.2,25.2c0,0,19.6-6.6,20-7.1s3.4-6,4.6-7.2
				c1.2-1.2,1.7-3.4,2.4-2.7c0.7,0.7-0.5,3.2-0.5,3.2c1.6-0.8,3.2-1.8,4.6-2.9c0,0,0.3-0.1,0.7,0.3c0.4,0.4-0.1,1.4-0.1,1.4
				c0.4,0.2,0.7,0.6,0.8,1c0.1,0.6-0.8,1.6-0.8,1.6c0.1,0.4,0.1,0.8,0.1,1.2c0,0.8-7.7,5.5-7.7,5.5s-14.6,14.1-20.6,15.9
				s-18.7-4.7-22.3-18.2S-602.5-236.8-598.2-237.2z"/>
			<path id="Path_1176" class="st45" d="M-587.5-247.3c0,0-5.9,5.2-7.3,7.7c-0.9,1.5,4.2,4.3,7.1,5.6l5.6-9.7L-587.5-247.3z"/>
			<path id="Path_1177" class="st46" d="M-587.5-247.3c0,0-1.1,1-2.4,2.2c1.4,1.3,2.2,3.8,3.7,6.1c0.2,0.3,0.5,0.6,0.8,0.9l3.3-5.7
				L-587.5-247.3z"/>
			<path id="Path_1178" class="st60" d="M-587.9-267.3c-0.7,1.9-0.8,4.4,0.4,6.1l-0.1,0.1c-1.7-1.5-2.1-4.3-1.7-6.5L-587.9-267.3z"
				/>
			<path id="Path_1179" class="st60" d="M-592.1-263.8c1.3,1,4.1,3,5.7,2.7l0,0.1c-1.7,0.5-4.7-1.3-6.2-2.2L-592.1-263.8z"/>
			<path id="Path_1180" class="st45" d="M-578-261.4c2.1,1.3,3.5,3.6,3.6,6.1c0,4-1.8,10.1-1.8,10.1l-1.5-0.4c0,0,0.3,1.1-0.2,1.6
				c0,0,0.2,0.3,0,0.5c-0.7,0.4-1.4,1-1.8,1.7c-0.6,1.1-4.4,1.8-6-0.4c-1.7-2.3-1.7-4.1-3.5-5S-589.9-265.1-578-261.4z"/>
			<path id="Path_1181" class="st62" d="M-581.9-259c0,0,5.2,4.6,7.9,4.6s7.7-3.4,6.5-7.5c-0.6-1.5-1.2-2.9-1.9-4.3
				c-0.9,3-4,4.7-7,3.9c0,0-0.1,0-0.1,0l2.6-3.8l-2.3-1.7l-4.7,3c-1.3-1.1-3.1-1.3-4.6-0.6c-2.5,1.3-2,4.3-2,4.3s-5.5-0.4-6.4,2.7
				s0,6.4,0,8.9s4.1,4.5,4.1,4.5l2.3-2.2c-0.4-1.8-0.3-3.6,0.4-5.3c1.1-2.5,2.1-0.5,2.1-0.5L-581.9-259z"/>
			<path id="Path_1182" class="st45" d="M-585.6-253c-0.1-1.5-1.3-2.7-2.8-2.8c-2.7-0.2-3.3,3.3-2,4.6c1.1,1.1,2.8,1.2,4,0.2
				C-586-251.6-585.7-252.3-585.6-253z"/>
			<path id="Path_1183" class="st46" d="M-586.5-252.8c0.1-0.7-0.4-1.4-1.2-1.6c-0.2,0-0.3,0-0.5,0c-0.7,0-1.3,0.6-1.3,1.4
				c0,0.6,0.4,1.1,1,1.2C-587.5-251.6-586.8-252-586.5-252.8z"/>
			<path id="Path_1184" class="st6" d="M-586.4-252.5c0-0.5-0.4-0.9-0.9-0.9c-0.5,0-0.9,0.4-0.9,0.9c0,0.5,0.4,0.9,0.9,0.9
				c0.1,0,0.1,0,0.2,0v1.9h0.7L-586.4-252.5L-586.4-252.5z"/>
			<g id="Group_420" transform="translate(11.574 71.288)">
				<path id="Path_1185" class="st51" d="M-643.4-258.2c-4-4-1.4-13.1-1.3-13.5c0-0.1,0.1-0.1,0.2-0.1c0.1,0,0.1,0.1,0.1,0.2l0,0
					c0,0.1-2.7,9.3,1.2,13.2c0.1,0.1,0.1,0.2,0,0.2C-643.3-258.1-643.4-258.1-643.4-258.2L-643.4-258.2z"/>
			</g>
			<g id="Group_421" transform="translate(6.952 81.674)">
				<path id="Path_1186" class="st51" d="M-632.6-253.5c-14.3-4-13-18-13-18.1c0-0.1,0.1-0.1,0.2-0.1c0.1,0,0.1,0.1,0.1,0.1
					c0,0.1-1.3,13.9,12.8,17.8c0.1,0,0.1,0.1,0.1,0.2S-632.6-253.5-632.6-253.5C-632.6-253.5-632.6-253.5-632.6-253.5L-632.6-253.5z
					"/>
			</g>
			<g id="Group_422" transform="translate(74.448)">
				<path id="Path_1187" class="st51" d="M-640.1-259.7c1.8-6.5-5.5-11.8-5.5-11.8c-0.1,0-0.1-0.1,0-0.2s0.1-0.1,0.2,0l0,0
					c0.1,0.1,7.5,5.4,5.6,12.1c0,0.1-0.1,0.1-0.2,0.1C-640-259.5-640.1-259.6-640.1-259.7z"/>
			</g>
			<g id="Group_423" transform="translate(15.853 89.845)">
				<path id="Path_1188" class="st44" d="M-624.8-230.3L-624.8-230.3c0.2-1.7,4.5-39,4.5-41.3c0-0.1-0.1-0.2-0.2-0.2
					s-0.2,0.1-0.2,0.2l0,0c0,2.2-4.3,39.8-4.5,41.1l-19.2,38.6l-1.1-0.7c-0.1,0.1-0.1,0.3-0.2,0.4l3.9,2.7c0-0.2,0-0.3,0-0.3
					l0.1-0.2l-2.4-1.6L-624.8-230.3z"/>
			</g>
			<path id="Path_1189" class="st59" d="M-588.2-230c-0.8,8.8-8.1,22.5-19.4,29.3c-2.4,1.4-4.9,2.6-7.6,3.5c0-0.9,0.1-1.7,0.1-2.4
				c19.4-6.6,26.5-27.6,25.7-32.7c-0.4-2.9-3.5-4.7-6.4-4.7c-5.9-0.1-9.6,7.2-11.9,12.8l0,0l-0.4-0.1c1.2-3.3,2.8-6.4,4.9-9.3l0,0
				c0.8-1,1.7-1.9,2.8-2.7c4.9-3.5,11.6-0.6,12.3,4C-588.1-231.7-588.1-230.9-588.2-230z"/>
			<path id="Path_1190" class="st61" d="M-586.7-206c-4.6-1.6-3.2-18.6-3.2-25.2s-8.3-5.9-8.3-5.9c-4.3,0.4-10.6,9.7-7.1,23.2
				s16.4,20,22.3,18.2c3.8-1.2,11.2-7.3,16-11.6c-0.8-1.6-1.6-3.1-2.6-4.5C-575.3-209.9-586.7-206-586.7-206z"/>
			<path id="Path_1191" class="st6" d="M-601.7-235c1.2-1.6,3.2-2.3,5.2-2c3.7,0.3,6.5,2,6.5,5.8c0-3.9-2.8-5.7-6.5-6
				c-1.3-0.3-2.7,0-3.9,0.7c-8.7,5.5-9.9,29.2,7.4,38.8c1.2,0.6,2.4,1.1,3.6,1.5C-605.8-201.9-610.8-225.2-601.7-235z"/>
		</g>
		<g id="Group_432" transform="translate(0 24.805)">
			<path id="Path_1192" class="st44" d="M-552.9-105.2c0,0.9-20.8,1.5-46.4,1.5c-25.6,0-46.4-0.7-46.4-1.5s20.8-1.5,46.4-1.5
				C-573.7-106.8-552.9-106.1-552.9-105.2z"/>
			<path id="Path_1193" class="st46" d="M-585.6-240.1c1.4-0.4,2.9,0.1,3.8,1.1c1.8,1.8,11.2,16.4,11.2,16.4s13.5-11.3,14.3-12.1
				s0.7-3.6,0.8-4.1c0.6-0.8,1.4-1.4,2.3-1.8c0.4,0-0.8,1.8-0.8,1.8c0.9-0.2,1.7-0.9,2-1.8c0.5-1.4,0.3-5.2,0.8-5.2s0.5,1.8,0.5,1.8
				s-0.2-3,0.5-2.7s0.5,2.9,0.5,2.9s0.2-2.1,0.7-2.1c0.5,0,0.2,2.5,0.2,2.5s0.4-1.5,0.8-1.5c0.4,0-0.5,5.8-1.3,7.1s-5.3,4.3-5.3,4.3
				s-13.1,17.4-15.2,17.4c-2.2,0-13.3-11.8-15.1-16.3C-586.1-234.6-586.4-237.4-585.6-240.1z"/>
			<path id="Path_1194" class="st52" d="M-570.6-222.5c0,0-9.3-14.6-11.2-16.4c-1-1.1-2.4-1.5-3.8-1.1c-0.7,2.7-0.5,5.5,0.6,8
				c1.8,4.5,13,16.3,15.1,16.3c1.3,0,6.3-6,10.2-10.9c-0.9-0.9-1.7-1.9-2.6-2.8C-566.2-226.2-570.6-222.5-570.6-222.5z"/>
			<path id="Path_1195" class="st45" d="M-590-255.1c0,0,0.1,5.5-1.1,7.4c-1.2,1.9-4.5,6.8-4.5,6.8s3.5,9.8,5.5,13.9
				s0.4,13.5-1.9,15.8c-2.3,2.3-9.8,6.8-11.9,14.7c-2.1,7.9-9.2,38.3-9.2,38.3c-1.5,0.2-2.8,1-3.8,2.1c-2,2-13.8,35.8-13.8,35.8
				l-2.6,0.6c0.4,1.1,0.6,2.2,0.6,3.4c0,1.7-1.8,4.5-1.3,5.9c0.7,1.2,1.5,2.4,2.5,3.4c0,0-0.3-4.9,0.8-6c1.1-1.1,1.8-6.7,1.8-6.7
				s22.1-33.3,22.4-33.7s21.1-32.9,25.1-48.7c4-15.8,3.8-20.6,3.8-20.6s2.7-3.9,2.7-6.3s-8-7.3-10.5-11.5s2.1-12.6,2.1-12.6
				L-590-255.1z"/>
			<path id="Path_1196" class="st46" d="M-589.8-250c0.9,1.8,2.2,3.5,3.8,4.7c0.5-2.8,1.4-5.5,2.8-8l-6.8-1.9c0,1.4-0.1,2.8-0.2,4.1
				C-590.1-250.7-589.9-250.3-589.8-250z"/>
			<path id="Path_1197" class="st46" d="M-589.7-216.3c-0.3,1.9-1,3.6-2.2,5.2c-2.3,2.3-9.8,6.8-11.9,14.7
				c-2.1,7.9-9.2,38.3-9.2,38.3c-1.5,0.2-2.8,1-3.8,2.1c-2,2-13.8,35.8-13.8,35.8l-2.6,0.6c0.4,1.1,0.6,2.2,0.6,3.4
				c0,1.7-1.8,4.5-1.3,5.9c0.7,1.2,1.5,2.4,2.5,3.4c0,0-0.3-4.9,0.8-6s1.8-6.7,1.8-6.7s22.1-33.3,22.4-33.7s21.1-32.9,25.1-48.7
				c0.8-3.1,1.4-5.8,1.9-8.1C-582.9-212.4-586.2-214.4-589.7-216.3z"/>
			<path id="Path_1198" class="st63" d="M-603.8-196.5c-2.1,7.9-9.2,38.3-9.2,38.3c-1.5,0.2-2.8,1-3.8,2.1
				c-1.6,1.6-9.1,22.4-12.4,31.6c0.6,0.8,1.3,1.5,1.9,2.3c5-7.6,20.6-31,20.8-31.3c0.3-0.3,19.3-30.1,24.5-46.5
				c-3.4-3.5-6.6-7.4-10.1-10.9C-594.8-208.6-601.8-204-603.8-196.5z"/>
			<path id="Path_1199" class="st43" d="M-574.9-229.1c0-2.2-6.8-6.5-9.8-10.5c-3.2-0.7-6.1-2.7-9.3-3.8c-0.9,1.4-1.6,2.4-1.6,2.4
				s3.5,9.8,5.5,13.9s0.4,13.5-1.9,15.8c-0.1,0.1-0.2,0.2-0.3,0.3c3.5,3.6,6.7,7.4,10.1,10.9c0.2-0.8,0.4-1.5,0.6-2.2
				c4-15.8,3.8-20.6,3.8-20.6S-574.9-226.7-574.9-229.1z"/>
			<path id="Path_1200" class="st45" d="M-590.5-205.3c0,0,11.1,33.9,13.8,43.8s13.1,49,13.1,49s1.8,4.3,3.8,5.3
				c0,0-3.8,0.3-4.4-1.2c-0.7-1.4-0.8-4.1-2.4-4.1s-1.6-1.2-0.7-3.3c1-2.1-29-59-31.4-63.9c-2.4-4.9-6-14.1-4.7-18.1
				s7.2-11.2,8.9-11.2C-592.9-208.9-590.5-205.3-590.5-205.3z"/>
			<path id="Path_1201" class="st64" d="M-586.7-200.1c-1-2.8-2.3-9.3-6.5-10c-1.6-0.3-9.2,8.1-10.6,12.1c-1.3,3.9,2.6,13.5,5,18.4
				c2.1,4.3,25.3,48.3,30.5,60.8c0.9-0.4,1.8-0.7,2.7-1c-3.2-11.9-9.1-34.4-11.1-41.5C-579.4-171.4-583.4-190.7-586.7-200.1z"/>
			<g id="Group_425" transform="translate(47.692 72.084)">
				<path id="Path_1202" class="st65" d="M-631.2-230.1c0-2.1-0.2-4.1-0.7-6.1c-0.2-0.9-12.9-34-13.4-35.4c0-0.1-0.2-0.2-0.3-0.1
					s-0.2,0.2-0.1,0.3l0,0c0.1,0.3,13.1,34.5,13.4,35.4c0.4,2,0.7,4,0.7,6c0,2.3,15.3,35.3,16.7,38.5l-1.2,0.5l0,0
					c0,0.1,0.1,0.1,0.1,0.2c0.9-0.4,1.8-0.7,2.7-1l-0.1-0.2l-1.1,0.4C-620.3-204.4-631.2-228.3-631.2-230.1z"/>
			</g>
			<path id="Path_1203" class="st59" d="M-568.4-114.5c0,0-0.7,0.1-0.7,1.5c0,1.4,2,7.8,2,7.8l0.5-0.1c0,0-0.8-5.9,0.6-5.3
				c1.4,0.6,2.3,4.1,2.3,4.1c1.7,0.8,3.6,1.3,5.5,1.2c3.4,0.1-1.7-2.3-1.7-2.3l-3.4-0.6c0,0-1.7-4-3-5.3S-568.4-114.5-568.4-114.5z"
				/>
			<path id="Path_1204" class="st58" d="M-619-211.1l27,14.8l-6.8,20.5l-29.9-17L-619-211.1z"/>
			<path id="Path_1205" class="st66" d="M-617.5-205.9l6.1,14.8l17.3-3.5l-17,2.8L-617.5-205.9z"/>
			<g id="Group_426" transform="translate(21.22 77.125)">
				<path id="Path_1206" class="st6" d="M-621.4-257.2C-621.5-257.2-621.5-257.2-621.4-257.2l-24.2-14.3c-0.1,0-0.1-0.1-0.1-0.2
					c0-0.1,0.1-0.1,0.2-0.1l0,0l24.1,14.3c0.1,0,0.1,0.1,0.1,0.2C-621.3-257.2-621.4-257.2-621.4-257.2L-621.4-257.2z"/>
			</g>
			<path id="Path_1207" class="st66" d="M-592-196.3l-6.8,20.5l-29.9-17l29.4,16.1L-592-196.3z"/>
			<path id="Path_1208" class="st45" d="M-591.1-238.7c1.7,2.1,2.1,5.3-0.8,9.9c-2.9,4.5-7.5,8.3-10.6,16.8s-7,18.7-6.1,21.3
				s1.1,8.3,0.7,8.7c-0.2,0.2-0.4,0.4-0.7,0.5c0,0,0.5,1-0.2,1.2c-0.4,0.2-0.9,0.2-1.3,0.1c-0.2-0.1-0.4-0.1-0.6,0
				c-0.1,0-0.3,0.1-0.4,0.1c-0.3,0-1-0.6-1.2-1c-0.1-0.1-0.2-0.3-0.4-0.3c-0.4-0.2-0.7-0.4-1.1-0.7c-0.1-0.1-0.1-0.1-0.1-0.2
				c-0.4-0.7-0.5-1.6-0.1-2.4c0.8-1.6,2.3-4.5,2.3-5.6c0.1-1.5,2-17.2,2-17.2s8.7-26.8,12.2-30.3S-592.1-239.9-591.1-238.7z"/>
			<path id="Path_1209" class="st43" d="M-591.9-228.9c2.9-4.5,2.5-7.7,0.8-9.9c-0.9-1.1-2.8-2.6-6.3,0.8s-12.2,30.3-12.2,30.3
				s-0.5,4.4-1.1,8.8c1.2-0.1,2.3-0.1,3.5-0.1c1.3-4,3.1-8.8,4.6-13.2C-599.4-220.6-594.8-224.4-591.9-228.9z"/>
			<path id="Path_1210" class="st52" d="M-590.7-231.1c0.9-2.5,1.2-5.1-0.4-7.2c-0.6-1.1-1.8-1.7-3.1-1.5c-1.2,0.4-2.3,1-3.2,1.9
				c2.2-2.5,4.6-3.4,6.6-0.7c1.2,1.6,1.5,3.7,0.8,5.7C-590.1-232.3-590.4-231.7-590.7-231.1z"/>
			<path id="Path_1211" class="st47" d="M-588.1-234.6c-1-4.8-3.7-6.6-6.5-6.3c-6.2,0.3-21.5,28.3-24.5,33.8l1.5,0.8
				c2.7-5.9,17.3-34.1,23.4-33.8c6.4,0.2,5.9,10.4,4.8,16.7c-1.1,6.6-6.1,19.7-8.8,26.4l1.6,0.6
				C-591.3-210.8-586.3-225.2-588.1-234.6z"/>
			<path id="Path_1212" class="st47" d="M-621.9-200.2L-621.9-200.2c-0.6-0.3-0.8-1.1-0.5-1.7l3.3-6.2l2.2,1.2l-3.3,6.2
				C-620.6-200.1-621.3-199.8-621.9-200.2C-621.9-200.2-621.9-200.2-621.9-200.2z"/>
			<path id="Path_1213" class="st47" d="M-600.2-189.5L-600.2-189.5c-0.6-0.3-1-1-0.7-1.6c0,0,0,0,0,0l2.6-6.5l2.3,0.9l-2.6,6.5
				C-598.8-189.5-599.5-189.2-600.2-189.5z"/>
			<path id="Path_1214" class="st51" d="M-550.4-238.1l-3.4-0.5c-0.3,0-0.6-0.3-0.5-0.7l0.9-10.7c0-0.3,0.3-0.6,0.7-0.6c0,0,0,0,0,0
				l4.4,0.6c0.3,0,0.6,0.4,0.5,0.7c0,0,0,0,0,0l-2,10.5C-549.7-238.2-550.1-238-550.4-238.1z"/>
			<path id="Path_1215" class="st59" d="M-632.9-119.8c0,0-0.6-0.4-1.6,0.6s-4,7-4,7l0.4,0.3c0,0,3.5-4.8,4.1-3.4
				c0.6,1.4-1.2,4.6-1.2,4.6c0.6,1.8,1.7,3.4,3.1,4.7c2.4,2.4,0.4-2.8,0.4-2.8l-2-2.8c0,0,1.5-4.1,1.5-5.9S-632.9-119.8-632.9-119.8
				z"/>
			<path id="Path_1216" class="st46" d="M-552.3-240.5c0,0,0.1,1.2-2,1.4l-0.4,0.8l0.3-1.6L-552.3-240.5z"/>
			<path id="Path_1217" class="st44" d="M-552.5-249.2l-0.8,8l3,0.3l1.5-7.6L-552.5-249.2z"/>
			<g id="Group_427" transform="translate(41.777 21.176)">
				<path id="Path_1218" class="st51" d="M-640.4-266.1c-4.2,0-5.3-5.4-5.3-5.5c0-0.1,0-0.2,0.1-0.2s0.2,0,0.2,0.1l0,0
					c0,0.1,1.1,5.2,5,5.2c0.1,0,0.2,0,0.2,0.1C-640.2-266.2-640.3-266.1-640.4-266.1C-640.4-266.1-640.4-266.1-640.4-266.1
					L-640.4-266.1z"/>
			</g>
			<g id="Group_428" transform="translate(11.389 107.681)">
				<path id="Path_1219" class="st51" d="M-645.6-235.4c-0.4-0.1,0.1,0.1,5.3-21.3c3.3-13.6,14.2-15,14.4-15.1
					c0.1,0,0.2,0.1,0.1,0.2c0,0.1,0,0.1-0.1,0.1c-0.1,0-10.8,1.5-14.1,14.8c-3.3,13.5-5.4,21.1-5.5,21.1
					C-645.4-235.4-645.5-235.4-645.6-235.4C-645.6-235.4-645.6-235.4-645.6-235.4z"/>
			</g>
			<g id="Group_429" transform="translate(31.826 87.595)">
				<path id="Path_1220" class="st46" d="M-641.9-269.2c0-0.1,0-0.2-0.2-0.2c-0.1,0-0.2,0-0.2,0.2c-0.1,0.5,0,0.9,0.1,1.4
					c0,0,0.1,0,0.1,0C-642.2-268.3-642.1-268.8-641.9-269.2z"/>
				<path id="Path_1221" class="st46" d="M-644.2-270.5c0,0.3-0.1,0.9-0.1,1.4c0.1,0,0.1,0.1,0.2,0.2c0.1-0.7,0.3-1.5,0.3-1.5
					c0-0.1-0.1-0.2-0.2-0.2S-644.2-270.6-644.2-270.5z"/>
				<path id="Path_1222" class="st46" d="M-645.4-271.6c-0.1,0.4-0.2,1-0.3,1.6c0,0.1,0.1,0.1,0.1,0.2l0,0c0.2-0.7,0.5-1.3,0.6-1.6
					c0-0.1,0-0.2-0.1-0.3C-645.2-271.8-645.3-271.7-645.4-271.6L-645.4-271.6z"/>
			</g>
			<g id="Group_430" transform="translate(41.077 2.211)">
				<path id="Path_1223" class="st63" d="M-638.1-260.5c0,0-2.9-0.3-3.6,0.9c-0.4,0.8-0.3,1.8,0.2,2.6c0,0-1.2-0.6-0.6,2.2
					c0.6,2.8,8.8,6.5,10.4,1.1S-637.6-260.5-638.1-260.5z"/>
				<path id="Path_1224" class="st63" d="M-640.3-261.6c-3.6-0.2-5.2,1.6-5.3,4.2l1.3,0c0-0.3,0-0.6,0-0.9c0.3-1.7,1.3-2.3,2.8-2.7
					c1.1-0.2,2.7-0.4,3.4,0.5l0.1-0.1C-638.6-261.2-639.4-261.6-640.3-261.6z"/>
				<path id="Path_1225" class="st45" d="M-619.8-266.4c0.5,1.3,0.8,2.8,0.8,4.2c0,2.2-1.6,3-1.6,3.7c0,0.6,2.1,3,2.5,3.3
					c0.5,0.4-1,1.4-1.2,1.4s0,0.7,0.2,0.8s0.4,0.9-0.7,1.1c0,0,0.3,0.9,0.1,1.1c-0.2,0.1-0.4,0.2-0.6,0.2c-0.2,0-0.4,0.1-0.5,0.3
					c-0.2,0.3,0.1,1.2-0.4,1.5c-1.5,0.8-7-1-9.6-5.7s-2.9-11.3-0.3-12.4C-628.6-268-620.5-267.8-619.8-266.4z"/>
				<path id="Path_1226" class="st64" d="M-619.8-266.4c0,0-4.5,6-6.1,6.5c-1.7,0.5-1.9,1.2-1.9,1.2s-3.6,1.6-3.6,3.1
					c0,1.4-6.9-2.3-6.9-6.2c0-3.9,1.7-7.9,6.1-9.4S-619.1-269.9-619.8-266.4z"/>
				<path id="Path_1227" class="st45" d="M-627.1-259c0,0,0.7-0.9-0.7-1.9c-1.4-1-3.9-0.1-3.9,1.5c0,1.5,0.9,2.1,2.4,2.1
					C-628.3-257.4-627.5-258.1-627.1-259z"/>
				<path id="Path_1228" class="st46" d="M-627.8-258.9c0-0.4-0.1-0.7-1.3-0.7s-1.8,1-1.3,1.6c0.6,0.6,1.5,0.6,2.1,0.1
					C-628-258.2-627.8-258.6-627.8-258.9z"/>
			</g>
			<g id="Group_431" transform="translate(45.358)">
				<path id="Path_1229" class="st51" d="M-645.6-264L-645.6-264c-0.1,0-0.1,0-0.1-0.1c0,0,0,0,0,0c0.3-5.4,6-7.6,6-7.6
					c0.1,0,0.1,0,0.1,0.1c0,0.1,0,0.1-0.1,0.1C-639.6-271.5-645.2-269.4-645.6-264C-645.5-264.1-645.5-264-645.6-264z"/>
			</g>
		</g>
	</g>
</g>
</svg>
