<?xml version="1.0" encoding="utf-8"?>
<!-- Generator: Adobe Illustrator 21.1.0, SVG Export Plug-In . SVG Version: 6.00 Build 0)  -->
<svg version="1.1" xmlns="http://www.w3.org/2000/svg" xmlns:xlink="http://www.w3.org/1999/xlink" x="0px" y="0px"
	 viewBox="0 0 211.1 100" style="enable-background:new 0 0 211.1 100;" xml:space="preserve">
<style type="text/css">
	.st0{display:none;}
	.st1{display:inline;}
	.st2{fill:none;stroke:#282827;stroke-miterlimit:10;}
	.st3{fill:#FFFFFF;}
	.st4{fill:#58595B;}
	.st5{fill:#231F20;}
	.st6{fill:url(#SVGID_1_);}
	.st7{fill:url(#SVGID_2_);}
	.st8{fill:#FFFFFF;stroke:#000000;stroke-width:0.5;stroke-miterlimit:10;}
	.st9{fill:#9597C7;}
	.st10{fill:#BBD538;}
	.st11{fill:url(#SVGID_3_);}
	.st12{fill:url(#SVGID_4_);}
	.st13{fill:url(#SVGID_5_);}
	.st14{display:inline;fill:#352E70;}
	.st15{display:inline;fill:#595CA8;}
	.st16{display:inline;fill:#A9AED3;}
	.st17{display:inline;fill:#CDDF77;}
	.st18{display:inline;fill:#BBD538;}
	.st19{font-family:'Roboto-Bold';}
	.st20{font-size:62.3787px;}
	.st21{fill:#595CA8;}
	.st22{fill:url(#SVGID_6_);}
	.st23{fill:url(#SVGID_7_);}
	.st24{fill:#515499;}
	.st25{fill:#494C8A;}
	.st26{fill:#41437B;}
	.st27{fill:#393B6B;}
	.st28{fill:#686AAF;}
	.st29{fill:#7779B7;}
	.st30{fill:#8688BF;}
	.st31{fill:none;stroke:#595CA8;stroke-width:9.4233;stroke-miterlimit:10;}
	.st32{fill:#BAD54D;}
	.st33{fill:none;stroke:#595CA8;stroke-width:7.2858;stroke-miterlimit:10;}
	.st34{fill:none;stroke:#BAD54D;stroke-width:6.2822;stroke-miterlimit:10;}
	.st35{fill:none;stroke:#595CA8;stroke-width:6.0983;stroke-miterlimit:10;}
	.st36{fill:none;stroke:#595CA8;stroke-width:4.715;stroke-miterlimit:10;}
	.st37{fill:url(#SVGID_8_);}
	.st38{fill:#AAC233;}
	.st39{fill:#9AAF2E;}
	.st40{fill:#899B29;}
	.st41{fill:#778824;}
	.st42{fill:#C1D84A;}
	.st43{fill:#C7DC5C;}
	.st44{fill:#CDE06E;}
	.st45{fill:#D3E480;}
	.st46{fill:url(#SVGID_9_);}
	.st47{fill:url(#SVGID_10_);}
	.st48{fill:#FFFFFF;stroke:#000000;stroke-width:0.4338;stroke-miterlimit:10;}
	.st49{fill:#FFD72E;}
	.st50{fill:#FFE02C;}
	.st51{fill:url(#SVGID_11_);}
	.st52{fill:url(#SVGID_12_);}
	.st53{fill:#E8C42A;}
	.st54{fill:#D1B026;}
	.st55{fill:#BA9D22;}
	.st56{fill:#A3891E;}
	.st57{fill:#FFDA41;}
	.st58{fill:#FFDE54;}
	.st59{fill:#FFE167;}
	.st60{fill:#FFE57A;}
</style>
<g id="B_x26_W" class="st0">
</g>
<g id="Monochrome" class="st0">
	<text transform="matrix(1 0 0 1 76.3851 30.4101)" class="st15 st19 st20">GC</text>
</g>
<g id="Green" class="st0">
</g>
<g id="Yellow" class="st0">
</g>
<g id="Final">
	<g>
		<g>
			<path class="st10" d="M59.9,34.2c-0.8,0-1.4,0.4-1.9,0.9H32l-1.1,2.7l-5.2-24.2L19.9,40l-4.4-21l-5,16.3h-6v3h8.2l2.1-7l4.8,23.2
				l5.9-26.6l4.4,20.4l4-10.1H58c0.4,0.5,1.1,0.9,1.9,0.9c1.3,0,2.4-1.1,2.4-2.4C62.3,35.3,61.2,34.2,59.9,34.2z"/>
			<g>
				<path class="st28" d="M45,9.5c0-4.5-3.6-8.1-8.1-8.1H34C33.3,0.5,32.3,0,31.1,0h-3.2c-2,0-3.7,1.7-3.7,3.7s1.7,3.7,3.7,3.7h3.2
					c1.2,0,2.2-0.5,2.9-1.4h2.9c2,0,3.6,1.6,3.6,3.6v23.6H45V9.5z"/>
				<circle class="st28" cx="22.5" cy="64.2" r="3.2"/>
				<path class="st28" d="M59.9,28.6c-3.2,0-5.9,1.9-7.2,4.5H57c0.8-0.6,1.8-1,2.8-1c2.5,0,4.5,2,4.5,4.5c0,2.5-2,4.5-4.5,4.5
					c-1,0-2-0.4-2.7-0.9h-4.5c1,2,2.8,3.5,4.9,4.1l0,37.8c0,0.1,0,5.2-3.8,9c-2.8,2.8-6.9,4.2-12.4,4.2c-6.9,0-11.8-2.1-14.5-6.2
					c-2.1-3.1-2.1-6.3-2.1-6.3v-8.9h12.1c4.5,0,8.1-3.6,8.1-8.1V40.2h-4.6v25.8c0,2-1.6,3.6-3.6,3.6H8.1c-2,0-3.6-1.6-3.6-3.6V9.5
					c0-2,1.6-3.6,3.6-3.6h3.4c0.7,0.8,1.7,1.4,2.9,1.4h3.2c2,0,3.7-1.7,3.7-3.7S19.6,0,17.6,0h-3.2c-1.2,0-2.2,0.5-2.9,1.4H8.1
					C3.6,1.4,0,5,0,9.5v56.4c0,4.5,3.6,8.1,8.1,8.1h12.1V83c0,0.2,0.2,17,21.2,17c6.7,0,12-1.9,15.6-5.6c5.1-5.2,5.1-12,5.1-12.3
					V44.3c3.3-1,5.8-4.1,5.8-7.7C67.9,32.2,64.3,28.6,59.9,28.6z"/>
			</g>
		</g>
		<g>
			<path class="st10" d="M78.9,22.3l0.1,4.5c1-1.7,2.3-2.9,3.8-3.7c1.5-0.8,3.2-1.2,5.1-1.2c4.3,0,7.1,1.8,8.3,5.3
				c1-1.7,2.3-3,3.9-4c1.6-0.9,3.5-1.4,5.4-1.4c5.9,0,8.9,3.2,9,9.7v18.4h-3.1V31.7c0-2.5-0.5-4.3-1.6-5.5c-1-1.2-2.7-1.8-5.1-1.8
				c-2.2,0-4,0.7-5.5,2.1c-1.5,1.4-2.3,3.1-2.5,5.1v18.2h-3.1V31.5c0-2.4-0.6-4.1-1.7-5.3C91,25,89.3,24.4,87,24.4
				c-1.9,0-3.6,0.5-4.9,1.6c-1.4,1.1-2.4,2.7-3.1,4.9v18.9H76V22.3H78.9z"/>
			<path class="st10" d="M131.1,45.5l8-23.2h3.3l-11.8,32.2l-0.6,1.4c-1.5,3.3-3.8,5-7,5c-0.7,0-1.5-0.1-2.3-0.4l0-2.5l1.6,0.2
				c1.5,0,2.7-0.4,3.6-1.1c0.9-0.7,1.7-2,2.4-3.8l1.3-3.7l-10.4-27.3h3.3L131.1,45.5z"/>
			<path class="st28" d="M175.7,45.2c-1.4,1.6-3.3,2.9-5.8,3.8c-2.5,0.9-5.3,1.4-8.3,1.4c-3.2,0-6-0.7-8.4-2.1
				c-2.4-1.4-4.3-3.4-5.6-6.1c-1.3-2.7-2-5.8-2-9.4v-2.5c0-3.7,0.6-6.9,1.9-9.6c1.2-2.7,3-4.8,5.4-6.2c2.3-1.4,5.1-2.2,8.3-2.2
				c4.4,0,7.8,1,10.3,3.1c2.5,2.1,3.9,5.1,4.4,9.1h-7.4c-0.3-2.1-1.1-3.7-2.3-4.7c-1.2-1-2.8-1.5-4.8-1.5c-2.6,0-4.6,1-5.9,2.9
				c-1.4,2-2,4.9-2.1,8.7v2.4c0,3.9,0.7,6.8,2.2,8.8c1.5,2,3.6,3,6.5,3c2.9,0,4.9-0.6,6.1-1.8V36h-6.9v-5.6h14.6V45.2z"/>
			<path class="st28" d="M211,37.5c-0.3,4-1.8,7.1-4.4,9.4c-2.7,2.3-6.2,3.4-10.5,3.4c-4.8,0-8.5-1.6-11.2-4.8
				c-2.7-3.2-4.1-7.6-4.1-13.2v-2.3c0-3.6,0.6-6.7,1.9-9.4c1.3-2.7,3-4.8,5.4-6.2c2.3-1.5,5-2.2,8.1-2.2c4.3,0,7.7,1.1,10.3,3.4
				c2.6,2.3,4.1,5.5,4.5,9.6h-7.6c-0.2-2.4-0.9-4.1-2-5.2c-1.1-1.1-2.9-1.6-5.2-1.6c-2.5,0-4.4,0.9-5.7,2.7s-1.9,4.7-1.9,8.5v2.8
				c0,4,0.6,6.9,1.8,8.8c1.2,1.8,3.1,2.8,5.7,2.8c2.4,0,4.1-0.5,5.3-1.6c1.2-1.1,1.8-2.7,2-5H211z"/>
		</g>
	</g>
</g>
</svg>
