<svg xmlns="http://www.w3.org/2000/svg" width="305" height="192.315" viewBox="0 0 305 192.315">
    <defs>
        <style>
            .cls-1{fill:#263238}.cls-2{fill:#efefef}.cls-3{fill:#595ca8}.cls-4,.cls-6{opacity:.3}.cls-5{opacity:.1}.cls-7{opacity:.4}.cls-8{fill:#ffbe9d}.cls-9{fill:#eb996e}.cls-10{fill:#455a64}
        </style>
    </defs>
    <g id="Layer_8" transform="translate(3.1 -5.985)">
        <g id="freepik--Floor--inject-61_4_">
            <path id="Path_1725" d="M301.9 196.9c0 .1-68.3.2-152.5.2s-152.5-.1-152.5-.2 68.3-.2 152.5-.2 152.5.1 152.5.2z" class="cls-1" data-name="Path 1725"/>
        </g>
        <g id="Group_1844" data-name="Group 1844">
            <g id="freepik--background-complete--inject-96">
                <path id="Path_1726" d="M160.4 197.1c-7.8-3.7-10.9-12.5-12-20.7-.2-1.4-.6-2.8-.1-4.1a2.725 2.725 0 0 1 3.1-2c1.1.3 1.7 1.4 2.5 2.3a8.417 8.417 0 0 0 3.7 2.5 3.048 3.048 0 0 0 2.8-.2c1.1-.8.9-2.5.7-3.8-.4-2.5-.9-5-1.3-7.5a13.941 13.941 0 0 1-.3-4.1 4.113 4.113 0 0 1 2.2-3.3 2.52 2.52 0 0 1 3.4 1.2 8.585 8.585 0 0 1 .3 1.7 1.383 1.383 0 0 0 1.1 1.2c.6.1 1-.4 1.4-.9a17.5 17.5 0 0 0 2.4-5.4 21.821 21.821 0 0 1 2.2-5.5 7.313 7.313 0 0 1 4.5-3.6 4.381 4.381 0 0 1 5 2.2c.8 1.8 0 3.9-.9 5.7a28.1 28.1 0 0 1-5.3 7 3.045 3.045 0 0 0-.9 1.3c-.1 1 .9 1.7 1.8 1.9a11.5 11.5 0 0 0 3.2-.2 3.09 3.09 0 0 1 2.9 1.1c.8 1.3-.1 2.9-1.1 4.1a26.916 26.916 0 0 1-6.9 5.7 7.92 7.92 0 0 0-2.6 1.9 2.423 2.423 0 0 0-.3 3 2.557 2.557 0 0 0 3 .6c1-.4 1.8-1.1 2.8-1.6 1.7-1 4.2-1.3 5.6.1a4.571 4.571 0 0 1 1.1 3.7 8.536 8.536 0 0 1-1.5 3.7 26.076 26.076 0 0 1-9.8 9.7c-4.3 2-8.2 3.1-12.7 2.3" class="cls-2" data-name="Path 1726"/>
                <path id="Path_1727" d="M161.6 191.6a130.83 130.83 0 0 1 2.6-13.9l.9-3.6c.3-1.2.6-2.4.9-3.5a58.739 58.739 0 0 1 2.4-6.3c.9-2 1.7-3.8 2.6-5.6.8-1.7 1.7-3.3 2.5-4.7a47.674 47.674 0 0 1 4.3-6.4c.6-.7 1-1.3 1.3-1.6.1-.2.3-.3.4-.4l.1-.1a.1.1 0 0 1-.1.1l-.3.4c-.3.4-.7.9-1.3 1.6a40.117 40.117 0 0 0-4.2 6.5c-.8 1.4-1.6 3-2.4 4.7s-1.7 3.6-2.6 5.6q-1.35 3.15-2.4 6.3c-.3 1.1-.6 2.3-.9 3.5l-.9 3.6a133.869 133.869 0 0 0-2.6 13.8" class="cls-2" data-name="Path 1727"/>
                <path id="Path_1728" d="M166.1 170.6a1.421 1.421 0 0 1-.2-.6c-.1-.4-.3-.9-.5-1.5-.4-1.3-.9-3.2-1.5-5.2s-1.1-3.8-1.5-5.2c-.2-.7-.4-1.2-.5-1.5-.1-.2-.1-.4-.2-.6a2.186 2.186 0 0 0 .3.5 7.7 7.7 0 0 1 .6 1.5 45.09 45.09 0 0 1 1.6 5.1c.6 2 1 3.8 1.4 5.2a15.6 15.6 0 0 0 .5 1.6c-.1.4-.1.6 0 .7z" class="cls-2" data-name="Path 1728"/>
                <path id="Path_1729" d="M182.9 164.5a1.445 1.445 0 0 1-.7.2c-.5.1-1.1.3-1.9.5-1.6.5-3.7 1.1-6 2s-4.4 1.7-5.9 2.4c-.7.3-1.3.6-1.8.8l-.6.3c.2-.1.4-.3.6-.4.4-.2 1-.5 1.7-.9 1.5-.7 3.5-1.6 5.9-2.5a61.7 61.7 0 0 1 6.1-1.9c.8-.2 1.4-.3 1.9-.4a1.7 1.7 0 0 1 .7-.1z" class="cls-2" data-name="Path 1729"/>
                <path id="Path_1730" d="M161.8 191.3l-.2-.2-.4-.6c-.3-.5-.8-1.2-1.4-2.2-1.2-1.9-2.7-4.5-4.4-7.4s-3.2-5.5-4.3-7.4l-1.4-2.2-.4-.6c0-.1-.1-.1-.1-.2l.2.2a5.922 5.922 0 0 1 .4.6c.3.5.8 1.2 1.4 2.2 1.2 1.9 2.7 4.5 4.4 7.4s3.2 5.5 4.3 7.4l1.4 2.2a3.113 3.113 0 0 0 .4.6.31.31 0 0 0 .1.2z" class="cls-2" data-name="Path 1730"/>
                <path id="Path_1731" d="M183.6 179.9c-.1.1-.1.1-.2.1l-.6.3-2.3 1.2c-2 1-4.7 2.5-7.7 4.1s-5.7 3-7.7 4a21.508 21.508 0 0 1-2.4 1.1l-.7.3a.349.349 0 0 0-.2.1c.1-.1.1-.1.2-.1l.6-.3 2.3-1.2c2-1 4.7-2.5 7.7-4.1s5.7-3 7.7-4a21.508 21.508 0 0 1 2.4-1.1l.7-.3c0-.1.1-.1.2-.1z" class="cls-2" data-name="Path 1731"/>
                <path id="Path_1732" d="M103.7 99.7s-5.4.7-2.4 12.5a135.857 135.857 0 0 0 5.6 17.9s.4 2.7-1.8 2.6-6.5-1.8-8 .5c-1.5 2.4-.2 5.3 3.2 8.4 3.4 3 10.5 10 11.2 10.6.6.6 1.1 1.9-.4 2.1s-12-1.1-12.2 4c-.3 5 10.5 11.9 11.7 12.7s1.4 1.4 1.1 2.1-3.7-.1-6.7-.3-6.5 0-6.4 2.9 5.8 10.2 22.3 15.7l7.8 2 5.8-5.7c11.7-13 12.9-22.2 11.6-24.7-1.4-2.6-4.5-1-7 .6-2.5 1.7-5.1 4.1-5.7 3.6s-.7-1.1-.1-2.3 6.6-12.6 3.8-16.8-11.2 2.1-12.6 2.6-1.6-.8-1.4-1.6 3-10.4 4.4-14.8c1.4-4.3 1.2-7.5-1.4-8.8-2.4-1.3-5.4 2.4-7.2 3.6-1.8 1.1-2.8-1.4-2.8-1.4a142.673 142.673 0 0 0-4-18.3c-3.4-11.7-8.5-9.6-8.4-9.7" class="cls-2" data-name="Path 1732"/>
                <path id="Path_1733" d="M128.6 195.4c-2.3-8.6-6.3-24-9.7-37.3-3.4-13.2-6.5-25.2-8.8-33.8-1.2-4.3-2.1-7.8-2.7-10.2-.3-1.2-.6-2.1-.7-2.8l-.2-.7c0-.2-.1-.2-.1-.2a.31.31 0 0 0 .1.2c.1.1.1.4.2.7.2.6.5 1.6.8 2.8.7 2.4 1.6 5.9 2.8 10.2 2.3 8.6 5.5 20.6 8.9 33.8s7.3 28.6 9.6 37.3" class="cls-2" data-name="Path 1733"/>
                <path id="Path_1734" d="M103.2 135.9a2.186 2.186 0 0 1 .5.3 13.7 13.7 0 0 0 1.4.8c1.1.7 2.7 1.8 4.3 3l4.3 3 1.3.9a1.756 1.756 0 0 1 .5.4 2.186 2.186 0 0 1-.5-.3 13.7 13.7 0 0 0-1.4-.8c-1.1-.7-2.6-1.8-4.3-3l-4.3-3-1.3-.9a.7.7 0 0 1-.5-.4z" class="cls-2" data-name="Path 1734"/>
                <path id="Path_1735" d="M116.1 144c-.1 0 2-3.3 4.5-7.3s4.7-7.2 4.7-7.2c.1 0-2 3.3-4.5 7.3s-4.7 7.2-4.7 7.2z" class="cls-2" data-name="Path 1735"/>
                <path id="Path_1736" d="M120.4 164.5c.1-.2.3-.3.4-.4l1.2-1.1c1-.9 2.4-2.2 4-3.6 1.5-1.4 2.8-2.8 3.8-3.8.5-.5.8-.9 1.1-1.2a1 1 0 0 1 .5-.4 1.756 1.756 0 0 1-.4.5 10.021 10.021 0 0 1-1.1 1.2 44.886 44.886 0 0 1-3.8 3.8c-1.6 1.4-3 2.7-4 3.6a7.574 7.574 0 0 1-1.3 1 .781.781 0 0 1-.4.4z" class="cls-2" data-name="Path 1736"/>
                <path id="Path_1737" d="M107.1 159.8a4.331 4.331 0 0 1 .5.1l1.4.5c1.2.4 2.9.9 4.7 1.6s3.5 1.2 4.7 1.6l1.4.5c.2.1.3.1.5.2a4.331 4.331 0 0 1-.5-.1l-1.4-.5c-1.2-.4-2.9-.9-4.7-1.6s-3.5-1.2-4.7-1.6l-1.4-.5a1.69 1.69 0 0 1-.5-.2z" class="cls-2" data-name="Path 1737"/>
                <path id="Path_1738" d="M108.7 178.4a1.854 1.854 0 0 1 .7.2l1.8.6c1.6.5 3.7 1.2 6 1.9l6 2 1.8.6a4.875 4.875 0 0 0 .7.3 1.854 1.854 0 0 1-.7-.2l-1.8-.6c-1.6-.5-3.7-1.2-6-1.9l-6-2-1.8-.6a4.874 4.874 0 0 1-.7-.3z" class="cls-2" data-name="Path 1738"/>
                <path id="Path_1739" d="M125.4 183.8c.2-.2.3-.4.5-.5l1.5-1.4c1.3-1.2 3-2.8 4.9-4.7s3.5-3.6 4.7-4.9l1.4-1.5c.2-.2.3-.4.5-.5a2.652 2.652 0 0 1-.5.6c-.3.4-.8.9-1.4 1.6-1.2 1.3-2.8 3.1-4.7 5s-3.6 3.5-4.9 4.7c-.7.6-1.2 1-1.6 1.4 0-.1-.2 0-.4.2z" class="cls-2" data-name="Path 1739"/>
                <path id="Path_1740" d="M80.3 29.4L75.8 28a4.008 4.008 0 0 1-7.8-.8 4.268 4.268 0 0 1 1.4-3.5c1.1-1 3.1-1.6 5.9-.2l3.1-10-4.4-1.4-1.8 5.8a8.95 8.95 0 0 0-8.7 6.4c-2 6.5 3.3 9.8 5.8 10.6 2 .7 8.6 2.3 11-5.5z" class="cls-2" data-name="Path 1740"/>
                <path id="Rectangle_2153" d="M0 0H4.3V4.7H0z" class="cls-2" data-name="Rectangle 2153" transform="rotate(-72.669 44.227 -45.76)"/>
                <path id="Path_1741" d="M92.5 18.1l1.8-.5a1.6 1.6 0 0 1 1.1-1.9 1.377 1.377 0 0 1 1.6.5 1.6 1.6 0 0 1 .2 1.5 1.99 1.99 0 0 1-2 1.3l1.1 4 1.8-.5-.6-2.3a3.566 3.566 0 0 0 1.6-4 3.286 3.286 0 0 0-4.2-2.3 3.158 3.158 0 0 0-2.4 4.2z" class="cls-2" data-name="Path 1741"/>
                <path id="Rectangle_2154" d="M0 0H1.8V1.7H0z" class="cls-2" data-name="Rectangle 2154" transform="rotate(-14.98 138.124 -356.412)"/>
                <path id="Path_1742" d="M238.9 64l1.7.6a1.553 1.553 0 0 1 2-.9 1.412 1.412 0 0 1 1 1.4 1.974 1.974 0 0 1-.6 1.4 2.052 2.052 0 0 1-2.4 0l-1.4 3.9 1.7.6.8-2.3a3.578 3.578 0 0 0 3.6-2.4 3.341 3.341 0 0 0-2.1-4.3 3.037 3.037 0 0 0-4.3 2z" class="cls-2" data-name="Path 1742"/>
                <path id="Rectangle_2155" d="M0 0H1.7V1.8H0z" class="cls-2" data-name="Rectangle 2155" transform="rotate(-70.092 171.021 -133.616)"/>
                <path id="Path_1743" d="M56 83.7l3.6-1.4a3.381 3.381 0 0 1 5.6-3.5 3.523 3.523 0 0 1 .9 3.1c-.2 1.3-1.2 2.7-3.8 3.2l3.2 8.2 3.6-1.4-1.9-4.8a7.628 7.628 0 0 0 2.4-8.8c-2.1-5.3-7.3-4.7-9.4-3.9-1.6.5-6.8 2.9-4.2 9.3z" class="cls-2" data-name="Path 1743"/>
                <path id="Rectangle_2156" d="M0 0H3.9V3.7H0z" class="cls-2" data-name="Rectangle 2156" transform="rotate(-21.07 288.214 -130.13)"/>
                <path id="Path_1744" d="M240.3 97.6l-2.6 1a2.413 2.413 0 0 1-1.4 3.1 2.147 2.147 0 0 1-2.5-.6 2.518 2.518 0 0 1-.6-2.2 3.135 3.135 0 0 1 2.7-2.3l-2.2-5.8-2.6 1 1.3 3.4a5.42 5.42 0 0 0-1.7 6.3 4.917 4.917 0 0 0 6.6 2.8c1.1-.5 4.8-2.2 3-6.7z" class="cls-2" data-name="Path 1744"/>
                <path id="Rectangle_2157" d="M0 0H2.8V2.6H0z" class="cls-2" data-name="Rectangle 2157" transform="rotate(-21.07 351.902 -573.24)"/>
            </g>
            <g id="freepik--Plant--inject-96">
                <path id="Path_1745" d="M76.1 186.1c.5-1.7-.7-3.3-1.9-4.5s-2.7-2.3-3.3-3.9c-1-2.6.4-5.9-1.4-8.1-1-1.3-2.9-1.7-3.8-3.1a6.806 6.806 0 0 1-.8-2.4 25.178 25.178 0 0 0-6.1-11.5 21.462 21.462 0 0 0 2.4 11.1 14.038 14.038 0 0 1 1.8 4.2c.4 2.5-1 5-.4 7.4.7 2.8 3.8 4.6 3.9 7.5.1 2.4-2 4.5-1.8 6.9a6.467 6.467 0 0 0 1.1 2.9c1.9 3.1 4.6 5.2 8.7 5.2l5.1.2z" class="cls-3" data-name="Path 1745"/>
                <g id="Group_1837" class="cls-4" data-name="Group 1837">
                    <path id="Path_1746" d="M76.1 186.1c.5-1.7-.7-3.3-1.9-4.5s-2.7-2.3-3.3-3.9c-1-2.6.4-5.9-1.4-8.1-1-1.3-2.9-1.7-3.8-3.1a6.806 6.806 0 0 1-.8-2.4 25.178 25.178 0 0 0-6.1-11.5 21.462 21.462 0 0 0 2.4 11.1 14.038 14.038 0 0 1 1.8 4.2c.4 2.5-1 5-.4 7.4.7 2.8 3.8 4.6 3.9 7.5.1 2.4-2 4.5-1.8 6.9a6.467 6.467 0 0 0 1.1 2.9c1.9 3.1 4.6 5.2 8.7 5.2l5.1.2z" data-name="Path 1746"/>
                </g>
                <path id="Path_1747" d="M80.6 198a3.3 3.3 0 0 0 1.4 0 7.492 7.492 0 0 0 1.6-.4 7.815 7.815 0 0 0 2-1.1 2.1 2.1 0 0 0 .8-1.1 3.887 3.887 0 0 0 .2-1.5c0-.5.1-1.1.1-1.6a4.418 4.418 0 0 1 .6-1.6c.6-1.1 1.6-2 1.9-3.5a13.064 13.064 0 0 0-.1-4.4 9.778 9.778 0 0 1 .1-4.8c.6-1.6 1.7-3 2.2-4.8.6-1.8.3-3.8.4-5.7a6.812 6.812 0 0 1 .7-2.8c.4-.9 1-1.7 1.4-2.7a18.557 18.557 0 0 0 1.3-6.2 31.061 31.061 0 0 1 .4-3.2 19.093 19.093 0 0 1 .6-3.3 16.587 16.587 0 0 1 1.2-3.1c.2-.5.4-1.1.6-1.6.1-.6.1-1.2.2-1.8a20.479 20.479 0 0 0-.1-3.5c-.1-1.2-.3-2.3-.5-3.5v-.4l-.2.1a7.542 7.542 0 0 0-2.7 2.3 11.666 11.666 0 0 0-1.7 3.1 42.147 42.147 0 0 0-1.6 6.6 17.658 17.658 0 0 1-2.1 6.1c-.6.9-1.2 1.7-1.8 2.6a7.619 7.619 0 0 0-1.3 2.9c-.3 2.1.9 4 .6 5.9a6.22 6.22 0 0 1-.9 2.6c-.5.8-1 1.6-1.5 2.3a17.611 17.611 0 0 0-1.4 2.3 5.734 5.734 0 0 0-.6 2.5c-.1 1.7.1 3.3 0 4.9a10.309 10.309 0 0 1-1.3 4.2c-.6 1.2-1.3 2.4-1.9 3.5a11.939 11.939 0 0 0-.8 1.6 9.83 9.83 0 0 0-.5 1.6 7.083 7.083 0 0 0 0 2.9 6.657 6.657 0 0 0 1.5 3.7c.1.2.3.3.4.5l.3.3c.5 0 .6.1.5.1a9.017 9.017 0 0 1-.9-1 7.941 7.941 0 0 1-1.4-3.7 9.417 9.417 0 0 1 .1-2.9 4.939 4.939 0 0 1 .5-1.6 11.938 11.938 0 0 1 .8-1.6c.6-1.1 1.3-2.2 1.9-3.5a12.8 12.8 0 0 0 1.3-4.2c.1-1.6-.1-3.2 0-4.9a10.155 10.155 0 0 1 .6-2.5 10.887 10.887 0 0 1 1.4-2.3c.5-.8 1.1-1.5 1.5-2.3a8.8 8.8 0 0 0 1-2.7c.2-2-.9-3.9-.6-5.9a7.674 7.674 0 0 1 1.2-2.8c.6-.9 1.3-1.7 1.8-2.6a16.886 16.886 0 0 0 2.1-6.2 30.27 30.27 0 0 1 1.6-6.6 14.286 14.286 0 0 1 1.6-3 7.84 7.84 0 0 1 2.6-2.2l-.2-.1v.2c.1 1.2.3 2.3.5 3.5a20.184 20.184 0 0 1 .1 3.5 9.852 9.852 0 0 1-.2 1.7 5.228 5.228 0 0 1-.6 1.6 17.549 17.549 0 0 0-1.2 3.2 19.093 19.093 0 0 0-.6 3.3 31.061 31.061 0 0 1-.4 3.2 17.489 17.489 0 0 1-1.3 6.1c-.5.9-1 1.8-1.4 2.7a9.474 9.474 0 0 0-.7 2.9c-.1 2 .1 3.9-.4 5.6s-1.6 3.2-2.2 4.8a9.084 9.084 0 0 0-.1 4.9 13.153 13.153 0 0 1 .2 4.4 12.457 12.457 0 0 1-1.9 3.4 4.923 4.923 0 0 0-.6 1.7 9.7 9.7 0 0 0-.1 1.7 7.719 7.719 0 0 1-.2 1.5 2.836 2.836 0 0 1-.8 1.1 5.64 5.64 0 0 1-2 1.1 9.83 9.83 0 0 1-1.6.5 3.4 3.4 0 0 1-1 .1 1.577 1.577 0 0 0-.4-.1z" class="cls-1" data-name="Path 1747"/>
                <path id="Path_1748" d="M96.6 138.1v.2l-.1.5c-.1.4-.2 1-.4 1.8s-.7 1.6-1.1 2.7a25.329 25.329 0 0 0-1.2 3.6c-.4 1.4-.7 2.9-1.1 4.5a22.4 22.4 0 0 1-1.6 5c-.4.8-.9 1.7-1.3 2.6a9.474 9.474 0 0 0-.7 2.9A59.722 59.722 0 0 1 88 168c-1 4.2-2 8.1-2.9 11.7l-2.4 9.6c-.7 2.7-1.2 4.9-1.6 6.5-.2.7-.3 1.3-.4 1.8 0 .2-.1.3-.1.5v.2a.1.1 0 0 1 .1-.1 4.332 4.332 0 0 0 .1-.5c.1-.4.3-1 .5-1.7.4-1.5 1-3.7 1.7-6.4s1.5-6 2.5-9.5c.9-3.6 1.9-7.6 2.9-11.7a61.682 61.682 0 0 0 1.1-6.2 12.76 12.76 0 0 1 .7-2.8c.4-.9.8-1.7 1.2-2.6a17.056 17.056 0 0 0 1.6-5c.3-1.6.7-3.1 1-4.5a37.761 37.761 0 0 1 1.2-3.6 23.317 23.317 0 0 0 1-2.7c.2-.8.3-1.4.4-1.8 0-.2.1-.3.1-.5-.1-.5 0-.6-.1-.6z" class="cls-1" data-name="Path 1748"/>
                <path id="Path_1749" d="M81.5 198c3.3-2 4.3-8 2.9-11.6s-3.8-6.9-4.2-10.7c-.3-3 .7-6 0-8.9-.9-3.9-4.7-6.9-4.7-10.9 0-2.2 1.3-4.4 1.2-6.6-.1-2.7-2.2-4.9-3.5-7.4-2-3.7-2.1-8.1-2.8-12.2s-2.3-8.6-6-10.7c-.5 3.5-1.5 6-1.2 10.7.1 1.7 2.1 5 2.4 8.8.2 2.3.3 4.5.4 6.8a20.156 20.156 0 0 0 1.1 6.5c.6 1.6 1.6 3 2 4.6.8 3.1-.3 6.3.4 9.4.6 2.6 2.4 4.9 2.8 7.5.5 3.7-1.9 7.6-.7 11.2.6 1.8 2.1 3.2 2.5 5 .3 1.4 0 2.9.3 4.3.5 2.3 4.8 4.1 7.2 3.9" class="cls-3" data-name="Path 1749"/>
                <path id="Path_1750" d="M65.3 122.5v.2a1.759 1.759 0 0 0 .1.6c.1.5.2 1.3.3 2.2a26 26 0 0 0 1.1 3.4q.6 1.95 1.2 4.5c.4 1.7.7 3.6 1 5.6a21.943 21.943 0 0 0 1.7 6.3 32.691 32.691 0 0 1 1.4 3.3 15.277 15.277 0 0 1 .7 3.6 64.8 64.8 0 0 0 1 7.7c1 5.2 2 10.2 2.9 14.8s1.8 8.6 2.5 12 1.3 6.2 1.7 8.1l.5 2.2a1.268 1.268 0 0 1 .1.6c0 .1 0 .1.1.2v-.2a3.536 3.536 0 0 1-.1-.6c-.1-.5-.2-1.3-.4-2.2-.4-1.9-.9-4.7-1.6-8.1s-1.5-7.5-2.4-12-1.8-9.5-2.8-14.8a67.606 67.606 0 0 1-1-7.7 16.089 16.089 0 0 0-.7-3.7 32.691 32.691 0 0 0-1.4-3.3 21.943 21.943 0 0 1-1.7-6.3c-.3-2-.7-3.9-1.1-5.6a35.24 35.24 0 0 0-1.3-4.5 21.943 21.943 0 0 1-1.1-3.4c-.2-.9-.3-1.7-.4-2.2 0-.2-.1-.4-.1-.6-.2.1-.2 0-.2-.1z" class="cls-1" data-name="Path 1750"/>
            </g>
            <g id="freepik--speech-bubble--inject-96">
                <path id="Path_1751" d="M225.2 27.8h-1.8a1.538 1.538 0 0 1-1.5 1.5 1.568 1.568 0 0 1-1.4-.9 1.962 1.962 0 0 1 .1-1.5 2.015 2.015 0 0 1 2.2-.8V22H221v2.4a3.452 3.452 0 0 0-2.5 3.4 3.339 3.339 0 0 0 3.4 3.3 2.922 2.922 0 0 0 3.3-3.3z" class="cls-3" data-name="Path 1751"/>
                <path id="Rectangle_2158" d="M0 0H1.8V1.7H0z" class="cls-3" data-name="Rectangle 2158" transform="translate(220.9 19.6)"/>
                <path id="Path_1752" d="M235.1 25.4V24a1.268 1.268 0 0 0-.1-.6c0-.2-.1-.5-.1-.7l-.2-.8a12.214 12.214 0 0 0-1.6-3.7 13.25 13.25 0 0 0-9.9-6.1 5.437 5.437 0 0 0-1.8 0 2.768 2.768 0 0 0-.9.1l-.9.1a12.564 12.564 0 0 0-3.7 1.3 15.473 15.473 0 0 0-3.3 2.4 14.812 14.812 0 0 0-2.5 3.5 12.1 12.1 0 0 0-1.3 4.2 4.484 4.484 0 0 0-.1 1.1v1.1a13.7 13.7 0 0 0 2.2 6.8v-.1c-.6 1.6-1.3 3.1-1.9 4.6l-.1.3.3-.1 4.9-1.4h-.1a13.3 13.3 0 0 0 5.7 2.5 14.154 14.154 0 0 0 2.9.2c.5 0 .9-.1 1.4-.1l.7-.1a1.854 1.854 0 0 0 .7-.2 13.241 13.241 0 0 0 7.5-5.2 11.388 11.388 0 0 0 1.6-3.1 1.854 1.854 0 0 0 .2-.7c.1-.2.1-.5.2-.7 0-.2.1-.4.1-.6s.1-.4.1-.6c0-.3.1-.7.1-.9v-1.1h-.1v1.3c0 .3-.1.6-.1.9a13.072 13.072 0 0 1-9.8 10.5 1.421 1.421 0 0 0-.6.2l-.7.1a6.15 6.15 0 0 1-1.4.1 8.628 8.628 0 0 1-2.8-.2 13.606 13.606 0 0 1-5.5-2.4h-.2l-4.9 1.4.2.2 1.9-4.6v-.2a15.443 15.443 0 0 1-1.9-4.4 8.329 8.329 0 0 1-.3-2.2V25a4.1 4.1 0 0 1 .1-1.1 12.261 12.261 0 0 1 1.3-4.1 13.139 13.139 0 0 1 2.4-3.4A24.283 24.283 0 0 1 216 14a10.923 10.923 0 0 1 3.6-1.2l.9-.1a2.768 2.768 0 0 0 .9-.1h1.8a13.123 13.123 0 0 1 9.8 5.9 15.585 15.585 0 0 1 1.7 3.7l.2.8c0 .2.1.5.1.7s.1.4.1.6v1.1z" class="cls-2" data-name="Path 1752"/>
            </g>
            <g id="freepik--question-mark--inject-96">
                <path id="Path_1753" d="M99.9 78.9h26.2s0-22 22.8-22.4c11.9-.2 18 7.6 20.5 13.5a23.429 23.429 0 0 1-1.9 21.2c-4.4 7.3-14 14.7-31.7 11.6l-.2 58.3h25.9v-34.6s36.3-9.4 36.3-49.4c0-38.3-31-46.6-47.6-47.1-9.3-.3-12.6-.7-24.1.9-14.4 2.1-26.5 19.1-26.2 48z" class="cls-3" data-name="Path 1753"/>
                <path id="Rectangle_2159" d="M0 0H26.3V24.5H0z" class="cls-3" data-name="Rectangle 2159" transform="translate(135.7 173.3)"/>
                <path id="Rectangle_2160" d="M0 0H26.3V24.5H0z" class="cls-5" data-name="Rectangle 2160" transform="translate(135.7 173.3)"/>
                <path id="Path_1754" d="M99.9 78.9h26.2s0-22 22.8-22.4c11.9-.2 18 7.6 20.5 13.5a23.429 23.429 0 0 1-1.9 21.2c-4.4 7.3-14 14.7-31.7 11.6l-.2 58.3h25.9v-34.6s36.3-9.4 36.3-49.4c0-38.3-31-46.6-47.6-47.1-9.3-.3-12.6-.7-24.1.9-14.4 2.1-26.5 19.1-26.2 48z" class="cls-5" data-name="Path 1754"/>
                <path id="Path_1755" d="M89 78.9h26.2s0-22 22.8-22.4c11.9-.2 18 7.6 20.5 13.5a23.429 23.429 0 0 1-1.9 21.2c-4.4 7.3-14.2 14-31.8 10.9v59h25.9v-34.6s36.3-9.4 36.3-49.4c0-38.3-34.3-47.2-49-47.2-11.2.1-49.5 2.8-49 49z" class="cls-3" data-name="Path 1755"/>
                <path id="Path_1756" d="M89 78.9h26.2s0-22 22.8-22.4c11.9-.2 18 7.6 20.5 13.5a23.429 23.429 0 0 1-1.9 21.2c-4.4 7.3-14.2 14-31.8 10.9v59h25.9v-34.6s36.3-9.4 36.3-49.4c0-38.3-34.3-47.2-49-47.2-11.2.1-49.5 2.8-49 49z" class="cls-6" data-name="Path 1756"/>
                <path id="Rectangle_2161" d="M0 0H26.3V24.5H0z" class="cls-3" data-name="Rectangle 2161" transform="translate(124.8 173.3)"/>
                <path id="Rectangle_2162" d="M0 0H26.3V24.5H0z" class="cls-6" data-name="Rectangle 2162" transform="translate(124.8 173.3)"/>
                <path id="Path_1757" d="M141 56.6h-.4c-.3 0-.6-.1-1.1-.1a18.8 18.8 0 0 0-4.1.2 29.806 29.806 0 0 0-5.9 1.4c-1.1.4-2.2.9-3.3 1.4a17.683 17.683 0 0 0-3.2 2.1 13.738 13.738 0 0 0-2.6 2.8c-.7 1-1.4 2-2 3a24.5 24.5 0 0 0-2.3 5.6 28.318 28.318 0 0 0-.8 4 5.384 5.384 0 0 0-.1 1.1V77a19.554 19.554 0 0 1 .7-4.1 23.486 23.486 0 0 1 2.3-5.7 22.345 22.345 0 0 1 2-3 14.382 14.382 0 0 1 2.7-2.8 18.52 18.52 0 0 1 3.3-2.1c1.1-.6 2.2-1 3.3-1.5a29.166 29.166 0 0 1 6-1.4 18.9 18.9 0 0 1 4.1-.1c.4 0 .7.1 1.1.1.1.1.2.2.3.2z" class="cls-1" data-name="Path 1757"/>
                <path id="Path_1758" d="M180.5 51.9a1.38 1.38 0 0 0-.3-.4l-.9-1.2-.6-.9-.8-1-.9-1.1a11.985 11.985 0 0 0-1.1-1.2 15.932 15.932 0 0 0-1.3-1.3c-.5-.4-1-.9-1.5-1.3-.3-.2-.5-.5-.8-.7l-.8-.7c-.6-.5-1.1-.9-1.8-1.4a67.131 67.131 0 0 0-8.6-5.1l-2.4-1.1-2.4-.9c-.8-.3-1.6-.5-2.3-.8a20.156 20.156 0 0 0-2.3-.7l-2.2-.6c-.7-.2-1.4-.3-2.1-.5a16.247 16.247 0 0 0-1.9-.4l-1.8-.3c-1.1-.2-2.2-.2-3.1-.3-.5 0-.9-.1-1.3-.1.4 0 .8.1 1.3.1.9.1 2 .1 3.1.3l1.8.2a12.859 12.859 0 0 1 1.9.4 8.018 8.018 0 0 1 2.1.5l2.2.6c.8.2 1.5.5 2.3.7a15.546 15.546 0 0 1 2.3.8l2.4.9 2.4 1.1a49.929 49.929 0 0 1 8.6 5.1c.6.5 1.2.9 1.8 1.4l.8.6c.3.2.5.5.8.7l1.5 1.4 1.3 1.3a11.986 11.986 0 0 1 1.1 1.2l.9 1.2.8 1 .6.9a12.251 12.251 0 0 1 .8 1.2l.4.4z" class="cls-1" data-name="Path 1758"/>
                <path id="Path_1759" d="M177.8 108.2c-.1.1-.1.2-.2.3l-.6.7c-.3.3-.6.7-1 1.2a17.906 17.906 0 0 1-1.4 1.5l-1.7 1.7c-.6.6-1.3 1.2-2.1 1.9a55.449 55.449 0 0 1-10.6 7.3c-.9.5-1.7.9-2.5 1.3s-1.6.7-2.2 1c-.7.3-1.3.5-1.9.7s-1 .4-1.4.5l-.9.3c-.1 0-.2.1-.3.1a.367.367 0 0 1 .3-.1l.9-.3a12.13 12.13 0 0 0 1.4-.5c.5-.2 1.2-.5 1.9-.8s1.4-.6 2.2-1 1.6-.8 2.5-1.3c1.7-1 3.6-2.1 5.5-3.4a56.517 56.517 0 0 0 5.1-3.9c.7-.7 1.4-1.3 2.1-1.9l1.7-1.7a19.2 19.2 0 0 0 1.4-1.5c.4-.4.7-.8 1-1.1l.6-.7c0-.2.1-.3.2-.3z" class="cls-1" data-name="Path 1759"/>
                <path id="Path_1760" d="M150.3 159.1c-.1 0-.1-7.3-.1-16.3s.1-16.3.1-16.3c.1 0 .1 7.3.1 16.3.1 9 0 16.3-.1 16.3z" class="cls-1" data-name="Path 1760"/>
                <path id="Path_1761" d="M151.3 196.2c-.1 0-.1-5.1-.1-11.4s0-11.4.1-11.4.1 5.1.1 11.4c.1 6.3 0 11.4-.1 11.4z" class="cls-1" data-name="Path 1761"/>
            </g>
            <g id="freepik--Character--inject-96">
                <path id="Path_1762" d="M177.1 75.4c-.5.9 1.2 1.7 2.2 1.9a10.123 10.123 0 0 0 3 .2 8.3 8.3 0 0 0 3.9-.9 6.294 6.294 0 0 0 2.4-2.7 19.571 19.571 0 0 0 1.2-3.4c.1.1-10.6.8-12.7 4.9z" class="cls-3" data-name="Path 1762"/>
                <g id="Group_1838" class="cls-7" data-name="Group 1838">
                    <path id="Path_1763" d="M177.1 75.4c-.5.9 1.2 1.7 2.2 1.9a10.123 10.123 0 0 0 3 .2 8.3 8.3 0 0 0 3.9-.9 6.294 6.294 0 0 0 2.4-2.7 19.571 19.571 0 0 0 1.2-3.4c.1.1-10.6.8-12.7 4.9z" data-name="Path 1763"/>
                </g>
                <path id="Path_1764" d="M207.4 72.5a10.176 10.176 0 0 0 6 1.9 4.359 4.359 0 0 0 2.9-.9 9.429 9.429 0 0 1 1-1 5.547 5.547 0 0 1 .8-.6.924.924 0 0 0 .3-.9 2.075 2.075 0 0 0-.6-1 7.128 7.128 0 0 0-4.1-.6 14.2 14.2 0 0 0-4.1.8 5.055 5.055 0 0 0-2.8 1.9" class="cls-3" data-name="Path 1764"/>
                <g id="Group_1839" class="cls-7" data-name="Group 1839">
                    <path id="Path_1765" d="M218.4 71a1.765 1.765 0 0 0-.8-.9 6.514 6.514 0 0 0-3.9-.7 14.2 14.2 0 0 0-4.1.8 5.055 5.055 0 0 0-2.8 1.9l.7.4a10.176 10.176 0 0 0 6 1.9 4.359 4.359 0 0 0 2.9-.9 9.429 9.429 0 0 1 1-1 5.547 5.547 0 0 1 .8-.6 2.919 2.919 0 0 0 .2-.9z" data-name="Path 1765"/>
                </g>
                <path id="Path_1766" d="M186.5 88.8l22.6.3a.265.265 0 0 0 .3-.3v-.1l-2.7-8.3s.4-4.1.9-9.1c.8-7.5 1.9-17 1.9-17-1.5-4.3-10.7-5.1-10.7-5.1l-10.4.6-.4-.6-3 1.4a11.781 11.781 0 0 0-1.9 1.1c-2 1.3-6.7 4.4-7.6 7.7-2 7.8 1.4 16.6 1.4 16.6l2.2-1.7c.6-.4 1.1-.8 1.7-1.2l4.4 11.7a2.263 2.263 0 0 0-1 1.5 2.688 2.688 0 0 0 2.3 2.5" class="cls-3" data-name="Path 1766"/>
                <g id="Group_1840" class="cls-4" data-name="Group 1840">
                    <path id="Path_1767" d="M196.2 74.9c.7-3.9.3-7.8 0-11.7-1.3 3.2-1.2 6.8-2.5 9.9a4.179 4.179 0 0 0-.4 1 .905.905 0 0 0 .3 1c.4.3.9.1 1.4.1a3.013 3.013 0 0 0 1.2-.3" data-name="Path 1767"/>
                </g>
                <g id="Group_1841" class="cls-7" data-name="Group 1841">
                    <path id="Path_1768" d="M187.8 83.8c1.8.6 3.7-.5 5.7-.8a16.367 16.367 0 0 1 3.8.4 28.287 28.287 0 0 0 7.7.2 2.016 2.016 0 0 0 1.1-.3 1.382 1.382 0 0 0 .6-1.1c-4.3-.5-8.5-.7-12.8-1.1a8.552 8.552 0 0 0-3.2.1 7.542 7.542 0 0 0-3.2 2.4" data-name="Path 1768"/>
                </g>
                <path id="Path_1769" d="M217.7 69.5c-1.8-4.2-8.4-15.7-8.4-15.7l-5 6.3 1.2 12.4s2.7-3 10.1-3a3.607 3.607 0 0 1 2.8 1.5z" class="cls-3" data-name="Path 1769"/>
                <path id="Path_1770" d="M187.5 67.3c-.4-.9-.6-1.8-.9-2.7a12.662 12.662 0 0 1-.6-2.8 13.818 13.818 0 0 1 .8 2.7 28.636 28.636 0 0 1 .7 2.8z" class="cls-1" data-name="Path 1770"/>
                <path id="Path_1771" d="M204 59.3a1.756 1.756 0 0 1 .5.4 11.986 11.986 0 0 1 1.1 1.2 11.263 11.263 0 0 1 2.4 4.9 7.587 7.587 0 0 1 .1 3c-.1.9-.3 1.7-.4 2.4s-.2 1.3-.2 1.6a1.268 1.268 0 0 1-.1.6v-.6a9.853 9.853 0 0 1 .2-1.7c.1-.7.3-1.5.4-2.4a7.624 7.624 0 0 0-.2-3 12.974 12.974 0 0 0-2.3-4.9c-.9-.9-1.6-1.4-1.5-1.5z" class="cls-1" data-name="Path 1771"/>
                <path id="Path_1772" d="M199.3 87.8a.9.9 0 0 1-.5.1 1.268 1.268 0 0 1-.6.1c-.2 0-.5.1-.8.1a7.388 7.388 0 0 1-2.1 0 22.114 22.114 0 0 1-2.5-.5 15.955 15.955 0 0 1-2.3-1 6.57 6.57 0 0 1-1.7-1.2 2.651 2.651 0 0 0-.6-.5l-.4-.4c-.1-.1-.2-.3-.3-.4a16.429 16.429 0 0 0 1.4 1.2 9.908 9.908 0 0 0 1.7 1.1 15.955 15.955 0 0 0 2.3 1 20.482 20.482 0 0 0 2.4.5 14.084 14.084 0 0 0 2 .1 14.711 14.711 0 0 1 2-.2z" class="cls-1" data-name="Path 1772"/>
                <path id="Path_1773" d="M206.3 85.2a1.445 1.445 0 0 1 .2.7 4.879 4.879 0 0 1-.1 1.7 4.2 4.2 0 0 1-.9 1.4c-.3.3-.6.4-.6.3l.5-.5a3.224 3.224 0 0 0 .8-1.4 9.282 9.282 0 0 0 .1-2.2z" class="cls-1" data-name="Path 1773"/>
                <path id="Path_1774" d="M205.1 86.8a2.446 2.446 0 0 1-1 2.5 3.791 3.791 0 0 0 .6-1.2c.3-.7.3-1.3.4-1.3z" class="cls-1" data-name="Path 1774"/>
                <path id="Path_1775" d="M201 71.9a8.341 8.341 0 0 1-.8 1.2 8.341 8.341 0 0 1-.8 1.2 3.1 3.1 0 0 1 .6-1.3 2.707 2.707 0 0 1 1-1.1z" class="cls-1" data-name="Path 1775"/>
                <path id="Path_1776" d="M185.5 60.9a6.071 6.071 0 0 1-1-.7 12.6 12.6 0 0 0-5.4-2 5.019 5.019 0 0 1-1.2-.2 2.438 2.438 0 0 1 1.2 0 11.429 11.429 0 0 1 5.4 2 3 3 0 0 1 1 .9z" class="cls-1" data-name="Path 1776"/>
                <path id="Path_1777" d="M209.4 53.7c-.8.7-1.6 1.4-2.3 2.1a23.262 23.262 0 0 0-1.7 2.6l.3-.9a7.607 7.607 0 0 1 1.2-1.9 6.122 6.122 0 0 1 1.7-1.5 5.94 5.94 0 0 1 .8-.4z" class="cls-1" data-name="Path 1777"/>
                <path id="Path_1778" d="M200 50c0 .1.1.1.1.2a1.421 1.421 0 0 1 .2.6 5.279 5.279 0 0 1 0 2.5 5.619 5.619 0 0 1-1.9 3.1 6.362 6.362 0 0 1-4.2 1.5 7.065 7.065 0 0 1-4.2-1.4 6.956 6.956 0 0 1-2.3-2.8 8.955 8.955 0 0 1-.8-2.3c0-.2-.1-.4-.1-.7v-.2a3.234 3.234 0 0 0 .2.9 15.545 15.545 0 0 0 .8 2.3 7.542 7.542 0 0 0 2.3 2.7 6.773 6.773 0 0 0 4.1 1.4 6.282 6.282 0 0 0 4-1.4 5.8 5.8 0 0 0 1.8-3 6.473 6.473 0 0 0 .1-2.4 1.522 1.522 0 0 0-.1-1z" class="cls-1" data-name="Path 1778"/>
                <g id="Group_1842" class="cls-4" data-name="Group 1842">
                    <path id="Path_1779" d="M201.6 72.7c0-.2 0-.5-.2-.6a.3.3 0 0 0-.4 0l-.3.3a7.607 7.607 0 0 0-1.2 1.9l2.2-.2c0-.5-.1-1-.1-1.4z" data-name="Path 1779"/>
                </g>
                <g id="Group_1843" class="cls-4" data-name="Group 1843">
                    <path id="Path_1780" d="M209 68a6.73 6.73 0 0 0-1.6-3.4 11.478 11.478 0 0 1 .1 7.1l.1-.3c.6-1.3 1.6-2.1 1.4-3.4z" data-name="Path 1780"/>
                </g>
                <path id="Path_1781" d="M204.6 173.4l-1.4 20.3-8.8-.1-1.4-21.1z" class="cls-8" data-name="Path 1781"/>
                <path id="Path_1782" d="M203.5 191.1v.6s10 4 10.1 5.9l-19.8-.1.3-6.6a11.766 11.766 0 0 0 9.4.2z" class="cls-3" data-name="Path 1782"/>
                <path id="Path_1783" d="M196 193a.875.875 0 0 0-.6.9.779.779 0 0 0 .9.6.832.832 0 0 0 .6-1 .653.653 0 0 0-.9-.5" class="cls-2" data-name="Path 1783"/>
                <path id="Path_1784" d="M193.7 197.4l.1-1.6 19 .7s.9.4.8 1z" class="cls-1" data-name="Path 1784"/>
                <path id="Path_1785" d="M203.5 191.7c0 .1-.5.1-1 .5-.5.3-.7.7-.8.7s.1-.6.6-1c.7-.4 1.3-.3 1.2-.2z" class="cls-1" data-name="Path 1785"/>
                <path id="Path_1786" d="M205.6 192.6c0 .1-.4.3-.7.7s-.4.8-.5.8-.2-.6.3-1 .9-.6.9-.5z" class="cls-1" data-name="Path 1786"/>
                <path id="Path_1787" d="M206.8 195.1c-.1 0-.2-.5 0-1a1.924 1.924 0 0 1 .7-.7 2.8 2.8 0 0 1-.5.8c-.3.4-.1.9-.2.9z" class="cls-1" data-name="Path 1787"/>
                <path id="Path_1788" d="M203 24.7a3.178 3.178 0 0 0-1.2-3.6 5.471 5.471 0 0 0-3.9-.8 15.264 15.264 0 0 0-3.9 1.4 4.406 4.406 0 0 0-6.2 0 3.948 3.948 0 0 0-1.2 2.4 2.774 2.774 0 0 0-3.4 2 2.917 2.917 0 0 0 .1 1.6l6.1 2.2 6.7 11.8a5.316 5.316 0 0 0 7.8-7.1 2.73 2.73 0 0 0 .9-1.2 4.6 4.6 0 0 0 2.2-2.9 4.889 4.889 0 0 0-4-5.8z" class="cls-1" data-name="Path 1788"/>
                <path id="Path_1789" d="M198.9 49.2c-.4-1.9-.6-3.2-.6-3.2s3.6-1.4 3.4-6.5a50.829 50.829 0 0 0-2-9.7c-.8-2.9-3.5-6.1-6.3-5.2l-8.6 4.2c-.9.3-1 1.1-.8 2v.5l3.4 13.9 1.4 6.2a5.312 5.312 0 0 0 5.9 4 5.264 5.264 0 0 0 4.5-5.9c-.3-.1-.3-.2-.3-.3z" class="cls-8" data-name="Path 1789"/>
                <path id="Path_1790" d="M199.6 33.2a.657.657 0 0 1-.5.8.68.68 0 0 1-.8-.4.657.657 0 0 1 .5-.8.632.632 0 0 1 .8.4z" class="cls-1" data-name="Path 1790"/>
                <path id="Path_1791" d="M199.2 32.3c-.1.1-.6-.1-1.3 0s-1.1.6-1.2.5 0-.2.2-.4a1.623 1.623 0 0 1 .9-.5 1.645 1.645 0 0 1 1 .1c.4.1.4.2.4.3z" class="cls-1" data-name="Path 1791"/>
                <path id="Path_1792" d="M193 34.7a.657.657 0 0 1-.5.8.68.68 0 0 1-.8-.4.657.657 0 0 1 .5-.8.632.632 0 0 1 .8.4z" class="cls-1" data-name="Path 1792"/>
                <path id="Path_1793" d="M192.7 33.9c-.1.1-.6-.2-1.3 0s-1.1.6-1.2.5 0-.2.2-.4a2.044 2.044 0 0 1 .9-.5 1.645 1.645 0 0 1 1 .1c.3.1.4.2.4.3z" class="cls-1" data-name="Path 1793"/>
                <path id="Path_1794" d="M196.1 38.1a3.582 3.582 0 0 1 1.1-.4c.2-.1.3-.1.3-.2 0-.2-.1-.3-.2-.5l-.8-1.2a30.368 30.368 0 0 1-1.9-3.2 24.1 24.1 0 0 1 2.1 3l.8 1.2a.844.844 0 0 1 .2.7c0 .1-.1.2-.2.3-.1 0-.2.1-.3.1a3.6 3.6 0 0 1-1.1.2z" class="cls-1" data-name="Path 1794"/>
                <path id="Path_1795" d="M198.3 46a12.459 12.459 0 0 1-6.9-.4s2.4 3.1 7.2 1.6z" class="cls-9" data-name="Path 1795"/>
                <path id="Path_1796" d="M192.8 32.9c0 .2-.7.2-1.5.4s-1.4.5-1.5.3c-.1-.1 0-.3.3-.5a1.606 1.606 0 0 1 1.1-.5 2.438 2.438 0 0 1 1.2 0c.3.1.4.2.4.3z" class="cls-1" data-name="Path 1796"/>
                <path id="Path_1797" d="M199 30.1c-.1.2-.7.1-1.4.3-.7.1-1.2.4-1.4.2-.1-.1 0-.2.2-.5a2.355 2.355 0 0 1 1-.5 1.986 1.986 0 0 1 1.1.1c.4.2.5.3.5.4z" class="cls-1" data-name="Path 1797"/>
                <path id="Path_1798" d="M186.8 25.7a3.549 3.549 0 0 0 4 2.7 1.421 1.421 0 0 0 .6-.2c.7-.3 1.5-.8 2.2-.6.7.3 1 1.3 1.7 1.7 1 .6 2.3-.4 3.4-.3a4.647 4.647 0 0 1 2.3 1.4 2.4 2.4 0 0 0 2.5.6 14.272 14.272 0 0 0-.8-2.2 3.319 3.319 0 0 0-1.7-1.6c-.4-.2-.8-.2-1.2-.4-.8-.4-1.2-1.4-1.8-2.1a3.894 3.894 0 0 0-3.2-1.3c-1 .1-1.9.6-2.9.6a14.6 14.6 0 0 0-2.2-.3c-1.4 0-2.5 1.3-3.3 2.5" class="cls-1" data-name="Path 1798"/>
                <path id="Path_1799" d="M191.6 26.7a4.5 4.5 0 0 1-2.4-.6 3.785 3.785 0 0 0-3.6-1.2 3.212 3.212 0 0 0-2.3 3 4.438 4.438 0 0 0-3.3 3.3 5.5 5.5 0 0 0 1.1 4.8 4.129 4.129 0 0 1 .7 1.1 8.341 8.341 0 0 0-.8 1.2c-1 2.3 1.8 3.2 1.8 3.2 0 1.5 1.4 1.5 2.3 1.5s1.4 2.4 2.1 2.3l-.7-7.5c.1 0 .2.1.3.1 1.7 0 1.3-3.2.7-4.1a10.708 10.708 0 0 0 1.3-2.1 8.222 8.222 0 0 0 .1-3.5 10.274 10.274 0 0 0 2.7-1.5z" class="cls-1" data-name="Path 1799"/>
                <path id="Path_1800" d="M186.8 38.1A1.491 1.491 0 0 0 185 37c-.2.1-.4.1-.6.3-.5.4-.7 1-.4 2.1.7 2.9 3.5 1.6 3.5 1.5z" class="cls-8" data-name="Path 1800"/>
                <path id="Path_1801" d="M186.3 40.1l-.1.1c-.1.1-.2.1-.4.1-.3 0-.7-.5-.9-1a1.1 1.1 0 0 1 0-.8.55.55 0 0 1 .3-.5.192.192 0 0 1 .3.1l.1.1V38c0-.1-.1-.1-.2-.2h-.3a.675.675 0 0 0-.4.6 2.719 2.719 0 0 0 0 .9 1.386 1.386 0 0 0 1.1 1.1c.2 0 .3-.1.5-.2v-.1z" class="cls-9" data-name="Path 1801"/>
                <path id="Path_1802" d="M202.4 34.1a2.3 2.3 0 0 0 .6-.7 4.648 4.648 0 0 0 .9-2.3 3.333 3.333 0 0 0-.2-1.7 4.355 4.355 0 0 0-1-1.6 4.224 4.224 0 0 0-4.2-.8.758.758 0 0 0-.4.2c-.1.1-.2.1-.4.2l-.2.1v-.2a1.284 1.284 0 0 0-.4-1 1.456 1.456 0 0 0-.9-.6 2.51 2.51 0 0 0-1.9-.1c-1.3.3-2.3.9-3.3 1a3.153 3.153 0 0 1-2.3-.5c-.2-.1-.3-.3-.5-.5a.31.31 0 0 1-.1-.2l.6.6a3.365 3.365 0 0 0 2.2.4 8.8 8.8 0 0 0 1.5-.5l1.8-.6a3.4 3.4 0 0 1 1-.1 4.253 4.253 0 0 1 1.1.2 2.016 2.016 0 0 1 .9.7 1.5 1.5 0 0 1 .4 1.1l-.2-.1.6-.1c.1-.1.3-.1.4-.2a4.436 4.436 0 0 1 4.4.9 4.517 4.517 0 0 1 1.1 1.7 4.371 4.371 0 0 1-.9 4.1c-.1.2-.3.3-.5.5z" class="cls-10" data-name="Path 1802"/>
                <path id="Path_1803" d="M201.8 23.8a1.613 1.613 0 0 0-.9-.3 1.986 1.986 0 0 0-1.1.1 1.548 1.548 0 0 0-1.1.8l-.1.2-.1-.2a3.626 3.626 0 0 0-2.8-2.1 4.49 4.49 0 0 0-2.7.8 21.159 21.159 0 0 1-2.1 1.1 2.966 2.966 0 0 1-1.6.2c-.1 0-.3-.1-.4-.1a.1.1 0 0 1-.1-.1 1.452 1.452 0 0 0 .6.1 7.719 7.719 0 0 0 1.5-.2A21.161 21.161 0 0 0 193 23a5.171 5.171 0 0 1 1.3-.6 3.887 3.887 0 0 1 1.5-.2 3.5 3.5 0 0 1 2.9 2.2h-.2a3.045 3.045 0 0 1 1.3-.9 4.869 4.869 0 0 1 1.2-.1.908.908 0 0 1 .7.3.1.1 0 0 1 .1.1z" class="cls-10" data-name="Path 1803"/>
                <path id="Path_1804" d="M195.9 39.5a.778.778 0 0 0-.8-.2 1.555 1.555 0 0 0-.8.6.367.367 0 0 0-.1.3.634.634 0 0 0 .5.6 1.063 1.063 0 0 0 1.2-.2.785.785 0 0 0 0-1.1z" class="cls-3" data-name="Path 1804"/>
                <path id="Path_1805" d="M196.1 40.9a1.237 1.237 0 0 1-.2-.3 1.488 1.488 0 0 0-1.5-.7 1.034 1.034 0 0 0-.4.1 1.238 1.238 0 0 1 .3-.2 1.183 1.183 0 0 1 1 .1 1.208 1.208 0 0 1 .7.7.494.494 0 0 1 .1.3z" class="cls-1" data-name="Path 1805"/>
                <path id="Path_1806" d="M186.8 41.4a.931.931 0 0 1 0 .6 1.205 1.205 0 0 1-.5.5.755.755 0 0 1-.8-.1.842.842 0 0 1-.4-.7 1.421 1.421 0 0 1 .2-.6.646.646 0 0 1 .5-.3 1.2 1.2 0 0 0-.4.4.9.9 0 0 0-.1.5.85.85 0 0 0 .3.5 1.268 1.268 0 0 0 .6.1 1.38 1.38 0 0 0 .4-.3 1.191 1.191 0 0 0 .2-.6z" class="cls-3" data-name="Path 1806"/>
                <path id="Path_1807" d="M185.3 41.3a.355.355 0 0 1-.2.3.63.63 0 0 1-.8-.3.3.3 0 0 1 0-.4c0-.1.1-.2.2-.3q.3-.15.3 0l-.2.2a.377.377 0 0 0 .1.6.367.367 0 0 0 .3.1c.2-.2.3-.3.3-.2z" class="cls-3" data-name="Path 1807"/>
                <path id="Path_1808" d="M190.3 81.5s11.2.7 17.9.7c5.1 0 7.4-1.3 8.5-4.6.9-2.8-1-8.1-1-8.1a17.944 17.944 0 0 0-7.9 1.5l.6 2.4-18.1 1.6z" class="cls-8" data-name="Path 1808"/>
                <path id="Path_1809" d="M212.1 76.1a13.651 13.651 0 0 0-1.7-1.7 14.722 14.722 0 0 0-2.2-1 1.7 1.7 0 0 1 .7.1 4.594 4.594 0 0 1 1.6.7 3.447 3.447 0 0 1 1.2 1.2 1.127 1.127 0 0 1 .4.7z" class="cls-9" data-name="Path 1809"/>
                <path id="Path_1810" d="M186.2 71.1a20.613 20.613 0 0 0-6 2.5l2.7 7.4a4.252 4.252 0 0 0 5.9 2.4c3.4-2 4.6-7.6 4.6-7.6l3.8-16.3-6.2-3.9-4.8 15.5" class="cls-8" data-name="Path 1810"/>
                <path id="Path_1811" d="M190.9 55.5l.3-5.4-1.4-5.4a.94.94 0 0 1 .1-.9.6.6 0 0 1 .8 0 49.031 49.031 0 0 1 2.2 5.1 23.233 23.233 0 0 1 3.2-1.7c.5-.1 1.1 1.4 1.1 1.5v1s1.7 0 1.9.3a7.844 7.844 0 0 1 .2 1.4s.7.2.8.8c.1.5.3 1.4 0 1.6s-1.1.6-1.1.6-.3 2.8-.4 3-1.7 1.8-1.7 1.8z" class="cls-8" data-name="Path 1811"/>
                <path id="Path_1812" d="M185.1 83.4a4.2 4.2 0 0 0 .5.2 2.917 2.917 0 0 0 1.6.1 3.84 3.84 0 0 0 2.3-1.1 11.332 11.332 0 0 0 2.2-2.7 10.837 10.837 0 0 0 .8-1.9c.2-.7.4-1.4.6-2.2.4-1.5.7-3.2 1.1-4.9.8-3.5 1.7-7.4 2.7-11.6l.9-.9.5-.5c.1-.1.1-.2.2-.3 0-.1.1-.2.1-.3.1-.9.2-1.8.3-2.8v-.1h.1l.9-.5a.349.349 0 0 0 .2-.1l.1-.1v-.5a3.553 3.553 0 0 0-.2-1 1.344 1.344 0 0 0-.7-.6h-.1v-.1a2.2 2.2 0 0 0-.1-.8.6.6 0 0 0-.1-.4c0-.1 0-.1-.1-.2h-.1a8.807 8.807 0 0 0-1.7-.2h-.1v-1c0-.1-.1-.2-.1-.3s-.1-.2-.2-.3a2.092 2.092 0 0 0-.4-.6c-.1-.1-.1-.2-.2-.2-.1-.1-.2-.1-.2 0l-.6.3c-.8.5-1.7.9-2.5 1.4l-.1.1v-.1c-.4-1.1-.9-2.1-1.3-3.2-.2-.5-.4-1-.6-1.6a1.205 1.205 0 0 0-.5-.5.481.481 0 0 0-.6.2.367.367 0 0 0-.1.3c0 .1.1.3.1.4.1.3.1.5.2.8.1.5.3 1 .4 1.5.3 1 .5 2 .8 3-.1 1.9-.2 3.6-.3 5.4l-4 13.5-1.2 3.7a6.213 6.213 0 0 1-.3 1 .774.774 0 0 0-.1.3.774.774 0 0 1 .1-.3l.3-1c.3-.9.6-2.1 1.1-3.8 1-3.2 2.4-7.9 4.1-13.5.1-1.7.2-3.5.2-5.4-.3-1-.5-2-.8-3l-.4-1.5c-.1-.3-.1-.5-.2-.8 0-.1-.1-.3-.1-.4a.9.9 0 0 1 .1-.5c.1-.1.2-.3.4-.3a1.02 1.02 0 0 1 .9.2.52.52 0 0 1 .2.4l.6 1.6c.4 1 .8 2.1 1.3 3.2l-.2-.1a20.131 20.131 0 0 1 2.5-1.4 4.875 4.875 0 0 1 .7-.3h.2c.1 0 .2 0 .2.1l.3.3a2.092 2.092 0 0 1 .4.6c.1.1.1.2.2.3a.6.6 0 0 1 .1.4v.9l-.1-.1a8.806 8.806 0 0 1 1.7.2h.1l.1.1a.349.349 0 0 0 .1.2.6.6 0 0 0 .1.4 2.2 2.2 0 0 0 .1.8l-.1-.1a1.6 1.6 0 0 1 .9.7 3.6 3.6 0 0 1 .2 1.1v.5c0 .1-.1.2-.2.3a.349.349 0 0 0-.2.1l-.9.4.1-.1c-.1.9-.2 1.9-.3 2.8v.2c0 .1 0 .1-.1.2s-.1.2-.2.3l-.5.5-.9.9V59c-1 4.2-1.9 8.1-2.8 11.6-.4 1.7-.8 3.4-1.2 4.9-.2.7-.4 1.5-.6 2.2a6.632 6.632 0 0 1-.9 1.9 9.658 9.658 0 0 1-2.2 2.7 5.282 5.282 0 0 1-2.4 1.1 2.966 2.966 0 0 1-1.6-.2.758.758 0 0 1-.4-.2z" class="cls-9" data-name="Path 1812"/>
                <path id="Path_1813" d="M197.3 49.8a1 1 0 0 0-.4.1 2.769 2.769 0 0 0-.9.1 2.01 2.01 0 0 0-.8.4c-.2.2-.2.3-.3.3s0-.2.1-.4a1.374 1.374 0 0 1 .8-.5 1.7 1.7 0 0 1 1 0z" class="cls-9" data-name="Path 1813"/>
                <path id="Path_1814" d="M196 49.9c-.1 0-.1-.2 0-.3s.2-.3.2-.2c.1 0 .1.2 0 .3z" class="cls-9" data-name="Path 1814"/>
                <path id="Path_1815" d="M199.4 51.5a5.9 5.9 0 0 1-1.4.2.909.909 0 0 0-.8.4.774.774 0 0 0-.1.3s-.1-.1 0-.4a1.38 1.38 0 0 1 .3-.4c.2-.1.4-.1.5-.2a6.622 6.622 0 0 1 1.5.1z" class="cls-9" data-name="Path 1815"/>
                <path id="Path_1816" d="M199.1 53.2c.1 0 .1.3.1.7a2.442 2.442 0 0 1-.1.7 2.767 2.767 0 0 1-.1-.8 2.18 2.18 0 0 1 .1-.6z" class="cls-9" data-name="Path 1816"/>
                <path id="Path_1817" d="M177.4 57.4a3.609 3.609 0 0 0-.4.5 4.924 4.924 0 0 0-.6 1.7 12.213 12.213 0 0 0-.1 2.7 19.273 19.273 0 0 0 .3 3.3 41.732 41.732 0 0 0 1 6c.2.8.3 1.4.4 1.8 0 .2.1.3.1.5v.2a.31.31 0 0 0-.1-.2 4.331 4.331 0 0 1-.1-.5c-.1-.4-.3-1-.5-1.8-.4-2-.8-4-1-6-.1-1.2-.2-2.3-.2-3.3a12.212 12.212 0 0 1 .1-2.7 3.63 3.63 0 0 1 .7-1.7 1 1 0 0 1 .4-.5z" class="cls-2" data-name="Path 1817"/>
                <path id="Path_1818" d="M186.9 51.2l-.1.1-.3.1a6.4 6.4 0 0 0-1.1.6c-1.2.7-2.3 1.4-3.4 2.1-1.3.9-2.4 1.7-3.3 2.3l-1 .7-.3.2a.1.1 0 0 0-.1.1l.1-.1.3-.2 1-.7c.8-.6 2-1.5 3.3-2.4a23.944 23.944 0 0 1 3.4-2.1c.5-.2.8-.4 1.1-.5l.3-.1z" class="cls-2" data-name="Path 1818"/>
                <path id="Path_1819" d="M208.6 54.2l-.3-.2c-.3-.2-.5-.4-.8-.6a15.934 15.934 0 0 0-2.9-1.5c-1-.4-2.1-.7-3.1-1a4.4 4.4 0 0 0-1-.2l-.3-.1h.3a5.755 5.755 0 0 1 1 .2 28.114 28.114 0 0 1 3.1 1 15.934 15.934 0 0 1 2.9 1.5 3.126 3.126 0 0 1 1.1.9z" class="cls-2" data-name="Path 1819"/>
                <path id="Path_1820" d="M187.1 88.8c-.1 0-.1 0-.2-.1-.2-.1-.3-.2-.5-.2a2.56 2.56 0 0 1-1-1.3 2.532 2.532 0 0 1 .2-1.7c.1-.2.2-.3.3-.5l.1-.1-.3.6a2.22 2.22 0 0 0-.1 1.6 2.379 2.379 0 0 0 .9 1.3 1.716 1.716 0 0 0 .6.4z" class="cls-2" data-name="Path 1820"/>
                <path id="Path_1821" d="M185.6 83.9a1.421 1.421 0 0 1 .2.6 1.268 1.268 0 0 1 .1.6 1.421 1.421 0 0 1-.2-.6c0-.2-.1-.4-.1-.6z" class="cls-2" data-name="Path 1821"/>
                <path id="Path_1822" d="M191.8 185.5l13.8-.1-.2-47.8-.2-48.6-18.7-.2-3.4 6.3a21.866 21.866 0 0 0-2.6 8.2c-.2 2.2 1.4 9.4 2 11.2l5.2 16.4z" class="cls-1" data-name="Path 1822"/>
                <path id="Path_1823" d="M209.3 89.1l15.2 41.4a19.282 19.282 0 0 1-1.9 16.2L205 181.2l-9.9-12.4 14.8-30.8-13-21.1 2.2-27.7 6.1-.1z" class="cls-1" data-name="Path 1823"/>
                <path id="Path_1824" d="M203.9 102.9v.8c0 .6.1 1.4.1 2.4.1 2.1.2 5.1.5 8.8.2 3.7.4 8.2.6 13.1.1 2.5.2 5.1.3 7.7.1 1.4 0 2.7.1 4.1s0 2.8 0 4.2v38c0-2.1 0-5.1-.1-8.8 0-7.5-.1-17.8-.1-29.2v-4.2c0-1.4 0-2.8-.1-4.1-.1-2.7-.2-5.3-.3-7.7-.2-4.9-.4-9.4-.6-13.1s-.3-6.7-.4-8.8c0-1-.1-1.8-.1-2.4v-.6c.2-.1.1-.2.1-.2z" class="cls-10" data-name="Path 1824"/>
                <path id="Path_1825" d="M203.6 89.9a.749.749 0 0 1 .1.5 7.385 7.385 0 0 0 .2 1.2c.1 1 .2 2.5.3 4.1s.1 3.1.1 4.1a4.888 4.888 0 0 1-.1 1.3.9.9 0 0 1-.1.5 9.7 9.7 0 0 1-.1-1.7c0-1.1 0-2.5-.1-4.1s-.2-3.1-.2-4.1a11.485 11.485 0 0 1-.1-1.8z" class="cls-10" data-name="Path 1825"/>
                <path id="Path_1826" d="M200.5 90.8a.727.727 0 0 0-.1 1.1.592.592 0 0 0 .7.1.675.675 0 0 0 .4-.6.55.55 0 0 0-.3-.5 1.483 1.483 0 0 0-.7-.1s0-.1.2-.1h.5c.3.1.4.4.5.6a.961.961 0 0 1-.7.9 1.445 1.445 0 0 1-.7-.2.663.663 0 0 1-.2-.7c0-.2.1-.3.3-.4z" class="cls-10" data-name="Path 1826"/>
                <path id="Path_1827" d="M193.3 90a.749.749 0 0 1 .1.5 2.437 2.437 0 0 1 0 1.2 6.07 6.07 0 0 1-.5 1.8 4.548 4.548 0 0 1-3.5 2.5 3.673 3.673 0 0 1-1.8-.1 5.637 5.637 0 0 1-1.2-.4c-.1-.1-.3-.2-.4-.3a7.494 7.494 0 0 0 1.6.5 4.713 4.713 0 0 0 5.6-3.7.6.6 0 0 1 .1-.4 4.305 4.305 0 0 0 0-1.6z" class="cls-10" data-name="Path 1827"/>
                <path id="Path_1828" d="M211.1 94a2.769 2.769 0 0 1-.9-.1 4.185 4.185 0 0 1-1.8-1.1 4.351 4.351 0 0 1-1-1.9 1.387 1.387 0 0 1 0-.9 2.4 2.4 0 0 0 .2.8 4.687 4.687 0 0 0 2.6 2.9c.6.2.9.2.9.3z" class="cls-10" data-name="Path 1828"/>
                <path id="Path_1829" d="M216.5 138.6a1.555 1.555 0 0 1-.8.6 4.672 4.672 0 0 1-1 .5 3.3 3.3 0 0 1-1.4 0 3.581 3.581 0 0 1-1.9-1.5 4.054 4.054 0 0 1-.5-.9 5.716 5.716 0 0 1 .7.8 4.5 4.5 0 0 0 1.9 1.4 3.064 3.064 0 0 0 2.3-.3c.1-.3.4-.4.7-.6z" class="cls-10" data-name="Path 1829"/>
                <path id="Path_1830" d="M213 141.3a21.963 21.963 0 0 1-1.4-1.8 9.974 9.974 0 0 1-1.2-1.9 21.963 21.963 0 0 1 1.4 1.8 6.15 6.15 0 0 1 1.2 1.9z" class="cls-10" data-name="Path 1830"/>
                <path id="Path_1831" d="M189.8 104.5c-.1 0-.2-.2-.4-.6-.1-.3-.2-.6-.1-.7.1 0 .2.2.4.6a.979.979 0 0 1 .1.7z" class="cls-2" data-name="Path 1831"/>
                <path id="Path_1832" d="M198.6 105.8c-.1 0-.1-.2-.1-.5s0-.5.1-.5.1.2.1.5a1.214 1.214 0 0 1-.1.5z" class="cls-2" data-name="Path 1832"/>
                <path id="Path_1833" d="M195 110.6c-.1 0-.1-.3-.2-.6 0-.3 0-.6.1-.6s.1.3.2.6a2.18 2.18 0 0 1-.1.6z" class="cls-2" data-name="Path 1833"/>
                <path id="Path_1834" d="M188.4 114.1c-.1 0-.2-.1-.5-.3-.2-.2-.5-.3-.5-.4s.3 0 .6.2a1.076 1.076 0 0 1 .4.5z" class="cls-2" data-name="Path 1834"/>
                <path id="Path_1835" d="M200 118.5c-.1 0 0-.2.2-.5l.3-.3a1.01 1.01 0 0 1-.2.5.747.747 0 0 1-.3.3z" class="cls-2" data-name="Path 1835"/>
                <path id="Path_1836" d="M192.8 119.8c-.1 0-.1-.4-.1-.8a2.767 2.767 0 0 1 .1-.8 3.784 3.784 0 0 1 .1.8c0 .4 0 .8-.1.8z" class="cls-2" data-name="Path 1836"/>
                <path id="Path_1837" d="M190.5 124.9a4.708 4.708 0 0 1-.5-.2c-.3-.2-.5-.4-.4-.4.1-.1.3.1.5.2s.4.3.4.4z" class="cls-2" data-name="Path 1837"/>
                <path id="Path_1838" d="M197.7 126.6q0 .15-.3.3a1 1 0 0 1-.4.1q0-.15.3-.3a1 1 0 0 1 .4-.1z" class="cls-2" data-name="Path 1838"/>
                <path id="Path_1839" d="M192.8 134.9c-.1 0-.3-.3-.5-.8s-.4-.9-.3-.9.3.3.5.8.4.9.3.9z" class="cls-2" data-name="Path 1839"/>
                <path id="Path_1840" d="M200.8 134.2c-.1 0 0-.3.2-.7.2-.3.4-.6.5-.6s0 .3-.2.7c-.2.3-.4.6-.5.6z" class="cls-2" data-name="Path 1840"/>
                <path id="Path_1841" d="M197.3 141.2c-.1 0-.1-.4-.1-.8s-.2-.8-.1-.8.3.3.4.8c0 .4-.1.8-.2.8z" class="cls-2" data-name="Path 1841"/>
                <path id="Path_1842" d="M193.5 145.2a1.076 1.076 0 0 1-.5-.4c-.2-.3-.4-.5-.3-.5a1.076 1.076 0 0 1 .5.4c.2.2.4.4.3.5z" class="cls-2" data-name="Path 1842"/>
                <path id="Path_1843" d="M202.7 146.7a1.076 1.076 0 0 1 .4-.5 2.22 2.22 0 0 1 .5-.4 1.076 1.076 0 0 1-.4.5c-.2.3-.5.5-.5.4z" class="cls-2" data-name="Path 1843"/>
                <path id="Path_1844" d="M197.4 152.7c-.1 0-.1-.4 0-.8s.2-.7.2-.7a1.858 1.858 0 0 1 0 .8c0 .4-.1.7-.2.7z" class="cls-2" data-name="Path 1844"/>
                <path id="Path_1845" d="M193.9 155.6c-.1 0-.3-.2-.5-.5s-.3-.6-.2-.6.3.2.5.5.3.6.2.6z" class="cls-2" data-name="Path 1845"/>
                <path id="Path_1846" d="M202.4 159.3c0 .1-.2.3-.5.5s-.6.4-.7.3c0-.1.2-.3.5-.5a2.6 2.6 0 0 1 .7-.3z" class="cls-2" data-name="Path 1846"/>
                <path id="Path_1847" d="M195.3 164.1c-.1 0 0-.4.1-.8.1-.5 0-.8.1-.8s.2.4.1.9-.2.7-.3.7z" class="cls-2" data-name="Path 1847"/>
                <path id="Path_1848" d="M198.2 170.9c-.1 0-.2-.1-.4-.3s-.3-.5-.2-.5a1.727 1.727 0 0 1 .4.3 4.206 4.206 0 0 0 .2.5z" class="cls-2" data-name="Path 1848"/>
                <path id="Path_1849" d="M195.1 175.5q-.15 0-.6-.6a2.767 2.767 0 0 1-.4-.7 2.764 2.764 0 0 1 .6.6 7.231 7.231 0 0 0 .4.7z" class="cls-2" data-name="Path 1849"/>
                <path id="Path_1850" d="M203.6 169.8c-.1 0-.1-.2 0-.4a1.238 1.238 0 0 1 .2-.3.483.483 0 0 1 0 .4 1.238 1.238 0 0 1-.2.3z" class="cls-2" data-name="Path 1850"/>
                <path id="Path_1851" d="M199.8 180.7c-.1 0 .1-.4.1-.8.1-.4.1-.7.2-.7s.1.4 0 .8-.2.8-.3.7z" class="cls-2" data-name="Path 1851"/>
                <path id="Path_1852" d="M202.3 110.6c-.1 0-.2-.2-.3-.4-.1-.3-.2-.5-.1-.5s.2.2.3.4a1.338 1.338 0 0 1 .1.5z" class="cls-2" data-name="Path 1852"/>
                <path id="Path_1853" d="M196 96.5c0 .1-.3.3-.6.7a7.282 7.282 0 0 1-.6.7c-.1 0 .1-.5.5-.8s.6-.6.7-.6z" class="cls-2" data-name="Path 1853"/>
                <path id="Path_1854" d="M201.6 96.4c-.1 0-.2-.3-.3-.6a2.829 2.829 0 0 1-.3-.6 2.043 2.043 0 0 1 .5.5 2.252 2.252 0 0 1 .1.7z" class="cls-2" data-name="Path 1854"/>
                <path id="Path_1855" d="M184.1 101c-.1 0 0-.3.1-.7.1-.3.3-.6.4-.6s0 .3-.1.7-.3.6-.4.6z" class="cls-2" data-name="Path 1855"/>
                <path id="Path_1856" d="M184.7 107.8a2.829 2.829 0 0 1-.6-.3c-.3-.2-.5-.5-.4-.5a1.546 1.546 0 0 1 .6.3 1.076 1.076 0 0 1 .4.5z" class="cls-2" data-name="Path 1856"/>
                <path id="Path_1857" d="M196.1 91.1c-.1 0-.2-.1-.3-.4a1.338 1.338 0 0 1-.1-.5c.1 0 .2.1.3.4.2.3.2.5.1.5z" class="cls-2" data-name="Path 1857"/>
                <path id="Path_1858" d="M207.1 94.4c-.1 0-.1-.3 0-.6l.2-.6a1.056 1.056 0 0 1 0 .6c-.1.3-.1.6-.2.6z" class="cls-2" data-name="Path 1858"/>
                <path id="Path_1859" d="M209.7 99.6c-.1 0 0-.4.2-.8s.3-.7.4-.7 0 .4-.2.8-.3.7-.4.7z" class="cls-2" data-name="Path 1859"/>
                <path id="Path_1860" d="M207.9 103.8c-.1 0-.3-.3-.5-.7a4.418 4.418 0 0 1-.3-.8c.1 0 .3.3.5.7a4.418 4.418 0 0 1 .3.8z" class="cls-2" data-name="Path 1860"/>
                <path id="Path_1861" d="M211.8 108c-.1 0 0-.3.1-.6a1.409 1.409 0 0 1 .3-.5 2.142 2.142 0 0 1-.1.6c-.1.3-.2.5-.3.5z" class="cls-2" data-name="Path 1861"/>
                <path id="Path_1862" d="M208.3 112.1q-.15 0-.3-.3c-.1-.2-.2-.4-.1-.4s.2.1.3.3a.756.756 0 0 1 .1.4z" class="cls-2" data-name="Path 1862"/>
                <path id="Path_1863" d="M209 120.5a4.432 4.432 0 0 1-.6-.5 1.791 1.791 0 0 1-.5-.7 4.432 4.432 0 0 1 .6.5c.4.4.6.7.5.7z" class="cls-2" data-name="Path 1863"/>
                <path id="Path_1864" d="M213.6 115.7a4.432 4.432 0 0 1-.6-.5 1.259 1.259 0 0 1-.4-.7c0-.1.3.2.6.5s.5.6.4.7z" class="cls-2" data-name="Path 1864"/>
                <path id="Path_1865" d="M216.1 122.4c-.1 0 0-.4.2-.8s.4-.7.5-.7 0 .4-.2.8-.4.7-.5.7z" class="cls-2" data-name="Path 1865"/>
                <path id="Path_1866" d="M210.8 127.9c-.1 0-.3-.2-.6-.5s-.6-.5-.5-.5c0-.1.4.1.7.3a1.259 1.259 0 0 1 .4.7z" class="cls-2" data-name="Path 1866"/>
                <path id="Path_1867" d="M211.1 133.6c0 .1-.2.1-.5.1a1.213 1.213 0 0 1-.5-.1c0-.1.2-.1.5-.1.3-.1.5 0 .5.1z" class="cls-2" data-name="Path 1867"/>
                <path id="Path_1868" d="M216.6 132c-.1 0 .1-.3.1-.7.1-.4.1-.7.2-.7s.1.3 0 .7-.2.7-.3.7z" class="cls-2" data-name="Path 1868"/>
                <path id="Path_1869" d="M222.1 133.9c-.1 0-.2-.3-.4-.7l-.2-.8c.1 0 .2.3.4.7s.3.8.2.8z" class="cls-2" data-name="Path 1869"/>
                <path id="Path_1870" d="M221.2 141.7c-.1 0 .1-.4.3-.9s.5-.8.5-.7c.1 0-.1.4-.3.8-.2.5-.4.8-.5.8z" class="cls-2" data-name="Path 1870"/>
                <path id="Path_1871" d="M216.2 146.3c-.1 0-.2-.3-.4-.7s-.3-.8-.2-.8.2.3.4.7.3.8.2.8z" class="cls-2" data-name="Path 1871"/>
                <path id="Path_1872" d="M210.7 148c0 .1-.2.1-.4.1a1.034 1.034 0 0 1-.4-.1.85.85 0 0 1 .8 0z" class="cls-2" data-name="Path 1872"/>
                <path id="Path_1873" d="M213.9 155.3q-.15 0-.3-.6a.82.82 0 0 1 0-.7q.15 0 .3.6z" class="cls-2" data-name="Path 1873"/>
                <path id="Path_1874" d="M209.9 152.9c-.1 0 0-.2.1-.5.1-.2.3-.4.4-.4s0 .2-.1.5a.683.683 0 0 1-.4.4z" class="cls-2" data-name="Path 1874"/>
                <path id="Path_1875" d="M209.8 160.9c-.1 0-.2-.3-.2-.7v-.7c.1 0 .2.3.2.7z" class="cls-2" data-name="Path 1875"/>
            </g>
        </g>
    </g>
</svg>
